<svg width="197" height="160" viewBox="0 0 197 160" fill="none" xmlns="http://www.w3.org/2000/svg">
<path d="M128.641 3.90469C128.156 2.75448 127.345 1.77155 126.308 1.07753C125.271 0.383521 124.053 0.00889035 122.805 0H6.31468C4.6402 0.000898657 3.03454 0.666484 1.8505 1.85052C0.666464 3.03456 0.000898657 4.6402 0 6.31468V153.685C0.000898658 155.36 0.666464 156.965 1.8505 158.149C3.03454 159.333 4.6402 159.999 6.31468 160H122.809C124.483 159.998 126.088 159.332 127.272 158.148C128.455 156.964 129.121 155.359 129.124 153.685V6.31468C129.126 5.48746 128.964 4.66806 128.645 3.90469H128.641ZM127.717 153.685C127.715 154.988 127.197 156.236 126.276 157.157C125.356 158.078 124.107 158.596 122.805 158.598H6.31468C5.01205 158.597 3.76281 158.08 2.84164 157.159C1.92046 156.238 1.40276 154.989 1.40231 153.686V6.31552C1.40408 5.01323 1.92218 3.76479 2.84304 2.84393C3.7639 1.92307 5.01238 1.40493 6.31468 1.40315H122.809C123.79 1.40688 124.748 1.70281 125.56 2.2532C126.372 2.80359 127.002 3.58348 127.368 4.49333C127.44 4.67463 127.502 4.85962 127.553 5.04753C127.665 5.46097 127.721 5.88732 127.721 6.31552L127.717 153.685Z" fill="#002C46"/>
<path d="M104.331 34.7936H69.2422C68.8732 34.7942 68.5077 34.722 68.1666 34.5812C67.8255 34.4404 67.5155 34.2337 67.2544 33.973C66.9933 33.7123 66.7861 33.4026 66.6448 33.0617C66.5034 32.7209 66.4307 32.3555 66.4307 31.9865C66.4307 31.6175 66.5034 31.2521 66.6448 30.9112C66.7861 30.5703 66.9933 30.2607 67.2544 29.9999C67.5155 29.7392 67.8255 29.5325 68.1666 29.3917C68.5077 29.2509 68.8732 29.1787 69.2422 29.1793H104.331C104.7 29.1787 105.065 29.2509 105.406 29.3917C105.747 29.5325 106.057 29.7392 106.318 29.9999C106.58 30.2607 106.787 30.5703 106.928 30.9112C107.069 31.2521 107.142 31.6175 107.142 31.9865C107.142 32.3555 107.069 32.7209 106.928 33.0617C106.787 33.4026 106.58 33.7123 106.318 33.973C106.057 34.2337 105.747 34.4404 105.406 34.5812C105.065 34.722 104.7 34.7942 104.331 34.7936Z" fill="#002C46"/>
<path d="M104.331 49.5309H69.2422C68.8732 49.5315 68.5077 49.4593 68.1666 49.3184C67.8255 49.1776 67.5155 48.9709 67.2544 48.7102C66.9933 48.4495 66.7861 48.1398 66.6448 47.799C66.5034 47.4581 66.4307 47.0927 66.4307 46.7237C66.4307 46.3547 66.5034 45.9893 66.6448 45.6484C66.7861 45.3076 66.9933 44.9979 67.2544 44.7372C67.5155 44.4764 67.8255 44.2697 68.1666 44.1289C68.5077 43.9881 68.8732 43.9159 69.2422 43.9165H104.331C104.7 43.9159 105.065 43.9881 105.406 44.1289C105.747 44.2697 106.057 44.4764 106.318 44.7372C106.58 44.9979 106.787 45.3076 106.928 45.6484C107.069 45.9893 107.142 46.3547 107.142 46.7237C107.142 47.0927 107.069 47.4581 106.928 47.799C106.787 48.1398 106.58 48.4495 106.318 48.7102C106.057 48.9709 105.747 49.1776 105.406 49.3184C105.065 49.4593 104.7 49.5315 104.331 49.5309Z" fill="#002C46"/>
<path d="M51.2392 57.9222H25.5967C24.7593 57.9213 23.9565 57.5883 23.3645 56.9962C22.7724 56.4041 22.4394 55.6013 22.4385 54.764V24.5039C22.4394 23.6666 22.7724 22.8638 23.3645 22.2717C23.9565 21.6796 24.7593 21.3466 25.5967 21.3457H51.2392C52.0765 21.3466 52.8792 21.6796 53.4713 22.2717C54.0634 22.8638 54.3964 23.6666 54.3973 24.5039V54.764C54.3964 55.6013 54.0634 56.4041 53.4713 56.9962C52.8792 57.5883 52.0765 57.9213 51.2392 57.9222Z" fill="#037BC4"/>
<path d="M104.087 79.7068H24.7876C24.0431 79.7068 23.3291 79.411 22.8027 78.8846C22.2762 78.3581 21.9805 77.6441 21.9805 76.8996C21.9805 76.1551 22.2762 75.4411 22.8027 74.9146C23.3291 74.3882 24.0431 74.0924 24.7876 74.0924H104.087C104.832 74.0924 105.546 74.3882 106.072 74.9146C106.599 75.4411 106.895 76.1551 106.895 76.8996C106.895 77.6441 106.599 78.3581 106.072 78.8846C105.546 79.411 104.832 79.7068 104.087 79.7068Z" fill="#CCCCCC"/>
<path d="M104.088 94.4441H24.7882C24.0444 94.4429 23.3315 94.1467 22.806 93.6203C22.2805 93.094 21.9854 92.3806 21.9854 91.6369C21.9854 90.8931 22.2805 90.1798 22.806 89.6535C23.3315 89.1271 24.0444 88.8309 24.7882 88.8297H104.088C104.457 88.8291 104.822 88.9013 105.163 89.0421C105.505 89.183 105.815 89.3897 106.076 89.6504C106.337 89.9111 106.544 90.2208 106.685 90.5616C106.827 90.9025 106.899 91.2679 106.899 91.6369C106.899 92.0059 106.827 92.3713 106.685 92.7122C106.544 93.053 106.337 93.3627 106.076 93.6234C105.815 93.8841 105.505 94.0908 105.163 94.2316C104.822 94.3725 104.457 94.4447 104.088 94.4441Z" fill="#CCCCCC"/>
<path d="M104.088 109.181H24.7882C24.0444 109.18 23.3315 108.884 22.806 108.357C22.2805 107.831 21.9854 107.117 21.9854 106.374C21.9854 105.63 22.2805 104.917 22.806 104.39C23.3315 103.864 24.0444 103.568 24.7882 103.567H104.088C104.457 103.566 104.822 103.638 105.163 103.779C105.505 103.92 105.815 104.127 106.076 104.387C106.337 104.648 106.544 104.958 106.685 105.298C106.827 105.639 106.899 106.005 106.899 106.374C106.899 106.743 106.827 107.108 106.685 107.449C106.544 107.79 106.337 108.1 106.076 108.36C105.815 108.621 105.505 108.828 105.163 108.968C104.822 109.109 104.457 109.182 104.088 109.181Z" fill="#CCCCCC"/>
<path d="M104.088 123.918H24.7882C24.0444 123.917 23.3315 123.621 22.806 123.094C22.2805 122.568 21.9854 121.855 21.9854 121.111C21.9854 120.367 22.2805 119.654 22.806 119.128C23.3315 118.601 24.0444 118.305 24.7882 118.304H104.088C104.457 118.303 104.822 118.375 105.163 118.516C105.505 118.657 105.815 118.864 106.076 119.125C106.337 119.385 106.544 119.695 106.685 120.036C106.827 120.377 106.899 120.742 106.899 121.111C106.899 121.48 106.827 121.845 106.685 122.186C106.544 122.527 106.337 122.837 106.076 123.098C105.815 123.358 105.505 123.565 105.163 123.706C104.822 123.847 104.457 123.919 104.088 123.918Z" fill="#CCCCCC"/>
<path d="M104.088 138.655H24.7882C24.0444 138.654 23.3315 138.358 22.806 137.831C22.2805 137.305 21.9854 136.592 21.9854 135.848C21.9854 135.104 22.2805 134.391 22.806 133.864C23.3315 133.338 24.0444 133.042 24.7882 133.041H104.088C104.457 133.04 104.822 133.112 105.163 133.253C105.505 133.394 105.815 133.601 106.076 133.861C106.337 134.122 106.544 134.432 106.685 134.773C106.827 135.113 106.899 135.479 106.899 135.848C106.899 136.217 106.827 136.582 106.685 136.923C106.544 137.264 106.337 137.574 106.076 137.834C105.815 138.095 105.505 138.302 105.163 138.443C104.822 138.583 104.457 138.656 104.088 138.655Z" fill="#CCCCCC"/>
<path d="M156.633 121.24C178.828 121.24 196.82 103.248 196.82 81.0535C196.82 58.8589 178.828 40.8666 156.633 40.8666C134.439 40.8666 116.446 58.8589 116.446 81.0535C116.446 103.248 134.439 121.24 156.633 121.24Z" fill="#037BC4"/>
<path d="M155.856 108.715C158.467 108.715 160.584 106.598 160.584 103.987C160.584 101.375 158.467 99.2579 155.856 99.2579C153.244 99.2579 151.127 101.375 151.127 103.987C151.127 106.598 153.244 108.715 155.856 108.715Z" fill="white"/>
<path d="M155.349 54.6445C151.785 54.6799 148.374 56.105 145.844 58.6165C143.315 61.1279 141.865 64.5276 141.803 68.0919C141.802 68.1602 141.802 68.6399 141.802 69.2673C141.802 70.1873 142.167 71.0696 142.818 71.7201C143.468 72.3706 144.35 72.7362 145.27 72.7363C146.191 72.7361 147.074 72.3702 147.725 71.719C148.376 71.0679 148.741 70.1849 148.741 69.2643V69.262C148.741 68.8352 148.74 68.5398 148.74 68.5216C148.74 67.3796 149.037 66.2571 149.602 65.2647C150.168 64.2723 150.981 63.444 151.964 62.8615C152.946 62.279 154.063 61.9622 155.205 61.9423C156.347 61.9224 157.474 62.2001 158.476 62.7481C159.478 63.2961 160.32 64.0954 160.92 65.0676C161.519 66.0397 161.855 67.1512 161.894 68.2926C161.934 69.4339 161.676 70.5659 161.145 71.5772C160.614 72.5885 159.83 73.4442 158.868 74.0602L158.869 74.0617C158.869 74.0617 153.932 77.2401 152.427 81.6003L152.428 81.6006C152.163 82.4938 152.029 83.4206 152.03 84.3522C152.03 84.7352 152.052 88.0859 152.096 90.8055C152.111 91.7439 152.495 92.6387 153.164 93.2968C153.833 93.9549 154.734 94.3237 155.672 94.3234C156.142 94.3234 156.607 94.2309 157.041 94.0511C157.475 93.8713 157.869 93.6079 158.201 93.2757C158.534 92.9436 158.797 92.5492 158.977 92.1152C159.157 91.6813 159.249 91.2161 159.249 90.7464L159.249 90.7245C159.234 88.2338 159.226 85.3337 159.226 85.1232C159.226 82.4459 161.808 79.7784 163.93 78.0388C166.386 76.0499 168.112 73.302 168.837 70.2264C168.993 69.5924 169.08 68.9431 169.094 68.2903C169.094 66.4983 168.741 64.7238 168.055 63.0682C167.37 61.4125 166.364 59.9082 165.097 58.641C163.83 57.3739 162.326 56.3687 160.67 55.6829C159.014 54.9971 157.24 54.6442 155.448 54.6442C155.415 54.6442 155.382 54.6443 155.349 54.6445Z" fill="white"/>
</svg>
