<svg width="210" height="160" viewBox="0 0 210 160" fill="none" xmlns="http://www.w3.org/2000/svg">
<path d="M80 160C124.183 160 160 124.183 160 80C160 35.8172 124.183 0 80 0C35.8172 0 0 35.8172 0 80C0 124.183 35.8172 160 80 160Z" fill="#F2F2F2"/>
<path d="M117.744 139.239C168.312 139.239 209.306 136.374 209.306 132.84C209.306 129.306 168.312 126.441 117.744 126.441C67.1754 126.441 26.1816 129.306 26.1816 132.84C26.1816 136.374 67.1754 139.239 117.744 139.239Z" fill="#7F868A" fill-opacity="0.29"/>
<path d="M168.942 135.051H47.2324C46.4015 135.05 45.605 134.725 45.0175 134.148C44.43 133.57 44.0996 132.787 44.0986 131.97V58.1944C44.0993 57.5961 44.3414 57.0224 44.7718 56.5993C45.2022 56.1762 45.7857 55.9382 46.3944 55.9375H169.741C170.36 55.9382 170.953 56.1803 171.391 56.6107C171.829 57.0412 172.075 57.6247 172.076 58.2334V131.97C172.075 132.787 171.745 133.57 171.157 134.148C170.57 134.725 169.773 135.05 168.942 135.051Z" fill="#002A44"/>
<path d="M170.175 58.7893H46.4082V132.276H170.175V58.7893Z" fill="white"/>
<path d="M86.247 124.154C101.627 124.154 114.095 111.686 114.095 96.3062C114.095 80.9264 101.627 68.4586 86.247 68.4586C70.8672 68.4586 58.3994 80.9264 58.3994 96.3062C58.3994 111.686 70.8672 124.154 86.247 124.154Z" fill="#018CE1"/>
<path d="M131.884 70.3925H122.602V79.675H131.884V70.3925Z" fill="#00BC35"/>
<path opacity="0.5" d="M143.488 70.3925H134.205V79.675H143.488V70.3925Z" fill="#00BC35"/>
<path opacity="0.2" d="M155.091 70.3925H145.809V79.675H155.091V70.3925Z" fill="#00BC35"/>
<path d="M131.884 81.9957H122.602V91.2782H131.884V81.9957Z" fill="#FFC01E"/>
<path opacity="0.5" d="M143.488 81.9957H134.205V91.2782H143.488V81.9957Z" fill="#FFC01E"/>
<path opacity="0.2" d="M155.091 81.9957H145.809V91.2782H155.091V81.9957Z" fill="#FFC01E"/>
<path d="M131.884 93.5988H122.602V102.881H131.884V93.5988Z" fill="#FF2753"/>
<path opacity="0.5" d="M143.488 93.5988H134.205V102.881H143.488V93.5988Z" fill="#FF2753"/>
<path opacity="0.2" d="M155.091 93.5988H145.809V102.881H155.091V93.5988Z" fill="#FF2753"/>
<path opacity="0.5" d="M86.2451 68.4586V124.154C101.625 124.154 114.866 111.686 114.866 96.3062C114.866 80.9264 101.625 68.4586 86.2451 68.4586Z" fill="#014772"/>
</svg>
