<svg width="106" height="160" viewBox="0 0 106 160" fill="none" xmlns="http://www.w3.org/2000/svg">
<path d="M56.9965 159.038H53.3193V1.34525C53.3193 0.988464 53.5131 0.646297 53.8579 0.394014C54.2027 0.141732 54.6703 0 55.1579 0C55.6455 0 56.1132 0.141732 56.458 0.394014C56.8028 0.646297 56.9965 0.988464 56.9965 1.34525V159.038Z" fill="#E6E6E6"/>
<path d="M87.1363 160H19.7867C19.6591 160 19.5368 159.949 19.4466 159.859C19.3564 159.769 19.3057 159.646 19.3057 159.519C19.3057 159.391 19.3564 159.269 19.4466 159.179C19.5368 159.089 19.6591 159.038 19.7867 159.038H87.1363C87.2638 159.038 87.3862 159.089 87.4764 159.179C87.5667 159.269 87.6173 159.391 87.6173 159.519C87.6173 159.646 87.5667 159.769 87.4764 159.859C87.3862 159.949 87.2638 160 87.1363 160Z" fill="#CCCCCC"/>
<path d="M87.2046 33.1937H24.2088C23.6348 33.193 23.0845 32.9648 22.6787 32.5589C22.2729 32.1531 22.0446 31.6028 22.0439 31.0289V12.7483C22.0446 12.1744 22.2729 11.6241 22.6787 11.2183C23.0845 10.8124 23.6348 10.5841 24.2088 10.5835H87.2092C87.5784 10.5837 87.9415 10.6783 88.2641 10.8581L104.555 19.9498C104.891 20.1371 105.171 20.4106 105.366 20.742C105.561 21.0734 105.664 21.4508 105.665 21.8353C105.666 22.2198 105.564 22.5977 105.371 22.9299C105.177 23.2622 104.899 23.5369 104.564 23.7257L88.2678 32.9146C87.9432 33.0973 87.5771 33.1934 87.2046 33.1937Z" fill="#037BC4"/>
<path d="M81.4565 72.6412H18.4607C18.0882 72.641 17.7221 72.5449 17.3975 72.3621L1.10155 63.1732C0.766581 62.9844 0.487963 62.7097 0.29436 62.3774C0.100757 62.0452 -0.000844236 61.6674 5.28391e-06 61.2828C0.000854803 60.8983 0.104135 60.5209 0.299205 60.1895C0.494274 59.8581 0.774088 59.5846 1.10989 59.3973L17.4011 50.3056C17.7237 50.1258 18.0868 50.0313 18.4561 50.031H81.4565C82.0304 50.0317 82.5807 50.2599 82.9865 50.6658C83.3924 51.0716 83.6206 51.6219 83.6213 52.1958V70.4764C83.6206 71.0503 83.3924 71.6006 82.9865 72.0064C82.5807 72.4123 82.0304 72.6406 81.4565 72.6412Z" fill="#E6E6E6"/>
<path d="M81.6967 111.367H18.7009C18.3284 111.367 17.9623 111.271 17.6377 111.088L1.34179 101.899C1.00682 101.71 0.728197 101.436 0.534594 101.104C0.340991 100.771 0.23939 100.393 0.24024 100.009C0.241089 99.6243 0.34437 99.247 0.539439 98.9156C0.734508 98.5842 1.01432 98.3107 1.35013 98.1233L17.6414 89.0317C17.9639 88.8518 18.327 88.7573 18.6963 88.7571H81.6967C82.2707 88.7577 82.8209 88.986 83.2268 89.3919C83.6326 89.7977 83.8609 90.3479 83.8615 90.9219V109.202C83.8609 109.776 83.6326 110.327 83.2268 110.733C82.8209 111.138 82.2707 111.367 81.6967 111.367Z" fill="#E6E6E6"/>
</svg>
