<svg width="168" height="159" viewBox="0 0 168 159" fill="none" xmlns="http://www.w3.org/2000/svg">
<path d="M83.7874 155.995C83.0378 155.989 82.2797 155.984 81.5351 155.961L81.5582 155.21C82.2951 155.233 83.0487 155.243 83.7876 155.244C84.5297 155.244 85.286 155.232 86.0363 155.208L86.0605 155.958C85.302 155.983 84.5374 155.995 83.7874 155.995ZM77.0197 155.678C75.5243 155.536 74.0141 155.345 72.5312 155.108L72.6496 154.366C74.1168 154.6 75.6109 154.79 77.0905 154.931L77.0197 155.678ZM90.5755 155.67L90.5039 154.922C91.983 154.781 93.4769 154.589 94.944 154.353L95.0636 155.094C93.5805 155.333 92.0705 155.527 90.5754 155.67H90.5755ZM68.0881 154.251C66.6239 153.919 65.1507 153.535 63.7096 153.109L63.9226 152.388C65.3482 152.81 66.8057 153.19 68.2543 153.518L68.0881 154.251ZM99.5054 154.232L99.3385 153.5C100.79 153.169 102.247 152.787 103.669 152.365L103.883 153.085C102.446 153.512 100.973 153.898 99.5053 154.232H99.5054ZM59.4133 151.687C58.0005 151.168 56.5869 150.597 55.2118 149.988L55.5159 149.301C56.8761 149.903 58.2744 150.469 59.6723 150.982L59.4133 151.687ZM108.177 151.658L107.917 150.953C109.306 150.441 110.7 149.876 112.059 149.273L112.364 149.959C110.99 150.569 109.581 151.141 108.177 151.658H108.177ZM51.13 148.022C49.8005 147.328 48.4727 146.58 47.184 145.799L47.5735 145.156C48.8486 145.93 50.1621 146.669 51.4776 147.356L51.13 148.022ZM116.434 147.995L116.087 147.329C117.399 146.643 118.709 145.903 119.981 145.13L120.371 145.772C119.086 146.553 117.761 147.301 116.434 147.995H116.434ZM43.3896 143.327C42.1581 142.468 40.9376 141.556 39.7617 140.619L40.2301 140.031C41.3936 140.959 42.6012 141.861 43.8195 142.711L43.3896 143.327ZM124.159 143.301L123.729 142.685C124.947 141.834 126.153 140.932 127.313 140.005L127.782 140.592C126.609 141.529 125.39 142.44 124.159 143.301ZM36.3145 137.684C35.2013 136.674 34.1068 135.615 33.0621 134.538L33.6012 134.015C34.635 135.081 35.7179 136.128 36.8196 137.128L36.3145 137.684ZM131.226 137.658L130.72 137.102C131.819 136.104 132.901 135.056 133.937 133.988L134.476 134.51C133.43 135.59 132.336 136.649 131.226 137.658ZM30.017 131.191C29.0423 130.048 28.092 128.86 27.1921 127.658L27.7934 127.208C28.6838 128.397 29.624 129.573 30.5885 130.703L30.017 131.191ZM137.52 131.16L136.949 130.673C137.913 129.541 138.854 128.364 139.744 127.173L140.345 127.623C139.446 128.826 138.495 130.016 137.52 131.16V131.16ZM24.5987 123.952C23.7769 122.694 22.9861 121.394 22.2482 120.089L22.9021 119.72C23.632 121.01 24.4146 122.296 25.2277 123.541L24.5987 123.952ZM142.94 123.911L142.31 123.501C143.124 122.254 143.906 120.966 144.636 119.672L145.291 120.041C144.553 121.349 143.762 122.651 142.94 123.911ZM20.1505 116.085C19.4969 114.733 18.8794 113.343 18.3153 111.955L19.0111 111.672C19.5694 113.046 20.1802 114.42 20.8269 115.758L20.1505 116.085ZM147.389 116.026L146.713 115.7C147.359 114.36 147.97 112.982 148.529 111.602L149.225 111.884C148.66 113.279 148.043 114.672 147.389 116.026ZM16.7473 107.71C16.2722 106.283 15.8381 104.824 15.457 103.372L16.1836 103.181C16.5605 104.617 16.99 106.061 17.46 107.472L16.7473 107.71ZM150.79 107.63L150.077 107.394C150.544 105.985 150.972 104.54 151.348 103.101L152.075 103.291C151.695 104.746 151.263 106.206 150.79 107.63ZM14.4492 98.9611C14.1622 97.4874 13.9194 95.9847 13.7274 94.4944L14.4723 94.3983C14.6623 95.8728 14.9026 97.3594 15.1865 98.8174L14.4492 98.9611ZM153.078 98.8786L152.341 98.7363C152.622 97.2787 152.861 95.7914 153.049 94.3158L153.795 94.4112C153.604 95.9025 153.363 97.4056 153.078 98.8786V98.8786ZM13.2931 89.9911C13.1969 88.4938 13.1472 86.9721 13.1455 85.4679L13.8967 85.4671C13.8983 86.9555 13.9475 88.4612 14.0428 89.9426L13.2931 89.9911ZM154.224 89.907L153.474 89.8594C153.567 88.3794 153.615 86.8737 153.615 85.385L153.614 85.2203H154.366L154.366 85.3824C154.366 86.8895 154.318 88.4109 154.224 89.907ZM14.0324 80.9924L13.2827 80.9462C13.3758 79.446 13.5183 77.9305 13.7063 76.4413L14.4516 76.5352C14.2655 78.0089 14.1245 79.5084 14.0324 80.9924ZM153.464 80.7459C153.366 79.2611 153.22 77.7621 153.029 76.2906L153.773 76.1937C153.967 77.681 154.115 79.1959 154.213 80.6967L153.464 80.7459ZM15.1551 72.1147L14.4175 71.9728C14.7009 70.4985 15.0365 69.0136 15.4146 67.5593L16.1416 67.7482C15.7675 69.1871 15.4355 70.656 15.1551 72.1147ZM152.309 71.8725C152.023 70.413 151.685 68.9452 151.307 67.5094L152.033 67.3179C152.416 68.7691 152.757 70.2528 153.046 71.728L152.309 71.8725ZM17.4081 63.4542L16.6947 63.2187C17.1662 61.7914 17.6911 60.3596 18.255 58.9631L18.9515 59.2444C18.3936 60.6259 17.8745 62.0423 17.4081 63.4542ZM150.026 63.22C149.554 61.8101 149.031 60.3978 148.47 59.0222L149.165 58.7387C149.732 60.1291 150.262 61.5567 150.738 62.9816L150.026 63.22ZM20.7634 55.1438L20.0863 54.8181C20.7379 53.4636 21.4425 52.112 22.1803 50.8011L22.835 51.1697C22.1049 52.4665 21.408 53.8036 20.7634 55.1438ZM146.65 54.9389C146.003 53.6051 145.303 52.273 144.57 50.9795L145.223 50.6091C145.964 51.9163 146.672 53.2629 147.325 54.6114L146.65 54.9389ZM25.1568 47.3374L24.527 46.9277C25.3462 45.6685 26.2175 44.4187 27.1165 43.2133L27.7188 43.6622C26.8293 44.855 25.9672 46.0914 25.1568 47.3374ZM142.239 47.1606C141.427 45.9192 140.562 44.6866 139.669 43.4971L140.27 43.0464C141.172 44.2487 142.046 45.4945 142.868 46.749L142.239 47.1606ZM30.5096 40.1592L29.9374 39.6729C30.9103 38.5283 31.9331 37.4001 32.9773 36.3197L33.5176 36.8417C32.4844 37.9107 31.4724 39.027 30.5096 40.1592ZM136.87 40.0044C135.904 38.8753 134.889 37.7623 133.853 36.6964L134.392 36.173C135.439 37.2501 136.465 38.375 137.441 39.5163L136.87 40.0044ZM36.7301 33.7227L36.2243 33.1674C37.3358 32.1549 38.4934 31.1662 39.6645 30.2291L40.134 30.8156C38.9752 31.7428 37.8299 32.721 36.7301 33.7227ZM130.631 33.5865C129.53 32.5893 128.381 31.6141 127.217 30.6879L127.685 30.1C128.861 31.0362 130.022 32.0217 131.135 33.0297L130.631 33.5865ZM43.7155 28.1316L43.2845 27.5165C44.5136 26.6552 45.7871 25.8224 47.0696 25.0411L47.4604 25.6826C46.1916 26.4556 44.9316 27.2796 43.7155 28.1316ZM123.625 28.0121C122.402 27.1609 121.138 26.3397 119.868 25.5711L120.257 24.9285C121.54 25.7052 122.818 26.5352 124.054 27.3955L123.625 28.0121ZM51.3527 23.479L51.0039 22.8136C52.3318 22.1171 53.7006 21.4543 55.0719 20.8438L55.3774 21.5301C54.0207 22.134 52.6667 22.7898 51.3527 23.479ZM115.961 23.3759C114.642 22.6893 113.283 22.0366 111.921 21.4358L112.224 20.7485C113.6 21.3557 114.975 22.0155 116.308 22.7095L115.961 23.3759ZM59.5174 19.8451L59.2567 19.1405C60.6651 18.6195 62.1093 18.1375 63.5493 17.7082L63.7639 18.4282C62.3393 18.8527 60.9107 19.3296 59.5175 19.8451H59.5174ZM107.762 19.7598C106.366 19.2491 104.936 18.7774 103.511 18.3581L103.723 17.6374C105.163 18.0612 106.609 18.538 108.02 19.0545L107.762 19.7598ZM68.0929 17.2884L67.9252 16.5563C69.3867 16.2214 70.8808 15.9297 72.3661 15.6885L72.4864 16.4301C71.0169 16.6685 69.5387 16.9572 68.0929 17.2884ZM99.1774 17.2338C97.729 16.9073 96.2498 16.6238 94.7808 16.3909L94.8985 15.6489C96.3833 15.8844 97.8785 16.171 99.3425 16.5009L99.1774 17.2338ZM76.9259 15.8552L76.8533 15.1077C78.3447 14.963 79.8637 14.8641 81.3681 14.8141L81.393 15.5649C79.9044 15.6144 78.4015 15.7122 76.9259 15.8552ZM90.3392 15.8319C88.8615 15.6938 87.358 15.6014 85.8713 15.5572L85.8936 14.8064C87.3962 14.8511 88.9156 14.9445 90.4091 15.084L90.3392 15.8319Z" fill="#D0CDE1"/>
<path d="M127.653 156.305C137.402 156.305 145.305 148.402 145.305 138.653C145.305 128.903 137.402 121 127.653 121C117.903 121 110 128.903 110 138.653C110 148.402 117.903 156.305 127.653 156.305Z" fill="#037BC4"/>
<path d="M124.931 127C122.63 127 120.759 128.872 120.759 131.172C120.759 132.43 121.32 133.557 122.203 134.322C120.893 135.027 120 136.411 120 138C120 139.412 120.707 140.658 121.782 141.414C120.707 142.169 120 143.416 120 144.828C120 147.128 121.872 149 124.172 149C126.473 149 128.345 147.128 128.345 144.828V140.655V135.345H131C133.301 135.345 135.172 133.473 135.172 131.172C135.172 128.872 133.301 127 131 127H124.931ZM124.931 128.517H131C132.464 128.517 133.655 129.708 133.655 131.172C133.655 132.637 132.464 133.828 131 133.828H128.345H124.931C123.467 133.828 122.276 132.637 122.276 131.172C122.276 129.708 123.467 128.517 124.931 128.517ZM124.172 135.345H124.931H126.828V140.655H124.172C122.708 140.655 121.517 139.464 121.517 138C121.517 136.536 122.708 135.345 124.172 135.345ZM131.379 135.345C130.575 135.345 129.803 135.665 129.234 136.234C128.665 136.803 128.345 137.575 128.345 138.379C128.345 139.184 128.665 139.956 129.234 140.525C129.803 141.094 130.575 141.414 131.379 141.414C132.184 141.414 132.956 141.094 133.525 140.525C134.094 139.956 134.414 139.184 134.414 138.379C134.414 137.575 134.094 136.803 133.525 136.234C132.956 135.665 132.184 135.345 131.379 135.345ZM124.172 142.172H126.828V144.828C126.828 146.292 125.637 147.483 124.172 147.483C122.708 147.483 121.517 146.292 121.517 144.828C121.517 143.363 122.708 142.172 124.172 142.172Z" fill="white"/>
<path d="M42.6526 158.305C52.4018 158.305 60.3052 150.402 60.3052 140.653C60.3052 130.903 52.4018 123 42.6526 123C32.9033 123 25 130.903 25 140.653C25 150.402 32.9033 158.305 42.6526 158.305Z" fill="#037BC4"/>
<path d="M48.0792 146.538C47.0304 146.538 45.6887 146.071 45.0382 145.68L44.4102 148.207C45.268 148.675 46.5933 149 48.0792 149C51.3256 149 53.0026 147.445 53.0026 145.325C52.9782 143.656 52.0736 142.56 49.9128 141.822C48.5244 141.33 48.0873 141.052 48.0873 140.519C48.0873 139.94 48.5712 139.59 49.429 139.59C50.4047 139.59 51.3743 139.964 51.8905 140.243L52.5167 137.803C51.8194 137.454 50.6364 137.153 49.309 137.153C46.4997 137.153 44.6885 138.757 44.6885 140.869C44.6641 142.219 45.5688 143.497 47.9207 144.284C49.2378 144.729 49.5874 145.006 49.5874 145.585C49.5875 146.166 49.1423 146.538 48.0792 146.538Z" fill="white"/>
<path d="M36.5026 143.172C36.8278 143.219 37.2486 143.235 37.7079 143.235C39.7976 143.235 41.5906 142.727 42.7898 141.593C43.7271 140.71 44.2351 139.407 44.2351 137.877C44.2351 136.344 43.5684 135.041 42.5602 134.254C41.5193 133.413 39.9643 133 37.7791 133C35.6203 133 34.0876 133.142 33 133.325V148.77H36.5025V143.172H36.5026ZM36.5087 135.811C36.7567 135.74 37.2487 135.669 37.9622 135.669C39.7326 135.669 40.7267 136.525 40.7347 137.962C40.7347 139.568 39.5659 140.519 37.6856 140.519C37.1774 140.519 36.8115 140.497 36.5087 140.432V135.811Z" fill="white"/>
<path d="M149.653 82.3052C159.402 82.3052 167.305 74.4018 167.305 64.6526C167.305 54.9033 159.402 47 149.653 47C139.903 47 132 54.9033 132 64.6526C132 74.4018 139.903 82.3052 149.653 82.3052Z" fill="#037BC4"/>
<path d="M156.934 55.0027C156.811 54.9927 156.687 55.0106 156.6 55.0544C156.423 55.1439 156.337 55.2553 156.252 55.3767C156.081 55.6194 155.931 55.9437 155.738 56.439C154.933 58.504 152.545 60.0199 150.114 60.5212C149.627 60.2368 149.062 60.0716 148.459 60.0716C147.66 60.0716 146.925 60.3581 146.352 60.8336C144.206 60.6585 142.517 58.2613 142.517 58.2613L141.584 56.8608V61.7805C141.377 62.073 141.226 62.4072 141.144 62.7673C140.862 62.5723 140.569 62.4072 140.267 62.2978C139.885 62.1585 139.485 62.0909 139.097 62.1147C138.707 62.1386 138.333 62.252 137.999 62.4728C137.335 62.9165 137.012 63.6864 137 64.4881C136.988 65.2898 137.267 66.1532 137.812 66.9291C138.359 67.7049 139.081 68.2639 139.845 68.5405C140.189 68.6658 140.547 68.7275 140.898 68.7235C141.592 69.2646 142.676 69.9808 143.762 70.4562C146.056 71.4589 148.3 71.9383 150.339 71.7434C151.614 71.62 152.808 71.2241 153.858 70.5358C154.024 70.6233 154.189 70.7089 154.354 70.7825C155.701 71.3992 156.954 71.809 157.895 71.9901C157.879 72.2706 157.909 72.571 158.002 72.8773C158.247 73.6711 158.991 74.0729 159.61 74.3694C160.23 74.6658 160.801 74.8229 160.801 74.8229L161.446 75V74.3316C161.446 74.3316 161.448 73.6691 161.384 72.931C161.352 72.561 161.307 72.1711 161.229 71.819C161.152 71.4668 161.084 71.1525 160.819 70.868C160.505 70.5259 160.109 70.3349 159.713 70.2871C159.317 70.2374 158.923 70.3309 158.613 70.5577C158.591 70.5716 158.575 70.5915 158.557 70.6074C157.871 70.0683 156.846 69.4576 155.651 68.8866C157.008 67.1578 157.541 64.5259 157.76 62.1048C157.98 59.6419 157.855 57.4198 157.744 56.5584C157.708 56.2978 157.674 56.0391 157.622 55.8064C157.571 55.5736 157.585 55.3548 157.26 55.1101C157.179 55.0484 157.057 55.0126 156.934 55.0027ZM156.735 56.7096C156.829 57.4437 156.958 59.6519 156.745 62.0133C156.53 64.3846 155.945 66.9231 154.791 68.3356C154.758 68.3753 154.722 68.4092 154.69 68.4489C154.203 68.244 153.731 68.065 153.289 67.9158C153.379 66.9171 151.77 66.183 151.77 66.183C151.77 66.183 152.209 66.7898 152.209 67.3767C152.209 68.5544 146.167 68.2202 146.167 68.2202C146.167 68.2202 149.559 69.4655 151.662 69.191C152.012 69.4337 152.41 69.6983 152.838 69.9609C152.052 70.3846 151.185 70.6373 150.242 70.7268C148.431 70.9019 146.349 70.4761 144.17 69.5232C143.47 69.2169 142.726 68.7653 142.125 68.3554C142.782 67.9098 143.1 67.1459 143.112 66.3501C143.114 66.2566 143.11 66.1631 143.104 66.0696C143.35 66.1393 143.607 66.183 143.876 66.183C144.634 66.183 145.324 65.8767 145.831 65.3833C146.436 66.1771 147.389 66.6923 148.459 66.6923C150.282 66.6923 151.77 65.2043 151.77 63.382C151.77 62.6161 151.503 61.9118 151.063 61.3488C153.5 60.6665 155.794 59.1028 156.687 56.809C156.707 56.7553 156.713 56.7593 156.735 56.7096ZM142.602 59.8886C142.821 60.1313 143.076 60.386 143.364 60.6287C143.094 60.6804 142.839 60.7699 142.602 60.8913V59.8886ZM148.459 61.0902C149.73 61.0902 150.751 62.1108 150.751 63.382C150.751 63.5252 150.735 63.6645 150.709 63.8017C150.552 63.1234 149.947 62.6181 149.223 62.6181C149.179 62.6181 149.14 62.628 149.096 62.632C149.458 62.6917 149.732 63.004 149.732 63.382C149.732 63.8037 149.39 64.1459 148.969 64.1459C148.547 64.1459 148.205 63.8037 148.205 63.382C148.205 63.1751 148.288 62.9881 148.421 62.8508C147.988 63.1194 147.695 63.5968 147.695 64.1459C147.695 64.87 148.201 65.4748 148.879 65.632C148.742 65.6578 148.602 65.6738 148.459 65.6738C147.188 65.6738 146.167 64.6532 146.167 63.382C146.167 62.1108 147.188 61.0902 148.459 61.0902ZM143.876 61.5995C144.474 61.5995 144.998 61.8919 145.322 62.3395C145.26 62.5226 145.215 62.7135 145.187 62.9105C144.968 62.7295 144.691 62.6181 144.385 62.6181C144.349 62.6181 144.315 62.626 144.28 62.628C144.58 62.6797 144.809 62.9403 144.809 63.2547C144.809 63.6068 144.524 63.8913 144.172 63.8913C143.822 63.8913 143.536 63.6068 143.536 63.2547C143.536 63.0816 143.605 62.9264 143.717 62.811C143.354 63.0358 143.112 63.4337 143.112 63.8913C143.112 64.5139 143.559 65.0312 144.152 65.1406C144.061 65.1545 143.969 65.1645 143.876 65.1645C143.486 65.1645 143.13 65.0411 142.835 64.8303L142.827 64.8243L142.823 64.8203H142.821C142.813 64.8143 142.805 64.8064 142.793 64.7984C142.786 64.7925 142.784 64.7925 142.776 64.7865C142.648 64.4881 142.499 64.1917 142.3 63.9092C142.246 63.8336 142.185 63.7719 142.129 63.7003C142.111 63.5968 142.093 63.4914 142.093 63.382C142.093 62.3913 142.885 61.5995 143.876 61.5995ZM139.169 63.1273C139.398 63.1154 139.65 63.1552 139.921 63.2547C140.46 63.4496 141.033 63.8793 141.467 64.496C141.9 65.1108 142.101 65.7832 142.093 66.3342C142.085 66.8873 141.89 67.2891 141.546 67.5179C141.204 67.7467 140.73 67.7805 140.191 67.5836C139.652 67.3886 139.079 66.9589 138.646 66.3422C138.212 65.7275 138.011 65.0551 138.019 64.504C138.019 64.494 138.021 64.4861 138.023 64.4781C138.055 65.1486 138.5 65.6738 139.038 65.6738C139.6 65.6738 140.056 65.1028 140.056 64.4005C140.056 63.746 139.66 63.199 139.141 63.1333C139.151 63.1333 139.159 63.1293 139.169 63.1273ZM159.596 71.2619C159.737 71.2798 159.894 71.3674 160.073 71.5603C160.057 71.5444 160.173 71.7533 160.234 72.0338C160.296 72.3163 160.34 72.6744 160.37 73.0166C160.396 73.313 160.386 73.3548 160.396 73.5836C160.242 73.5239 160.228 73.5358 160.051 73.4503C159.524 73.1996 159.045 72.7997 158.977 72.5789C158.778 71.9403 158.981 71.5504 159.212 71.3813C159.327 71.2978 159.455 71.246 159.596 71.2619Z" fill="white"/>
<path d="M83.6526 35.3052C93.4018 35.3052 101.305 27.4018 101.305 17.6526C101.305 7.90333 93.4018 0 83.6526 0C73.9033 0 66 7.90333 66 17.6526C66 27.4018 73.9033 35.3052 83.6526 35.3052Z" fill="#037BC4"/>
<path d="M84.3351 11.3784H81.5162L78.1865 16.373L74.8378 11.3784H72L76.7866 18.1892L72.1514 24.8108H74.9893L78.1865 20.0054L81.3649 24.8108H84.1838L79.5486 18.1892L84.3351 11.3784Z" fill="white"/>
<path d="M94.5695 21.8973V11H92.0344V16.6378C91.7063 16.0703 90.6772 14.727 88.6858 14.727C86.3351 14.727 84.2588 16.7703 84.2588 19.8541C84.2588 22.574 86.0592 25 88.9697 25C90.9564 25 92.0469 23.7201 92.4128 23.0892C92.4128 23.0892 92.2471 24.9432 94.0775 24.9432C94.3549 24.9432 94.7143 24.8989 95.156 24.8108V22.6541C94.9414 22.6416 94.5695 22.1622 94.5695 21.8973ZM92.0345 21.1784C91.9461 21.4181 91.2225 22.8432 89.6318 22.8432C87.9511 22.8432 86.8886 21.3555 86.8886 19.9108C86.8886 18.5965 87.7541 16.8838 89.4805 16.8838C91.0254 16.8838 91.9334 18.5362 92.0345 18.8135V21.1784Z" fill="white"/>
<path d="M17.6526 82.3052C27.4018 82.3052 35.3052 74.4018 35.3052 64.6526C35.3052 54.9033 27.4018 47 17.6526 47C7.90333 47 0 54.9033 0 64.6526C0 74.4018 7.90333 82.3052 17.6526 82.3052Z" fill="#037BC4"/>
<path d="M12.7026 69.0602H17.0985L18.2864 72.9999H22.018L17.2551 57.6375H12.7026L8 72.9999H11.6019L12.7026 69.0602ZM14.8167 60.2326H14.8613C15.0873 61.1521 16.5997 66.4562 16.5997 66.4562H13.1992C13.1992 66.4562 14.5884 61.1521 14.8167 60.2326Z" fill="white"/>
<path d="M26.8437 61.859H23.374V73H26.8437V61.859Z" fill="white"/>
<path d="M25.0866 60.4877C26.2321 60.4877 26.9568 59.7092 26.9568 58.7563C26.9301 57.7517 26.2321 57 25.1135 57C23.9949 57 23.2611 57.7516 23.2858 58.7563C23.2611 59.7092 23.9949 60.4877 25.0866 60.4877Z" fill="white"/>
</svg>
