<svg width="273" height="160" viewBox="0 0 273 160" fill="none" xmlns="http://www.w3.org/2000/svg">
<path d="M272.593 160H0V0H272.593V160ZM0.829512 158.812H271.763V1.18827H0.829512V158.812Z" fill="#002A44"/>
<path d="M116.617 79.5533H150.017C150.248 79.5453 150.467 79.4477 150.628 79.2812C150.789 79.1147 150.879 78.8922 150.879 78.6607C150.879 78.4292 150.789 78.2067 150.628 78.0401C150.467 77.8736 150.248 77.7761 150.017 77.7681H116.617C116.386 77.7761 116.166 77.8736 116.006 78.0401C115.845 78.2067 115.755 78.4292 115.755 78.6607C115.755 78.8922 115.845 79.1147 116.006 79.2812C116.166 79.4477 116.386 79.5453 116.617 79.5533Z" fill="#E6E6E6"/>
<path d="M149.148 71.1321L154.367 75.8952C154.963 76.4399 156.605 77.5645 156.976 78.2767C157.742 79.7493 156.919 79.4133 155.605 79.9236C152.377 81.2082 149.402 83.0553 146.819 85.379C145.955 86.1401 147.222 87.3988 148.082 86.6414C150.437 84.5242 153.144 82.8335 156.079 81.6451C157.132 81.2286 159.129 80.9848 159.629 79.7308C160.242 78.1961 158.292 77.0636 157.368 76.2205L150.411 69.8697C149.563 69.0965 148.297 70.3555 149.148 71.1321L149.148 71.1321Z" fill="#E6E6E6"/>
<path d="M120.46 58.6842H145.039C146.716 48.9875 146.716 39.0749 145.039 29.3782H120.46C123.229 38.9507 123.229 49.1118 120.46 58.6842Z" fill="#037BC4"/>
<path d="M42.6455 106.837V34.506L36.0996 33.0468V113.383L85.4916 112.878L85.325 106.401L42.6455 106.837Z" fill="#F2F2F2"/>
<path d="M91.442 119.424H31.9336V23.6154H91.442V119.424ZM33.1238 118.234H90.2519V24.8055H33.1238V118.234Z" fill="#002A44"/>
<path d="M46.9276 29.5663H37.2891V30.7565H46.9276V29.5663Z" fill="#002A44"/>
<path d="M46.9276 32.5417H37.2891V33.7319H46.9276V32.5417Z" fill="#002A44"/>
<path d="M46.9276 35.5171H37.2891V36.7073H46.9276V35.5171Z" fill="#002A44"/>
<path d="M83.2277 86.6944H42.0498V87.8846H83.2277V86.6944Z" fill="#002A44"/>
<path d="M83.2277 93.2403H42.0498V94.4305H83.2277V93.2403Z" fill="#002A44"/>
<path d="M83.2277 99.7862H42.0498V100.976H83.2277V99.7862Z" fill="#002A44"/>
<path d="M82.5162 37.3023C81.6923 37.3023 80.8869 37.058 80.2019 36.6003C79.5169 36.1426 78.983 35.492 78.6677 34.7308C78.3524 33.9697 78.2699 33.1321 78.4306 32.3241C78.5914 31.516 78.9881 30.7738 79.5707 30.1912C80.1532 29.6086 80.8955 29.2119 81.7035 29.0512C82.5115 28.8904 83.3491 28.9729 84.1103 29.2882C84.8714 29.6035 85.522 30.1374 85.9797 30.8224C86.4375 31.5075 86.6818 32.3128 86.6818 33.1367C86.6805 34.2411 86.2413 35.2999 85.4603 36.0809C84.6794 36.8618 83.6206 37.3011 82.5162 37.3023ZM82.5162 30.1613C81.9277 30.1613 81.3524 30.3358 80.8631 30.6627C80.3738 30.9897 79.9924 31.4544 79.7672 31.9981C79.542 32.5418 79.4831 33.14 79.5979 33.7172C79.7127 34.2944 79.9961 34.8245 80.4122 35.2407C80.8284 35.6568 81.3585 35.9402 81.9357 36.055C82.5129 36.1698 83.1111 36.1109 83.6548 35.8857C84.1985 35.6605 84.6632 35.2791 84.9901 34.7898C85.3171 34.3005 85.4916 33.7252 85.4916 33.1367C85.4907 32.3479 85.1769 31.5916 84.6191 31.0338C84.0613 30.476 83.305 30.1622 82.5162 30.1613Z" fill="#002A44"/>
<path d="M83.7061 73.0074H41.4551V45.6335H83.7061V73.0074ZM42.6452 71.8173H82.5159V46.8237H42.6452V71.8173Z" fill="#002A44"/>
<path d="M42.3714 45.727L41.7314 46.7305L82.7924 72.9145L83.4324 71.9109L42.3714 45.727Z" fill="#002A44"/>
<path d="M82.7916 45.7271L41.7305 71.9104L42.3704 72.914L83.4315 46.7307L82.7916 45.7271Z" fill="#002A44"/>
<path d="M193.797 106.837V34.506L187.251 33.0468V113.383L236.643 112.878L236.476 106.401L193.797 106.837Z" fill="#F2F2F2"/>
<path d="M243.189 118.234H183.681V22.4252H243.189V118.234ZM184.871 117.044H241.999V23.6154H184.871V117.044Z" fill="#002A44"/>
<path d="M198.675 28.3761H189.036V29.5663H198.675V28.3761Z" fill="#002A44"/>
<path d="M198.675 31.3515H189.036V32.5417H198.675V31.3515Z" fill="#002A44"/>
<path d="M198.675 34.3269H189.036V35.5171H198.675V34.3269Z" fill="#002A44"/>
<path d="M234.263 36.1121C233.439 36.1121 232.634 35.8678 231.949 35.4101C231.264 34.9524 230.73 34.3018 230.415 33.5406C230.099 32.7795 230.017 31.9419 230.178 31.1339C230.338 30.3258 230.735 29.5836 231.318 29.001C231.9 28.4185 232.643 28.0217 233.451 27.861C234.259 27.7003 235.096 27.7828 235.857 28.098C236.619 28.4133 237.269 28.9472 237.727 29.6323C238.185 30.3173 238.429 31.1227 238.429 31.9465C238.428 33.0509 237.988 34.1098 237.207 34.8907C236.426 35.6716 235.368 36.1109 234.263 36.1121ZM234.263 28.9711C233.675 28.9711 233.1 29.1456 232.61 29.4726C232.121 29.7995 231.74 30.2642 231.514 30.8079C231.289 31.3516 231.23 31.9498 231.345 32.527C231.46 33.1042 231.743 33.6344 232.159 34.0505C232.575 34.4666 233.106 34.75 233.683 34.8648C234.26 34.9796 234.858 34.9207 235.402 34.6955C235.946 34.4703 236.41 34.0889 236.737 33.5996C237.064 33.1103 237.239 32.535 237.239 31.9465C237.238 31.1577 236.924 30.4014 236.366 29.8436C235.808 29.2858 235.052 28.972 234.263 28.9711Z" fill="#002A44"/>
<path d="M235.452 71.8173H193.201V44.4434H235.452V71.8173ZM194.391 70.6271H234.262V45.6335H194.391V70.6271Z" fill="#002A44"/>
<path d="M194.117 44.5367L193.477 45.5402L234.537 71.7239L235.177 70.7204L194.117 44.5367Z" fill="#002A44"/>
<path d="M234.539 44.5389L193.476 70.718L194.115 71.7216L235.179 45.5426L234.539 44.5389Z" fill="#002A44"/>
<path d="M235.452 107.522H193.201V80.1484H235.452V107.522ZM194.391 106.332H234.262V81.3386H194.391V106.332Z" fill="#002A44"/>
<path d="M194.117 80.2417L193.477 81.2453L234.537 107.429L235.177 106.425L194.117 80.2417Z" fill="#002A44"/>
<path d="M234.539 80.244L193.476 106.423L194.115 107.427L235.179 81.2476L234.539 80.244Z" fill="#002A44"/>
<path d="M52.6191 137.83H77.1983C78.8757 128.134 78.8757 118.221 77.1983 108.524H52.6191C55.3882 118.097 55.3882 128.258 52.6191 137.83Z" fill="#037BC4"/>
</svg>
