<svg width="201" height="160" viewBox="0 0 201 160" fill="none" xmlns="http://www.w3.org/2000/svg">
<path d="M193.778 20.0057H0.0830078V139.579H193.778V20.0057Z" fill="#E6E6E6"/>
<path d="M188.238 35.0035H5.62109V132.505H188.238V35.0035Z" fill="white"/>
<path d="M193.694 19.8999H0V27.8316H193.694V19.8999Z" fill="#037BC4"/>
<path d="M6.11394 25.4248C6.95621 25.4248 7.63901 24.7666 7.63901 23.9548C7.63901 23.1429 6.95621 22.4847 6.11394 22.4847C5.27167 22.4847 4.58887 23.1429 4.58887 23.9548C4.58887 24.7666 5.27167 25.4248 6.11394 25.4248Z" fill="white"/>
<path d="M11.904 25.4248C12.7462 25.4248 13.429 24.7666 13.429 23.9548C13.429 23.1429 12.7462 22.4847 11.904 22.4847C11.0617 22.4847 10.3789 23.1429 10.3789 23.9548C10.3789 24.7666 11.0617 25.4248 11.904 25.4248Z" fill="white"/>
<path d="M17.694 25.4248C18.5363 25.4248 19.2191 24.7666 19.2191 23.9548C19.2191 23.1429 18.5363 22.4847 17.694 22.4847C16.8517 22.4847 16.1689 23.1429 16.1689 23.9548C16.1689 24.7666 16.8517 25.4248 17.694 25.4248Z" fill="white"/>
<path d="M69.1387 45.1199H22.2148V122.388H69.1387V45.1199Z" fill="#E6E6E6"/>
<path d="M116.342 45.1199H77.2393V66.389H116.342V45.1199Z" fill="#037BC4"/>
<path d="M116.342 72.3115H77.2393V95.1959H116.342V72.3115Z" fill="#E6E6E6"/>
<path d="M116.342 101.119H77.2393V122.388H116.342V101.119Z" fill="#E6E6E6"/>
<path d="M171.646 45.1199H124.722V78.7928H171.646V45.1199Z" fill="#E6E6E6"/>
<path d="M171.646 88.7151H124.722V122.388H171.646V88.7151Z" fill="#037BC4"/>
<path d="M97.1926 54.7339L96.5801 54.5773L109.947 6.10706H187.483V6.71777H110.434L97.1926 54.7339Z" fill="#003453"/>
<path d="M193.82 12.8244C192.504 12.8241 191.218 12.4478 190.124 11.743C189.031 11.0383 188.178 10.0367 187.675 8.86499C187.172 7.69326 187.04 6.40399 187.297 5.16022C187.554 3.91644 188.188 2.77402 189.118 1.87741C190.048 0.980808 191.234 0.370282 192.524 0.123041C193.815 -0.124199 195.152 0.0029462 196.368 0.488403C197.583 0.97386 198.622 1.79583 199.353 2.85036C200.084 3.90489 200.474 5.14463 200.474 6.41281C200.474 8.11332 199.773 9.74418 198.525 10.9467C197.278 12.1492 195.586 12.8248 193.822 12.825L193.82 12.8244ZM193.82 0.610718C192.63 0.610718 191.466 0.950969 190.476 1.58844C189.486 2.22591 188.715 3.13198 188.259 4.19205C187.804 5.25213 187.685 6.41862 187.917 7.54399C188.149 8.66936 188.722 9.70309 189.564 10.5144C190.406 11.3258 191.478 11.8783 192.646 12.1022C193.813 12.326 195.023 12.2111 196.123 11.772C197.223 11.3329 198.163 10.5893 198.824 9.6353C199.486 8.68125 199.839 7.5596 199.839 6.41218C199.839 4.87354 199.205 3.39791 198.076 2.30992C196.947 1.22194 195.416 0.610718 193.82 0.610718Z" fill="#003453"/>
<path d="M193.819 8.85494C195.219 8.85494 196.354 7.76124 196.354 6.41209C196.354 5.06294 195.219 3.96924 193.819 3.96924C192.42 3.96924 191.285 5.06294 191.285 6.41209C191.285 7.76124 192.42 8.85494 193.819 8.85494Z" fill="#0C8FDC"/>
<path d="M135.777 153.891H58.2402V153.28H135.289L148.531 105.263L149.143 105.42L135.777 153.891Z" fill="#003453"/>
<path d="M51.9052 160C50.5895 160 49.3033 159.624 48.2094 158.919C47.1154 158.215 46.2628 157.213 45.7593 156.042C45.2558 154.87 45.1241 153.581 45.3808 152.337C45.6374 151.093 46.271 149.95 47.2013 149.054C48.1317 148.157 49.317 147.546 50.6074 147.299C51.8978 147.051 53.2354 147.178 54.4509 147.664C55.6665 148.149 56.7054 148.971 57.4364 150.025C58.1674 151.08 58.5575 152.32 58.5575 153.588C58.5575 155.288 57.8566 156.919 56.6091 158.122C55.3615 159.324 53.6695 160 51.9052 160ZM51.9052 147.786C50.7148 147.786 49.5512 148.127 48.5614 148.764C47.5716 149.402 46.8002 150.308 46.3447 151.368C45.8891 152.428 45.7699 153.594 46.0022 154.72C46.2344 155.845 46.8076 156.879 47.6494 157.69C48.4911 158.501 49.5635 159.054 50.731 159.278C51.8985 159.502 53.1087 159.387 54.2084 158.948C55.3082 158.509 56.2482 157.765 56.9096 156.811C57.5709 155.857 57.9239 154.735 57.9239 153.588C57.9239 152.826 57.7682 152.072 57.4657 151.368C57.1633 150.664 56.7199 150.024 56.1611 149.486C55.6022 148.947 54.9387 148.52 54.2084 148.228C53.4782 147.936 52.6956 147.786 51.9052 147.786Z" fill="#003453"/>
<path d="M51.9054 156.029C53.3051 156.029 54.4397 154.935 54.4397 153.586C54.4397 152.237 53.3051 151.143 51.9054 151.143C50.5057 151.143 49.3711 152.237 49.3711 153.586C49.3711 154.935 50.5057 156.029 51.9054 156.029Z" fill="#0C8FDC"/>
</svg>
