<svg width="223" height="160" viewBox="0 0 223 160" fill="none" xmlns="http://www.w3.org/2000/svg">
<path d="M213.55 159.569L214.025 159.56C213.841 154.651 213.278 149.761 212.338 144.927C210.284 134.578 206.868 127.781 202.186 124.726L201.913 125.087C212.852 132.225 213.544 159.296 213.55 159.569Z" fill="#F1F1F1"/>
<path d="M207.611 159.464L208.086 159.455C208.076 158.966 207.779 147.443 202.898 144.258L202.625 144.619C207.309 147.676 207.609 159.346 207.611 159.464Z" fill="#F1F1F1"/>
<path d="M199.21 125.127C200.522 125.127 201.585 124.139 201.585 122.92C201.585 121.701 200.522 120.712 199.21 120.712C197.898 120.712 196.835 121.701 196.835 122.92C196.835 124.139 197.898 125.127 199.21 125.127Z" fill="#F1F1F1"/>
<path d="M200.387 144.112C201.699 144.112 202.762 143.124 202.762 141.905C202.762 140.685 201.699 139.697 200.387 139.697C199.075 139.697 198.012 140.685 198.012 141.905C198.012 143.124 199.075 144.112 200.387 144.112Z" fill="#F1F1F1"/>
<path d="M208.718 126.45C208.48 128.153 208.727 129.884 209.435 131.471C210.671 130.186 211.482 128.597 211.769 126.894C212.055 125.192 211.806 123.448 211.051 121.874C209.856 123.183 209.051 124.761 208.718 126.45Z" fill="#F1F1F1"/>
<path d="M200.954 132.886C202.716 133.401 204.594 133.476 206.397 133.105C205.252 131.749 203.709 130.731 201.956 130.172C200.202 129.613 198.311 129.537 196.512 129.953C197.691 131.275 199.222 132.287 200.954 132.886Z" fill="#F1F1F1"/>
<path d="M200.866 149.699C202.102 150.06 203.418 150.113 204.682 149.852C203.879 148.902 202.798 148.189 201.569 147.797C200.339 147.405 199.014 147.352 197.753 147.643C198.579 148.57 199.653 149.279 200.866 149.699Z" fill="#F1F1F1"/>
<path d="M11.2569 159.569L10.5674 159.556C10.8341 152.431 11.6521 145.333 13.015 138.317C15.9967 123.295 20.9546 113.43 27.7512 108.995L28.1471 109.519C12.2703 119.88 11.265 159.173 11.2569 159.569Z" fill="#F1F1F1"/>
<path d="M19.8761 159.416L19.1865 159.403C19.2013 158.693 19.6323 141.968 26.7171 137.345L27.113 137.869C20.3141 142.306 19.8794 159.245 19.8761 159.416Z" fill="#F1F1F1"/>
<path d="M32.0697 109.578C33.9737 109.578 35.5173 108.143 35.5173 106.374C35.5173 104.604 33.9737 103.169 32.0697 103.169C30.1656 103.169 28.6221 104.604 28.6221 106.374C28.6221 108.143 30.1656 109.578 32.0697 109.578Z" fill="#F1F1F1"/>
<path d="M30.3626 137.133C32.2667 137.133 33.8103 135.699 33.8103 133.929C33.8103 132.16 32.2667 130.725 30.3626 130.725C28.4586 130.725 26.915 132.16 26.915 133.929C26.915 135.699 28.4586 137.133 30.3626 137.133Z" fill="#F1F1F1"/>
<path d="M18.2688 111.499C18.6143 113.97 18.2554 116.483 17.228 118.785C15.4334 116.921 14.2571 114.614 13.8408 112.143C13.4245 109.672 13.786 107.141 14.8816 104.856C16.617 106.757 17.785 109.047 18.2688 111.499Z" fill="#F1F1F1"/>
<path d="M29.5382 120.84C26.9797 121.587 24.255 121.696 21.6367 121.157C23.2992 119.19 25.5382 117.712 28.084 116.9C30.6299 116.088 33.3739 115.978 35.9855 116.583C34.2746 118.502 32.0513 119.97 29.5382 120.84Z" fill="#F1F1F1"/>
<path d="M29.6662 145.243C27.8729 145.767 25.9631 145.843 24.1279 145.466C25.2932 144.087 26.8626 143.05 28.647 142.482C30.4314 141.913 32.3547 141.836 34.1853 142.259C32.986 143.605 31.4277 144.634 29.6662 145.243Z" fill="#F1F1F1"/>
<path d="M177.007 90.0492H89.0213C88.3186 90.0484 87.645 89.7887 87.1482 89.3269C86.6514 88.8652 86.3719 88.2391 86.3711 87.5861V59.9999C86.3719 59.3469 86.6514 58.7209 87.1482 58.2591C87.645 57.7974 88.3186 57.5376 89.0213 57.5369H177.007C177.71 57.5376 178.383 57.7974 178.88 58.2591C179.377 58.7209 179.656 59.3469 179.657 59.9999V87.5861C179.656 88.2391 179.377 88.8652 178.88 89.3269C178.383 89.7887 177.71 90.0484 177.007 90.0492Z" fill="#E5E5E5"/>
<path d="M123.474 64.926H100.152V67.3891H123.474V64.926Z" fill="white"/>
<path d="M154.217 67.8817C155.095 67.8817 155.807 67.22 155.807 66.4038C155.807 65.5877 155.095 64.926 154.217 64.926C153.339 64.926 152.627 65.5877 152.627 66.4038C152.627 67.22 153.339 67.8817 154.217 67.8817Z" fill="#037BC4"/>
<path d="M159.517 67.8817C160.395 67.8817 161.107 67.22 161.107 66.4038C161.107 65.5877 160.395 64.926 159.517 64.926C158.639 64.926 157.927 65.5877 157.927 66.4038C157.927 67.22 158.639 67.8817 159.517 67.8817Z" fill="#037BC4"/>
<path d="M164.817 67.8817C165.695 67.8817 166.407 67.22 166.407 66.4038C166.407 65.5877 165.695 64.926 164.817 64.926C163.938 64.926 163.227 65.5877 163.227 66.4038C163.227 67.22 163.938 67.8817 164.817 67.8817Z" fill="#037BC4"/>
<path d="M177.007 125.025H89.0213C88.3186 125.024 87.645 124.764 87.1482 124.302C86.6514 123.841 86.3719 123.215 86.3711 122.562V94.9755C86.3719 94.3225 86.6514 93.6964 87.1482 93.2347C87.645 92.7729 88.3186 92.5132 89.0213 92.5125H177.007C177.71 92.5132 178.383 92.7729 178.88 93.2347C179.377 93.6964 179.656 94.3225 179.657 94.9755V122.562C179.656 123.215 179.377 123.841 178.88 124.302C178.383 124.764 177.71 125.024 177.007 125.025Z" fill="#E5E5E5"/>
<path d="M123.474 99.9014H100.152V102.364H123.474V99.9014Z" fill="white"/>
<path d="M154.217 102.857C155.095 102.857 155.807 102.195 155.807 101.379C155.807 100.563 155.095 99.9014 154.217 99.9014C153.339 99.9014 152.627 100.563 152.627 101.379C152.627 102.195 153.339 102.857 154.217 102.857Z" fill="#037BC4"/>
<path d="M159.517 102.857C160.395 102.857 161.107 102.195 161.107 101.379C161.107 100.563 160.395 99.9014 159.517 99.9014C158.639 99.9014 157.927 100.563 157.927 101.379C157.927 102.195 158.639 102.857 159.517 102.857Z" fill="#037BC4"/>
<path d="M164.817 102.857C165.695 102.857 166.407 102.195 166.407 101.379C166.407 100.563 165.695 99.9014 164.817 99.9014C163.938 99.9014 163.227 100.563 163.227 101.379C163.227 102.195 163.938 102.857 164.817 102.857Z" fill="#037BC4"/>
<path d="M177.007 160H89.0213C88.3186 159.999 87.645 159.74 87.1482 159.278C86.6514 158.816 86.3719 158.19 86.3711 157.537V129.951C86.3719 129.298 86.6514 128.672 87.1482 128.21C87.645 127.748 88.3186 127.489 89.0213 127.488H177.007C177.71 127.489 178.383 127.748 178.88 128.21C179.377 128.672 179.656 129.298 179.657 129.951V157.537C179.656 158.19 179.377 158.816 178.88 159.278C178.383 159.74 177.71 159.999 177.007 160Z" fill="#E5E5E5"/>
<path d="M123.474 134.877H100.152V137.34H123.474V134.877Z" fill="white"/>
<path d="M154.217 137.833C155.095 137.833 155.807 137.171 155.807 136.355C155.807 135.539 155.095 134.877 154.217 134.877C153.339 134.877 152.627 135.539 152.627 136.355C152.627 137.171 153.339 137.833 154.217 137.833Z" fill="#037BC4"/>
<path d="M159.517 137.833C160.395 137.833 161.107 137.171 161.107 136.355C161.107 135.539 160.395 134.877 159.517 134.877C158.639 134.877 157.927 135.539 157.927 136.355C157.927 137.171 158.639 137.833 159.517 137.833Z" fill="#037BC4"/>
<path d="M164.817 137.833C165.695 137.833 166.407 137.171 166.407 136.355C166.407 135.539 165.695 134.877 164.817 134.877C163.938 134.877 163.227 135.539 163.227 136.355C163.227 137.171 163.938 137.833 164.817 137.833Z" fill="#037BC4"/>
<path d="M71.4257 100.519C69.7499 100.513 68.0814 100.313 66.4593 99.9214L66.1396 99.8392L65.843 99.7011C55.1207 94.7048 46.075 88.1053 38.9568 80.0859C33.0645 73.4086 28.4706 65.8272 25.3816 57.6826C21.6878 47.9315 19.9106 37.6426 20.1351 27.3069C20.1396 27.09 20.1435 26.9225 20.1435 26.807C20.1435 21.7828 23.1442 17.3744 27.7881 15.5761C31.3423 14.1997 63.6131 1.88071 65.9447 0.990626C70.3358 -1.05425 75.0204 0.652539 75.77 0.950983C77.4516 1.58994 107.284 12.9302 113.731 15.7832C120.375 18.7236 122.147 24.006 122.147 26.6636C122.147 38.6956 119.905 49.9405 115.483 60.0859C111.912 68.2978 106.85 75.879 100.519 82.4992C88.3035 95.2755 76.0846 99.8048 75.9666 99.8447C74.5063 100.312 72.9699 100.54 71.4257 100.519ZM68.5522 93.9034C69.6116 94.1241 72.0505 94.4552 73.6402 93.9163C75.6597 93.2318 85.8867 88.3029 95.4435 78.3075C108.648 64.4973 115.348 47.1368 115.357 26.708C115.334 26.2942 115.018 23.3423 110.811 21.4809C104.49 18.683 73.4815 6.89907 73.169 6.78029L73.0834 6.74654C72.4335 6.49345 70.3655 5.96038 68.9399 6.65466L68.6545 6.77834C68.3088 6.91026 34.0531 19.9864 30.3997 21.4012C27.844 22.3908 26.9334 24.8426 26.9334 26.8071C26.9334 26.9506 26.9294 27.1594 26.9238 27.4293C26.6318 41.4075 30.1122 75.8033 68.5522 93.9034Z" fill="#002C46"/>
<path d="M67.3645 3.85962C67.3645 3.85962 32.7974 17.0544 29.0938 18.4886C25.3902 19.9228 23.5383 23.3649 23.5383 26.8071C23.5383 30.2492 20.7606 75.1641 67.3645 96.8805C67.3645 96.8805 71.5943 97.9682 74.8033 96.8805C78.0124 95.7928 118.752 77.4348 118.752 26.6636C118.752 26.6636 118.752 21.5005 112.271 18.632C105.79 15.7636 74.4534 3.85962 74.4534 3.85962C74.4534 3.85962 70.6052 2.28198 67.3645 3.85962Z" fill="#037BC4"/>
<path opacity="0.2" d="M71.0674 14.186V84.5755C71.0674 84.5755 105.943 68.973 105.635 27.9545L71.0674 14.186Z" fill="black"/>
<path d="M221.953 160H0.269034C0.197682 160 0.129252 159.962 0.078798 159.894C0.0283444 159.827 0 159.735 0 159.639C0 159.544 0.0283444 159.452 0.078798 159.385C0.129252 159.317 0.197682 159.279 0.269034 159.279H221.953C222.024 159.279 222.093 159.317 222.143 159.385C222.194 159.452 222.222 159.544 222.222 159.639C222.222 159.735 222.194 159.827 222.143 159.894C222.093 159.962 222.024 160 221.953 160Z" fill="#CBCBCB"/>
</svg>
