<svg width="248" height="162" viewBox="0 0 248 162" fill="none" xmlns="http://www.w3.org/2000/svg">
<path d="M231.802 29.0188H99.5361V56.2329H231.802V29.0188Z" stroke="#002C46" stroke-miterlimit="10"/>
<path d="M20.6055 67.6757C24.3772 61.782 31.5183 57.8058 39.7068 57.8058C51.8277 57.8058 61.6536 66.5181 61.6536 77.2653C61.6536 84.1366 57.637 90.1761 51.572 93.6386" stroke="#002C46" stroke-miterlimit="10"/>
<path d="M222.438 34.2861H90.1719V61.5002H222.438V34.2861Z" fill="#037BC4"/>
<path d="M6.56012 8.31554C7.69142 8.31554 8.60851 7.39845 8.60851 6.26715C8.60851 5.13585 7.69142 4.21875 6.56012 4.21875C5.42882 4.21875 4.51172 5.13585 4.51172 6.26715C4.51172 7.39845 5.42882 8.31554 6.56012 8.31554Z" fill="#037BC4"/>
<path d="M13.5826 8.31554C14.7139 8.31554 15.631 7.39845 15.631 6.26715C15.631 5.13585 14.7139 4.21875 13.5826 4.21875C12.4513 4.21875 11.5342 5.13585 11.5342 6.26715C11.5342 7.39845 12.4513 8.31554 13.5826 8.31554Z" fill="#037BC4"/>
<path d="M20.606 8.31554C21.7373 8.31554 22.6544 7.39845 22.6544 6.26715C22.6544 5.13585 21.7373 4.21875 20.606 4.21875C19.4747 4.21875 18.5576 5.13585 18.5576 6.26715C18.5576 7.39845 19.4747 8.31554 20.606 8.31554Z" fill="#037BC4"/>
<path d="M246.805 1H1V160.773H246.805V1Z" stroke="#002C46" stroke-miterlimit="10"/>
<path d="M1 9.87683H246.805" stroke="#002C46" stroke-miterlimit="10"/>
<path d="M7.14508 7.43774C8.27638 7.43774 9.19347 6.52064 9.19347 5.38934C9.19347 4.25804 8.27638 3.34094 7.14508 3.34094C6.01378 3.34094 5.09668 4.25804 5.09668 5.38934C5.09668 6.52064 6.01378 7.43774 7.14508 7.43774Z" stroke="#002C46" stroke-miterlimit="10"/>
<path d="M14.1685 7.43774C15.2998 7.43774 16.2169 6.52064 16.2169 5.38934C16.2169 4.25804 15.2998 3.34094 14.1685 3.34094C13.0372 3.34094 12.1201 4.25804 12.1201 5.38934C12.1201 6.52064 13.0372 7.43774 14.1685 7.43774Z" stroke="#002C46" stroke-miterlimit="10"/>
<path d="M21.191 7.43774C22.3223 7.43774 23.2394 6.52064 23.2394 5.38934C23.2394 4.25804 22.3223 3.34094 21.191 3.34094C20.0597 3.34094 19.1426 4.25804 19.1426 5.38934C19.1426 6.52064 20.0597 7.43774 21.191 7.43774Z" stroke="#002C46" stroke-miterlimit="10"/>
<path d="M78.1729 9.87683V161" stroke="#002C46" stroke-miterlimit="10"/>
<path d="M148.843 84.1786H105.827V90.0311H148.843V84.1786Z" fill="#F2F2F2"/>
<path d="M216.439 84.1786H173.423V90.0311H216.439V84.1786Z" fill="#F2F2F2"/>
<path d="M151.184 81.2522H108.168V87.1047H151.184V81.2522Z" stroke="#002C46" stroke-miterlimit="10"/>
<path d="M148.843 129.535H105.827V135.388H148.843V129.535Z" fill="#F2F2F2"/>
<path d="M151.184 126.609H108.168V132.461H151.184V126.609Z" stroke="#002C46" stroke-miterlimit="10"/>
<path d="M216.585 106.272H105.973V112.124H216.585V106.272Z" fill="#F2F2F2"/>
<path d="M218.926 103.931H108.314V109.783H218.926V103.931Z" stroke="#002C46" stroke-miterlimit="10"/>
<path d="M218.78 81.2522H175.765V87.1047H218.78V81.2522Z" stroke="#002C46" stroke-miterlimit="10"/>
<path d="M13.0391 81.3614C13.0391 89.0083 18.0629 95.616 25.3479 98.7478L14.9299 73.4994C13.6902 75.9349 13.0424 78.6285 13.0391 81.3614ZM49.6226 80.3865C49.6226 77.9991 48.6531 76.3456 47.8216 75.0587C46.7145 73.4674 45.6772 72.1199 45.6772 70.5286C45.6772 68.7528 47.1994 67.0997 49.3442 67.0997C49.441 67.0997 49.5329 67.1104 49.6276 67.1152C45.4359 63.7881 40.2304 61.9983 34.879 62.0439C27.2491 62.0439 20.5364 65.5066 16.6313 70.7513C17.1436 70.7649 17.627 70.7741 18.0367 70.7741C20.3211 70.7741 23.8572 70.5289 23.8572 70.5289C25.0345 70.4676 25.1733 71.9971 23.9977 72.1202C23.9977 72.1202 22.8141 72.2434 21.4976 72.3044L29.4508 93.2293L34.2307 80.5501L30.8276 72.304C29.6515 72.243 28.5374 72.1199 28.5374 72.1199C27.3605 72.0588 27.4984 70.4672 28.6753 70.5286C28.6753 70.5286 32.2821 70.7738 34.4281 70.7738C36.7121 70.7738 40.2486 70.5286 40.2486 70.5286C41.4267 70.4672 41.5651 71.9967 40.3886 72.1199C40.3886 72.1199 39.203 72.243 37.889 72.304L45.7815 93.0705L47.9595 86.6314C48.9041 83.9595 49.6226 82.0403 49.6226 80.3865H49.6226Z" fill="#037BC4"/>
<path d="M35.2617 83.0511L28.709 99.8932C33.1248 101.039 37.7724 100.932 42.1311 99.5855C42.0707 99.5021 42.0187 99.413 41.9757 99.3194L35.2617 83.0511ZM54.0422 72.093C54.1414 72.7505 54.1906 73.4145 54.1893 74.0795C54.1893 76.0398 53.7754 78.2435 52.5287 80.9989L45.8575 98.0597C52.3504 94.7106 56.7177 88.4885 56.7177 81.3613C56.7121 78.0822 55.7851 74.8706 54.0422 72.093L54.0422 72.093Z" fill="#037BC4"/>
</svg>
