<svg width="215" height="160" viewBox="0 0 215 160" fill="none" xmlns="http://www.w3.org/2000/svg">
<path d="M211.337 0H2.99465C2.20069 0.000880963 1.4395 0.316668 0.878084 0.878084C0.316668 1.4395 0.000880963 2.20069 0 2.99465V157.005C0.000880963 157.799 0.316668 158.56 0.878084 159.122C1.4395 159.683 2.20069 159.999 2.99465 160H211.337C212.131 159.999 212.892 159.683 213.453 159.122C214.015 158.56 214.331 157.799 214.332 157.005V2.99465C214.331 2.20069 214.015 1.4395 213.453 0.878084C212.892 0.316668 212.131 0.000880963 211.337 0ZM213.476 157.005C213.476 157.573 213.25 158.117 212.849 158.518C212.448 158.919 211.904 159.144 211.337 159.144H2.99465C2.42741 159.144 1.88347 158.919 1.48237 158.518C1.08127 158.117 0.855842 157.573 0.855615 157.005V2.99465C0.855842 2.42741 1.08127 1.88347 1.48237 1.48237C1.88347 1.08127 2.42741 0.855842 2.99465 0.855615H211.337C211.904 0.855842 212.448 1.08127 212.849 1.48237C213.25 1.88347 213.476 2.42741 213.476 2.99465V157.005Z" fill="#002A44"/>
<path d="M213.904 11.9958H0.427734V12.8514H213.904V11.9958Z" fill="#002A44"/>
<path d="M7.70063 8.98397C9.11826 8.98397 10.2675 7.83475 10.2675 6.41713C10.2675 4.9995 9.11826 3.85028 7.70063 3.85028C6.283 3.85028 5.13379 4.9995 5.13379 6.41713C5.13379 7.83475 6.283 8.98397 7.70063 8.98397Z" fill="#002A44"/>
<path d="M15.0805 8.98397C16.4981 8.98397 17.6474 7.83475 17.6474 6.41713C17.6474 4.9995 16.4981 3.85028 15.0805 3.85028C13.6629 3.85028 12.5137 4.9995 12.5137 6.41713C12.5137 7.83475 13.6629 8.98397 15.0805 8.98397Z" fill="#002A44"/>
<path d="M22.4594 8.98397C23.8771 8.98397 25.0263 7.83475 25.0263 6.41713C25.0263 4.9995 23.8771 3.85028 22.4594 3.85028C21.0418 3.85028 19.8926 4.9995 19.8926 6.41713C19.8926 7.83475 21.0418 8.98397 22.4594 8.98397Z" fill="#002A44"/>
<path d="M129.121 133.179C129.008 133.179 128.899 133.133 128.819 133.053C128.738 132.973 128.693 132.864 128.693 132.751V115.211C128.693 115.097 128.738 114.988 128.819 114.908C128.899 114.828 129.008 114.783 129.121 114.783C129.235 114.783 129.343 114.828 129.424 114.908C129.504 114.988 129.549 115.097 129.549 115.211V132.751C129.549 132.864 129.504 132.973 129.424 133.053C129.343 133.133 129.235 133.179 129.121 133.179Z" fill="#002A44"/>
<path d="M128.536 108.366C128.46 108.366 128.386 108.346 128.321 108.307L104.015 94.1453C103.917 94.0881 103.846 93.9944 103.817 93.8848C103.788 93.7751 103.804 93.6586 103.861 93.5606C103.918 93.4627 104.012 93.3913 104.121 93.3623C104.231 93.3333 104.347 93.349 104.445 93.4059L128.751 107.568C128.833 107.615 128.896 107.688 128.932 107.775C128.967 107.862 128.973 107.959 128.949 108.049C128.924 108.14 128.871 108.22 128.796 108.278C128.721 108.335 128.63 108.366 128.536 108.366Z" fill="#002A44"/>
<path d="M79.9243 108.366C79.8303 108.366 79.7388 108.335 79.664 108.278C79.5893 108.221 79.5355 108.14 79.5109 108.05C79.4864 107.959 79.4924 107.862 79.5281 107.775C79.5639 107.688 79.6273 107.615 79.7086 107.568L104.014 93.406C104.112 93.3495 104.229 93.334 104.338 93.3631C104.448 93.3923 104.541 93.4635 104.598 93.5613C104.655 93.6591 104.671 93.7754 104.642 93.8849C104.614 93.9944 104.543 94.0881 104.445 94.1455L80.1392 108.308C80.074 108.346 79.9998 108.366 79.9243 108.366Z" fill="#002A44"/>
<path d="M153.777 129.756C153.701 129.756 153.627 129.736 153.562 129.698L129.256 115.536C129.158 115.479 129.087 115.385 129.058 115.275C129.029 115.166 129.045 115.049 129.102 114.951C129.159 114.853 129.253 114.782 129.362 114.753C129.472 114.724 129.589 114.74 129.687 114.796L153.993 128.959C154.074 129.006 154.137 129.079 154.173 129.166C154.209 129.253 154.215 129.349 154.19 129.44C154.166 129.531 154.112 129.611 154.037 129.668C153.962 129.725 153.871 129.756 153.777 129.756V129.756Z" fill="#002A44"/>
<path d="M105.166 129.756C105.071 129.756 104.98 129.725 104.905 129.668C104.831 129.611 104.777 129.531 104.752 129.44C104.728 129.349 104.734 129.253 104.769 129.166C104.805 129.079 104.868 129.006 104.95 128.958L129.256 114.796C129.354 114.74 129.47 114.724 129.579 114.753C129.689 114.783 129.782 114.854 129.839 114.952C129.896 115.049 129.912 115.166 129.883 115.275C129.855 115.385 129.784 115.478 129.686 115.536L105.38 129.698C105.315 129.736 105.241 129.756 105.166 129.756Z" fill="#002A44"/>
<path d="M104.309 86.5474C104.196 86.5475 104.087 86.5025 104.007 86.4225C103.927 86.3425 103.882 86.234 103.881 86.1207L103.842 70.554C103.842 70.4978 103.853 70.4421 103.874 70.3902C103.895 70.3382 103.927 70.291 103.966 70.2511C104.006 70.2113 104.053 70.1797 104.105 70.1581C104.157 70.1365 104.212 70.1253 104.269 70.1251H104.27C104.383 70.1251 104.492 70.17 104.572 70.25C104.652 70.33 104.697 70.4386 104.697 70.5519L104.737 86.1186C104.737 86.1748 104.726 86.2305 104.705 86.2824C104.683 86.3344 104.652 86.3816 104.612 86.4214C104.573 86.4613 104.526 86.4929 104.474 86.5145C104.422 86.5361 104.366 86.5473 104.31 86.5475L104.309 86.5474Z" fill="#002C46"/>
<path d="M109.843 94.6398H98.6976C98.1872 94.6393 97.6979 94.4363 97.3369 94.0754C96.976 93.7145 96.773 93.2251 96.7725 92.7147V86.9901C96.773 86.4797 96.976 85.9903 97.3369 85.6294C97.6979 85.2685 98.1872 85.0655 98.6976 85.0649H109.843C110.353 85.0655 110.843 85.2685 111.203 85.6294C111.564 85.9903 111.767 86.4797 111.768 86.9901V92.7147C111.767 93.2251 111.564 93.7145 111.203 94.0754C110.843 94.4363 110.353 94.6393 109.843 94.6398Z" fill="#CCCCCC"/>
<path d="M91.3966 65.5404H67.6817C67.5683 65.5404 67.4594 65.4953 67.3792 65.4151C67.299 65.3348 67.2539 65.226 67.2539 65.1126C67.2539 64.9991 67.299 64.8903 67.3792 64.8101C67.4594 64.7298 67.5683 64.6848 67.6817 64.6848H91.3966C91.51 64.6848 91.6188 64.7298 91.6991 64.8101C91.7793 64.8903 91.8244 64.9991 91.8244 65.1126C91.8244 65.226 91.7793 65.3348 91.6991 65.4151C91.6188 65.4953 91.51 65.5404 91.3966 65.5404Z" fill="#002C46"/>
<path d="M104.27 59.43C104.156 59.4299 104.047 59.3849 103.967 59.3046C103.887 59.2244 103.842 59.1156 103.842 59.0021V44.1945C103.842 44.0811 103.887 43.9723 103.967 43.892C104.047 43.8118 104.156 43.7667 104.27 43.7667C104.383 43.7667 104.492 43.8118 104.572 43.892C104.652 43.9723 104.697 44.0811 104.697 44.1945V59.0021C104.697 59.1156 104.652 59.2244 104.572 59.3046C104.492 59.3849 104.383 59.4299 104.27 59.43Z" fill="#002C46"/>
<path d="M58.4539 65.5405C58.3772 65.5405 58.302 65.5199 58.2361 65.4807L35.2137 51.8354C35.1164 51.7774 35.046 51.6832 35.0181 51.5734C34.9902 51.4636 35.0069 51.3472 35.0647 51.2498C35.1224 51.1523 35.2165 51.0817 35.3262 51.0535C35.4359 51.0253 35.5523 51.0418 35.6499 51.0993L58.6724 64.7446C58.7531 64.7924 58.8158 64.8655 58.8509 64.9524C58.8861 65.0394 58.8916 65.1355 58.8668 65.2259C58.842 65.3164 58.7881 65.3962 58.7135 65.453C58.6389 65.5098 58.5476 65.5406 58.4539 65.5405Z" fill="#002C46"/>
<path d="M35.4331 79.1858C35.3393 79.1858 35.2481 79.1551 35.1735 79.0983C35.0989 79.0414 35.045 78.9616 35.0202 78.8712C34.9953 78.7808 35.0009 78.6847 35.036 78.5977C35.0711 78.5107 35.1339 78.4377 35.2145 78.3899L58.237 64.7445C58.3346 64.6867 58.4512 64.67 58.5612 64.6981C58.6711 64.7262 58.7654 64.7969 58.8232 64.8945C58.8811 64.9921 58.8978 65.1087 58.8697 65.2186C58.8416 65.3285 58.7709 65.4228 58.6733 65.4807L35.6508 79.126C35.5849 79.1651 35.5097 79.1858 35.4331 79.1858Z" fill="#002C46"/>
<path d="M65.9692 72.4409H60.2445C59.7341 72.4403 59.2447 72.2373 58.8838 71.8764C58.5229 71.5155 58.3199 71.0262 58.3193 70.5158V59.3706C58.3199 58.8602 58.5229 58.3709 58.8838 58.01C59.2447 57.6491 59.7341 57.4461 60.2445 57.4455H65.9692C66.4796 57.4461 66.9689 57.6491 67.3298 58.01C67.6907 58.3709 67.8937 58.8602 67.8943 59.3706V70.5158C67.8937 71.0262 67.6907 71.5155 67.3298 71.8764C66.9689 72.2373 66.4796 72.4403 65.9692 72.4409Z" fill="#CCCCCC"/>
<path d="M109.843 45.3457H98.6976C98.1872 45.3451 97.6979 45.1421 97.3369 44.7812C96.976 44.4203 96.773 43.931 96.7725 43.4206V37.6957C96.773 37.1853 96.976 36.696 97.3369 36.3351C97.6979 35.9742 98.1872 35.7711 98.6976 35.7706H109.843C110.353 35.7711 110.843 35.9742 111.203 36.3351C111.564 36.696 111.767 37.1853 111.768 37.6957V43.4206C111.767 43.931 111.564 44.4203 111.203 44.7812C110.843 45.1421 110.353 45.3451 109.843 45.3457Z" fill="#CCCCCC"/>
<path d="M33.8842 59.1788H28.1595C27.6491 59.1782 27.1598 58.9752 26.7988 58.6143C26.4379 58.2534 26.2349 57.7641 26.2344 57.2537V46.1085C26.2349 45.5981 26.4379 45.1088 26.7988 44.7479C27.1598 44.387 27.6491 44.184 28.1595 44.1834H33.8842C34.3946 44.184 34.8839 44.387 35.2448 44.7479C35.6058 45.1088 35.8088 45.5981 35.8093 46.1085V57.2537C35.8088 57.7641 35.6058 58.2534 35.2448 58.6143C34.8839 58.9752 34.3946 59.1782 33.8842 59.1788Z" fill="#CCCCCC"/>
<path d="M33.8842 86.1307H28.1595C27.6491 86.1302 27.1598 85.9271 26.7988 85.5662C26.4379 85.2053 26.2349 84.716 26.2344 84.2056V73.0604C26.2349 72.55 26.4379 72.0607 26.7988 71.6998C27.1598 71.3389 27.6491 71.1359 28.1595 71.1353H33.8842C34.3946 71.1359 34.8839 71.3389 35.2448 71.6998C35.6058 72.0607 35.8088 72.55 35.8093 73.0604V84.2056C35.8088 84.716 35.6058 85.2053 35.2448 85.5662C34.8839 85.9271 34.3946 86.1302 33.8842 86.1307Z" fill="#CCCCCC"/>
<path d="M140.858 65.5404H117.143C117.029 65.5404 116.92 65.4953 116.84 65.4151C116.76 65.3348 116.715 65.226 116.715 65.1126C116.715 64.9991 116.76 64.8903 116.84 64.8101C116.92 64.7298 117.029 64.6848 117.143 64.6848H140.858C140.971 64.6848 141.08 64.7298 141.16 64.8101C141.24 64.8903 141.285 64.9991 141.285 65.1126C141.285 65.226 141.24 65.3348 141.16 65.4151C141.08 65.4953 140.971 65.5404 140.858 65.5404Z" fill="#002C46"/>
<path d="M150.084 65.5404C149.991 65.5405 149.899 65.5098 149.825 65.4529C149.75 65.3961 149.696 65.3163 149.672 65.2258C149.647 65.1354 149.652 65.0393 149.687 64.9523C149.723 64.8654 149.785 64.7923 149.866 64.7445L172.888 51.0992C172.937 51.0705 172.99 51.0517 173.046 51.0437C173.101 51.0358 173.158 51.0389 173.213 51.0528C173.267 51.0667 173.318 51.0912 173.363 51.1249C173.408 51.1586 173.446 51.2008 173.475 51.2492C173.503 51.2975 173.522 51.351 173.53 51.4066C173.538 51.4622 173.535 51.5189 173.521 51.5733C173.507 51.6277 173.483 51.6789 173.449 51.7238C173.415 51.7688 173.373 51.8067 173.325 51.8353L150.302 65.4807C150.236 65.5198 150.161 65.5404 150.084 65.5404Z" fill="#002C46"/>
<path d="M173.106 79.1857C173.029 79.1858 172.954 79.1651 172.888 79.126L149.866 65.4806C149.768 65.4228 149.698 65.3286 149.67 65.2186C149.641 65.1087 149.658 64.9921 149.716 64.8945C149.774 64.7969 149.868 64.7262 149.978 64.6981C150.088 64.67 150.205 64.6867 150.302 64.7445L173.325 78.3899C173.405 78.4377 173.468 78.5107 173.503 78.5976C173.538 78.6846 173.544 78.7807 173.519 78.8712C173.494 78.9616 173.44 79.0414 173.366 79.0983C173.291 79.1551 173.2 79.1858 173.106 79.1857V79.1857Z" fill="#002C46"/>
<path d="M148.294 72.4409H142.57C142.059 72.4403 141.57 72.2373 141.209 71.8764C140.848 71.5155 140.645 71.0262 140.645 70.5158V59.3706C140.645 58.8602 140.848 58.3709 141.209 58.01C141.57 57.6491 142.059 57.4461 142.57 57.4455H148.294C148.805 57.4461 149.294 57.6491 149.655 58.01C150.016 58.3709 150.219 58.8602 150.219 59.3706V70.5158C150.219 71.0262 150.016 71.5155 149.655 71.8764C149.294 72.2373 148.805 72.4403 148.294 72.4409Z" fill="#CCCCCC"/>
<path d="M180.38 59.1788H174.656C174.145 59.1782 173.656 58.9752 173.295 58.6143C172.934 58.2534 172.731 57.7641 172.73 57.2537V46.1085C172.731 45.5981 172.934 45.1088 173.295 44.7479C173.656 44.387 174.145 44.184 174.656 44.1834H180.38C180.891 44.184 181.38 44.387 181.741 44.7479C182.102 45.1088 182.305 45.5981 182.305 46.1085V57.2537C182.305 57.7641 182.102 58.2534 181.741 58.6143C181.38 58.9752 180.891 59.1782 180.38 59.1788Z" fill="#CCCCCC"/>
<path d="M180.38 86.1307H174.656C174.145 86.1301 173.656 85.9271 173.295 85.5662C172.934 85.2053 172.731 84.716 172.73 84.2056V73.0604C172.731 72.55 172.934 72.0607 173.295 71.6998C173.656 71.3389 174.145 71.1359 174.656 71.1353H180.38C180.891 71.1359 181.38 71.3389 181.741 71.6998C182.102 72.0607 182.305 72.55 182.305 73.0604V84.2056C182.305 84.716 182.102 85.2053 181.741 85.5662C181.38 85.9271 180.891 86.1301 180.38 86.1307Z" fill="#CCCCCC"/>
<path d="M85.0294 116.458H73.8841C73.3737 116.458 72.8844 116.255 72.5235 115.894C72.1625 115.533 71.9596 115.043 71.959 114.533V108.808C71.9596 108.298 72.1625 107.809 72.5235 107.448C72.8844 107.087 73.3737 106.884 73.8841 106.883H85.0294C85.5398 106.884 86.0291 107.087 86.39 107.448C86.7509 107.809 86.9539 108.298 86.9545 108.808V114.533C86.9539 115.043 86.7509 115.533 86.39 115.894C86.0291 116.255 85.5398 116.458 85.0294 116.458Z" fill="#CCCCCC"/>
<path d="M134.575 116.458H123.43C122.92 116.458 122.43 116.255 122.069 115.894C121.708 115.533 121.505 115.043 121.505 114.533V108.808C121.505 108.298 121.708 107.809 122.069 107.448C122.43 107.087 122.92 106.884 123.43 106.883H134.575C135.086 106.884 135.575 107.087 135.936 107.448C136.297 107.809 136.5 108.298 136.5 108.808V114.533C136.5 115.043 136.297 115.533 135.936 115.894C135.575 116.255 135.086 116.458 134.575 116.458Z" fill="#CCCCCC"/>
<path d="M111.901 137.421H100.756C100.246 137.42 99.7564 137.217 99.3955 136.856C99.0346 136.495 98.8316 136.006 98.8311 135.496V129.771C98.8316 129.26 99.0346 128.771 99.3955 128.41C99.7564 128.049 100.246 127.846 100.756 127.846H111.901C112.412 127.846 112.901 128.049 113.262 128.41C113.623 128.771 113.826 129.26 113.827 129.771V135.496C113.826 136.006 113.623 136.495 113.262 136.856C112.901 137.217 112.412 137.42 111.901 137.421Z" fill="#CCCCCC"/>
<path d="M159.389 137.421H148.243C147.733 137.42 147.244 137.217 146.883 136.856C146.522 136.495 146.319 136.006 146.318 135.496V129.771C146.319 129.26 146.522 128.771 146.883 128.41C147.244 128.049 147.733 127.846 148.243 127.846H159.389C159.899 127.846 160.388 128.049 160.749 128.41C161.11 128.771 161.313 129.26 161.314 129.771V135.496C161.313 136.006 161.11 136.495 160.749 136.856C160.388 137.217 159.899 137.42 159.389 137.421Z" fill="#CCCCCC"/>
<path d="M134.575 137.421H123.43C122.92 137.42 122.43 137.217 122.069 136.856C121.708 136.495 121.505 136.006 121.505 135.496V129.771C121.505 129.26 121.708 128.771 122.069 128.41C122.43 128.049 122.92 127.846 123.43 127.846H134.575C135.086 127.846 135.575 128.049 135.936 128.41C136.297 128.771 136.5 129.26 136.5 129.771V135.496C136.5 136.006 136.297 136.495 135.936 136.856C135.575 137.217 135.086 137.42 134.575 137.421Z" fill="#CCCCCC"/>
<path d="M117.819 72.5547H90.722C90.2116 72.5542 89.7223 72.3512 89.3614 71.9903C89.0005 71.6294 88.7975 71.14 88.7969 70.6296V59.5956C88.7975 59.0852 89.0005 58.5959 89.3614 58.235C89.7223 57.8741 90.2116 57.671 90.722 57.6705H117.819C118.329 57.671 118.818 57.8741 119.179 58.235C119.54 58.5959 119.743 59.0852 119.744 59.5956V70.6296C119.743 71.14 119.54 71.6294 119.179 71.9903C118.818 72.3512 118.329 72.5542 117.819 72.5547Z" fill="#037BC4"/>
</svg>
