<svg width="180" height="180" viewBox="0 0 180 180" fill="none" xmlns="http://www.w3.org/2000/svg">
<path d="M177.485 23H2.51497C1.84819 23.0007 1.20892 23.2659 0.737433 23.7374C0.265945 24.2089 0.000739851 24.8482 0 25.515V154.856C0.000739851 155.523 0.265945 156.162 0.737433 156.634C1.20892 157.105 1.84819 157.371 2.51497 157.371H177.485C178.152 157.371 178.791 157.105 179.263 156.634C179.734 156.162 179.999 155.523 180 154.856V25.515C179.999 24.8482 179.734 24.2089 179.263 23.7374C178.791 23.2659 178.152 23.0007 177.485 23V23ZM179.281 154.856C179.281 155.333 179.092 155.789 178.755 156.126C178.418 156.463 177.961 156.652 177.485 156.653H2.51497C2.03859 156.652 1.58178 156.463 1.24493 156.126C0.908075 155.789 0.718753 155.333 0.718563 154.856V25.515C0.718753 25.0386 0.908075 24.5818 1.24493 24.2449C1.58178 23.9081 2.03859 23.7188 2.51497 23.7186H177.485C177.961 23.7188 178.418 23.9081 178.755 24.2449C179.092 24.5818 179.281 25.0386 179.281 25.515V154.856Z" fill="#002A44"/>
<path d="M179.641 33.0742H0.359375V33.7928H179.641V33.0742Z" fill="#002A44"/>
<path d="M6.46721 30.5449C7.65777 30.5449 8.6229 29.5798 8.6229 28.3892C8.6229 27.1987 7.65777 26.2335 6.46721 26.2335C5.27666 26.2335 4.31152 27.1987 4.31152 28.3892C4.31152 29.5798 5.27666 30.5449 6.46721 30.5449Z" fill="#002A44"/>
<path d="M12.6645 30.5449C13.855 30.5449 14.8202 29.5798 14.8202 28.3892C14.8202 27.1987 13.855 26.2335 12.6645 26.2335C11.4739 26.2335 10.5088 27.1987 10.5088 28.3892C10.5088 29.5798 11.4739 30.5449 12.6645 30.5449Z" fill="#002A44"/>
<path d="M18.8617 30.5449C20.0523 30.5449 21.0174 29.5798 21.0174 28.3892C21.0174 27.1987 20.0523 26.2335 18.8617 26.2335C17.6712 26.2335 16.7061 27.1987 16.7061 28.3892C16.7061 29.5798 17.6712 30.5449 18.8617 30.5449Z" fill="#002A44"/>
<path d="M108.438 134.846C108.343 134.846 108.252 134.808 108.184 134.741C108.117 134.673 108.079 134.582 108.079 134.487V119.756C108.079 119.661 108.117 119.57 108.184 119.502C108.252 119.435 108.343 119.397 108.438 119.397C108.534 119.397 108.625 119.435 108.692 119.502C108.76 119.57 108.798 119.661 108.798 119.756V134.487C108.798 134.582 108.76 134.673 108.692 134.741C108.625 134.808 108.534 134.846 108.438 134.846V134.846Z" fill="#002A44"/>
<path d="M107.947 114.008C107.883 114.008 107.821 113.991 107.766 113.959L87.3537 102.065C87.2715 102.017 87.2118 101.938 87.1876 101.846C87.1634 101.754 87.1767 101.656 87.2246 101.574C87.2725 101.492 87.3511 101.432 87.4432 101.408C87.5352 101.383 87.6331 101.396 87.7155 101.444L108.128 113.338C108.196 113.378 108.25 113.439 108.28 113.512C108.31 113.585 108.315 113.666 108.294 113.742C108.273 113.818 108.228 113.886 108.165 113.934C108.103 113.982 108.026 114.008 107.947 114.008V114.008Z" fill="#002A44"/>
<path d="M67.1223 114.008C67.0433 114.008 66.9665 113.982 66.9037 113.934C66.841 113.886 66.7958 113.818 66.7752 113.742C66.7545 113.666 66.7596 113.585 66.7896 113.512C66.8196 113.439 66.8729 113.378 66.9411 113.338L87.3537 101.444C87.436 101.397 87.5338 101.384 87.6256 101.408C87.7175 101.433 87.7959 101.493 87.8437 101.575C87.8916 101.657 87.9049 101.755 87.8809 101.846C87.8568 101.938 87.7973 102.017 87.7154 102.065L67.3028 113.959C67.248 113.991 67.1857 114.008 67.1223 114.008V114.008Z" fill="#002A44"/>
<path d="M129.145 131.972C129.082 131.972 129.019 131.955 128.965 131.923L108.552 120.029C108.47 119.981 108.41 119.903 108.386 119.811C108.362 119.719 108.375 119.621 108.423 119.538C108.471 119.456 108.549 119.396 108.641 119.372C108.733 119.347 108.831 119.361 108.914 119.408L129.326 131.302C129.395 131.342 129.448 131.403 129.478 131.476C129.508 131.549 129.513 131.63 129.492 131.706C129.472 131.783 129.426 131.85 129.364 131.898C129.301 131.946 129.224 131.972 129.145 131.972V131.972Z" fill="#002A44"/>
<path d="M88.3206 131.972C88.2416 131.972 88.1647 131.946 88.102 131.898C88.0392 131.85 87.994 131.783 87.9734 131.706C87.9528 131.63 87.9578 131.549 87.9878 131.476C88.0178 131.403 88.0711 131.342 88.1394 131.302L108.552 119.408C108.634 119.361 108.732 119.348 108.824 119.372C108.916 119.397 108.994 119.457 109.042 119.539C109.09 119.621 109.103 119.719 109.079 119.811C109.055 119.902 108.996 119.981 108.914 120.029L88.5011 131.923C88.4463 131.955 88.384 131.972 88.3206 131.972V131.972Z" fill="#002A44"/>
<path d="M87.6005 95.6843C87.5054 95.6843 87.4141 95.6465 87.3468 95.5794C87.2794 95.5122 87.2415 95.421 87.2413 95.3258L87.208 82.2526C87.2079 82.2054 87.2171 82.1587 87.235 82.1151C87.253 82.0714 87.2793 82.0317 87.3126 81.9983C87.3459 81.9649 87.3854 81.9383 87.429 81.9201C87.4725 81.902 87.5192 81.8926 87.5664 81.8925H87.5673C87.6624 81.8924 87.7537 81.9302 87.821 81.9974C87.8884 82.0646 87.9264 82.1557 87.9266 82.2509L87.9598 95.3241C87.9599 95.3713 87.9508 95.418 87.9328 95.4617C87.9149 95.5053 87.8885 95.545 87.8552 95.5784C87.8219 95.6119 87.7824 95.6384 87.7388 95.6566C87.6953 95.6748 87.6486 95.6842 87.6014 95.6843L87.6005 95.6843Z" fill="#002C46"/>
<path d="M92.2482 102.48H82.8883C82.4596 102.48 82.0486 102.31 81.7456 102.006C81.4425 101.703 81.272 101.292 81.2715 100.864V96.056C81.272 95.6274 81.4425 95.2164 81.7456 94.9133C82.0486 94.6103 82.4596 94.4398 82.8883 94.4393H92.2482C92.6769 94.4398 93.0878 94.6103 93.3909 94.9133C93.694 95.2164 93.8645 95.6274 93.865 96.056V100.864C93.8645 101.292 93.694 101.703 93.3909 102.006C93.0878 102.31 92.6769 102.48 92.2482 102.48V102.48Z" fill="#CCCCCC"/>
<path d="M76.7569 78.0422H56.8407C56.7454 78.0422 56.654 78.0043 56.5867 77.9369C56.5193 77.8696 56.4814 77.7782 56.4814 77.6829C56.4814 77.5876 56.5193 77.4962 56.5867 77.4288C56.654 77.3615 56.7454 77.3236 56.8407 77.3236H76.7569C76.8522 77.3236 76.9436 77.3615 77.011 77.4288C77.0784 77.4962 77.1162 77.5876 77.1162 77.6829C77.1162 77.7782 77.0784 77.8696 77.011 77.9369C76.9436 78.0043 76.8522 78.0422 76.7569 78.0422Z" fill="#002C46"/>
<path d="M87.5673 72.9105C87.472 72.9105 87.3806 72.8727 87.3132 72.8053C87.2459 72.7379 87.208 72.6465 87.208 72.5512V60.1155C87.208 60.0202 87.2459 59.9288 87.3132 59.8615C87.3806 59.7941 87.472 59.7562 87.5673 59.7562C87.6626 59.7562 87.754 59.7941 87.8213 59.8615C87.8887 59.9288 87.9266 60.0202 87.9266 60.1155V72.5512C87.9266 72.6465 87.8887 72.7379 87.8213 72.8053C87.7539 72.8727 87.6626 72.9105 87.5673 72.9105V72.9105Z" fill="#002C46"/>
<path d="M49.0904 78.0423C49.026 78.0423 48.9629 78.025 48.9075 77.9921L29.5728 66.5325C29.4911 66.4837 29.432 66.4046 29.4086 66.3124C29.3851 66.2202 29.3992 66.1225 29.4477 66.0406C29.4962 65.9588 29.5752 65.8995 29.6673 65.8758C29.7594 65.8521 29.8572 65.8659 29.9392 65.9142L49.2739 77.3739C49.3417 77.4141 49.3944 77.4754 49.4239 77.5484C49.4534 77.6214 49.458 77.7021 49.4372 77.7781C49.4163 77.8541 49.3711 77.9211 49.3084 77.9688C49.2458 78.0165 49.1692 78.0423 49.0904 78.0423V78.0423Z" fill="#002C46"/>
<path d="M29.7571 89.5018C29.6783 89.5019 29.6017 89.4761 29.539 89.4284C29.4764 89.3806 29.4311 89.3136 29.4103 89.2377C29.3894 89.1617 29.3941 89.081 29.4236 89.008C29.4531 88.935 29.5058 88.8736 29.5735 88.8335L48.9083 77.3738C48.9903 77.3252 49.0882 77.3112 49.1805 77.3348C49.2728 77.3584 49.352 77.4178 49.4006 77.4997C49.4492 77.5817 49.4632 77.6796 49.4396 77.772C49.416 77.8643 49.3567 77.9434 49.2747 77.992L29.9399 89.4517C29.8846 89.4845 29.8214 89.5019 29.7571 89.5018Z" fill="#002C46"/>
<path d="M55.402 83.8373H50.5943C50.1657 83.8369 49.7547 83.6664 49.4516 83.3633C49.1485 83.0602 48.978 82.6492 48.9775 82.2206V72.8607C48.978 72.432 49.1485 72.0211 49.4516 71.718C49.7547 71.4149 50.1657 71.2444 50.5943 71.2439H55.402C55.8307 71.2444 56.2416 71.4149 56.5447 71.718C56.8478 72.0211 57.0183 72.432 57.0188 72.8607V82.2206C57.0183 82.6492 56.8478 83.0602 56.5447 83.3633C56.2416 83.6664 55.8307 83.8369 55.402 83.8373V83.8373Z" fill="#CCCCCC"/>
<path d="M92.2482 61.0823H82.8883C82.4596 61.0818 82.0486 60.9113 81.7456 60.6082C81.4425 60.3051 81.272 59.8941 81.2715 59.4655V54.6577C81.272 54.229 81.4425 53.8181 81.7456 53.515C82.0486 53.2119 82.4596 53.0414 82.8883 53.0409H92.2482C92.6769 53.0414 93.0878 53.2119 93.3909 53.515C93.694 53.8181 93.8645 54.229 93.865 54.6577V59.4655C93.8645 59.8941 93.694 60.3051 93.3909 60.6082C93.0878 60.9113 92.6769 61.0818 92.2482 61.0823V61.0823Z" fill="#CCCCCC"/>
<path d="M28.4567 72.6996H23.649C23.2203 72.6992 22.8094 72.5287 22.5063 72.2256C22.2032 71.9225 22.0327 71.5115 22.0322 71.0829V61.723C22.0327 61.2943 22.2032 60.8834 22.5063 60.5803C22.8094 60.2772 23.2203 60.1067 23.649 60.1062H28.4567C28.8854 60.1067 29.2963 60.2772 29.5994 60.5803C29.9025 60.8834 30.073 61.2943 30.0735 61.723V71.0829C30.073 71.5115 29.9025 71.9225 29.5994 72.2256C29.2963 72.5287 28.8854 72.6992 28.4567 72.6996V72.6996Z" fill="#CCCCCC"/>
<path d="M28.4567 95.3344H23.649C23.2203 95.3339 22.8094 95.1634 22.5063 94.8603C22.2032 94.5572 22.0327 94.1463 22.0322 93.7176V84.3577C22.0327 83.9291 22.2032 83.5181 22.5063 83.215C22.8094 82.9119 23.2203 82.7414 23.649 82.741H28.4567C28.8854 82.7414 29.2963 82.9119 29.5994 83.215C29.9025 83.5181 30.073 83.9291 30.0735 84.3577V93.7176C30.073 94.1463 29.9025 94.5572 29.5994 94.8603C29.2963 95.1634 28.8854 95.3339 28.4567 95.3344Z" fill="#CCCCCC"/>
<path d="M118.295 78.0422H98.3788C98.2835 78.0422 98.1921 78.0043 98.1248 77.9369C98.0574 77.8696 98.0195 77.7782 98.0195 77.6829C98.0195 77.5876 98.0574 77.4962 98.1248 77.4288C98.1921 77.3615 98.2835 77.3236 98.3788 77.3236H118.295C118.39 77.3236 118.482 77.3615 118.549 77.4288C118.616 77.4962 118.654 77.5876 118.654 77.6829C118.654 77.7782 118.616 77.8696 118.549 77.9369C118.482 78.0043 118.39 78.0422 118.295 78.0422Z" fill="#002C46"/>
<path d="M126.044 78.0421C125.965 78.0422 125.889 78.0164 125.826 77.9686C125.763 77.9209 125.718 77.8539 125.697 77.7779C125.677 77.702 125.681 77.6213 125.711 77.5482C125.74 77.4752 125.793 77.4139 125.861 77.3737L145.195 65.9141C145.236 65.89 145.281 65.8742 145.328 65.8675C145.374 65.8608 145.422 65.8634 145.468 65.8751C145.513 65.8868 145.556 65.9074 145.594 65.9357C145.632 65.964 145.664 65.9994 145.688 66.04C145.712 66.0806 145.728 66.1256 145.734 66.1723C145.741 66.219 145.738 66.2665 145.727 66.3123C145.715 66.358 145.694 66.4009 145.666 66.4387C145.638 66.4764 145.602 66.5082 145.562 66.5323L126.227 77.9919C126.172 78.0248 126.109 78.0421 126.044 78.0421V78.0421Z" fill="#002C46"/>
<path d="M145.378 89.5018C145.314 89.5018 145.251 89.4845 145.195 89.4516L125.861 77.992C125.779 77.9434 125.719 77.8643 125.696 77.772C125.672 77.6797 125.686 77.5817 125.735 77.4998C125.783 77.4178 125.862 77.3584 125.955 77.3348C126.047 77.3112 126.145 77.3252 126.227 77.3738L145.562 88.8334C145.629 88.8736 145.682 88.9349 145.712 89.0079C145.741 89.081 145.746 89.1617 145.725 89.2377C145.704 89.3136 145.659 89.3806 145.596 89.4284C145.534 89.4761 145.457 89.5019 145.378 89.5018V89.5018Z" fill="#002C46"/>
<path d="M124.541 83.8373H119.733C119.304 83.8369 118.893 83.6664 118.59 83.3633C118.287 83.0602 118.117 82.6492 118.116 82.2206V72.8607C118.117 72.432 118.287 72.0211 118.59 71.718C118.893 71.4149 119.304 71.2444 119.733 71.2439H124.541C124.969 71.2444 125.38 71.4149 125.683 71.718C125.986 72.0211 126.157 72.432 126.157 72.8607V82.2206C126.157 82.6492 125.986 83.0602 125.683 83.3633C125.38 83.6664 124.969 83.8369 124.541 83.8373Z" fill="#CCCCCC"/>
<path d="M151.487 72.6996H146.679C146.251 72.6992 145.84 72.5287 145.537 72.2256C145.233 71.9225 145.063 71.5115 145.062 71.0829V61.723C145.063 61.2943 145.233 60.8834 145.537 60.5803C145.84 60.2772 146.251 60.1067 146.679 60.1062H151.487C151.916 60.1067 152.327 60.2772 152.63 60.5803C152.933 60.8834 153.103 61.2943 153.104 61.723V71.0829C153.103 71.5115 152.933 71.9225 152.63 72.2256C152.327 72.5287 151.916 72.6992 151.487 72.6996V72.6996Z" fill="#CCCCCC"/>
<path d="M151.487 95.3344H146.679C146.251 95.3339 145.84 95.1634 145.537 94.8603C145.233 94.5572 145.063 94.1463 145.062 93.7176V84.3577C145.063 83.9291 145.233 83.5181 145.537 83.215C145.84 82.9119 146.251 82.7414 146.679 82.741H151.487C151.916 82.7414 152.327 82.9119 152.63 83.215C152.933 83.5181 153.103 83.9291 153.104 84.3577V93.7176C153.103 94.1463 152.933 94.5572 152.63 94.8603C152.327 95.1634 151.916 95.3339 151.487 95.3344V95.3344Z" fill="#CCCCCC"/>
<path d="M71.4094 120.804H62.0494C61.6207 120.803 61.2098 120.633 60.9067 120.33C60.6036 120.027 60.4331 119.616 60.4326 119.187V114.379C60.4331 113.951 60.6036 113.54 60.9067 113.237C61.2098 112.934 61.6207 112.763 62.0494 112.763H71.4094C71.838 112.763 72.249 112.934 72.5521 113.237C72.8552 113.54 73.0257 113.951 73.0262 114.379V119.187C73.0257 119.616 72.8552 120.027 72.5521 120.33C72.249 120.633 71.838 120.803 71.4094 120.804Z" fill="#CCCCCC"/>
<path d="M113.019 120.804H103.659C103.23 120.803 102.819 120.633 102.516 120.33C102.213 120.027 102.042 119.616 102.042 119.187V114.379C102.042 113.951 102.213 113.54 102.516 113.237C102.819 112.934 103.23 112.763 103.659 112.763H113.019C113.447 112.763 113.858 112.934 114.161 113.237C114.465 113.54 114.635 113.951 114.636 114.379V119.187C114.635 119.616 114.465 120.027 114.161 120.33C113.858 120.633 113.447 120.803 113.019 120.804Z" fill="#CCCCCC"/>
<path d="M93.9768 138.409H84.6168C84.1881 138.408 83.7772 138.238 83.4741 137.935C83.171 137.632 83.0005 137.221 83 136.792V131.984C83.0005 131.556 83.171 131.145 83.4741 130.842C83.7772 130.538 84.1881 130.368 84.6168 130.367H93.9768C94.4054 130.368 94.8164 130.538 95.1195 130.842C95.4226 131.145 95.593 131.556 95.5935 131.984V136.792C95.593 137.221 95.4226 137.632 95.1195 137.935C94.8164 138.238 94.4054 138.408 93.9768 138.409Z" fill="#CCCCCC"/>
<path d="M133.858 138.409H124.498C124.069 138.408 123.658 138.238 123.355 137.935C123.052 137.632 122.881 137.221 122.881 136.792V131.984C122.881 131.556 123.052 131.145 123.355 130.842C123.658 130.538 124.069 130.368 124.498 130.367H133.858C134.286 130.368 134.697 130.538 135 130.842C135.303 131.145 135.474 131.556 135.474 131.984V136.792C135.474 137.221 135.303 137.632 135 137.935C134.697 138.238 134.286 138.408 133.858 138.409V138.409Z" fill="#CCCCCC"/>
<path d="M113.019 138.409H103.659C103.23 138.408 102.819 138.238 102.516 137.935C102.213 137.632 102.042 137.221 102.042 136.792V131.984C102.042 131.556 102.213 131.145 102.516 130.842C102.819 130.538 103.23 130.368 103.659 130.367H113.019C113.447 130.368 113.858 130.538 114.161 130.842C114.465 131.145 114.635 131.556 114.636 131.984V136.792C114.635 137.221 114.465 137.632 114.161 137.935C113.858 138.238 113.447 138.408 113.019 138.409Z" fill="#CCCCCC"/>
<path d="M98.9463 83.933H76.19C75.7614 83.9325 75.3504 83.762 75.0473 83.4589C74.7442 83.1558 74.5737 82.7449 74.5732 82.3162V73.0496C74.5737 72.621 74.7442 72.21 75.0473 71.9069C75.3504 71.6038 75.7614 71.4333 76.19 71.4329H98.9463C99.375 71.4333 99.7859 71.6038 100.089 71.9069C100.392 72.21 100.563 72.621 100.563 73.0496V82.3162C100.563 82.7449 100.392 83.1558 100.089 83.4589C99.7859 83.762 99.3749 83.9325 98.9463 83.933V83.933Z" fill="#037BC4"/>
</svg>
