<svg width="180" height="180" viewBox="0 0 180 180" fill="none" xmlns="http://www.w3.org/2000/svg">
<path d="M180 38H0V142.348H180V38Z" fill="#122531"/>
<path d="M175.435 41.913H4.56543V139.087H175.435V41.913Z" fill="white"/>
<path d="M17.8661 53.0317H15.8193V55.7669H17.8661V53.0317Z" fill="#037BC4"/>
<path d="M24.8251 52.3478H22.7783V55.083H24.8251V52.3478Z" fill="#037BC4"/>
<path d="M28.5087 52.3478H26.4619V55.083H28.5087V52.3478Z" fill="#037BC4"/>
<path d="M28.5087 60.5532H26.4619V63.2883H28.5087V60.5532Z" fill="#037BC4"/>
<path d="M32.6025 56.4506H30.5557V59.1857H32.6025V56.4506Z" fill="#037BC4"/>
<path d="M32.6025 60.8952H30.5557V63.6303H32.6025V60.8952Z" fill="#037BC4"/>
<path d="M28.5087 69.4424H26.4619V72.1776H28.5087V69.4424Z" fill="#037BC4"/>
<path d="M32.6025 73.8869H30.5557V76.622H32.6025V73.8869Z" fill="#037BC4"/>
<path d="M28.5087 90.6397H26.4619V93.3748H28.5087V90.6397Z" fill="#037BC4"/>
<path d="M24.8251 73.8869H22.7783V76.622H24.8251V73.8869Z" fill="#037BC4"/>
<path d="M17.8661 57.4762H15.8193V60.2113H17.8661V57.4762Z" fill="#037BC4"/>
<path d="M17.8661 100.213H15.8193V102.948H17.8661V100.213Z" fill="#037BC4"/>
<path d="M17.8661 109.102H15.8193V111.837H17.8661V109.102Z" fill="#037BC4"/>
<path d="M17.8661 113.546H15.8193V116.282H17.8661V113.546Z" fill="#037BC4"/>
<path d="M17.8655 62.2626H15V62.6045H17.8655V62.2626Z" fill="#037BC4"/>
<path d="M28.9183 66.3654H26.0527V66.7072H28.9183V66.3654Z" fill="#037BC4"/>
<path d="M17.8655 84.1437H15V84.4856H17.8655V84.1437Z" fill="#037BC4"/>
<path d="M17.8655 87.9045H15V88.2464H17.8655V87.9045Z" fill="#037BC4"/>
<path d="M28.9183 109.785H26.0527V110.127H28.9183V109.785Z" fill="#037BC4"/>
<path d="M25.6439 117.991H22.7783V118.333H25.6439V117.991Z" fill="#037BC4"/>
<path d="M15.8193 65.3398V66.0235H16.6379V67.3911H15.8193V68.0748H17.8661V65.3398H15.8193Z" fill="#037BC4"/>
<path d="M22.7783 60.5533V61.237H23.5969V62.6046H22.7783V63.2883H24.8251V60.5533H22.7783Z" fill="#037BC4"/>
<path d="M30.5557 64.9977V65.6817H31.3743V67.0493H30.5557V67.7329H32.6025V64.9977H30.5557Z" fill="#037BC4"/>
<path d="M30.5557 78.3317V79.0154H31.3743V80.383H30.5557V81.0666H32.6025V78.3317H30.5557Z" fill="#037BC4"/>
<path d="M30.5557 82.7761V83.46H31.3743V84.8276H30.5557V85.5113H32.6025V82.7761H30.5557Z" fill="#037BC4"/>
<path d="M30.5557 69.1005V69.7842H31.3743V71.1518H30.5557V71.8357H32.6025V69.1005H30.5557Z" fill="#037BC4"/>
<path d="M26.4619 56.4506V57.1345H27.2808V58.5019H26.4619V59.1858H28.509V56.4506H26.4619Z" fill="#037BC4"/>
<path d="M28.5087 78.3315H26.4619V81.0667H28.5087V78.3315Z" fill="#037BC4"/>
<path d="M28.5087 86.5369H26.4619V89.2721H28.5087V86.5369Z" fill="#037BC4"/>
<path d="M26.4619 82.4344V83.1181H27.2808V84.4857H26.4619V85.1696H28.509V82.4344H26.4619Z" fill="#037BC4"/>
<path d="M22.7783 64.9977V65.6817H23.5969V67.0493H22.7783V67.7329H24.8251V64.9977H22.7783Z" fill="#037BC4"/>
<path d="M22.7783 69.4424V70.1264H23.5969V71.4937H22.7783V72.1776H24.8251V69.4424H22.7783Z" fill="#037BC4"/>
<path d="M24.8251 82.7761H22.7783V85.5113H24.8251V82.7761Z" fill="#037BC4"/>
<path d="M22.7783 78.3317V79.0154H23.5969V80.383H22.7783V81.0666H24.8251V78.3317H22.7783Z" fill="#037BC4"/>
<path d="M24.8251 91.6653H22.7783V94.4004H24.8251V91.6653Z" fill="#037BC4"/>
<path d="M22.7783 87.2207V87.9044H23.5969V89.272H22.7783V89.9559H24.8251V87.2207H22.7783Z" fill="#037BC4"/>
<path d="M24.8251 100.554H22.7783V103.29H24.8251V100.554Z" fill="#037BC4"/>
<path d="M28.5087 99.8707H26.4619V102.606H28.5087V99.8707Z" fill="#037BC4"/>
<path d="M22.7783 96.1097V96.7937H23.5969V98.1613H22.7783V98.8449H24.8251V96.1097H22.7783Z" fill="#037BC4"/>
<path d="M30.5557 96.1097V96.7937H31.3743V98.1613H30.5557V98.8449H32.6025V96.1097H30.5557Z" fill="#037BC4"/>
<path d="M53.4804 56.4506H51.4336V59.1857H53.4804V56.4506Z" fill="#037BC4"/>
<path d="M53.4804 60.8952H51.4336V63.6303H53.4804V60.8952Z" fill="#037BC4"/>
<path d="M53.4804 73.8869H51.4336V76.622H53.4804V73.8869Z" fill="#037BC4"/>
<path d="M51.4336 64.9977V65.6817H52.2525V67.0493H51.4336V67.7329H53.4804V64.9977H51.4336Z" fill="#037BC4"/>
<path d="M51.4336 78.3317V79.0154H52.2525V80.383H51.4336V81.0666H53.4804V78.3317H51.4336Z" fill="#037BC4"/>
<path d="M51.4336 82.7761V83.46H52.2525V84.8276H51.4336V85.5113H53.4804V82.7761H51.4336Z" fill="#037BC4"/>
<path d="M51.4336 69.1005V69.7842H52.2525V71.1518H51.4336V71.8357H53.4804V69.1005H51.4336Z" fill="#037BC4"/>
<path d="M51.4336 96.1097V96.7937H52.2525V98.1613H51.4336V98.8449H53.4804V96.1097H51.4336Z" fill="#037BC4"/>
<path d="M24.8251 109.444H22.7783V112.179H24.8251V109.444Z" fill="#037BC4"/>
<path d="M28.5087 104.315H26.4619V107.05H28.5087V104.315Z" fill="#037BC4"/>
<path d="M24.8251 121.068H22.7783V123.803H24.8251V121.068Z" fill="#037BC4"/>
<path d="M28.5087 112.863H26.4619V115.598H28.5087V112.863Z" fill="#037BC4"/>
<path d="M22.7783 104.999V105.683H23.5969V107.05H22.7783V107.734H24.8251V104.999H22.7783Z" fill="#037BC4"/>
<path d="M22.7783 125.854V126.538H23.5969V127.906H22.7783V128.589H24.8251V125.854H22.7783Z" fill="#037BC4"/>
<path d="M47.3398 52.3478H45.293V55.083H47.3398V52.3478Z" fill="#037BC4"/>
<path d="M47.3398 73.8869H45.293V76.622H47.3398V73.8869Z" fill="#037BC4"/>
<path d="M48.1585 117.991H45.293V118.333H48.1585V117.991Z" fill="#037BC4"/>
<path d="M45.293 60.5533V61.237H46.1118V62.6046H45.293V63.2883H47.3398V60.5533H45.293Z" fill="#037BC4"/>
<path d="M45.293 64.9977V65.6817H46.1118V67.0493H45.293V67.7329H47.3398V64.9977H45.293Z" fill="#037BC4"/>
<path d="M45.293 69.4424V70.1264H46.1118V71.4937H45.293V72.1776H47.3398V69.4424H45.293Z" fill="#037BC4"/>
<path d="M47.3398 82.7761H45.293V85.5113H47.3398V82.7761Z" fill="#037BC4"/>
<path d="M45.293 78.3317V79.0154H46.1118V80.383H45.293V81.0666H47.3398V78.3317H45.293Z" fill="#037BC4"/>
<path d="M47.3398 91.6653H45.293V94.4004H47.3398V91.6653Z" fill="#037BC4"/>
<path d="M45.293 87.2207V87.9044H46.1118V89.272H45.293V89.9559H47.3398V87.2207H45.293Z" fill="#037BC4"/>
<path d="M47.3398 100.554H45.293V103.29H47.3398V100.554Z" fill="#037BC4"/>
<path d="M45.293 96.1097V96.7937H46.1118V98.1613H45.293V98.8449H47.3398V96.1097H45.293Z" fill="#037BC4"/>
<path d="M47.3398 109.444H45.293V112.179H47.3398V109.444Z" fill="#037BC4"/>
<path d="M47.3398 121.068H45.293V123.803H47.3398V121.068Z" fill="#037BC4"/>
<path d="M45.293 104.999V105.683H46.1118V107.05H45.293V107.734H47.3398V104.999H45.293Z" fill="#037BC4"/>
<path d="M45.293 125.854V126.538H46.1118V127.906H45.293V128.589H47.3398V125.854H45.293Z" fill="#037BC4"/>
<path d="M57.164 52.3478H55.1172V55.083H57.164V52.3478Z" fill="#037BC4"/>
<path d="M57.164 73.8869H55.1172V76.622H57.164V73.8869Z" fill="#037BC4"/>
<path d="M57.9827 117.991H55.1172V118.333H57.9827V117.991Z" fill="#037BC4"/>
<path d="M55.1172 60.5533V61.237H55.9361V62.6046H55.1172V63.2883H57.164V60.5533H55.1172Z" fill="#037BC4"/>
<path d="M55.1172 64.9977V65.6817H55.9361V67.0493H55.1172V67.7329H57.164V64.9977H55.1172Z" fill="#037BC4"/>
<path d="M55.1172 69.4424V70.1264H55.9361V71.4937H55.1172V72.1776H57.164V69.4424H55.1172Z" fill="#037BC4"/>
<path d="M57.164 82.7761H55.1172V85.5113H57.164V82.7761Z" fill="#037BC4"/>
<path d="M55.1172 78.3317V79.0154H55.9361V80.383H55.1172V81.0666H57.164V78.3317H55.1172Z" fill="#037BC4"/>
<path d="M57.164 91.6653H55.1172V94.4004H57.164V91.6653Z" fill="#037BC4"/>
<path d="M55.1172 87.2207V87.9044H55.9361V89.272H55.1172V89.9559H57.164V87.2207H55.1172Z" fill="#037BC4"/>
<path d="M57.164 100.554H55.1172V103.29H57.164V100.554Z" fill="#037BC4"/>
<path d="M55.1172 96.1097V96.7937H55.9361V98.1613H55.1172V98.8449H57.164V96.1097H55.1172Z" fill="#037BC4"/>
<path d="M57.164 109.444H55.1172V112.179H57.164V109.444Z" fill="#037BC4"/>
<path d="M57.164 121.068H55.1172V123.803H57.164V121.068Z" fill="#037BC4"/>
<path d="M55.1172 104.999V105.683H55.9361V107.05H55.1172V107.734H57.164V104.999H55.1172Z" fill="#037BC4"/>
<path d="M55.1172 125.854V126.538H55.9361V127.906H55.1172V128.589H57.164V125.854H55.1172Z" fill="#037BC4"/>
<path d="M26.4619 121.068V121.752H27.2808V123.119H26.4619V123.803H28.509V121.068H26.4619Z" fill="#037BC4"/>
<path d="M26.4619 125.513V126.196H27.2808V127.564H26.4619V128.248H28.509V125.513H26.4619Z" fill="#037BC4"/>
<path d="M15.8193 73.8871V74.5708H16.6379V75.9384H15.8193V76.6223H17.8661V73.8871H15.8193Z" fill="#037BC4"/>
<path d="M15.8193 91.3235V92.0072H16.6379V93.3748H15.8193V94.0585H17.8661V91.3235H15.8193Z" fill="#037BC4"/>
<path d="M15.8193 95.7679V96.4518H16.6379V97.8194H15.8193V98.5031H17.8661V95.7679H15.8193Z" fill="#037BC4"/>
<path d="M15.8193 104.657V105.341H16.6379V106.709H15.8193V107.392H17.8661V104.657H15.8193Z" fill="#037BC4"/>
<path d="M15.8193 117.307V117.991H16.6379V119.358H15.8193V120.042H17.8661V117.307H15.8193Z" fill="#037BC4"/>
<path d="M15.8193 121.068V121.752H16.6379V123.119H15.8193V123.803H17.8661V121.068H15.8193Z" fill="#037BC4"/>
<path d="M39.1523 53.0317H37.1055V55.7669H39.1523V53.0317Z" fill="#037BC4"/>
<path d="M39.1523 57.4762H37.1055V60.2113H39.1523V57.4762Z" fill="#037BC4"/>
<path d="M39.1517 62.2626H36.2861V62.6045H39.1517V62.2626Z" fill="#037BC4"/>
<path d="M39.1517 84.1437H36.2861V84.4856H39.1517V84.1437Z" fill="#037BC4"/>
<path d="M39.1517 87.9045H36.2861V88.2464H39.1517V87.9045Z" fill="#037BC4"/>
<path d="M37.1055 65.3398V66.0235H37.9241V67.3911H37.1055V68.0748H39.1523V65.3398H37.1055Z" fill="#037BC4"/>
<path d="M37.1055 73.8871V74.5708H37.9241V75.9384H37.1055V76.6223H39.1523V73.8871H37.1055Z" fill="#037BC4"/>
<path d="M37.1055 91.3235V92.0072H37.9241V93.3748H37.1055V94.0585H39.1523V91.3235H37.1055Z" fill="#037BC4"/>
<path d="M62.4853 82.7761H60.4385V85.5113H62.4853V82.7761Z" fill="#037BC4"/>
<path d="M62.4853 87.2207H60.4385V89.9558H62.4853V87.2207Z" fill="#037BC4"/>
<path d="M62.4866 92.0073H59.6211V92.3492H62.4866V92.0073Z" fill="#037BC4"/>
<path d="M62.4866 113.888H59.6211V114.23H62.4866V113.888Z" fill="#037BC4"/>
<path d="M62.4866 117.649H59.6211V117.991H62.4866V117.649Z" fill="#037BC4"/>
<path d="M60.4385 95.0843V95.768H61.2571V97.1356H60.4385V97.8195H62.4853V95.0843H60.4385Z" fill="#037BC4"/>
<path d="M60.4385 103.631V104.315H61.2571V105.683H60.4385V106.367H62.4853V103.631H60.4385Z" fill="#037BC4"/>
<path d="M60.4385 121.068V121.752H61.2571V123.119H60.4385V123.803H62.4853V121.068H60.4385Z" fill="#037BC4"/>
<path d="M69.0351 53.0317H66.9883V55.7669H69.0351V53.0317Z" fill="#037BC4"/>
<path d="M75.9951 52.3478H73.9482V55.083H75.9951V52.3478Z" fill="#037BC4"/>
<path d="M79.6796 52.3478H77.6328V55.083H79.6796V52.3478Z" fill="#037BC4"/>
<path d="M79.6796 60.5532H77.6328V63.2883H79.6796V60.5532Z" fill="#037BC4"/>
<path d="M83.7734 56.4506H81.7266V59.1857H83.7734V56.4506Z" fill="#037BC4"/>
<path d="M83.7734 60.8952H81.7266V63.6303H83.7734V60.8952Z" fill="#037BC4"/>
<path d="M79.6796 69.4424H77.6328V72.1776H79.6796V69.4424Z" fill="#037BC4"/>
<path d="M83.7734 73.8869H81.7266V76.622H83.7734V73.8869Z" fill="#037BC4"/>
<path d="M79.6796 90.6397H77.6328V93.3748H79.6796V90.6397Z" fill="#037BC4"/>
<path d="M75.9951 73.8869H73.9482V76.622H75.9951V73.8869Z" fill="#037BC4"/>
<path d="M69.0351 57.4762H66.9883V60.2113H69.0351V57.4762Z" fill="#037BC4"/>
<path d="M69.0351 100.213H66.9883V102.948H69.0351V100.213Z" fill="#037BC4"/>
<path d="M69.0351 109.102H66.9883V111.837H69.0351V109.102Z" fill="#037BC4"/>
<path d="M69.0351 113.546H66.9883V116.282H69.0351V113.546Z" fill="#037BC4"/>
<path d="M69.0355 62.2626H66.1699V62.6045H69.0355V62.2626Z" fill="#037BC4"/>
<path d="M80.0882 66.3654H77.2227V66.7072H80.0882V66.3654Z" fill="#037BC4"/>
<path d="M69.0355 84.1437H66.1699V84.4856H69.0355V84.1437Z" fill="#037BC4"/>
<path d="M69.0355 87.9045H66.1699V88.2464H69.0355V87.9045Z" fill="#037BC4"/>
<path d="M80.0882 109.785H77.2227V110.127H80.0882V109.785Z" fill="#037BC4"/>
<path d="M76.8138 117.991H73.9482V118.333H76.8138V117.991Z" fill="#037BC4"/>
<path d="M66.9883 65.3398V66.0235H67.8072V67.3911H66.9883V68.0748H69.0351V65.3398H66.9883Z" fill="#037BC4"/>
<path d="M73.9482 60.5533V61.237H74.7669V62.6046H73.9482V63.2883H75.995V60.5533H73.9482Z" fill="#037BC4"/>
<path d="M81.7266 64.9977V65.6817H82.5452V67.0493H81.7266V67.7329H83.7734V64.9977H81.7266Z" fill="#037BC4"/>
<path d="M81.7266 78.3317V79.0154H82.5452V80.383H81.7266V81.0666H83.7734V78.3317H81.7266Z" fill="#037BC4"/>
<path d="M81.7266 82.7761V83.46H82.5452V84.8276H81.7266V85.5113H83.7734V82.7761H81.7266Z" fill="#037BC4"/>
<path d="M81.7266 69.1005V69.7842H82.5452V71.1518H81.7266V71.8357H83.7734V69.1005H81.7266Z" fill="#037BC4"/>
<path d="M77.6328 56.4506V57.1345H78.4514V58.5019H77.6328V59.1858H79.6796V56.4506H77.6328Z" fill="#037BC4"/>
<path d="M79.6796 78.3315H77.6328V81.0667H79.6796V78.3315Z" fill="#037BC4"/>
<path d="M79.6796 86.5369H77.6328V89.2721H79.6796V86.5369Z" fill="#037BC4"/>
<path d="M77.6328 82.4344V83.1181H78.4514V84.4857H77.6328V85.1696H79.6796V82.4344H77.6328Z" fill="#037BC4"/>
<path d="M73.9482 64.9977V65.6817H74.7669V67.0493H73.9482V67.7329H75.995V64.9977H73.9482Z" fill="#037BC4"/>
<path d="M73.9482 69.4424V70.1264H74.7669V71.4937H73.9482V72.1776H75.995V69.4424H73.9482Z" fill="#037BC4"/>
<path d="M75.9951 82.7761H73.9482V85.5113H75.9951V82.7761Z" fill="#037BC4"/>
<path d="M73.9482 78.3317V79.0154H74.7669V80.383H73.9482V81.0666H75.995V78.3317H73.9482Z" fill="#037BC4"/>
<path d="M75.9951 91.6653H73.9482V94.4004H75.9951V91.6653Z" fill="#037BC4"/>
<path d="M73.9482 87.2207V87.9044H74.7669V89.272H73.9482V89.9559H75.995V87.2207H73.9482Z" fill="#037BC4"/>
<path d="M75.9951 100.554H73.9482V103.29H75.9951V100.554Z" fill="#037BC4"/>
<path d="M79.6796 99.8707H77.6328V102.606H79.6796V99.8707Z" fill="#037BC4"/>
<path d="M73.9482 96.1097V96.7937H74.7669V98.1613H73.9482V98.8449H75.995V96.1097H73.9482Z" fill="#037BC4"/>
<path d="M81.7266 96.1097V96.7937H82.5452V98.1613H81.7266V98.8449H83.7734V96.1097H81.7266Z" fill="#037BC4"/>
<path d="M104.651 56.4506H102.604V59.1857H104.651V56.4506Z" fill="#037BC4"/>
<path d="M104.651 60.8952H102.604V63.6303H104.651V60.8952Z" fill="#037BC4"/>
<path d="M104.651 73.8869H102.604V76.622H104.651V73.8869Z" fill="#037BC4"/>
<path d="M102.604 64.9977V65.6817H103.423V67.0493H102.604V67.7329H104.651V64.9977H102.604Z" fill="#037BC4"/>
<path d="M102.604 78.3317V79.0154H103.423V80.383H102.604V81.0666H104.651V78.3317H102.604Z" fill="#037BC4"/>
<path d="M102.604 82.7761V83.46H103.423V84.8276H102.604V85.5113H104.651V82.7761H102.604Z" fill="#037BC4"/>
<path d="M102.604 69.1005V69.7842H103.423V71.1518H102.604V71.8357H104.651V69.1005H102.604Z" fill="#037BC4"/>
<path d="M102.604 96.1097V96.7937H103.423V98.1613H102.604V98.8449H104.651V96.1097H102.604Z" fill="#037BC4"/>
<path d="M75.9951 109.444H73.9482V112.179H75.9951V109.444Z" fill="#037BC4"/>
<path d="M79.6796 104.315H77.6328V107.05H79.6796V104.315Z" fill="#037BC4"/>
<path d="M75.9951 121.068H73.9482V123.803H75.9951V121.068Z" fill="#037BC4"/>
<path d="M79.6796 112.863H77.6328V115.598H79.6796V112.863Z" fill="#037BC4"/>
<path d="M73.9482 104.999V105.683H74.7669V107.05H73.9482V107.734H75.995V104.999H73.9482Z" fill="#037BC4"/>
<path d="M73.9482 125.854V126.538H74.7669V127.906H73.9482V128.589H75.995V125.854H73.9482Z" fill="#037BC4"/>
<path d="M98.5107 52.3478H96.4639V55.083H98.5107V52.3478Z" fill="#037BC4"/>
<path d="M98.5097 73.8869H96.4629V76.622H98.5097V73.8869Z" fill="#037BC4"/>
<path d="M99.3284 117.991H96.4629V118.333H99.3284V117.991Z" fill="#037BC4"/>
<path d="M96.4629 60.5533V61.237H97.2818V62.6046H96.4629V63.2883H98.5097V60.5533H96.4629Z" fill="#037BC4"/>
<path d="M96.4629 64.9977V65.6817H97.2818V67.0493H96.4629V67.7329H98.5097V64.9977H96.4629Z" fill="#037BC4"/>
<path d="M96.4629 69.4424V70.1264H97.2818V71.4937H96.4629V72.1776H98.5097V69.4424H96.4629Z" fill="#037BC4"/>
<path d="M98.5097 82.7761H96.4629V85.5113H98.5097V82.7761Z" fill="#037BC4"/>
<path d="M96.4629 78.3317V79.0154H97.2818V80.383H96.4629V81.0666H98.5097V78.3317H96.4629Z" fill="#037BC4"/>
<path d="M98.5097 91.6653H96.4629V94.4004H98.5097V91.6653Z" fill="#037BC4"/>
<path d="M96.4629 87.2207V87.9044H97.2818V89.272H96.4629V89.9559H98.5097V87.2207H96.4629Z" fill="#037BC4"/>
<path d="M98.5097 100.554H96.4629V103.29H98.5097V100.554Z" fill="#037BC4"/>
<path d="M96.4629 96.1097V96.7937H97.2818V98.1613H96.4629V98.8449H98.5097V96.1097H96.4629Z" fill="#037BC4"/>
<path d="M98.5097 109.444H96.4629V112.179H98.5097V109.444Z" fill="#037BC4"/>
<path d="M98.5097 121.068H96.4629V123.803H98.5097V121.068Z" fill="#037BC4"/>
<path d="M96.4629 104.999V105.683H97.2818V107.05H96.4629V107.734H98.5097V104.999H96.4629Z" fill="#037BC4"/>
<path d="M96.4629 125.854V126.538H97.2818V127.906H96.4629V128.589H98.5097V125.854H96.4629Z" fill="#037BC4"/>
<path d="M108.335 52.3478H106.288V55.083H108.335V52.3478Z" fill="#037BC4"/>
<path d="M108.335 73.8869H106.288V76.622H108.335V73.8869Z" fill="#037BC4"/>
<path d="M109.154 117.991H106.288V118.333H109.154V117.991Z" fill="#037BC4"/>
<path d="M106.288 60.5533V61.237H107.107V62.6046H106.288V63.2883H108.335V60.5533H106.288Z" fill="#037BC4"/>
<path d="M106.288 64.9977V65.6817H107.107V67.0493H106.288V67.7329H108.335V64.9977H106.288Z" fill="#037BC4"/>
<path d="M106.288 69.4424V70.1264H107.107V71.4937H106.288V72.1776H108.335V69.4424H106.288Z" fill="#037BC4"/>
<path d="M108.335 82.7761H106.288V85.5113H108.335V82.7761Z" fill="#037BC4"/>
<path d="M106.288 78.3317V79.0154H107.107V80.383H106.288V81.0666H108.335V78.3317H106.288Z" fill="#037BC4"/>
<path d="M108.335 91.6653H106.288V94.4004H108.335V91.6653Z" fill="#037BC4"/>
<path d="M106.288 87.2207V87.9044H107.107V89.272H106.288V89.9559H108.335V87.2207H106.288Z" fill="#037BC4"/>
<path d="M108.335 100.554H106.288V103.29H108.335V100.554Z" fill="#037BC4"/>
<path d="M106.288 96.1097V96.7937H107.107V98.1613H106.288V98.8449H108.335V96.1097H106.288Z" fill="#037BC4"/>
<path d="M108.335 109.444H106.288V112.179H108.335V109.444Z" fill="#037BC4"/>
<path d="M108.335 121.068H106.288V123.803H108.335V121.068Z" fill="#037BC4"/>
<path d="M106.288 104.999V105.683H107.107V107.05H106.288V107.734H108.335V104.999H106.288Z" fill="#037BC4"/>
<path d="M106.288 125.854V126.538H107.107V127.906H106.288V128.589H108.335V125.854H106.288Z" fill="#037BC4"/>
<path d="M77.6328 121.068V121.752H78.4514V123.119H77.6328V123.803H79.6796V121.068H77.6328Z" fill="#037BC4"/>
<path d="M77.6328 125.513V126.196H78.4514V127.564H77.6328V128.248H79.6796V125.513H77.6328Z" fill="#037BC4"/>
<path d="M66.9883 73.8871V74.5708H67.8072V75.9384H66.9883V76.6223H69.0351V73.8871H66.9883Z" fill="#037BC4"/>
<path d="M66.9883 91.3235V92.0072H67.8072V93.3748H66.9883V94.0585H69.0351V91.3235H66.9883Z" fill="#037BC4"/>
<path d="M66.9883 95.7679V96.4518H67.8072V97.8194H66.9883V98.5031H69.0351V95.7679H66.9883Z" fill="#037BC4"/>
<path d="M66.9883 104.657V105.341H67.8072V106.709H66.9883V107.392H69.0351V104.657H66.9883Z" fill="#037BC4"/>
<path d="M66.9883 117.307V117.991H67.8072V119.358H66.9883V120.042H69.0351V117.307H66.9883Z" fill="#037BC4"/>
<path d="M66.9883 121.068V121.752H67.8072V123.119H66.9883V123.803H69.0351V121.068H66.9883Z" fill="#037BC4"/>
<path d="M90.3232 53.0317H88.2764V55.7669H90.3232V53.0317Z" fill="#037BC4"/>
<path d="M90.3232 57.4762H88.2764V60.2113H90.3232V57.4762Z" fill="#037BC4"/>
<path d="M90.3235 62.2626H87.458V62.6045H90.3235V62.2626Z" fill="#037BC4"/>
<path d="M90.3235 84.1437H87.458V84.4856H90.3235V84.1437Z" fill="#037BC4"/>
<path d="M90.3235 87.9045H87.458V88.2464H90.3235V87.9045Z" fill="#037BC4"/>
<path d="M88.2764 65.3398V66.0235H89.0952V67.3911H88.2764V68.0748H90.3232V65.3398H88.2764Z" fill="#037BC4"/>
<path d="M88.2764 73.8871V74.5708H89.0952V75.9384H88.2764V76.6223H90.3232V73.8871H88.2764Z" fill="#037BC4"/>
<path d="M88.2764 91.3235V92.0072H89.0952V93.3748H88.2764V94.0585H90.3232V91.3235H88.2764Z" fill="#037BC4"/>
<path d="M113.656 82.7761H111.609V85.5113H113.656V82.7761Z" fill="#037BC4"/>
<path d="M113.656 87.2207H111.609V89.9558H113.656V87.2207Z" fill="#037BC4"/>
<path d="M113.657 92.0073H110.791V92.3492H113.657V92.0073Z" fill="#037BC4"/>
<path d="M113.657 113.888H110.791V114.23H113.657V113.888Z" fill="#037BC4"/>
<path d="M113.657 117.649H110.791V117.991H113.657V117.649Z" fill="#037BC4"/>
<path d="M111.609 95.0843V95.768H112.428V97.1356H111.609V97.8195H113.656V95.0843H111.609Z" fill="#037BC4"/>
<path d="M111.609 103.631V104.315H112.428V105.683H111.609V106.367H113.656V103.631H111.609Z" fill="#037BC4"/>
<path d="M111.609 121.068V121.752H112.428V123.119H111.609V123.803H113.656V121.068H111.609Z" fill="#037BC4"/>
<path d="M120.207 53.0317H118.16V55.7669H120.207V53.0317Z" fill="#037BC4"/>
<path d="M127.166 52.3478H125.119V55.083H127.166V52.3478Z" fill="#037BC4"/>
<path d="M130.85 52.3478H128.803V55.083H130.85V52.3478Z" fill="#037BC4"/>
<path d="M130.85 60.5532H128.803V63.2883H130.85V60.5532Z" fill="#037BC4"/>
<path d="M134.942 56.4506H132.896V59.1857H134.942V56.4506Z" fill="#037BC4"/>
<path d="M134.942 60.8952H132.896V63.6303H134.942V60.8952Z" fill="#037BC4"/>
<path d="M130.85 69.4424H128.803V72.1776H130.85V69.4424Z" fill="#037BC4"/>
<path d="M134.942 73.8869H132.896V76.622H134.942V73.8869Z" fill="#037BC4"/>
<path d="M130.85 90.6397H128.803V93.3748H130.85V90.6397Z" fill="#037BC4"/>
<path d="M127.166 73.8869H125.119V76.622H127.166V73.8869Z" fill="#037BC4"/>
<path d="M120.207 57.4762H118.16V60.2113H120.207V57.4762Z" fill="#037BC4"/>
<path d="M120.207 100.213H118.16V102.948H120.207V100.213Z" fill="#037BC4"/>
<path d="M120.207 109.102H118.16V111.837H120.207V109.102Z" fill="#037BC4"/>
<path d="M120.207 113.546H118.16V116.282H120.207V113.546Z" fill="#037BC4"/>
<path d="M120.206 62.2626H117.341V62.6045H120.206V62.2626Z" fill="#037BC4"/>
<path d="M131.258 66.3654H128.393V66.7072H131.258V66.3654Z" fill="#037BC4"/>
<path d="M120.206 84.1437H117.341V84.4856H120.206V84.1437Z" fill="#037BC4"/>
<path d="M120.206 87.9045H117.341V88.2464H120.206V87.9045Z" fill="#037BC4"/>
<path d="M131.258 109.785H128.393V110.127H131.258V109.785Z" fill="#037BC4"/>
<path d="M127.985 117.991H125.119V118.333H127.985V117.991Z" fill="#037BC4"/>
<path d="M118.16 65.3398V66.0235H118.979V67.3911H118.16V68.0748H120.207V65.3398H118.16Z" fill="#037BC4"/>
<path d="M125.119 60.5533V61.237H125.938V62.6046H125.119V63.2883H127.166V60.5533H125.119Z" fill="#037BC4"/>
<path d="M132.896 64.9977V65.6817H133.714V67.0493H132.896V67.7329H134.942V64.9977H132.896Z" fill="#037BC4"/>
<path d="M132.896 78.3317V79.0154H133.714V80.383H132.896V81.0666H134.942V78.3317H132.896Z" fill="#037BC4"/>
<path d="M132.896 82.7761V83.46H133.714V84.8276H132.896V85.5113H134.942V82.7761H132.896Z" fill="#037BC4"/>
<path d="M132.896 69.1005V69.7842H133.714V71.1518H132.896V71.8357H134.942V69.1005H132.896Z" fill="#037BC4"/>
<path d="M128.803 56.4506V57.1345H129.621V58.5019H128.803V59.1858H130.85V56.4506H128.803Z" fill="#037BC4"/>
<path d="M130.85 78.3315H128.803V81.0667H130.85V78.3315Z" fill="#037BC4"/>
<path d="M130.85 86.5369H128.803V89.2721H130.85V86.5369Z" fill="#037BC4"/>
<path d="M128.803 82.4344V83.1181H129.621V84.4857H128.803V85.1696H130.85V82.4344H128.803Z" fill="#037BC4"/>
<path d="M125.119 64.9977V65.6817H125.938V67.0493H125.119V67.7329H127.166V64.9977H125.119Z" fill="#037BC4"/>
<path d="M125.119 69.4424V70.1264H125.938V71.4937H125.119V72.1776H127.166V69.4424H125.119Z" fill="#037BC4"/>
<path d="M127.166 82.7761H125.119V85.5113H127.166V82.7761Z" fill="#037BC4"/>
<path d="M125.119 78.3317V79.0154H125.938V80.383H125.119V81.0666H127.166V78.3317H125.119Z" fill="#037BC4"/>
<path d="M127.166 91.6653H125.119V94.4004H127.166V91.6653Z" fill="#037BC4"/>
<path d="M125.119 87.2207V87.9044H125.938V89.272H125.119V89.9559H127.166V87.2207H125.119Z" fill="#037BC4"/>
<path d="M127.166 100.554H125.119V103.29H127.166V100.554Z" fill="#037BC4"/>
<path d="M130.85 99.8707H128.803V102.606H130.85V99.8707Z" fill="#037BC4"/>
<path d="M125.119 96.1097V96.7937H125.938V98.1613H125.119V98.8449H127.166V96.1097H125.119Z" fill="#037BC4"/>
<path d="M132.896 96.1097V96.7937H133.714V98.1613H132.896V98.8449H134.942V96.1097H132.896Z" fill="#037BC4"/>
<path d="M155.82 56.4506H153.773V59.1857H155.82V56.4506Z" fill="#037BC4"/>
<path d="M155.82 60.8952H153.773V63.6303H155.82V60.8952Z" fill="#037BC4"/>
<path d="M155.82 73.8869H153.773V76.622H155.82V73.8869Z" fill="#037BC4"/>
<path d="M153.773 64.9977V65.6817H154.592V67.0493H153.773V67.7329H155.82V64.9977H153.773Z" fill="#037BC4"/>
<path d="M153.773 78.3317V79.0154H154.592V80.383H153.773V81.0666H155.82V78.3317H153.773Z" fill="#037BC4"/>
<path d="M153.773 82.7761V83.46H154.592V84.8276H153.773V85.5113H155.82V82.7761H153.773Z" fill="#037BC4"/>
<path d="M153.773 69.1005V69.7842H154.592V71.1518H153.773V71.8357H155.82V69.1005H153.773Z" fill="#037BC4"/>
<path d="M153.773 96.1097V96.7937H154.592V98.1613H153.773V98.8449H155.82V96.1097H153.773Z" fill="#037BC4"/>
<path d="M127.166 109.444H125.119V112.179H127.166V109.444Z" fill="#037BC4"/>
<path d="M130.85 104.315H128.803V107.05H130.85V104.315Z" fill="#037BC4"/>
<path d="M127.166 121.068H125.119V123.803H127.166V121.068Z" fill="#037BC4"/>
<path d="M130.85 112.863H128.803V115.598H130.85V112.863Z" fill="#037BC4"/>
<path d="M125.119 104.999V105.683H125.938V107.05H125.119V107.734H127.166V104.999H125.119Z" fill="#037BC4"/>
<path d="M125.119 125.854V126.538H125.938V127.906H125.119V128.589H127.166V125.854H125.119Z" fill="#037BC4"/>
<path d="M149.681 52.3478H147.634V55.083H149.681V52.3478Z" fill="#037BC4"/>
<path d="M149.681 73.8869H147.634V76.622H149.681V73.8869Z" fill="#037BC4"/>
<path d="M150.499 117.991H147.634V118.333H150.499V117.991Z" fill="#037BC4"/>
<path d="M147.634 60.5533V61.237H148.452V62.6046H147.634V63.2883H149.681V60.5533H147.634Z" fill="#037BC4"/>
<path d="M147.634 64.9977V65.6817H148.452V67.0493H147.634V67.7329H149.681V64.9977H147.634Z" fill="#037BC4"/>
<path d="M147.634 69.4424V70.1264H148.452V71.4937H147.634V72.1776H149.681V69.4424H147.634Z" fill="#037BC4"/>
<path d="M149.681 82.7761H147.634V85.5113H149.681V82.7761Z" fill="#037BC4"/>
<path d="M147.634 78.3317V79.0154H148.452V80.383H147.634V81.0666H149.681V78.3317H147.634Z" fill="#037BC4"/>
<path d="M149.681 91.6653H147.634V94.4004H149.681V91.6653Z" fill="#037BC4"/>
<path d="M147.634 87.2207V87.9044H148.452V89.272H147.634V89.9559H149.681V87.2207H147.634Z" fill="#037BC4"/>
<path d="M149.681 100.554H147.634V103.29H149.681V100.554Z" fill="#037BC4"/>
<path d="M147.634 96.1097V96.7937H148.452V98.1613H147.634V98.8449H149.681V96.1097H147.634Z" fill="#037BC4"/>
<path d="M149.681 109.444H147.634V112.179H149.681V109.444Z" fill="#037BC4"/>
<path d="M149.681 121.068H147.634V123.803H149.681V121.068Z" fill="#037BC4"/>
<path d="M147.634 104.999V105.683H148.452V107.05H147.634V107.734H149.681V104.999H147.634Z" fill="#037BC4"/>
<path d="M147.634 125.854V126.538H148.452V127.906H147.634V128.589H149.681V125.854H147.634Z" fill="#037BC4"/>
<path d="M159.506 52.3478H157.459V55.083H159.506V52.3478Z" fill="#037BC4"/>
<path d="M159.506 73.8869H157.459V76.622H159.506V73.8869Z" fill="#037BC4"/>
<path d="M160.325 117.991H157.459V118.333H160.325V117.991Z" fill="#037BC4"/>
<path d="M157.459 60.5533V61.237H158.278V62.6046H157.459V63.2883H159.506V60.5533H157.459Z" fill="#037BC4"/>
<path d="M157.459 64.9977V65.6817H158.278V67.0493H157.459V67.7329H159.506V64.9977H157.459Z" fill="#037BC4"/>
<path d="M157.459 69.4424V70.1264H158.278V71.4937H157.459V72.1776H159.506V69.4424H157.459Z" fill="#037BC4"/>
<path d="M159.506 82.7761H157.459V85.5113H159.506V82.7761Z" fill="#037BC4"/>
<path d="M157.459 78.3317V79.0154H158.278V80.383H157.459V81.0666H159.506V78.3317H157.459Z" fill="#037BC4"/>
<path d="M159.506 91.6653H157.459V94.4004H159.506V91.6653Z" fill="#037BC4"/>
<path d="M157.459 87.2207V87.9044H158.278V89.272H157.459V89.9559H159.506V87.2207H157.459Z" fill="#037BC4"/>
<path d="M159.506 100.554H157.459V103.29H159.506V100.554Z" fill="#037BC4"/>
<path d="M157.459 96.1097V96.7937H158.278V98.1613H157.459V98.8449H159.506V96.1097H157.459Z" fill="#037BC4"/>
<path d="M159.506 109.444H157.459V112.179H159.506V109.444Z" fill="#037BC4"/>
<path d="M159.506 121.068H157.459V123.803H159.506V121.068Z" fill="#037BC4"/>
<path d="M157.459 104.999V105.683H158.278V107.05H157.459V107.734H159.506V104.999H157.459Z" fill="#037BC4"/>
<path d="M157.459 125.854V126.538H158.278V127.906H157.459V128.589H159.506V125.854H157.459Z" fill="#037BC4"/>
<path d="M128.803 121.068V121.752H129.621V123.119H128.803V123.803H130.85V121.068H128.803Z" fill="#037BC4"/>
<path d="M128.803 125.513V126.196H129.621V127.564H128.803V128.248H130.85V125.513H128.803Z" fill="#037BC4"/>
<path d="M118.16 73.8871V74.5708H118.979V75.9384H118.16V76.6223H120.207V73.8871H118.16Z" fill="#037BC4"/>
<path d="M118.16 91.3235V92.0072H118.979V93.3748H118.16V94.0585H120.207V91.3235H118.16Z" fill="#037BC4"/>
<path d="M118.16 95.7679V96.4518H118.979V97.8194H118.16V98.5031H120.207V95.7679H118.16Z" fill="#037BC4"/>
<path d="M118.16 104.657V105.341H118.979V106.709H118.16V107.392H120.207V104.657H118.16Z" fill="#037BC4"/>
<path d="M118.16 117.307V117.991H118.979V119.358H118.16V120.042H120.207V117.307H118.16Z" fill="#037BC4"/>
<path d="M118.16 121.068V121.752H118.979V123.119H118.16V123.803H120.207V121.068H118.16Z" fill="#037BC4"/>
<path d="M141.493 53.0317H139.446V55.7669H141.493V53.0317Z" fill="#037BC4"/>
<path d="M141.493 57.4762H139.446V60.2113H141.493V57.4762Z" fill="#037BC4"/>
<path d="M141.493 62.2626H138.628V62.6045H141.493V62.2626Z" fill="#037BC4"/>
<path d="M141.493 84.1437H138.628V84.4856H141.493V84.1437Z" fill="#037BC4"/>
<path d="M141.493 87.9045H138.628V88.2464H141.493V87.9045Z" fill="#037BC4"/>
<path d="M139.446 65.3398V66.0235H140.265V67.3911H139.446V68.0748H141.493V65.3398H139.446Z" fill="#037BC4"/>
<path d="M139.446 73.8871V74.5708H140.265V75.9384H139.446V76.6223H141.493V73.8871H139.446Z" fill="#037BC4"/>
<path d="M139.446 91.3235V92.0072H140.265V93.3748H139.446V94.0585H141.493V91.3235H139.446Z" fill="#037BC4"/>
<path d="M164.827 82.7761H162.78V85.5113H164.827V82.7761Z" fill="#037BC4"/>
<path d="M164.827 87.2207H162.78V89.9558H164.827V87.2207Z" fill="#037BC4"/>
<path d="M164.826 92.0073H161.961V92.3492H164.826V92.0073Z" fill="#037BC4"/>
<path d="M164.826 113.888H161.961V114.23H164.826V113.888Z" fill="#037BC4"/>
<path d="M164.826 117.649H161.961V117.991H164.826V117.649Z" fill="#037BC4"/>
<path d="M162.78 95.0843V95.768H163.599V97.1356H162.78V97.8195H164.827V95.0843H162.78Z" fill="#037BC4"/>
<path d="M162.78 103.631V104.315H163.599V105.683H162.78V106.367H164.827V103.631H162.78Z" fill="#037BC4"/>
<path d="M162.78 121.068V121.752H163.599V123.119H162.78V123.803H164.827V121.068H162.78Z" fill="#037BC4"/>
</svg>
