<svg width="276" height="160" viewBox="0 0 276 160" fill="none" xmlns="http://www.w3.org/2000/svg">
<path d="M276 0H0V160H276V0Z" fill="#122531"/>
<path d="M269 6H7V155H269V6Z" fill="white"/>
<path d="M27.3943 23.0487H24.2559V27.2426H27.3943V23.0487Z" fill="#037BC4"/>
<path d="M38.0652 22H34.9268V26.1939H38.0652V22Z" fill="#037BC4"/>
<path d="M43.7136 22H40.5752V26.1939H43.7136V22Z" fill="#037BC4"/>
<path d="M43.7127 34.5815H40.5742V38.7754H43.7127V34.5815Z" fill="#037BC4"/>
<path d="M49.99 28.2909H46.8516V32.4848H49.99V28.2909Z" fill="#037BC4"/>
<path d="M49.99 35.106H46.8516V39.2998H49.99V35.106Z" fill="#037BC4"/>
<path d="M43.7127 48.2117H40.5742V52.4055H43.7127V48.2117Z" fill="#037BC4"/>
<path d="M49.99 55.0266H46.8516V59.2205H49.99V55.0266Z" fill="#037BC4"/>
<path d="M43.7127 80.7142H40.5742V84.9081H43.7127V80.7142Z" fill="#037BC4"/>
<path d="M38.0652 55.0266H34.9268V59.2205H38.0652V55.0266Z" fill="#037BC4"/>
<path d="M27.3943 29.8635H24.2559V34.0574H27.3943V29.8635Z" fill="#037BC4"/>
<path d="M27.3943 95.3926H24.2559V99.5864H27.3943V95.3926Z" fill="#037BC4"/>
<path d="M27.3943 109.023H24.2559V113.217H27.3943V109.023Z" fill="#037BC4"/>
<path d="M27.3943 115.838H24.2559V120.032H27.3943V115.838Z" fill="#037BC4"/>
<path d="M27.3938 37.2026H23V37.7269H27.3938V37.2026Z" fill="#037BC4"/>
<path d="M44.3421 43.4935H39.9482V44.0178H44.3421V43.4935Z" fill="#037BC4"/>
<path d="M27.3938 70.7535H23V71.2778H27.3938V70.7535Z" fill="#037BC4"/>
<path d="M27.3938 76.5203H23V77.0445H27.3938V76.5203Z" fill="#037BC4"/>
<path d="M44.3421 110.071H39.9482V110.595H44.3421V110.071Z" fill="#037BC4"/>
<path d="M39.3206 122.653H34.9268V123.177H39.3206V122.653Z" fill="#037BC4"/>
<path d="M24.2559 41.9209V42.9692H25.5111V45.0662H24.2559V46.1145H27.3943V41.9209H24.2559Z" fill="#037BC4"/>
<path d="M34.9268 34.5817V35.63H36.182V37.727H34.9268V38.7753H38.0652V34.5817H34.9268Z" fill="#037BC4"/>
<path d="M46.8516 41.3966V42.4453H48.1068V44.5423H46.8516V45.5906H49.99V41.3966H46.8516Z" fill="#037BC4"/>
<path d="M46.8516 61.8419V62.8902H48.1068V64.9872H46.8516V66.0355H49.99V61.8419H46.8516Z" fill="#037BC4"/>
<path d="M46.8516 68.6567V69.7054H48.1068V71.8024H46.8516V72.8507H49.99V68.6567H46.8516Z" fill="#037BC4"/>
<path d="M46.8516 47.6875V48.7358H48.1068V50.8328H46.8516V51.8815H49.99V47.6875H46.8516Z" fill="#037BC4"/>
<path d="M40.5742 28.2909V29.3396H41.8298V31.4362H40.5742V32.4849H43.7131V28.2909H40.5742Z" fill="#037BC4"/>
<path d="M43.7127 61.8418H40.5742V66.0357H43.7127V61.8418Z" fill="#037BC4"/>
<path d="M43.7127 74.4233H40.5742V78.6172H43.7127V74.4233Z" fill="#037BC4"/>
<path d="M40.5742 68.1327V69.181H41.8298V71.278H40.5742V72.3267H43.7131V68.1327H40.5742Z" fill="#037BC4"/>
<path d="M34.9268 41.3966V42.4453H36.182V44.5423H34.9268V45.5906H38.0652V41.3966H34.9268Z" fill="#037BC4"/>
<path d="M34.9268 48.2117V49.2603H36.182V51.357H34.9268V52.4056H38.0652V48.2117H34.9268Z" fill="#037BC4"/>
<path d="M38.0652 68.6567H34.9268V72.8506H38.0652V68.6567Z" fill="#037BC4"/>
<path d="M34.9268 61.8419V62.8902H36.182V64.9872H34.9268V66.0355H38.0652V61.8419H34.9268Z" fill="#037BC4"/>
<path d="M38.0652 82.2867H34.9268V86.4806H38.0652V82.2867Z" fill="#037BC4"/>
<path d="M34.9268 75.4718V76.5201H36.182V78.6171H34.9268V79.6658H38.0652V75.4718H34.9268Z" fill="#037BC4"/>
<path d="M38.0652 95.9167H34.9268V100.111H38.0652V95.9167Z" fill="#037BC4"/>
<path d="M43.7127 94.8684H40.5742V99.0623H43.7127V94.8684Z" fill="#037BC4"/>
<path d="M34.9268 89.1017V90.1503H36.182V92.2473H34.9268V93.2957H38.0652V89.1017H34.9268Z" fill="#037BC4"/>
<path d="M46.8516 89.1017V90.1503H48.1068V92.2473H46.8516V93.2957H49.99V89.1017H46.8516Z" fill="#037BC4"/>
<path d="M82.0027 28.2909H78.8643V32.4848H82.0027V28.2909Z" fill="#037BC4"/>
<path d="M82.0027 35.106H78.8643V39.2998H82.0027V35.106Z" fill="#037BC4"/>
<path d="M82.0027 55.0266H78.8643V59.2205H82.0027V55.0266Z" fill="#037BC4"/>
<path d="M78.8643 41.3966V42.4453H80.1199V44.5423H78.8643V45.5906H82.0027V41.3966H78.8643Z" fill="#037BC4"/>
<path d="M78.8643 61.8419V62.8902H80.1199V64.9872H78.8643V66.0355H82.0027V61.8419H78.8643Z" fill="#037BC4"/>
<path d="M78.8643 68.6567V69.7054H80.1199V71.8024H78.8643V72.8507H82.0027V68.6567H78.8643Z" fill="#037BC4"/>
<path d="M78.8643 47.6875V48.7358H80.1199V50.8328H78.8643V51.8815H82.0027V47.6875H78.8643Z" fill="#037BC4"/>
<path d="M78.8643 89.1017V90.1503H80.1199V92.2473H78.8643V93.2957H82.0027V89.1017H78.8643Z" fill="#037BC4"/>
<path d="M38.0652 109.547H34.9268V113.741H38.0652V109.547Z" fill="#037BC4"/>
<path d="M43.7127 101.683H40.5742V105.877H43.7127V101.683Z" fill="#037BC4"/>
<path d="M38.0652 127.371H34.9268V131.565H38.0652V127.371Z" fill="#037BC4"/>
<path d="M43.7127 114.789H40.5742V118.983H43.7127V114.789Z" fill="#037BC4"/>
<path d="M34.9268 102.732V103.78H36.182V105.877H34.9268V106.926H38.0652V102.732H34.9268Z" fill="#037BC4"/>
<path d="M34.9268 134.71V135.759H36.182V137.856H34.9268V138.904H38.0652V134.71H34.9268Z" fill="#037BC4"/>
<path d="M72.5877 22H69.4492V26.1939H72.5877V22Z" fill="#037BC4"/>
<path d="M72.5877 55.0266H69.4492V59.2205H72.5877V55.0266Z" fill="#037BC4"/>
<path d="M73.843 122.653H69.4492V123.177H73.843V122.653Z" fill="#037BC4"/>
<path d="M69.4492 34.5817V35.63H70.7048V37.727H69.4492V38.7753H72.5876V34.5817H69.4492Z" fill="#037BC4"/>
<path d="M69.4492 41.3966V42.4453H70.7048V44.5423H69.4492V45.5906H72.5876V41.3966H69.4492Z" fill="#037BC4"/>
<path d="M69.4492 48.2117V49.2603H70.7048V51.357H69.4492V52.4056H72.5876V48.2117H69.4492Z" fill="#037BC4"/>
<path d="M72.5877 68.6567H69.4492V72.8506H72.5877V68.6567Z" fill="#037BC4"/>
<path d="M69.4492 61.8419V62.8902H70.7048V64.9872H69.4492V66.0355H72.5876V61.8419H69.4492Z" fill="#037BC4"/>
<path d="M72.5877 82.2867H69.4492V86.4806H72.5877V82.2867Z" fill="#037BC4"/>
<path d="M69.4492 75.4718V76.5201H70.7048V78.6171H69.4492V79.6658H72.5876V75.4718H69.4492Z" fill="#037BC4"/>
<path d="M72.5877 95.9167H69.4492V100.111H72.5877V95.9167Z" fill="#037BC4"/>
<path d="M69.4492 89.1017V90.1503H70.7048V92.2473H69.4492V93.2957H72.5876V89.1017H69.4492Z" fill="#037BC4"/>
<path d="M72.5877 109.547H69.4492V113.741H72.5877V109.547Z" fill="#037BC4"/>
<path d="M72.5877 127.371H69.4492V131.565H72.5877V127.371Z" fill="#037BC4"/>
<path d="M69.4492 102.732V103.78H70.7048V105.877H69.4492V106.926H72.5876V102.732H69.4492Z" fill="#037BC4"/>
<path d="M69.4492 134.71V135.759H70.7048V137.856H69.4492V138.904H72.5876V134.71H69.4492Z" fill="#037BC4"/>
<path d="M87.6521 22H84.5137V26.1939H87.6521V22Z" fill="#037BC4"/>
<path d="M87.6521 55.0266H84.5137V59.2205H87.6521V55.0266Z" fill="#037BC4"/>
<path d="M88.9075 122.653H84.5137V123.177H88.9075V122.653Z" fill="#037BC4"/>
<path d="M84.5137 34.5817V35.63H85.7693V37.727H84.5137V38.7753H87.6521V34.5817H84.5137Z" fill="#037BC4"/>
<path d="M84.5137 41.3966V42.4453H85.7693V44.5423H84.5137V45.5906H87.6521V41.3966H84.5137Z" fill="#037BC4"/>
<path d="M84.5137 48.2117V49.2603H85.7693V51.357H84.5137V52.4056H87.6521V48.2117H84.5137Z" fill="#037BC4"/>
<path d="M87.6521 68.6567H84.5137V72.8506H87.6521V68.6567Z" fill="#037BC4"/>
<path d="M84.5137 61.8419V62.8902H85.7693V64.9872H84.5137V66.0355H87.6521V61.8419H84.5137Z" fill="#037BC4"/>
<path d="M87.6521 82.2867H84.5137V86.4806H87.6521V82.2867Z" fill="#037BC4"/>
<path d="M84.5137 75.4718V76.5201H85.7693V78.6171H84.5137V79.6658H87.6521V75.4718H84.5137Z" fill="#037BC4"/>
<path d="M87.6521 95.9167H84.5137V100.111H87.6521V95.9167Z" fill="#037BC4"/>
<path d="M84.5137 89.1017V90.1503H85.7693V92.2473H84.5137V93.2957H87.6521V89.1017H84.5137Z" fill="#037BC4"/>
<path d="M87.6521 109.547H84.5137V113.741H87.6521V109.547Z" fill="#037BC4"/>
<path d="M87.6521 127.371H84.5137V131.565H87.6521V127.371Z" fill="#037BC4"/>
<path d="M84.5137 102.732V103.78H85.7693V105.877H84.5137V106.926H87.6521V102.732H84.5137Z" fill="#037BC4"/>
<path d="M84.5137 134.71V135.759H85.7693V137.856H84.5137V138.904H87.6521V134.71H84.5137Z" fill="#037BC4"/>
<path d="M40.5742 127.371V128.419H41.8298V130.516H40.5742V131.565H43.7131V127.371H40.5742Z" fill="#037BC4"/>
<path d="M40.5742 134.186V135.234H41.8298V137.331H40.5742V138.38H43.7131V134.186H40.5742Z" fill="#037BC4"/>
<path d="M24.2559 55.0269V56.0752H25.5111V58.1722H24.2559V59.2208H27.3943V55.0269H24.2559Z" fill="#037BC4"/>
<path d="M24.2559 81.7627V82.811H25.5111V84.908H24.2559V85.9563H27.3943V81.7627H24.2559Z" fill="#037BC4"/>
<path d="M24.2559 88.5774V89.6261H25.5111V91.723H24.2559V92.7714H27.3943V88.5774H24.2559Z" fill="#037BC4"/>
<path d="M24.2559 102.208V103.256H25.5111V105.353H24.2559V106.401H27.3943V102.208H24.2559Z" fill="#037BC4"/>
<path d="M24.2559 121.604V122.653H25.5111V124.75H24.2559V125.798H27.3943V121.604H24.2559Z" fill="#037BC4"/>
<path d="M24.2559 127.371V128.419H25.5111V130.516H24.2559V131.565H27.3943V127.371H24.2559Z" fill="#037BC4"/>
<path d="M60.034 23.0487H56.8955V27.2426H60.034V23.0487Z" fill="#037BC4"/>
<path d="M60.034 29.8635H56.8955V34.0574H60.034V29.8635Z" fill="#037BC4"/>
<path d="M60.0325 37.2026H55.6387V37.7269H60.0325V37.2026Z" fill="#037BC4"/>
<path d="M60.0325 70.7535H55.6387V71.2778H60.0325V70.7535Z" fill="#037BC4"/>
<path d="M60.0325 76.5203H55.6387V77.0445H60.0325V76.5203Z" fill="#037BC4"/>
<path d="M56.8955 41.9209V42.9692H58.1507V45.0662H56.8955V46.1145H60.0339V41.9209H56.8955Z" fill="#037BC4"/>
<path d="M56.8955 55.0269V56.0752H58.1507V58.1722H56.8955V59.2208H60.0339V55.0269H56.8955Z" fill="#037BC4"/>
<path d="M56.8955 81.7627V82.811H58.1507V84.908H56.8955V85.9563H60.0339V81.7627H56.8955Z" fill="#037BC4"/>
<path d="M95.8113 68.6567H92.6729V72.8506H95.8113V68.6567Z" fill="#037BC4"/>
<path d="M95.8113 75.4718H92.6729V79.6657H95.8113V75.4718Z" fill="#037BC4"/>
<path d="M95.8128 82.8112H91.4189V83.3354H95.8128V82.8112Z" fill="#037BC4"/>
<path d="M95.8128 116.362H91.4189V116.886H95.8128V116.362Z" fill="#037BC4"/>
<path d="M95.8128 122.128H91.4189V122.653H95.8128V122.128Z" fill="#037BC4"/>
<path d="M92.6729 87.5292V88.5775H93.9281V90.6745H92.6729V91.7231H95.8113V87.5292H92.6729Z" fill="#037BC4"/>
<path d="M92.6729 100.635V101.684H93.9281V103.78H92.6729V104.829H95.8113V100.635H92.6729Z" fill="#037BC4"/>
<path d="M92.6729 127.371V128.419H93.9281V130.516H92.6729V131.565H95.8113V127.371H92.6729Z" fill="#037BC4"/>
<path d="M105.854 23.0487H102.716V27.2426H105.854V23.0487Z" fill="#037BC4"/>
<path d="M116.525 22H113.387V26.1939H116.525V22Z" fill="#037BC4"/>
<path d="M122.176 22H119.037V26.1939H122.176V22Z" fill="#037BC4"/>
<path d="M122.176 34.5815H119.037V38.7754H122.176V34.5815Z" fill="#037BC4"/>
<path d="M128.453 28.2909H125.314V32.4848H128.453V28.2909Z" fill="#037BC4"/>
<path d="M128.453 35.106H125.314V39.2998H128.453V35.106Z" fill="#037BC4"/>
<path d="M122.176 48.2117H119.037V52.4055H122.176V48.2117Z" fill="#037BC4"/>
<path d="M128.453 55.0266H125.314V59.2205H128.453V55.0266Z" fill="#037BC4"/>
<path d="M122.176 80.7142H119.037V84.9081H122.176V80.7142Z" fill="#037BC4"/>
<path d="M116.525 55.0266H113.387V59.2205H116.525V55.0266Z" fill="#037BC4"/>
<path d="M105.854 29.8635H102.716V34.0574H105.854V29.8635Z" fill="#037BC4"/>
<path d="M105.854 95.3926H102.716V99.5864H105.854V95.3926Z" fill="#037BC4"/>
<path d="M105.854 109.023H102.716V113.217H105.854V109.023Z" fill="#037BC4"/>
<path d="M105.854 115.838H102.716V120.032H105.854V115.838Z" fill="#037BC4"/>
<path d="M105.854 37.2026H101.46V37.7269H105.854V37.2026Z" fill="#037BC4"/>
<path d="M122.802 43.4935H118.408V44.0178H122.802V43.4935Z" fill="#037BC4"/>
<path d="M105.854 70.7535H101.46V71.2778H105.854V70.7535Z" fill="#037BC4"/>
<path d="M105.854 76.5203H101.46V77.0445H105.854V76.5203Z" fill="#037BC4"/>
<path d="M122.802 110.071H118.408V110.595H122.802V110.071Z" fill="#037BC4"/>
<path d="M117.781 122.653H113.387V123.177H117.781V122.653Z" fill="#037BC4"/>
<path d="M102.716 41.9209V42.9692H103.971V45.0662H102.716V46.1145H105.854V41.9209H102.716Z" fill="#037BC4"/>
<path d="M113.387 34.5817V35.63H114.642V37.727H113.387V38.7753H116.525V34.5817H113.387Z" fill="#037BC4"/>
<path d="M125.314 41.3966V42.4453H126.57V44.5423H125.314V45.5906H128.453V41.3966H125.314Z" fill="#037BC4"/>
<path d="M125.314 61.8419V62.8902H126.57V64.9872H125.314V66.0355H128.453V61.8419H125.314Z" fill="#037BC4"/>
<path d="M125.314 68.6567V69.7054H126.57V71.8024H125.314V72.8507H128.453V68.6567H125.314Z" fill="#037BC4"/>
<path d="M125.314 47.6875V48.7358H126.57V50.8328H125.314V51.8815H128.453V47.6875H125.314Z" fill="#037BC4"/>
<path d="M119.037 28.2909V29.3396H120.292V31.4362H119.037V32.4849H122.176V28.2909H119.037Z" fill="#037BC4"/>
<path d="M122.176 61.8418H119.037V66.0357H122.176V61.8418Z" fill="#037BC4"/>
<path d="M122.176 74.4233H119.037V78.6172H122.176V74.4233Z" fill="#037BC4"/>
<path d="M119.037 68.1327V69.181H120.292V71.278H119.037V72.3267H122.176V68.1327H119.037Z" fill="#037BC4"/>
<path d="M113.387 41.3966V42.4453H114.642V44.5423H113.387V45.5906H116.525V41.3966H113.387Z" fill="#037BC4"/>
<path d="M113.387 48.2117V49.2603H114.642V51.357H113.387V52.4056H116.525V48.2117H113.387Z" fill="#037BC4"/>
<path d="M116.525 68.6567H113.387V72.8506H116.525V68.6567Z" fill="#037BC4"/>
<path d="M113.387 61.8419V62.8902H114.642V64.9872H113.387V66.0355H116.525V61.8419H113.387Z" fill="#037BC4"/>
<path d="M116.525 82.2867H113.387V86.4806H116.525V82.2867Z" fill="#037BC4"/>
<path d="M113.387 75.4718V76.5201H114.642V78.6171H113.387V79.6658H116.525V75.4718H113.387Z" fill="#037BC4"/>
<path d="M116.525 95.9167H113.387V100.111H116.525V95.9167Z" fill="#037BC4"/>
<path d="M122.176 94.8684H119.037V99.0623H122.176V94.8684Z" fill="#037BC4"/>
<path d="M113.387 89.1017V90.1503H114.642V92.2473H113.387V93.2957H116.525V89.1017H113.387Z" fill="#037BC4"/>
<path d="M125.314 89.1017V90.1503H126.57V92.2473H125.314V93.2957H128.453V89.1017H125.314Z" fill="#037BC4"/>
<path d="M160.465 28.2909H157.326V32.4848H160.465V28.2909Z" fill="#037BC4"/>
<path d="M160.465 35.106H157.326V39.2998H160.465V35.106Z" fill="#037BC4"/>
<path d="M160.465 55.0266H157.326V59.2205H160.465V55.0266Z" fill="#037BC4"/>
<path d="M157.326 41.3966V42.4453H158.581V44.5423H157.326V45.5906H160.465V41.3966H157.326Z" fill="#037BC4"/>
<path d="M157.326 61.8419V62.8902H158.581V64.9872H157.326V66.0355H160.465V61.8419H157.326Z" fill="#037BC4"/>
<path d="M157.326 68.6567V69.7054H158.581V71.8024H157.326V72.8507H160.465V68.6567H157.326Z" fill="#037BC4"/>
<path d="M157.326 47.6875V48.7358H158.581V50.8328H157.326V51.8815H160.465V47.6875H157.326Z" fill="#037BC4"/>
<path d="M157.326 89.1017V90.1503H158.581V92.2473H157.326V93.2957H160.465V89.1017H157.326Z" fill="#037BC4"/>
<path d="M116.525 109.547H113.387V113.741H116.525V109.547Z" fill="#037BC4"/>
<path d="M122.176 101.683H119.037V105.877H122.176V101.683Z" fill="#037BC4"/>
<path d="M116.525 127.371H113.387V131.565H116.525V127.371Z" fill="#037BC4"/>
<path d="M122.176 114.789H119.037V118.983H122.176V114.789Z" fill="#037BC4"/>
<path d="M113.387 102.732V103.78H114.642V105.877H113.387V106.926H116.525V102.732H113.387Z" fill="#037BC4"/>
<path d="M113.387 134.71V135.759H114.642V137.856H113.387V138.904H116.525V134.71H113.387Z" fill="#037BC4"/>
<path d="M151.05 22H147.911V26.1939H151.05V22Z" fill="#037BC4"/>
<path d="M151.048 55.0266H147.909V59.2205H151.048V55.0266Z" fill="#037BC4"/>
<path d="M152.303 122.653H147.909V123.177H152.303V122.653Z" fill="#037BC4"/>
<path d="M147.909 34.5817V35.63H149.165V37.727H147.909V38.7753H151.048V34.5817H147.909Z" fill="#037BC4"/>
<path d="M147.909 41.3966V42.4453H149.165V44.5423H147.909V45.5906H151.048V41.3966H147.909Z" fill="#037BC4"/>
<path d="M147.909 48.2117V49.2603H149.165V51.357H147.909V52.4056H151.048V48.2117H147.909Z" fill="#037BC4"/>
<path d="M151.048 68.6567H147.909V72.8506H151.048V68.6567Z" fill="#037BC4"/>
<path d="M147.909 61.8419V62.8902H149.165V64.9872H147.909V66.0355H151.048V61.8419H147.909Z" fill="#037BC4"/>
<path d="M151.048 82.2867H147.909V86.4806H151.048V82.2867Z" fill="#037BC4"/>
<path d="M147.909 75.4718V76.5201H149.165V78.6171H147.909V79.6658H151.048V75.4718H147.909Z" fill="#037BC4"/>
<path d="M151.048 95.9167H147.909V100.111H151.048V95.9167Z" fill="#037BC4"/>
<path d="M147.909 89.1017V90.1503H149.165V92.2473H147.909V93.2957H151.048V89.1017H147.909Z" fill="#037BC4"/>
<path d="M151.048 109.547H147.909V113.741H151.048V109.547Z" fill="#037BC4"/>
<path d="M151.048 127.371H147.909V131.565H151.048V127.371Z" fill="#037BC4"/>
<path d="M147.909 102.732V103.78H149.165V105.877H147.909V106.926H151.048V102.732H147.909Z" fill="#037BC4"/>
<path d="M147.909 134.71V135.759H149.165V137.856H147.909V138.904H151.048V134.71H147.909Z" fill="#037BC4"/>
<path d="M166.114 22H162.976V26.1939H166.114V22Z" fill="#037BC4"/>
<path d="M166.114 55.0266H162.976V59.2205H166.114V55.0266Z" fill="#037BC4"/>
<path d="M167.369 122.653H162.976V123.177H167.369V122.653Z" fill="#037BC4"/>
<path d="M162.976 34.5817V35.63H164.231V37.727H162.976V38.7753H166.114V34.5817H162.976Z" fill="#037BC4"/>
<path d="M162.976 41.3966V42.4453H164.231V44.5423H162.976V45.5906H166.114V41.3966H162.976Z" fill="#037BC4"/>
<path d="M162.976 48.2117V49.2603H164.231V51.357H162.976V52.4056H166.114V48.2117H162.976Z" fill="#037BC4"/>
<path d="M166.114 68.6567H162.976V72.8506H166.114V68.6567Z" fill="#037BC4"/>
<path d="M162.976 61.8419V62.8902H164.231V64.9872H162.976V66.0355H166.114V61.8419H162.976Z" fill="#037BC4"/>
<path d="M166.114 82.2867H162.976V86.4806H166.114V82.2867Z" fill="#037BC4"/>
<path d="M162.976 75.4718V76.5201H164.231V78.6171H162.976V79.6658H166.114V75.4718H162.976Z" fill="#037BC4"/>
<path d="M166.114 95.9167H162.976V100.111H166.114V95.9167Z" fill="#037BC4"/>
<path d="M162.976 89.1017V90.1503H164.231V92.2473H162.976V93.2957H166.114V89.1017H162.976Z" fill="#037BC4"/>
<path d="M166.114 109.547H162.976V113.741H166.114V109.547Z" fill="#037BC4"/>
<path d="M166.114 127.371H162.976V131.565H166.114V127.371Z" fill="#037BC4"/>
<path d="M162.976 102.732V103.78H164.231V105.877H162.976V106.926H166.114V102.732H162.976Z" fill="#037BC4"/>
<path d="M162.976 134.71V135.759H164.231V137.856H162.976V138.904H166.114V134.71H162.976Z" fill="#037BC4"/>
<path d="M119.037 127.371V128.419H120.292V130.516H119.037V131.565H122.176V127.371H119.037Z" fill="#037BC4"/>
<path d="M119.037 134.186V135.234H120.292V137.331H119.037V138.38H122.176V134.186H119.037Z" fill="#037BC4"/>
<path d="M102.716 55.0269V56.0752H103.971V58.1722H102.716V59.2208H105.854V55.0269H102.716Z" fill="#037BC4"/>
<path d="M102.716 81.7627V82.811H103.971V84.908H102.716V85.9563H105.854V81.7627H102.716Z" fill="#037BC4"/>
<path d="M102.716 88.5774V89.6261H103.971V91.723H102.716V92.7714H105.854V88.5774H102.716Z" fill="#037BC4"/>
<path d="M102.716 102.208V103.256H103.971V105.353H102.716V106.401H105.854V102.208H102.716Z" fill="#037BC4"/>
<path d="M102.716 121.604V122.653H103.971V124.75H102.716V125.798H105.854V121.604H102.716Z" fill="#037BC4"/>
<path d="M102.716 127.371V128.419H103.971V130.516H102.716V131.565H105.854V127.371H102.716Z" fill="#037BC4"/>
<path d="M138.495 23.0487H135.356V27.2426H138.495V23.0487Z" fill="#037BC4"/>
<path d="M138.495 29.8635H135.356V34.0574H138.495V29.8635Z" fill="#037BC4"/>
<path d="M138.495 37.2026H134.102V37.7269H138.495V37.2026Z" fill="#037BC4"/>
<path d="M138.495 70.7535H134.102V71.2778H138.495V70.7535Z" fill="#037BC4"/>
<path d="M138.495 76.5203H134.102V77.0445H138.495V76.5203Z" fill="#037BC4"/>
<path d="M135.356 41.9209V42.9692H136.612V45.0662H135.356V46.1145H138.495V41.9209H135.356Z" fill="#037BC4"/>
<path d="M135.356 55.0269V56.0752H136.612V58.1722H135.356V59.2208H138.495V55.0269H135.356Z" fill="#037BC4"/>
<path d="M135.356 81.7627V82.811H136.612V84.908H135.356V85.9563H138.495V81.7627H135.356Z" fill="#037BC4"/>
<path d="M174.273 68.6567H171.135V72.8506H174.273V68.6567Z" fill="#037BC4"/>
<path d="M174.273 75.4718H171.135V79.6657H174.273V75.4718Z" fill="#037BC4"/>
<path d="M174.273 82.8112H169.879V83.3354H174.273V82.8112Z" fill="#037BC4"/>
<path d="M174.273 116.362H169.879V116.886H174.273V116.362Z" fill="#037BC4"/>
<path d="M174.273 122.128H169.879V122.653H174.273V122.128Z" fill="#037BC4"/>
<path d="M171.135 87.5292V88.5775H172.39V90.6745H171.135V91.7231H174.273V87.5292H171.135Z" fill="#037BC4"/>
<path d="M171.135 100.635V101.684H172.39V103.78H171.135V104.829H174.273V100.635H171.135Z" fill="#037BC4"/>
<path d="M171.135 127.371V128.419H172.39V130.516H171.135V131.565H174.273V127.371H171.135Z" fill="#037BC4"/>
<path d="M184.317 23.0487H181.179V27.2426H184.317V23.0487Z" fill="#037BC4"/>
<path d="M194.988 22H191.85V26.1939H194.988V22Z" fill="#037BC4"/>
<path d="M200.637 22H197.498V26.1939H200.637V22Z" fill="#037BC4"/>
<path d="M200.637 34.5815H197.498V38.7754H200.637V34.5815Z" fill="#037BC4"/>
<path d="M206.912 28.2909H203.773V32.4848H206.912V28.2909Z" fill="#037BC4"/>
<path d="M206.912 35.106H203.773V39.2998H206.912V35.106Z" fill="#037BC4"/>
<path d="M200.637 48.2117H197.498V52.4055H200.637V48.2117Z" fill="#037BC4"/>
<path d="M206.912 55.0266H203.773V59.2205H206.912V55.0266Z" fill="#037BC4"/>
<path d="M200.637 80.7142H197.498V84.9081H200.637V80.7142Z" fill="#037BC4"/>
<path d="M194.988 55.0266H191.85V59.2205H194.988V55.0266Z" fill="#037BC4"/>
<path d="M184.317 29.8635H181.179V34.0574H184.317V29.8635Z" fill="#037BC4"/>
<path d="M184.317 95.3926H181.179V99.5864H184.317V95.3926Z" fill="#037BC4"/>
<path d="M184.317 109.023H181.179V113.217H184.317V109.023Z" fill="#037BC4"/>
<path d="M184.317 115.838H181.179V120.032H184.317V115.838Z" fill="#037BC4"/>
<path d="M184.316 37.2026H179.922V37.7269H184.316V37.2026Z" fill="#037BC4"/>
<path d="M201.263 43.4935H196.869V44.0178H201.263V43.4935Z" fill="#037BC4"/>
<path d="M184.316 70.7535H179.922V71.2778H184.316V70.7535Z" fill="#037BC4"/>
<path d="M184.316 76.5203H179.922V77.0445H184.316V76.5203Z" fill="#037BC4"/>
<path d="M201.263 110.071H196.869V110.595H201.263V110.071Z" fill="#037BC4"/>
<path d="M196.243 122.653H191.85V123.177H196.243V122.653Z" fill="#037BC4"/>
<path d="M181.179 41.9209V42.9692H182.434V45.0662H181.179V46.1145H184.318V41.9209H181.179Z" fill="#037BC4"/>
<path d="M191.85 34.5817V35.63H193.105V37.727H191.85V38.7753H194.988V34.5817H191.85Z" fill="#037BC4"/>
<path d="M203.773 41.3966V42.4453H205.029V44.5423H203.773V45.5906H206.912V41.3966H203.773Z" fill="#037BC4"/>
<path d="M203.773 61.8419V62.8902H205.029V64.9872H203.773V66.0355H206.912V61.8419H203.773Z" fill="#037BC4"/>
<path d="M203.773 68.6567V69.7054H205.029V71.8024H203.773V72.8507H206.912V68.6567H203.773Z" fill="#037BC4"/>
<path d="M203.773 47.6875V48.7358H205.029V50.8328H203.773V51.8815H206.912V47.6875H203.773Z" fill="#037BC4"/>
<path d="M197.498 28.2909V29.3396H198.753V31.4362H197.498V32.4849H200.636V28.2909H197.498Z" fill="#037BC4"/>
<path d="M200.637 61.8418H197.498V66.0357H200.637V61.8418Z" fill="#037BC4"/>
<path d="M200.637 74.4233H197.498V78.6172H200.637V74.4233Z" fill="#037BC4"/>
<path d="M197.498 68.1327V69.181H198.753V71.278H197.498V72.3267H200.636V68.1327H197.498Z" fill="#037BC4"/>
<path d="M191.85 41.3966V42.4453H193.105V44.5423H191.85V45.5906H194.988V41.3966H191.85Z" fill="#037BC4"/>
<path d="M191.85 48.2117V49.2603H193.105V51.357H191.85V52.4056H194.988V48.2117H191.85Z" fill="#037BC4"/>
<path d="M194.988 68.6567H191.85V72.8506H194.988V68.6567Z" fill="#037BC4"/>
<path d="M191.85 61.8419V62.8902H193.105V64.9872H191.85V66.0355H194.988V61.8419H191.85Z" fill="#037BC4"/>
<path d="M194.988 82.2867H191.85V86.4806H194.988V82.2867Z" fill="#037BC4"/>
<path d="M191.85 75.4718V76.5201H193.105V78.6171H191.85V79.6658H194.988V75.4718H191.85Z" fill="#037BC4"/>
<path d="M194.988 95.9167H191.85V100.111H194.988V95.9167Z" fill="#037BC4"/>
<path d="M200.637 94.8684H197.498V99.0623H200.637V94.8684Z" fill="#037BC4"/>
<path d="M191.85 89.1017V90.1503H193.105V92.2473H191.85V93.2957H194.988V89.1017H191.85Z" fill="#037BC4"/>
<path d="M203.773 89.1017V90.1503H205.029V92.2473H203.773V93.2957H206.912V89.1017H203.773Z" fill="#037BC4"/>
<path d="M238.925 28.2909H235.786V32.4848H238.925V28.2909Z" fill="#037BC4"/>
<path d="M238.925 35.106H235.786V39.2998H238.925V35.106Z" fill="#037BC4"/>
<path d="M238.925 55.0266H235.786V59.2205H238.925V55.0266Z" fill="#037BC4"/>
<path d="M235.786 41.3966V42.4453H237.041V44.5423H235.786V45.5906H238.925V41.3966H235.786Z" fill="#037BC4"/>
<path d="M235.786 61.8419V62.8902H237.041V64.9872H235.786V66.0355H238.925V61.8419H235.786Z" fill="#037BC4"/>
<path d="M235.786 68.6567V69.7054H237.041V71.8024H235.786V72.8507H238.925V68.6567H235.786Z" fill="#037BC4"/>
<path d="M235.786 47.6875V48.7358H237.041V50.8328H235.786V51.8815H238.925V47.6875H235.786Z" fill="#037BC4"/>
<path d="M235.786 89.1017V90.1503H237.041V92.2473H235.786V93.2957H238.925V89.1017H235.786Z" fill="#037BC4"/>
<path d="M194.988 109.547H191.85V113.741H194.988V109.547Z" fill="#037BC4"/>
<path d="M200.637 101.683H197.498V105.877H200.637V101.683Z" fill="#037BC4"/>
<path d="M194.988 127.371H191.85V131.565H194.988V127.371Z" fill="#037BC4"/>
<path d="M200.637 114.789H197.498V118.983H200.637V114.789Z" fill="#037BC4"/>
<path d="M191.85 102.732V103.78H193.105V105.877H191.85V106.926H194.988V102.732H191.85Z" fill="#037BC4"/>
<path d="M191.85 134.71V135.759H193.105V137.856H191.85V138.904H194.988V134.71H191.85Z" fill="#037BC4"/>
<path d="M229.511 22H226.372V26.1939H229.511V22Z" fill="#037BC4"/>
<path d="M229.511 55.0266H226.372V59.2205H229.511V55.0266Z" fill="#037BC4"/>
<path d="M230.766 122.653H226.372V123.177H230.766V122.653Z" fill="#037BC4"/>
<path d="M226.372 34.5817V35.63H227.627V37.727H226.372V38.7753H229.51V34.5817H226.372Z" fill="#037BC4"/>
<path d="M226.372 41.3966V42.4453H227.627V44.5423H226.372V45.5906H229.51V41.3966H226.372Z" fill="#037BC4"/>
<path d="M226.372 48.2117V49.2603H227.627V51.357H226.372V52.4056H229.51V48.2117H226.372Z" fill="#037BC4"/>
<path d="M229.511 68.6567H226.372V72.8506H229.511V68.6567Z" fill="#037BC4"/>
<path d="M226.372 61.8419V62.8902H227.627V64.9872H226.372V66.0355H229.51V61.8419H226.372Z" fill="#037BC4"/>
<path d="M229.511 82.2867H226.372V86.4806H229.511V82.2867Z" fill="#037BC4"/>
<path d="M226.372 75.4718V76.5201H227.627V78.6171H226.372V79.6658H229.51V75.4718H226.372Z" fill="#037BC4"/>
<path d="M229.511 95.9167H226.372V100.111H229.511V95.9167Z" fill="#037BC4"/>
<path d="M226.372 89.1017V90.1503H227.627V92.2473H226.372V93.2957H229.51V89.1017H226.372Z" fill="#037BC4"/>
<path d="M229.511 109.547H226.372V113.741H229.511V109.547Z" fill="#037BC4"/>
<path d="M229.511 127.371H226.372V131.565H229.511V127.371Z" fill="#037BC4"/>
<path d="M226.372 102.732V103.78H227.627V105.877H226.372V106.926H229.51V102.732H226.372Z" fill="#037BC4"/>
<path d="M226.372 134.71V135.759H227.627V137.856H226.372V138.904H229.51V134.71H226.372Z" fill="#037BC4"/>
<path d="M244.575 22H241.437V26.1939H244.575V22Z" fill="#037BC4"/>
<path d="M244.575 55.0266H241.437V59.2205H244.575V55.0266Z" fill="#037BC4"/>
<path d="M245.83 122.653H241.437V123.177H245.83V122.653Z" fill="#037BC4"/>
<path d="M241.437 34.5817V35.63H242.692V37.727H241.437V38.7753H244.575V34.5817H241.437Z" fill="#037BC4"/>
<path d="M241.437 41.3966V42.4453H242.692V44.5423H241.437V45.5906H244.575V41.3966H241.437Z" fill="#037BC4"/>
<path d="M241.437 48.2117V49.2603H242.692V51.357H241.437V52.4056H244.575V48.2117H241.437Z" fill="#037BC4"/>
<path d="M244.575 68.6567H241.437V72.8506H244.575V68.6567Z" fill="#037BC4"/>
<path d="M241.437 61.8419V62.8902H242.692V64.9872H241.437V66.0355H244.575V61.8419H241.437Z" fill="#037BC4"/>
<path d="M244.575 82.2867H241.437V86.4806H244.575V82.2867Z" fill="#037BC4"/>
<path d="M241.437 75.4718V76.5201H242.692V78.6171H241.437V79.6658H244.575V75.4718H241.437Z" fill="#037BC4"/>
<path d="M244.575 95.9167H241.437V100.111H244.575V95.9167Z" fill="#037BC4"/>
<path d="M241.437 89.1017V90.1503H242.692V92.2473H241.437V93.2957H244.575V89.1017H241.437Z" fill="#037BC4"/>
<path d="M244.575 109.547H241.437V113.741H244.575V109.547Z" fill="#037BC4"/>
<path d="M244.575 127.371H241.437V131.565H244.575V127.371Z" fill="#037BC4"/>
<path d="M241.437 102.732V103.78H242.692V105.877H241.437V106.926H244.575V102.732H241.437Z" fill="#037BC4"/>
<path d="M241.437 134.71V135.759H242.692V137.856H241.437V138.904H244.575V134.71H241.437Z" fill="#037BC4"/>
<path d="M197.498 127.371V128.419H198.753V130.516H197.498V131.565H200.636V127.371H197.498Z" fill="#037BC4"/>
<path d="M197.498 134.186V135.234H198.753V137.331H197.498V138.38H200.636V134.186H197.498Z" fill="#037BC4"/>
<path d="M181.179 55.0269V56.0752H182.434V58.1722H181.179V59.2208H184.318V55.0269H181.179Z" fill="#037BC4"/>
<path d="M181.179 81.7627V82.811H182.434V84.908H181.179V85.9563H184.318V81.7627H181.179Z" fill="#037BC4"/>
<path d="M181.179 88.5774V89.6261H182.434V91.723H181.179V92.7714H184.318V88.5774H181.179Z" fill="#037BC4"/>
<path d="M181.179 102.208V103.256H182.434V105.353H181.179V106.401H184.318V102.208H181.179Z" fill="#037BC4"/>
<path d="M181.179 121.604V122.653H182.434V124.75H181.179V125.798H184.318V121.604H181.179Z" fill="#037BC4"/>
<path d="M181.179 127.371V128.419H182.434V130.516H181.179V131.565H184.318V127.371H181.179Z" fill="#037BC4"/>
<path d="M216.956 23.0487H213.817V27.2426H216.956V23.0487Z" fill="#037BC4"/>
<path d="M216.956 29.8635H213.817V34.0574H216.956V29.8635Z" fill="#037BC4"/>
<path d="M216.956 37.2026H212.562V37.7269H216.956V37.2026Z" fill="#037BC4"/>
<path d="M216.956 70.7535H212.562V71.2778H216.956V70.7535Z" fill="#037BC4"/>
<path d="M216.956 76.5203H212.562V77.0445H216.956V76.5203Z" fill="#037BC4"/>
<path d="M213.817 41.9209V42.9692H215.073V45.0662H213.817V46.1145H216.956V41.9209H213.817Z" fill="#037BC4"/>
<path d="M213.817 55.0269V56.0752H215.073V58.1722H213.817V59.2208H216.956V55.0269H213.817Z" fill="#037BC4"/>
<path d="M213.817 81.7627V82.811H215.073V84.908H213.817V85.9563H216.956V81.7627H213.817Z" fill="#037BC4"/>
<path d="M252.734 68.6567H249.596V72.8506H252.734V68.6567Z" fill="#037BC4"/>
<path d="M252.734 75.4718H249.596V79.6657H252.734V75.4718Z" fill="#037BC4"/>
<path d="M252.735 82.8112H248.341V83.3354H252.735V82.8112Z" fill="#037BC4"/>
<path d="M252.735 116.362H248.341V116.886H252.735V116.362Z" fill="#037BC4"/>
<path d="M252.735 122.128H248.341V122.653H252.735V122.128Z" fill="#037BC4"/>
<path d="M249.596 87.5292V88.5775H250.851V90.6745H249.596V91.7231H252.734V87.5292H249.596Z" fill="#037BC4"/>
<path d="M249.596 100.635V101.684H250.851V103.78H249.596V104.829H252.734V100.635H249.596Z" fill="#037BC4"/>
<path d="M249.596 127.371V128.419H250.851V130.516H249.596V131.565H252.734V127.371H249.596Z" fill="#037BC4"/>
</svg>
