<svg width="180" height="180" viewBox="0 0 180 180" fill="none" xmlns="http://www.w3.org/2000/svg">
<path d="M117.647 20.571C117.204 19.5191 116.462 18.6202 115.514 17.9854C114.565 17.3507 113.451 17.0081 112.31 17H5.77503C4.24365 17.0008 2.77521 17.6095 1.69236 18.6924C0.609508 19.7752 0.000821858 21.2436 0 22.775V157.551C0.00082186 159.083 0.609508 160.551 1.69236 161.634C2.77521 162.717 4.24365 163.326 5.77503 163.327H112.314C113.845 163.324 115.312 162.715 116.395 161.633C117.478 160.55 118.087 159.083 118.089 157.551V22.775C118.091 22.0185 117.942 21.2691 117.651 20.571H117.647ZM116.802 157.551C116.801 158.743 116.327 159.884 115.485 160.727C114.643 161.569 113.501 162.043 112.31 162.044H5.77503C4.58373 162.044 3.44124 161.571 2.59879 160.728C1.75634 159.886 1.28288 158.744 1.28247 157.552V22.7758C1.28409 21.5848 1.75791 20.4431 2.60008 19.6009C3.44224 18.7587 4.58403 18.2849 5.77503 18.2832H112.314C113.211 18.2866 114.087 18.5573 114.829 19.0606C115.572 19.564 116.148 20.2772 116.484 21.1093C116.549 21.2751 116.605 21.4443 116.653 21.6162C116.755 21.9943 116.806 22.3842 116.806 22.7758L116.802 157.551Z" fill="#002C46"/>
<path d="M95.415 48.8202H63.3252C62.9877 48.8207 62.6535 48.7547 62.3415 48.626C62.0296 48.4972 61.7461 48.3082 61.5073 48.0697C61.2684 47.8313 61.079 47.5481 60.9497 47.2363C60.8205 46.9246 60.7539 46.5904 60.7539 46.2529C60.7539 45.9155 60.8205 45.5813 60.9497 45.2696C61.079 44.9578 61.2684 44.6746 61.5073 44.4362C61.7461 44.1977 62.0296 44.0087 62.3415 43.8799C62.6535 43.7512 62.9877 43.6851 63.3252 43.6857H95.415C95.7525 43.6851 96.0867 43.7512 96.3987 43.8799C96.7106 44.0087 96.9941 44.1977 97.2329 44.4362C97.4717 44.6746 97.6612 44.9578 97.7905 45.2696C97.9197 45.5813 97.9863 45.9155 97.9863 46.2529C97.9863 46.5904 97.9197 46.9246 97.7905 47.2363C97.6612 47.5481 97.4717 47.8313 97.2329 48.0697C96.9941 48.3082 96.7106 48.4972 96.3987 48.626C96.0867 48.7547 95.7525 48.8207 95.415 48.8202Z" fill="#002C46"/>
<path d="M95.415 62.298H63.3252C62.9877 62.2986 62.6535 62.2325 62.3415 62.1037C62.0296 61.975 61.7461 61.7859 61.5073 61.5475C61.2684 61.309 61.079 61.0259 60.9497 60.7141C60.8205 60.4024 60.7539 60.0682 60.7539 59.7307C60.7539 59.3933 60.8205 59.0591 60.9497 58.7474C61.079 58.4356 61.2684 58.1524 61.5073 57.914C61.7461 57.6755 62.0296 57.4865 62.3415 57.3577C62.6535 57.2289 62.9877 57.1629 63.3252 57.1635H95.415C95.7525 57.1629 96.0867 57.2289 96.3987 57.3577C96.7106 57.4865 96.9941 57.6755 97.2329 57.914C97.4717 58.1524 97.6612 58.4356 97.7905 58.7474C97.9197 59.0591 97.9863 59.3933 97.9863 59.7307C97.9863 60.0682 97.9197 60.4024 97.7905 60.7141C97.6612 61.0259 97.4717 61.309 97.2329 61.5475C96.9941 61.7859 96.7106 61.975 96.3987 62.1037C96.0867 62.2325 95.7525 62.2986 95.415 62.298Z" fill="#002C46"/>
<path d="M46.8599 69.9721H23.4088C22.643 69.9713 21.9088 69.6668 21.3673 69.1253C20.8259 68.5838 20.5213 67.8496 20.5205 67.0839V39.4098C20.5213 38.644 20.8259 37.9098 21.3673 37.3683C21.9088 36.8269 22.643 36.5223 23.4088 36.5215H46.8599C47.6257 36.5223 48.3598 36.8269 48.9013 37.3683C49.4428 37.9098 49.7473 38.644 49.7482 39.4098V67.0839C49.7473 67.8496 49.4428 68.5838 48.9013 69.1253C48.3598 69.6668 47.6257 69.9713 46.8599 69.9721V69.9721Z" fill="#037BC4"/>
<path d="M95.1917 89.8951H22.6688C21.988 89.8951 21.335 89.6246 20.8535 89.1431C20.3721 88.6617 20.1016 88.0087 20.1016 87.3278C20.1016 86.6469 20.3721 85.9939 20.8535 85.5124C21.335 85.031 21.988 84.7605 22.6688 84.7605H95.1917C95.8725 84.7605 96.5255 85.031 97.007 85.5124C97.4884 85.9939 97.7589 86.6469 97.7589 87.3278C97.7589 88.0087 97.4884 88.6617 97.007 89.1431C96.5255 89.6246 95.8725 89.8951 95.1917 89.8951V89.8951Z" fill="#CCCCCC"/>
<path d="M95.1926 103.373H22.6698C21.9896 103.372 21.3376 103.101 20.857 102.62C20.3764 102.138 20.1064 101.486 20.1064 100.806C20.1064 100.125 20.3764 99.4731 20.857 98.9918C21.3376 98.5104 21.9896 98.2395 22.6698 98.2384H95.1926C95.53 98.2379 95.8643 98.3039 96.1762 98.4327C96.4882 98.5615 96.7716 98.7505 97.0105 98.9889C97.2493 99.2274 97.4388 99.5106 97.568 99.8223C97.6973 100.134 97.7638 100.468 97.7638 100.806C97.7638 101.143 97.6973 101.477 97.568 101.789C97.4388 102.101 97.2493 102.384 97.0105 102.622C96.7716 102.861 96.4882 103.05 96.1762 103.179C95.8643 103.307 95.53 103.374 95.1926 103.373Z" fill="#CCCCCC"/>
<path d="M95.1926 116.85H22.6698C21.9896 116.849 21.3376 116.578 20.857 116.097C20.3764 115.616 20.1064 114.963 20.1064 114.283C20.1064 113.603 20.3764 112.951 20.857 112.469C21.3376 111.988 21.9896 111.717 22.6698 111.716H95.1926C95.53 111.715 95.8643 111.781 96.1762 111.91C96.4882 112.039 96.7716 112.228 97.0105 112.466C97.2493 112.705 97.4388 112.988 97.568 113.3C97.6973 113.611 97.7638 113.946 97.7638 114.283C97.7638 114.621 97.6973 114.955 97.568 115.266C97.4388 115.578 97.2493 115.861 97.0105 116.1C96.7716 116.338 96.4882 116.527 96.1762 116.656C95.8643 116.785 95.53 116.851 95.1926 116.85Z" fill="#CCCCCC"/>
<path d="M95.1926 130.328H22.6698C21.9896 130.327 21.3376 130.056 20.857 129.575C20.3764 129.094 20.1064 128.441 20.1064 127.761C20.1064 127.081 20.3764 126.428 20.857 125.947C21.3376 125.466 21.9896 125.195 22.6698 125.194H95.1926C95.53 125.193 95.8643 125.259 96.1762 125.388C96.4882 125.517 96.7716 125.706 97.0105 125.944C97.2493 126.183 97.4388 126.466 97.568 126.778C97.6973 127.089 97.7638 127.424 97.7638 127.761C97.7638 128.098 97.6973 128.433 97.568 128.744C97.4388 129.056 97.2493 129.339 97.0105 129.578C96.7716 129.816 96.4882 130.005 96.1762 130.134C95.8643 130.263 95.53 130.329 95.1926 130.328V130.328Z" fill="#CCCCCC"/>
<path d="M95.1926 143.806H22.6698C21.9896 143.805 21.3376 143.534 20.857 143.052C20.3764 142.571 20.1064 141.919 20.1064 141.238C20.1064 140.558 20.3764 139.906 20.857 139.424C21.3376 138.943 21.9896 138.672 22.6698 138.671H95.1926C95.53 138.671 95.8643 138.737 96.1762 138.865C96.4882 138.994 96.7716 139.183 97.0105 139.422C97.2493 139.66 97.4388 139.943 97.568 140.255C97.6973 140.567 97.7638 140.901 97.7638 141.238C97.7638 141.576 97.6973 141.91 97.568 142.222C97.4388 142.534 97.2493 142.817 97.0105 143.055C96.7716 143.294 96.4882 143.483 96.1762 143.611C95.8643 143.74 95.53 143.806 95.1926 143.806Z" fill="#CCCCCC"/>
<path d="M143.248 127.879C163.546 127.879 180 111.425 180 91.1267C180 70.8288 163.546 54.3741 143.248 54.3741C122.95 54.3741 106.495 70.8288 106.495 91.1267C106.495 111.425 122.95 127.879 143.248 127.879Z" fill="#037BC4"/>
<path d="M142.536 116.424C144.925 116.424 146.861 114.488 146.861 112.1C146.861 109.712 144.925 107.775 142.536 107.775C140.148 107.775 138.212 109.712 138.212 112.1C138.212 114.488 140.148 116.424 142.536 116.424Z" fill="white"/>
<path d="M142.073 66.9747C138.813 67.007 135.695 68.3103 133.381 70.6072C131.067 72.904 129.741 76.0132 129.685 79.2729C129.684 79.3353 129.684 79.774 129.684 80.3478C129.684 81.1892 130.018 81.9961 130.613 82.591C131.208 83.186 132.015 83.5202 132.856 83.5203V83.5203C133.698 83.5202 134.505 83.1855 135.1 82.59C135.696 81.9945 136.03 81.187 136.03 80.345V80.343C136.029 79.9526 136.029 79.6825 136.029 79.6659C136.029 78.6214 136.301 77.5949 136.818 76.6873C137.334 75.7797 138.079 75.0222 138.977 74.4895C139.875 73.9567 140.897 73.667 141.941 73.6488C142.986 73.6306 144.017 73.8846 144.933 74.3857C145.849 74.8869 146.619 75.6179 147.168 76.507C147.716 77.3961 148.023 78.4125 148.059 79.4564C148.095 80.5002 147.859 81.5355 147.374 82.4603C146.889 83.3852 146.171 84.1678 145.291 84.7311L145.292 84.7325C145.292 84.7325 140.777 87.6393 139.401 91.6268L139.402 91.6271C139.16 92.444 139.037 93.2916 139.038 94.1436C139.038 94.4938 139.058 97.5582 139.098 100.045C139.112 100.904 139.463 101.722 140.075 102.324C140.686 102.926 141.51 103.263 142.369 103.263V103.263C142.798 103.263 143.224 103.178 143.621 103.014C144.017 102.849 144.378 102.608 144.682 102.304C144.986 102.001 145.226 101.64 145.391 101.243C145.555 100.846 145.64 100.421 145.64 99.9914L145.64 99.9713C145.626 97.6935 145.618 95.0412 145.618 94.8487C145.618 92.4002 147.98 89.9606 149.921 88.3697C152.167 86.5508 153.745 84.0378 154.409 81.2249C154.551 80.6451 154.63 80.0514 154.644 79.4544C154.644 77.8155 154.321 76.1926 153.694 74.6785C153.066 73.1643 152.147 71.7886 150.988 70.6297C149.829 69.4708 148.454 68.5515 146.939 67.9243C145.425 67.2972 143.802 66.9744 142.164 66.9744C142.133 66.9744 142.103 66.9745 142.073 66.9747Z" fill="white"/>
</svg>
