<svg width="180" height="180" viewBox="0 0 180 180" fill="none" xmlns="http://www.w3.org/2000/svg">
<path d="M82.9344 146.265C114.452 146.265 140.003 119.666 140.003 86.8535C140.003 54.0413 114.452 27.4418 82.9344 27.4418C51.4165 27.4418 25.8662 54.0413 25.8662 86.8535C25.8662 119.666 51.4165 146.265 82.9344 146.265Z" fill="white"/>
<path d="M25.4414 86.8536C25.4414 53.8502 51.2325 27 82.9341 27C114.636 27 140.427 53.8502 140.427 86.8536C140.427 119.857 114.636 146.707 82.9341 146.707C51.2325 146.707 25.4414 119.857 25.4414 86.8536ZM26.2904 86.8536C26.2904 119.37 51.7006 145.823 82.9341 145.823C114.168 145.823 139.578 119.37 139.578 86.8536C139.578 54.3376 114.168 27.8838 82.9341 27.8838C51.7006 27.8838 26.2904 54.3376 26.2904 86.8536H26.2904Z" fill="#003453"/>
<path d="M72.7607 87.1118C72.7607 85.0171 73.3574 82.9695 74.4752 81.2279C75.593 79.4862 77.1818 78.1288 79.0407 77.3272C80.8996 76.5256 82.9451 76.3159 84.9184 76.7245C86.8918 77.1331 88.7045 78.1418 90.1272 79.623C91.5499 81.1041 92.5188 82.9912 92.9114 85.0456C93.3039 87.1 93.1024 89.2295 92.3324 91.1647C91.5625 93.0999 90.2586 94.754 88.5856 95.9177C86.9127 97.0814 84.9458 97.7026 82.9338 97.7026C80.2357 97.7026 77.6482 96.5868 75.7403 94.6006C73.8325 92.6144 72.7607 89.9206 72.7607 87.1118V87.1118ZM82.9338 77.0376C80.3682 77.0406 77.9085 78.103 76.0944 79.9916C74.2803 81.8802 73.2599 84.4409 73.257 87.1118V87.1118C73.257 89.1043 73.8245 91.052 74.8878 92.7087C75.9511 94.3654 77.4624 95.6566 79.2306 96.4191C80.9988 97.1816 82.9445 97.3811 84.8216 96.9924C86.6987 96.6037 88.423 95.6442 89.7763 94.2353C91.1296 92.8264 92.0513 91.0314 92.4246 89.0772C92.798 87.123 92.6064 85.0974 91.874 83.2566C91.1416 81.4158 89.9012 79.8424 88.3099 78.7354C86.7186 77.6285 84.8477 77.0376 82.9338 77.0376V77.0376Z" fill="#003453"/>
<path d="M63.5801 87.1118C63.5801 83.1269 64.7151 79.2314 66.8417 75.918C68.9683 72.6046 71.991 70.0222 75.5274 68.4972C79.0638 66.9722 82.9551 66.5732 86.7093 67.3507C90.4636 68.1281 93.912 70.047 96.6187 72.8648C99.3253 75.6826 101.169 79.2727 101.915 83.1811C102.662 87.0895 102.279 91.1406 100.814 94.8223C99.3492 98.5039 96.8686 101.651 93.6859 103.865C90.5032 106.078 86.7614 107.26 82.9336 107.26C80.3921 107.26 77.8754 106.739 75.5273 105.726C73.1793 104.714 71.0457 103.23 69.2486 101.359C67.4514 99.4879 66.0259 97.2667 65.0533 94.8222C64.0807 92.3777 63.5801 89.7577 63.5801 87.1118V87.1118ZM82.9336 67.4801C79.204 67.4801 75.5581 68.6315 72.4571 70.7887C69.356 72.9458 66.939 76.0119 65.5117 79.5991C64.0845 83.1863 63.711 87.1336 64.4387 90.9418C65.1663 94.7499 66.9623 98.248 69.5995 100.994C72.2367 103.739 75.5968 105.609 79.2547 106.366C82.9127 107.124 86.7043 106.735 90.15 105.249C93.5957 103.763 96.5409 101.247 98.6129 98.0186C100.685 94.7902 101.791 90.9946 101.791 87.1118C101.785 81.907 99.7968 76.917 96.2616 73.2366C92.7263 69.5562 87.9332 67.486 82.9336 67.4801Z" fill="#CCCCCC"/>
<path d="M45.2197 87.1118C45.2197 79.3462 47.4317 71.7551 51.5758 65.2982C55.7199 58.8414 61.6102 53.8089 68.5016 50.8372C75.3931 47.8654 82.9762 47.0879 90.2922 48.6028C97.6081 50.1178 104.328 53.8573 109.603 59.3484C114.877 64.8395 118.469 71.8355 119.924 79.4519C121.38 87.0682 120.633 94.9628 117.778 102.137C114.924 109.312 110.09 115.444 103.888 119.758C97.6854 124.072 90.3936 126.375 82.9344 126.375C72.9353 126.363 63.349 122.223 56.2786 114.862C49.2081 107.501 45.231 97.5215 45.2197 87.1118V87.1118ZM82.9344 48.365C75.5733 48.365 68.3775 50.6375 62.2569 54.8951C56.1364 59.1526 51.366 65.204 48.5491 72.2841C45.7321 79.3641 44.995 87.1548 46.4311 94.6709C47.8672 102.187 51.4119 109.091 56.617 114.51C61.8221 119.929 68.4538 123.619 75.6734 125.114C82.8931 126.609 90.3765 125.842 97.1773 122.909C103.978 119.976 109.791 115.01 113.88 108.638C117.97 102.266 120.153 94.7752 120.153 87.1118C120.142 76.8391 116.217 66.9905 109.239 59.7265C102.262 52.4626 92.8019 48.3767 82.9344 48.365V48.365Z" fill="#CCCCCC"/>
<path d="M82.935 91.7614C85.5387 91.7614 87.6494 89.564 87.6494 86.8535C87.6494 84.1429 85.5387 81.9456 82.935 81.9456C80.3314 81.9456 78.2207 84.1429 78.2207 86.8535C78.2207 89.564 80.3314 91.7614 82.935 91.7614Z" fill="#037BC4"/>
<path d="M70.7768 105.969C73.3805 105.969 75.4912 103.771 75.4912 101.061C75.4912 98.3501 73.3805 96.1527 70.7768 96.1527C68.1732 96.1527 66.0625 98.3501 66.0625 101.061C66.0625 103.771 68.1732 105.969 70.7768 105.969Z" fill="#037BC4"/>
<path d="M118.209 103.902C120.813 103.902 122.924 101.705 122.924 98.9942C122.924 96.2837 120.813 94.0863 118.209 94.0863C115.606 94.0863 113.495 96.2837 113.495 98.9942C113.495 101.705 115.606 103.902 118.209 103.902Z" fill="#037BC4"/>
<path d="M82.9353 89.1783C84.1686 89.1783 85.1684 88.1374 85.1684 86.8535C85.1684 85.5695 84.1686 84.5287 82.9353 84.5287C81.7019 84.5287 80.7021 85.5695 80.7021 86.8535C80.7021 88.1374 81.7019 89.1783 82.9353 89.1783Z" fill="#002C46"/>
<path d="M118.209 101.319C119.442 101.319 120.442 100.278 120.442 98.9941C120.442 97.7102 119.442 96.6693 118.209 96.6693C116.975 96.6693 115.976 97.7102 115.976 98.9941C115.976 100.278 116.975 101.319 118.209 101.319Z" fill="#002C46"/>
<path d="M70.7751 103.644C72.0084 103.644 73.0082 102.603 73.0082 101.319C73.0082 100.035 72.0084 98.9941 70.7751 98.9941C69.5418 98.9941 68.542 100.035 68.542 101.319C68.542 102.603 69.5418 103.644 70.7751 103.644Z" fill="#002C46"/>
<path d="M13.6472 62.4101C14.8805 62.4101 15.8803 61.3692 15.8803 60.0853C15.8803 58.8013 14.8805 57.7605 13.6472 57.7605C12.4139 57.7605 11.4141 58.8013 11.4141 60.0853C11.4141 61.3692 12.4139 62.4101 13.6472 62.4101Z" fill="#037BC4"/>
<path d="M83.1569 60.5239H13.5195V59.9933H83.5098V87.3174H83.1569V60.5239Z" fill="#003453"/>
<path d="M7.19531 60.0854C7.19531 58.7571 7.57367 57.4586 8.28253 56.3541C8.9914 55.2497 9.99893 54.3888 11.1777 53.8805C12.3565 53.3722 13.6537 53.2392 14.9051 53.4983C16.1565 53.7575 17.306 54.3971 18.2082 55.3364C19.1104 56.2756 19.7248 57.4723 19.9737 58.7751C20.2227 60.0779 20.0949 61.4283 19.6066 62.6555C19.1184 63.8827 18.2915 64.9316 17.2306 65.6696C16.1697 66.4076 14.9224 66.8015 13.6465 66.8015C12.7993 66.8015 11.9604 66.6278 11.1777 66.2903C10.395 65.9527 9.68388 65.458 9.08483 64.8344C8.48578 64.2107 8.01058 63.4704 7.68638 62.6555C7.36217 61.8407 7.19531 60.9674 7.19531 60.0854V60.0854ZM13.6465 53.8859C12.4687 53.8859 11.3174 54.2495 10.3381 54.9307C9.35883 55.6119 8.59557 56.5801 8.14486 57.7129C7.69414 58.8457 7.57621 60.0923 7.80598 61.2948C8.03575 62.4974 8.60291 63.6021 9.43572 64.4691C10.2685 65.3361 11.3296 65.9265 12.4847 66.1657C13.6399 66.405 14.8372 66.2822 15.9254 65.813C17.0135 65.3437 17.9435 64.5491 18.5979 63.5296C19.2522 62.5101 19.6014 61.3115 19.6014 60.0854C19.5996 58.4418 18.9717 56.866 17.8553 55.7038C16.7389 54.5416 15.2253 53.8878 13.6465 53.8859V53.8859Z" fill="#2F2E41"/>
<path d="M13.6472 130.306C14.8805 130.306 15.8803 129.266 15.8803 127.982C15.8803 126.698 14.8805 125.657 13.6472 125.657C12.4139 125.657 11.4141 126.698 11.4141 127.982C11.4141 129.266 12.4139 130.306 13.6472 130.306Z" fill="#037BC4"/>
<path d="M7.19629 127.982C7.19629 126.653 7.57464 125.355 8.28351 124.25C8.99237 123.146 9.99991 122.285 11.1787 121.777C12.3575 121.269 13.6546 121.136 14.906 121.395C16.1574 121.654 17.3069 122.293 18.2092 123.233C19.1114 124.172 19.7258 125.369 19.9747 126.671C20.2236 127.974 20.0959 129.325 19.6076 130.552C19.1193 131.779 18.2925 132.828 17.2316 133.566C16.1707 134.304 14.9234 134.698 13.6475 134.698C11.9365 134.698 10.2956 133.99 9.0858 132.731C7.87597 131.471 7.19629 129.763 7.19629 127.982V127.982ZM13.6475 121.782C12.4697 121.782 11.3184 122.146 10.3391 122.827C9.3598 123.508 8.59654 124.476 8.14582 125.609C7.69511 126.742 7.57717 127.989 7.80695 129.191C8.03672 130.394 8.60387 131.498 9.43668 132.365C10.2695 133.232 11.3306 133.823 12.4857 134.062C13.6409 134.301 14.8382 134.179 15.9263 133.709C17.0144 133.24 17.9445 132.445 18.5988 131.426C19.2532 130.406 19.6024 129.208 19.6024 127.982C19.6006 126.338 18.9726 124.762 17.8563 123.6C16.7399 122.438 15.2263 121.784 13.6475 121.782Z" fill="#2F2E41"/>
<path d="M166.353 74.0021C167.587 74.0021 168.586 72.9613 168.586 71.6773C168.586 70.3934 167.587 69.3525 166.353 69.3525C165.12 69.3525 164.12 70.3934 164.12 71.6773C164.12 72.9613 165.12 74.0021 166.353 74.0021Z" fill="#037BC4"/>
<path d="M159.901 71.6774C159.901 70.3491 160.28 69.0506 160.989 67.9461C161.697 66.8417 162.705 65.9809 163.884 65.4725C165.063 64.9642 166.36 64.8312 167.611 65.0904C168.863 65.3495 170.012 65.9891 170.914 66.9284C171.816 67.8677 172.431 69.0644 172.68 70.3672C172.929 71.67 172.801 73.0203 172.313 74.2476C171.824 75.4748 170.998 76.5237 169.937 77.2616C168.876 77.9996 167.628 78.3935 166.353 78.3935C165.505 78.3935 164.666 78.2198 163.884 77.8823C163.101 77.5448 162.39 77.0501 161.791 76.4264C161.192 75.8028 160.717 75.0624 160.392 74.2476C160.068 73.4327 159.901 72.5594 159.901 71.6774V71.6774ZM166.353 65.4779C164.774 65.4798 163.26 66.1336 162.144 67.2958C161.027 68.458 160.399 70.0338 160.398 71.6774V71.6774C160.398 72.9036 160.747 74.1022 161.401 75.1217C162.056 76.1412 162.986 76.9358 164.074 77.405C165.162 77.8742 166.359 77.997 167.514 77.7578C168.669 77.5186 169.731 76.9281 170.563 76.0611C171.396 75.1941 171.963 74.0894 172.193 72.8869C172.423 71.6843 172.305 70.4378 171.854 69.305C171.404 68.1722 170.64 67.2039 169.661 66.5227C168.682 65.8415 167.53 65.4779 166.353 65.4779V65.4779Z" fill="#2F2E41"/>
<path d="M117.711 72.6106L166.221 71.5853L166.227 72.0957L118.091 73.1134V98.9095H117.711V72.6106Z" fill="#003453"/>
<path d="M13.5195 127.376H70.3852V101.394H70.7843V127.89H13.5195V127.376Z" fill="#003453"/>
<path d="M27.2935 72.226H0V74.0341H27.2935V72.226Z" fill="#CCCCCC"/>
<path d="M27.2935 77.3923H0V79.2005H27.2935V77.3923Z" fill="#CCCCCC"/>
<path d="M27.2935 82.5585H0V84.3667H27.2935V82.5585Z" fill="#CCCCCC"/>
<path d="M27.2935 140.122H0V141.93H27.2935V140.122Z" fill="#CCCCCC"/>
<path d="M27.2935 145.289H0V147.097H27.2935V145.289Z" fill="#CCCCCC"/>
<path d="M27.2935 150.455H0V152.263H27.2935V150.455Z" fill="#CCCCCC"/>
<path d="M180 84.0764H152.706V85.8846H180V84.0764Z" fill="#CCCCCC"/>
<path d="M180 89.2426H152.706V91.0507H180V89.2426Z" fill="#CCCCCC"/>
<path d="M180 94.4089H152.706V96.2171H180V94.4089Z" fill="#CCCCCC"/>
</svg>
