<svg width="240" height="160" viewBox="0 0 240 160" fill="none" xmlns="http://www.w3.org/2000/svg">
<path d="M110.284 152.339C152.195 152.339 186.171 118.363 186.171 76.4516C186.171 34.5402 152.195 0.564301 110.284 0.564301C68.3724 0.564301 34.3965 34.5402 34.3965 76.4516C34.3965 118.363 68.3724 152.339 110.284 152.339Z" fill="white"/>
<path d="M33.8311 76.4517C33.8311 34.2961 68.1271 0 110.283 0C152.438 0 186.735 34.2961 186.735 76.4517C186.735 118.607 152.438 152.903 110.283 152.903C68.1271 152.903 33.8311 118.607 33.8311 76.4517ZM34.96 76.4517C34.96 117.985 68.7497 151.775 110.283 151.775C151.816 151.775 185.606 117.985 185.606 76.4517C185.606 34.9187 151.816 1.12889 110.283 1.12889C68.7496 1.12889 34.96 34.9187 34.96 76.4517H34.96Z" fill="#003453"/>
<path d="M96.7559 76.7815C96.7559 74.106 97.5492 71.4905 99.0357 69.2659C100.522 67.0413 102.635 65.3074 105.107 64.2835C107.579 63.2596 110.299 62.9917 112.923 63.5137C115.547 64.0357 117.957 65.3241 119.849 67.2159C121.741 69.1078 123.029 71.5182 123.551 74.1424C124.073 76.7665 123.805 79.4865 122.782 81.9584C121.758 84.4302 120.024 86.543 117.799 88.0294C115.575 89.5159 112.959 90.3093 110.284 90.3093C106.696 90.3093 103.255 88.884 100.718 86.3471C98.1811 83.8101 96.7559 80.3693 96.7559 76.7815V76.7815ZM110.284 63.9137C106.872 63.9175 103.601 65.2745 101.189 67.6868C98.7765 70.0992 97.4196 73.37 97.4157 76.7815C97.4157 79.3266 98.1704 81.8144 99.5844 83.9305C100.998 86.0466 103.008 87.6959 105.359 88.6699C107.711 89.6438 110.298 89.8986 112.794 89.4021C115.29 88.9056 117.583 87.6801 119.383 85.8805C121.182 84.0809 122.408 81.788 122.904 79.2919C123.401 76.7958 123.146 74.2085 122.172 71.8572C121.198 69.5059 119.549 67.4962 117.433 66.0823C115.316 64.6684 112.829 63.9137 110.284 63.9137Z" fill="#003453"/>
<path d="M84.5479 76.7816C84.5479 71.6915 86.0572 66.7158 88.8851 62.4836C91.713 58.2514 95.7324 54.9528 100.435 53.0049C105.138 51.057 110.312 50.5474 115.304 51.5404C120.297 52.5334 124.882 54.9845 128.481 58.5837C132.081 62.1829 134.532 66.7686 135.525 71.7608C136.518 76.753 136.008 81.9276 134.06 86.6302C132.112 91.3328 128.814 95.3522 124.582 98.18C120.349 101.008 115.374 102.517 110.284 102.517C106.904 102.517 103.557 101.852 100.435 100.558C97.3125 99.2649 94.4754 97.3692 92.0856 94.9795C89.6959 92.5897 87.8002 89.7526 86.5068 86.6302C85.2135 83.5078 84.5478 80.1612 84.5479 76.7816V76.7816ZM110.284 51.7058C105.324 51.7058 100.476 53.1764 96.3522 55.9318C92.2285 58.6872 89.0144 62.6035 87.1165 67.1855C85.2186 71.7675 84.722 76.8094 85.6896 81.6736C86.6571 86.5379 89.0453 91.0059 92.5523 94.5128C96.0592 98.0198 100.527 100.408 105.391 101.376C110.256 102.343 115.298 101.847 119.88 99.9486C124.462 98.0507 128.378 94.8367 131.133 90.713C133.889 86.5893 135.359 81.7411 135.359 76.7816C135.352 70.1334 132.708 63.7596 128.007 59.0586C123.306 54.3576 116.932 51.7132 110.284 51.7058Z" fill="#CCCCCC"/>
<path d="M60.1318 76.7815C60.1318 66.8624 63.0732 57.1661 68.5839 48.9187C74.0946 40.6714 81.9273 34.2433 91.0913 30.4474C100.255 26.6516 110.339 25.6584 120.068 27.5935C129.796 29.5286 138.732 34.3051 145.746 41.319C152.76 48.3328 157.536 57.269 159.471 66.9974C161.407 76.7259 160.413 86.8097 156.618 95.9737C152.822 105.138 146.394 112.97 138.146 118.481C129.899 123.992 120.203 126.933 110.283 126.933C96.987 126.918 84.2395 121.629 74.8375 112.227C65.4355 102.825 60.1469 90.0779 60.1318 76.7815ZM110.283 27.2898C100.495 27.2898 90.9262 30.1924 82.7873 35.6306C74.6485 41.0689 68.305 48.7984 64.5591 57.8419C60.8132 66.8853 59.8331 76.8364 61.7427 86.4369C63.6524 96.0373 68.366 104.856 75.2875 111.777C82.2091 118.699 91.0277 123.413 100.628 125.322C110.229 127.232 120.18 126.252 129.223 122.506C138.267 118.76 145.996 112.417 151.434 104.278C156.873 96.1388 159.775 86.5701 159.775 76.7815C159.76 63.6601 154.541 51.0803 145.263 41.802C135.985 32.5237 123.405 27.3046 110.283 27.2898Z" fill="#CCCCCC"/>
<path d="M110.284 82.7206C113.746 82.7206 116.553 79.9139 116.553 76.4516C116.553 72.9894 113.746 70.1827 110.284 70.1827C106.821 70.1827 104.015 72.9894 104.015 76.4516C104.015 79.9139 106.821 82.7206 110.284 82.7206Z" fill="#037BC4"/>
<path d="M94.1166 100.868C97.5788 100.868 100.386 98.0609 100.386 94.5987C100.386 91.1364 97.5788 88.3297 94.1166 88.3297C90.6544 88.3297 87.8477 91.1364 87.8477 94.5987C87.8477 98.0609 90.6544 100.868 94.1166 100.868Z" fill="#037BC4"/>
<path d="M157.191 98.2281C160.653 98.2281 163.46 95.4214 163.46 91.9591C163.46 88.4969 160.653 85.6902 157.191 85.6902C153.729 85.6902 150.922 88.4969 150.922 91.9591C150.922 95.4214 153.729 98.2281 157.191 98.2281Z" fill="#037BC4"/>
<path d="M110.284 79.4211C111.924 79.4211 113.253 78.0916 113.253 76.4516C113.253 74.8115 111.924 73.4821 110.284 73.4821C108.644 73.4821 107.314 74.8115 107.314 76.4516C107.314 78.0916 108.644 79.4211 110.284 79.4211Z" fill="#002C46"/>
<path d="M157.19 94.9285C158.83 94.9285 160.16 93.5991 160.16 91.959C160.16 90.319 158.83 88.9895 157.19 88.9895C155.55 88.9895 154.221 90.319 154.221 91.959C154.221 93.5991 155.55 94.9285 157.19 94.9285Z" fill="#002C46"/>
<path d="M94.116 97.8981C95.756 97.8981 97.0855 96.5686 97.0855 94.9285C97.0855 93.2885 95.756 91.959 94.116 91.959C92.476 91.959 91.1465 93.2885 91.1465 94.9285C91.1465 96.5686 92.476 97.8981 94.116 97.8981Z" fill="#002C46"/>
<path d="M18.1472 45.2298C19.7872 45.2298 21.1167 43.9003 21.1167 42.2603C21.1167 40.6203 19.7872 39.2908 18.1472 39.2908C16.5072 39.2908 15.1777 40.6203 15.1777 42.2603C15.1777 43.9003 16.5072 45.2298 18.1472 45.2298Z" fill="#037BC4"/>
<path d="M110.581 42.8205H17.9795V42.1428H111.05V77.0442H110.581V42.8205Z" fill="#003453"/>
<path d="M9.56836 42.2604C9.56836 40.5637 10.0715 38.9052 11.0141 37.4944C11.9567 36.0837 13.2965 34.9841 14.864 34.3348C16.4316 33.6855 18.1564 33.5157 19.8205 33.8467C21.4846 34.1777 23.0132 34.9947 24.2129 36.1944C25.4126 37.3942 26.2297 38.9227 26.5607 40.5868C26.8917 42.2509 26.7218 43.9757 26.0725 45.5433C25.4232 47.1108 24.3237 48.4506 22.9129 49.3932C21.5022 50.3358 19.8436 50.839 18.1469 50.839C17.0204 50.839 15.9049 50.6171 14.8641 50.186C13.8233 49.7549 12.8776 49.123 12.081 48.3264C11.2844 47.5298 10.6525 46.5841 10.2214 45.5433C9.79025 44.5025 9.56836 43.387 9.56836 42.2604ZM18.1469 34.3417C16.5808 34.3417 15.0498 34.8062 13.7476 35.6763C12.4453 36.5464 11.4304 37.7831 10.831 39.2301C10.2317 40.677 10.0749 42.2692 10.3804 43.8053C10.6859 45.3413 11.4401 46.7523 12.5476 47.8598C13.655 48.9672 15.066 49.7214 16.6021 50.0269C18.1381 50.3325 19.7303 50.1757 21.1773 49.5763C22.6242 48.977 23.861 47.962 24.7311 46.6598C25.6012 45.3576 26.0656 43.8266 26.0656 42.2604C26.0632 40.161 25.2281 38.1482 23.7436 36.6637C22.2591 35.1792 20.2464 34.3441 18.1469 34.3417Z" fill="#2F2E41"/>
<path d="M18.1472 131.955C19.7872 131.955 21.1167 130.625 21.1167 128.985C21.1167 127.345 19.7872 126.016 18.1472 126.016C16.5072 126.016 15.1777 127.345 15.1777 128.985C15.1777 130.625 16.5072 131.955 18.1472 131.955Z" fill="#037BC4"/>
<path d="M9.56934 128.985C9.56934 127.289 10.0725 125.63 11.0151 124.219C11.9577 122.808 13.2975 121.709 14.865 121.06C16.4325 120.41 18.1574 120.24 19.8215 120.571C21.4856 120.902 23.0141 121.72 24.2139 122.919C25.4136 124.119 26.2306 125.648 26.5616 127.312C26.8926 128.976 26.7227 130.701 26.0735 132.268C25.4242 133.836 24.3246 135.175 22.9139 136.118C21.5032 137.061 19.8446 137.564 18.1479 137.564C15.8727 137.564 13.6907 136.66 12.0819 135.051C10.4732 133.442 9.56934 131.26 9.56934 128.985ZM18.1479 121.067C16.5817 121.067 15.0507 121.531 13.7485 122.401C12.4463 123.271 11.4313 124.508 10.832 125.955C10.2326 127.402 10.0758 128.994 10.3814 130.53C10.6869 132.066 11.4411 133.477 12.5485 134.585C13.656 135.692 15.067 136.446 16.603 136.752C18.1391 137.057 19.7313 136.9 21.1782 136.301C22.6252 135.702 23.8619 134.687 24.732 133.385C25.6021 132.082 26.0666 130.551 26.0666 128.985C26.0642 126.886 25.2291 124.873 23.7446 123.389C22.2601 121.904 20.2473 121.069 18.1479 121.067Z" fill="#2F2E41"/>
<path d="M221.21 60.0365C222.85 60.0365 224.179 58.707 224.179 57.067C224.179 55.427 222.85 54.0975 221.21 54.0975C219.57 54.0975 218.24 55.427 218.24 57.067C218.24 58.707 219.57 60.0365 221.21 60.0365Z" fill="#037BC4"/>
<path d="M212.631 57.0671C212.631 55.3704 213.134 53.7118 214.077 52.3011C215.019 50.8903 216.359 49.7908 217.927 49.1415C219.494 48.4922 221.219 48.3223 222.883 48.6533C224.547 48.9843 226.076 49.8014 227.275 51.0011C228.475 52.2008 229.292 53.7294 229.623 55.3935C229.954 57.0575 229.784 58.7824 229.135 60.3499C228.486 61.9175 227.386 63.2573 225.975 64.1999C224.565 65.1425 222.906 65.6456 221.209 65.6456C220.083 65.6456 218.967 65.4237 217.927 64.9926C216.886 64.5615 215.94 63.9296 215.143 63.133C214.347 62.3364 213.715 61.3907 213.284 60.3499C212.853 59.3091 212.631 58.1936 212.631 57.0671ZM221.209 49.1484C219.11 49.1508 217.097 49.9859 215.613 51.4704C214.128 52.9549 213.293 54.9676 213.291 57.0671C213.291 58.6332 213.755 60.1642 214.625 61.4664C215.495 62.7687 216.732 63.7836 218.179 64.383C219.626 64.9823 221.218 65.1391 222.754 64.8336C224.29 64.528 225.701 63.7739 226.809 62.6664C227.916 61.559 228.67 60.148 228.976 58.6119C229.282 57.0758 229.125 55.4837 228.525 54.0367C227.926 52.5898 226.911 51.353 225.609 50.4829C224.307 49.6128 222.776 49.1484 221.209 49.1484V49.1484Z" fill="#2F2E41"/>
<path d="M156.527 58.2591L221.034 56.9495L221.042 57.6014L157.033 58.9013V91.8509H156.527V58.2591Z" fill="#003453"/>
<path d="M17.9795 128.211H93.5975V95.0238H94.1281V128.868H17.9795V128.211Z" fill="#003453"/>
<path d="M36.294 57.7678H0V60.0774H36.294V57.7678Z" fill="#CCCCCC"/>
<path d="M36.294 64.3667H0V66.6763H36.294V64.3667Z" fill="#CCCCCC"/>
<path d="M36.294 70.9656H0V73.2752H36.294V70.9656Z" fill="#CCCCCC"/>
<path d="M36.294 144.493H0V146.802H36.294V144.493Z" fill="#CCCCCC"/>
<path d="M36.294 151.092H0V153.401H36.294V151.092Z" fill="#CCCCCC"/>
<path d="M36.294 157.69H0V160H36.294V157.69Z" fill="#CCCCCC"/>
<path d="M239.357 72.9044H203.063V75.214H239.357V72.9044Z" fill="#CCCCCC"/>
<path d="M239.357 79.5033H203.063V81.8129H239.357V79.5033Z" fill="#CCCCCC"/>
<path d="M239.357 86.1022H203.063V88.4118H239.357V86.1022Z" fill="#CCCCCC"/>
</svg>
