<svg width="180" height="180" viewBox="0 0 180 180" fill="none" xmlns="http://www.w3.org/2000/svg">
<path d="M68.7988 158.598C106.795 158.598 137.598 127.795 137.598 89.7988C137.598 51.8023 106.795 21 68.7988 21C30.8023 21 0 51.8023 0 89.7988C0 127.795 30.8023 158.598 68.7988 158.598Z" fill="#F2F2F2"/>
<path d="M101.258 140.744C144.746 140.744 180 138.28 180 135.241C180 132.202 144.746 129.738 101.258 129.738C57.7696 129.738 22.5156 132.202 22.5156 135.241C22.5156 138.28 57.7696 140.744 101.258 140.744Z" fill="#7F868A" fill-opacity="0.29"/>
<path d="M145.288 137.142H40.6188C39.9043 137.141 39.2193 136.862 38.7141 136.365C38.2088 135.868 37.9246 135.195 37.9238 134.493V71.0464C37.9244 70.5318 38.1326 70.0385 38.5027 69.6746C38.8729 69.3107 39.3747 69.1061 39.8982 69.1055H145.974C146.507 69.1061 147.017 69.3143 147.394 69.6844C147.77 70.0546 147.982 70.5565 147.983 71.0799V134.493C147.982 135.195 147.698 135.868 147.192 136.365C146.687 136.862 146.002 137.141 145.288 137.142Z" fill="#002A44"/>
<path d="M146.348 71.558H39.9102V134.755H146.348V71.558Z" fill="white"/>
<path d="M74.1712 127.77C87.3975 127.77 98.1197 117.048 98.1197 103.822C98.1197 90.5955 87.3975 79.8734 74.1712 79.8734C60.9448 79.8734 50.2227 90.5955 50.2227 103.822C50.2227 117.048 60.9448 127.77 74.1712 127.77Z" fill="#018CE1"/>
<path d="M113.418 81.5365H105.436V89.5193H113.418V81.5365Z" fill="#00BC35"/>
<path opacity="0.5" d="M123.397 81.5365H115.414V89.5193H123.397V81.5365Z" fill="#00BC35"/>
<path opacity="0.2" d="M133.376 81.5365H125.394V89.5193H133.376V81.5365Z" fill="#00BC35"/>
<path d="M113.418 91.515H105.436V99.4978H113.418V91.515Z" fill="#FFC01E"/>
<path opacity="0.5" d="M123.397 91.515H115.414V99.4978H123.397V91.515Z" fill="#FFC01E"/>
<path opacity="0.2" d="M133.376 91.515H125.394V99.4978H133.376V91.515Z" fill="#FFC01E"/>
<path d="M113.418 101.494H105.436V109.476H113.418V101.494Z" fill="#FF2753"/>
<path opacity="0.5" d="M123.397 101.494H115.414V109.476H123.397V101.494Z" fill="#FF2753"/>
<path opacity="0.2" d="M133.376 101.494H125.394V109.476H133.376V101.494Z" fill="#FF2753"/>
<path opacity="0.5" d="M74.1699 79.8734V127.77C87.3963 127.77 98.7837 117.048 98.7837 103.822C98.7837 90.5955 87.3963 79.8734 74.1699 79.8734Z" fill="#014772"/>
</svg>
