<svg width="249" height="160" viewBox="0 0 249 160" fill="none" xmlns="http://www.w3.org/2000/svg">
<path d="M109.422 160C153.605 160 189.422 124.183 189.422 80C189.422 35.8172 153.605 0 109.422 0C65.2391 0 29.4219 35.8172 29.4219 80C29.4219 124.183 65.2391 160 109.422 160Z" fill="#F2F2F2"/>
<path d="M181.05 122.843L174.358 122.605C174.358 122.605 128.968 116.895 114.431 116.548C112.967 116.335 111.474 116.454 110.06 116.895L113.28 103.722L117.22 104.707C131.055 108.174 176.913 119.558 184.289 119.814C193.014 120.106 181.05 122.843 181.05 122.843Z" fill="#037BC4"/>
<path d="M175.815 118.369C175.815 118.369 230.866 83.7909 238.063 105.018C245.259 126.246 226.495 129.372 226.495 129.372L175.815 118.369Z" fill="#037BC4"/>
<path opacity="0.2" d="M175.815 118.369C175.815 118.369 230.866 83.7909 238.063 105.018C245.259 126.246 226.495 129.372 226.495 129.372L175.815 118.369Z" fill="black"/>
<path d="M239.258 148.648C239.258 148.648 227.689 169.241 174.417 122.394L175.152 121.438L177.359 118.571C177.359 118.571 246.308 86.7085 248.101 117.832C248.076 121.88 247.643 125.916 246.81 129.877C246.617 130.739 246.244 131.551 245.716 132.257L245.464 132.492C245.464 132.492 245.465 132.979 245.321 133.808C244.98 137.126 243.527 145.745 239.258 148.648Z" fill="#037BC4"/>
<path opacity="0.1" d="M239.307 148.697C239.307 148.697 227.729 169.069 174.417 122.723L175.153 121.777L176.391 120.511L245.769 132.481L245.518 132.713C245.518 132.713 245.518 133.194 245.375 134.015C245.034 137.297 243.58 145.825 239.307 148.697Z" fill="black"/>
<path opacity="0.1" d="M245.75 133.102L174.744 121.56L171.152 118.475L177.653 117.713L247.168 129.092C246.986 130.08 246.524 130.994 245.839 131.723C245.839 131.723 245.857 132.268 245.75 133.102Z" fill="black"/>
<path opacity="0.1" d="M244.765 134.501L173.81 123.322L170.221 120.337L176.699 119.578L246.237 130.651C246.058 131.618 245.589 132.51 244.891 133.212C244.891 133.212 244.873 133.707 244.765 134.501Z" fill="black"/>
<path d="M245.338 134.035L174.278 122.506L170.687 119.428L177.169 118.645L246.703 130.065C246.503 131.054 246.037 131.968 245.356 132.706C245.356 132.706 245.445 133.197 245.338 134.035Z" fill="#4C4C56"/>
<path opacity="0.1" d="M114.331 116.436C112.9 116.226 111.441 116.343 110.06 116.78L113.206 103.722L117.055 104.699C116.622 108.712 115.707 112.655 114.331 116.436Z" fill="#037BC4"/>
<path d="M114.794 100.387L75.0433 93.6317C73.5935 93.3716 72.1061 93.4111 70.6721 93.7478C69.238 94.0846 67.8874 94.7114 66.703 95.5901C65.069 96.6511 63.737 98.1191 62.8367 99.851C61.9364 101.583 61.4988 103.519 61.5664 105.472C61.7952 107.947 62.858 110.27 64.5794 112.056C66.3008 113.843 68.5777 114.987 71.0342 115.3L110.892 120.977C110.892 120.977 118.087 103.352 114.794 100.387Z" fill="#D1D9EC"/>
<path opacity="0.1" d="M0.46582 92.9678L12.4807 92.5294L64.2633 100.767C64.6431 100.826 65.0072 100.963 65.334 101.168C65.6607 101.373 65.9433 101.644 66.1649 101.962C66.3865 102.281 66.5426 102.642 66.6238 103.024C66.705 103.405 66.7096 103.799 66.6375 104.182C66.4932 104.919 66.0735 105.57 65.4665 105.999C64.8595 106.429 64.1124 106.602 63.382 106.484L10.664 97.881L0.46582 92.9678Z" fill="black"/>
<path d="M0 92.9367L12.0013 92.5294L63.8206 100.497C64.1953 100.557 64.5541 100.69 64.8762 100.888C65.1982 101.086 65.477 101.344 65.6964 101.649C65.9158 101.954 66.0713 102.299 66.1539 102.664C66.2365 103.028 66.2446 103.405 66.1777 103.773C66.0373 104.487 65.6219 105.12 65.0182 105.539C64.4145 105.958 63.6694 106.131 62.939 106.022L10.184 97.6643L0 92.9367Z" fill="#DFE6F5"/>
</svg>
