<svg width="180" height="180" viewBox="0 0 180 180" fill="none" xmlns="http://www.w3.org/2000/svg">
<path d="M79.3866 148.082C111.442 148.082 137.428 122.096 137.428 90.0409C137.428 57.9858 111.442 32 79.3866 32C47.3315 32 21.3457 57.9858 21.3457 90.0409C21.3457 122.096 47.3315 148.082 79.3866 148.082Z" fill="#F2F2F2"/>
<path d="M131.354 121.124L126.499 120.952C126.499 120.952 93.5677 116.808 83.0213 116.557C81.9587 116.403 80.8757 116.489 79.8496 116.808L82.186 107.251L85.0445 107.966C95.0818 110.481 128.352 118.741 133.704 118.926C140.034 119.138 131.354 121.124 131.354 121.124Z" fill="#037BC4"/>
<path d="M127.556 117.878C127.556 117.878 167.496 92.7912 172.717 108.192C177.938 123.593 164.324 125.861 164.324 125.861L127.556 117.878Z" fill="#037BC4"/>
<path opacity="0.2" d="M127.556 117.878C127.556 117.878 167.496 92.7912 172.717 108.192C177.938 123.593 164.324 125.861 164.324 125.861L127.556 117.878Z" fill="black"/>
<path d="M173.585 139.846C173.585 139.846 165.192 154.786 126.542 120.798L127.076 120.105L128.676 118.025C128.676 118.025 178.699 94.908 180.001 117.488C179.982 120.426 179.668 123.354 179.064 126.227C178.924 126.853 178.653 127.442 178.27 127.954L178.088 128.124C178.088 128.124 178.088 128.478 177.984 129.079C177.736 131.487 176.682 137.74 173.585 139.846Z" fill="#037BC4"/>
<path opacity="0.1" d="M173.621 139.881C173.621 139.881 165.221 154.661 126.542 121.037L127.076 120.351L127.975 119.432L178.309 128.116L178.127 128.285C178.127 128.285 178.127 128.634 178.023 129.229C177.775 131.611 176.72 137.797 173.621 139.881Z" fill="black"/>
<path opacity="0.1" d="M178.294 128.567L126.779 120.193L124.173 117.955L128.889 117.402L179.323 125.657C179.191 126.375 178.856 127.038 178.359 127.567C178.359 127.567 178.372 127.962 178.294 128.567Z" fill="black"/>
<path opacity="0.1" d="M177.58 129.582L126.101 121.472L123.497 119.306L128.197 118.755L178.648 126.789C178.518 127.49 178.178 128.137 177.671 128.647C177.671 128.647 177.658 129.006 177.58 129.582Z" fill="black"/>
<path d="M177.995 129.244L126.441 120.88L123.835 118.647L128.538 118.079L178.985 126.364C178.841 127.081 178.502 127.745 178.008 128.279C178.008 128.279 178.073 128.636 177.995 129.244Z" fill="#4C4C56"/>
<path opacity="0.1" d="M82.9482 116.476C81.9101 116.323 80.852 116.408 79.8496 116.725L82.1322 107.251L84.9248 107.96C84.6107 110.872 83.9467 113.732 82.9482 116.476V116.476Z" fill="#037BC4"/>
<path d="M83.2843 104.832L54.4447 99.9309C53.3928 99.7422 52.3138 99.7708 51.2733 100.015C50.2329 100.259 49.2531 100.714 48.3937 101.352C47.2083 102.121 46.2418 103.187 45.5887 104.443C44.9355 105.7 44.618 107.105 44.667 108.521C44.833 110.317 45.6041 112.002 46.853 113.298C48.1019 114.595 49.7538 115.425 51.5361 115.651L80.4536 119.77C80.4536 119.77 85.6735 106.983 83.2843 104.832Z" fill="#D1D9EC"/>
<path opacity="0.1" d="M0.337891 99.4492L9.05481 99.1312L46.6237 105.108C46.8993 105.151 47.1634 105.25 47.4005 105.399C47.6375 105.548 47.8426 105.744 48.0033 105.975C48.1641 106.206 48.2773 106.468 48.3363 106.745C48.3952 107.022 48.3986 107.308 48.3462 107.586V107.586C48.2415 108.12 47.937 108.593 47.4966 108.904C47.0562 109.215 46.5142 109.341 45.9843 109.255L7.73682 103.014L0.337891 99.4492Z" fill="black"/>
<path d="M0 99.4267L8.70708 99.1312L46.3026 104.912C46.5744 104.956 46.8348 105.052 47.0684 105.195C47.3021 105.339 47.5044 105.527 47.6635 105.748C47.8227 105.969 47.9355 106.219 47.9954 106.484C48.0554 106.748 48.0613 107.022 48.0127 107.289V107.289C47.9109 107.807 47.6094 108.266 47.1714 108.57C46.7335 108.874 46.1929 108.999 45.663 108.92L7.38861 102.857L0 99.4267Z" fill="#DFE6F5"/>
</svg>
