<svg width="227" height="160" viewBox="0 0 227 160" fill="none" xmlns="http://www.w3.org/2000/svg">
<path d="M180.071 90.1532C166.897 80.3042 146.263 70.9897 123.459 64.5983C102.697 58.7787 82.4456 55.9691 66.432 56.6866L66.3486 54.8243C82.553 54.0986 103.014 56.9319 123.962 62.8034C146.978 69.2544 167.836 78.6789 181.188 88.6602L180.071 90.1532Z" fill="#3F3D56"/>
<path d="M178.705 97.7394C178.716 106.465 176.887 115.096 173.336 123.067C173.04 123.734 172.731 124.395 172.41 125.05C166.234 137.7 155.953 147.884 143.246 153.941C130.538 159.998 116.154 161.571 102.438 158.402C88.7218 155.234 76.4841 147.511 67.7208 136.494C58.9574 125.478 54.1856 111.817 54.1836 97.7394C54.1836 96.2984 54.2327 94.8687 54.3308 93.4501C54.3774 92.7287 54.4377 92.0117 54.5117 91.299C56.1628 75.4301 63.8426 60.8005 75.9663 50.4291C88.09 40.0578 103.732 34.7361 119.666 35.5624C135.599 36.3887 150.607 43.2998 161.593 54.8695C172.578 66.4393 178.704 81.7848 178.705 97.7394H178.705Z" fill="#F2F2F2"/>
<path opacity="0.1" d="M173.336 123.067C173.04 123.734 172.731 124.395 172.41 125.05C170.59 125.248 168.675 125.391 166.665 125.481C165 125.555 163.287 125.593 161.537 125.593C146.247 125.593 127.847 122.77 109.049 117.502C88.1009 111.631 69.1487 103.417 55.6825 94.3748C55.2239 94.0672 54.7735 93.759 54.3311 93.4502C54.3776 92.7288 54.4379 92.0118 54.5119 91.2991C55.2258 91.808 55.9621 92.3175 56.7208 92.8276C70.0285 101.762 88.7906 109.888 109.553 115.707C128.186 120.931 146.413 123.729 161.527 123.729C163.255 123.729 164.94 123.692 166.581 123.619C168.971 123.51 171.222 123.327 173.336 123.067Z" fill="black"/>
<path d="M161.536 124.102C146.247 124.102 127.846 121.28 109.049 116.011C88.1008 110.14 69.1478 101.926 55.6815 92.8837C41.9341 83.6526 35.4878 74.5566 37.5297 67.2714C39.5715 59.9861 49.8064 55.5656 66.3489 54.8243L66.4323 56.6866C58.7071 57.0327 52.4115 58.1809 47.7202 60.0993C43.0404 62.0129 40.2156 64.5952 39.3245 67.7745C38.4334 70.9538 39.5046 74.628 42.5081 78.6952C45.5189 82.7723 50.3007 87.0253 56.7206 91.3362C70.0268 100.271 88.7895 108.397 109.552 114.216C128.186 119.439 146.412 122.238 161.527 122.238C163.254 122.238 164.938 122.201 166.579 122.128C174.305 121.782 180.6 120.634 185.292 118.715C189.972 116.802 192.796 114.219 193.687 111.04C195.287 105.331 190.452 97.9135 180.072 90.1532L181.188 88.6603C186.53 92.6537 190.484 96.5901 192.941 100.36C195.574 104.401 196.429 108.164 195.482 111.543C193.44 118.828 183.205 123.249 166.663 123.99C164.998 124.065 163.286 124.102 161.536 124.102Z" fill="#002C46"/>
<path d="M118.091 24.25C118.485 24.25 118.805 23.9306 118.805 23.5366C118.805 23.1425 118.485 22.8231 118.091 22.8231C117.697 22.8231 117.378 23.1425 117.378 23.5366C117.378 23.9306 117.697 24.25 118.091 24.25Z" fill="#F2F2F2"/>
<path d="M23.4412 55.2088C24.1191 55.2088 24.6686 54.6593 24.6686 53.9814C24.6686 53.3036 24.1191 52.7541 23.4412 52.7541C22.7634 52.7541 22.2139 53.3036 22.2139 53.9814C22.2139 54.6593 22.7634 55.2088 23.4412 55.2088Z" fill="#CCCCCC"/>
<path d="M20.825 104.445C22.1641 104.445 23.2497 103.359 23.2497 102.02C23.2497 100.681 22.1641 99.5954 20.825 99.5954C19.4859 99.5954 18.4004 100.681 18.4004 102.02C18.4004 103.359 19.4859 104.445 20.825 104.445Z" fill="#CCCCCC"/>
<path d="M166.367 29.4333C167.259 29.4333 167.983 28.7099 167.983 27.8174C167.983 26.9249 167.259 26.2014 166.367 26.2014C165.474 26.2014 164.751 26.9249 164.751 27.8174C164.751 28.7099 165.474 29.4333 166.367 29.4333Z" fill="#CCCCCC"/>
<path d="M223.68 97.5093C225.129 97.5093 226.304 96.3347 226.304 94.8856C226.304 93.4366 225.129 92.2619 223.68 92.2619C222.231 92.2619 221.057 93.4366 221.057 94.8856C221.057 96.3347 222.231 97.5093 223.68 97.5093Z" fill="#CCCCCC"/>
<path d="M203.165 54.1065C203.786 54.1065 204.29 53.6025 204.29 52.9808C204.29 52.3591 203.786 51.8551 203.165 51.8551C202.543 51.8551 202.039 52.3591 202.039 52.9808C202.039 53.6025 202.543 54.1065 203.165 54.1065Z" fill="#CCCCCC"/>
<path d="M66.4846 40.2751C67.4545 40.2751 68.2407 39.4888 68.2407 38.519C68.2407 37.5491 67.4545 36.7628 66.4846 36.7628C65.5148 36.7628 64.7285 37.5491 64.7285 38.519C64.7285 39.4888 65.5148 40.2751 66.4846 40.2751Z" fill="#CCCCCC"/>
<path d="M199.224 90.6912C199.846 90.6912 200.35 90.1872 200.35 89.5655C200.35 88.9438 199.846 88.4398 199.224 88.4398C198.603 88.4398 198.099 88.9438 198.099 89.5655C198.099 90.1872 198.603 90.6912 199.224 90.6912Z" fill="#CCCCCC"/>
<path d="M1.51727 72.1675C2.35524 72.1675 3.03454 71.4882 3.03454 70.6502C3.03454 69.8122 2.35524 69.1329 1.51727 69.1329C0.679306 69.1329 0 69.8122 0 70.6502C0 71.4882 0.679306 72.1675 1.51727 72.1675Z" fill="#CCCCCC"/>
<path d="M98.9396 2.99403H95.9456V0H94.3392V2.99403H91.3438V4.60188H94.3392V7.5959H95.9456V4.60188H98.9396V2.99403Z" fill="#CCCCCC"/>
<path opacity="0.1" d="M77.186 92.5075C80.0755 92.5075 82.4179 90.1651 82.4179 87.2756C82.4179 84.386 80.0755 82.0436 77.186 82.0436C74.2965 82.0436 71.9541 84.386 71.9541 87.2756C71.9541 90.1651 74.2965 92.5075 77.186 92.5075Z" fill="black"/>
<path opacity="0.1" d="M134.975 145.065C137.865 145.065 140.207 142.722 140.207 139.833C140.207 136.943 137.865 134.601 134.975 134.601C132.086 134.601 129.743 136.943 129.743 139.833C129.743 142.722 132.086 145.065 134.975 145.065Z" fill="black"/>
<path opacity="0.1" d="M117.376 100.593C120.266 100.593 122.608 98.2508 122.608 95.3613C122.608 92.4718 120.266 90.1293 117.376 90.1293C114.487 90.1293 112.145 92.4718 112.145 95.3613C112.145 98.2508 114.487 100.593 117.376 100.593Z" fill="black"/>
<path opacity="0.1" d="M79.8032 129.369C82.6927 129.369 85.0351 127.026 85.0351 124.137C85.0351 121.247 82.6927 118.905 79.8032 118.905C76.9137 118.905 74.5713 121.247 74.5713 124.137C74.5713 127.026 76.9137 129.369 79.8032 129.369Z" fill="black"/>
<path opacity="0.1" d="M145.44 72.531C148.329 72.531 150.672 70.1886 150.672 67.2991C150.672 64.4096 148.329 62.0671 145.44 62.0671C142.55 62.0671 140.208 64.4096 140.208 67.2991C140.208 70.1886 142.55 72.531 145.44 72.531Z" fill="black"/>
<path opacity="0.1" d="M162.8 107.965C165.69 107.965 168.032 105.623 168.032 102.733C168.032 99.8439 165.69 97.5015 162.8 97.5015C159.911 97.5015 157.568 99.8439 157.568 102.733C157.568 105.623 159.911 107.965 162.8 107.965Z" fill="black"/>
<path d="M145.44 52.3167C149.249 52.3167 152.336 49.229 152.336 45.4201C152.336 41.6112 149.249 38.5234 145.44 38.5234C141.631 38.5234 138.543 41.6112 138.543 45.4201C138.543 49.229 141.631 52.3167 145.44 52.3167Z" fill="white"/>
<path d="M145.44 35.432C142.854 35.432 140.374 36.4593 138.545 38.2878C136.717 40.1164 135.689 42.5964 135.689 45.1824C135.689 50.5674 145.44 68.2504 145.44 68.2504C145.44 68.2504 155.19 50.5674 155.19 45.1824C155.19 42.5964 154.163 40.1164 152.334 38.2878C150.506 36.4593 148.026 35.432 145.44 35.432ZM145.44 49.9387C144.546 49.9387 143.673 49.6737 142.929 49.1772C142.186 48.6807 141.607 47.975 141.265 47.1493C140.923 46.3237 140.834 45.4152 141.008 44.5387C141.183 43.6622 141.613 42.857 142.245 42.2251C142.877 41.5932 143.682 41.1628 144.558 40.9885C145.435 40.8142 146.343 40.9036 147.169 41.2456C147.995 41.5876 148.7 42.1668 149.197 42.9099C149.693 43.6529 149.958 44.5265 149.958 45.4202C149.958 46.0136 149.841 46.6011 149.614 47.1493C149.387 47.6976 149.054 48.1957 148.635 48.6153C148.215 49.0348 147.717 49.3677 147.169 49.5947C146.621 49.8218 146.033 49.9387 145.44 49.9387Z" fill="#037BC4"/>
<path d="M77.1603 71.0235C80.9692 71.0235 84.0569 67.9358 84.0569 64.1269C84.0569 60.318 80.9692 57.2303 77.1603 57.2303C73.3514 57.2303 70.2637 60.318 70.2637 64.1269C70.2637 67.9358 73.3514 71.0235 77.1603 71.0235Z" fill="white"/>
<path d="M77.1596 54.1388C74.5736 54.1388 72.0936 55.1661 70.265 56.9946C68.4365 58.8232 67.4092 61.3032 67.4092 63.8892C67.4092 69.2742 77.1596 86.9572 77.1596 86.9572C77.1596 86.9572 86.91 69.2742 86.91 63.8892C86.91 61.3032 85.8827 58.8232 84.0541 56.9946C82.2256 55.1661 79.7455 54.1388 77.1596 54.1388ZM77.1596 68.6455C76.2659 68.6455 75.3923 68.3805 74.6492 67.884C73.9062 67.3875 73.327 66.6818 72.985 65.8561C72.643 65.0305 72.5536 64.122 72.7279 63.2455C72.9023 62.369 73.3326 61.5639 73.9645 60.9319C74.5965 60.3 75.4016 59.8697 76.2781 59.6953C77.1546 59.521 78.0631 59.6105 78.8887 59.9525C79.7144 60.2945 80.4201 60.8736 80.9166 61.6167C81.4131 62.3597 81.6781 63.2333 81.6781 64.127C81.6781 64.7204 81.5612 65.3079 81.3341 65.8562C81.1071 66.4044 80.7742 66.9025 80.3546 67.3221C79.9351 67.7416 79.4369 68.0745 78.8887 68.3016C78.3405 68.5286 77.753 68.6455 77.1596 68.6455Z" fill="#002C46"/>
<path d="M163.679 86.9243C167.488 86.9243 170.575 83.8366 170.575 80.0277C170.575 76.2188 167.488 73.131 163.679 73.131C159.87 73.131 156.782 76.2188 156.782 80.0277C156.782 83.8366 159.87 86.9243 163.679 86.9243Z" fill="white"/>
<path d="M163.679 70.0396C161.093 70.0396 158.613 71.0669 156.785 72.8954C154.956 74.724 153.929 77.204 153.929 79.79C153.929 85.175 163.679 102.858 163.679 102.858C163.679 102.858 173.429 85.175 173.429 79.79C173.429 77.204 172.402 74.724 170.574 72.8954C168.745 71.0669 166.265 70.0396 163.679 70.0396ZM163.679 84.5463C162.785 84.5463 161.912 84.2813 161.169 83.7848C160.426 83.2883 159.847 82.5826 159.505 81.7569C159.163 80.9313 159.073 80.0228 159.247 79.1463C159.422 78.2698 159.852 77.4646 160.484 76.8327C161.116 76.2008 161.921 75.7705 162.798 75.5961C163.674 75.4218 164.583 75.5113 165.408 75.8532C166.234 76.1952 166.94 76.7744 167.436 77.5175C167.933 78.2605 168.198 79.1341 168.198 80.0278C168.198 80.6212 168.081 81.2087 167.854 81.7569C167.627 82.3052 167.294 82.8033 166.874 83.2229C166.455 83.6424 165.956 83.9753 165.408 84.2023C164.86 84.4294 164.272 84.5463 163.679 84.5463Z" fill="#CCCCCC"/>
<path d="M46.7609 121.532C50.5698 121.532 53.6575 118.444 53.6575 114.635C53.6575 110.826 50.5698 107.739 46.7609 107.739C42.952 107.739 39.8643 110.826 39.8643 114.635C39.8643 118.444 42.952 121.532 46.7609 121.532Z" fill="white"/>
</svg>
