<svg width="180" height="180" viewBox="0 0 180 180" fill="none" xmlns="http://www.w3.org/2000/svg">
<path d="M143.228 97.7071C132.749 89.8733 116.336 82.4646 98.1988 77.3809C81.6844 72.7521 65.5768 70.5173 52.8398 71.088L52.7734 69.6068C65.6622 69.0296 81.9369 71.2831 98.599 75.9533C116.906 81.0844 133.496 88.5805 144.116 96.5196L143.228 97.7071Z" fill="#3F3D56"/>
<path d="M142.141 103.741C142.15 110.682 140.695 117.546 137.871 123.886C137.635 124.417 137.389 124.943 137.134 125.464C132.221 135.525 124.044 143.626 113.937 148.443C103.83 153.261 92.3881 154.512 81.4786 151.992C70.569 149.472 60.8353 143.329 53.865 134.567C46.8947 125.804 43.0993 114.938 43.0977 103.741C43.0977 102.595 43.1367 101.458 43.2148 100.329C43.2518 99.7556 43.2998 99.1853 43.3586 98.6184C44.6719 85.9964 50.7803 74.3601 60.4234 66.1108C70.0665 57.8616 82.5083 53.6288 95.1815 54.286C107.855 54.9432 119.792 60.4402 128.53 69.6427C137.268 78.8452 142.14 91.0509 142.141 103.741H142.141Z" fill="#F2F2F2"/>
<path opacity="0.1" d="M137.871 123.886C137.635 124.417 137.389 124.943 137.134 125.464C135.687 125.621 134.163 125.735 132.564 125.806C131.24 125.866 129.877 125.895 128.485 125.895C116.324 125.895 101.689 123.651 86.7374 119.461C70.0751 114.79 55.0007 108.257 44.2898 101.065C43.925 100.82 43.5667 100.575 43.2148 100.33C43.2519 99.7557 43.2998 99.1854 43.3587 98.6185C43.9265 99.0233 44.5122 99.4286 45.1156 99.8343C55.7005 106.941 70.6237 113.404 87.1378 118.033C101.959 122.187 116.456 124.413 128.478 124.413C129.852 124.413 131.192 124.384 132.497 124.325C134.398 124.239 136.189 124.093 137.871 123.886Z" fill="black"/>
<path d="M128.484 124.709C116.324 124.71 101.687 122.465 86.7364 118.274C70.0742 113.604 54.9991 107.071 44.2882 99.8789C33.3536 92.5366 28.2262 85.3017 29.8503 79.5071C31.4744 73.7125 39.6152 70.1965 52.7729 69.6068L52.8392 71.088C46.6947 71.3634 41.6872 72.2766 37.9558 73.8025C34.2335 75.3245 31.9867 77.3785 31.278 79.9073C30.5692 82.436 31.4212 85.3585 33.8101 88.5935C36.2049 91.8364 40.0083 95.2192 45.1147 98.648C55.6983 105.755 70.622 112.218 87.1366 116.847C101.958 121.001 116.454 123.227 128.477 123.227C129.85 123.227 131.19 123.198 132.496 123.14C138.64 122.864 143.648 121.951 147.379 120.425C151.101 118.903 153.348 116.849 154.057 114.32C155.33 109.78 151.484 103.88 143.227 97.7071L144.115 96.5197C148.364 99.696 151.509 102.827 153.463 105.825C155.558 109.04 156.238 112.033 155.485 114.721C153.86 120.515 145.72 124.031 132.562 124.621C131.238 124.68 129.876 124.709 128.484 124.709Z" fill="#002C46"/>
<path d="M93.9288 45.2883C94.2422 45.2883 94.4963 45.0342 94.4963 44.7208C94.4963 44.4074 94.2422 44.1533 93.9288 44.1533C93.6154 44.1533 93.3613 44.4074 93.3613 44.7208C93.3613 45.0342 93.6154 45.2883 93.9288 45.2883Z" fill="#F2F2F2"/>
<path d="M18.6452 69.9126C19.1844 69.9126 19.6214 69.4755 19.6214 68.9363C19.6214 68.3972 19.1844 67.9601 18.6452 67.9601C18.106 67.9601 17.6689 68.3972 17.6689 68.9363C17.6689 69.4755 18.106 69.9126 18.6452 69.9126Z" fill="#CCCCCC"/>
<path d="M16.5643 109.074C17.6294 109.074 18.4928 108.211 18.4928 107.146C18.4928 106.081 17.6294 105.217 16.5643 105.217C15.4992 105.217 14.6357 106.081 14.6357 107.146C14.6357 108.211 15.4992 109.074 16.5643 109.074Z" fill="#CCCCCC"/>
<path d="M132.327 49.411C133.037 49.411 133.613 48.8355 133.613 48.1257C133.613 47.4158 133.037 46.8403 132.327 46.8403C131.617 46.8403 131.042 47.4158 131.042 48.1257C131.042 48.8355 131.617 49.411 132.327 49.411Z" fill="#CCCCCC"/>
<path d="M177.913 103.558C179.066 103.558 180 102.624 180 101.471C180 100.319 179.066 99.3844 177.913 99.3844C176.761 99.3844 175.826 100.319 175.826 101.471C175.826 102.624 176.761 103.558 177.913 103.558Z" fill="#CCCCCC"/>
<path d="M161.596 69.0358C162.09 69.0358 162.491 68.635 162.491 68.1405C162.491 67.646 162.09 67.2451 161.596 67.2451C161.101 67.2451 160.7 67.646 160.7 68.1405C160.7 68.635 161.101 69.0358 161.596 69.0358Z" fill="#CCCCCC"/>
<path d="M52.8812 58.0344C53.6526 58.0344 54.278 57.4091 54.278 56.6376C54.278 55.8662 53.6526 55.2408 52.8812 55.2408C52.1097 55.2408 51.4844 55.8662 51.4844 56.6376C51.4844 57.4091 52.1097 58.0344 52.8812 58.0344Z" fill="#CCCCCC"/>
<path d="M158.462 98.1351C158.956 98.1351 159.357 97.7342 159.357 97.2397C159.357 96.7452 158.956 96.3444 158.462 96.3444C157.967 96.3444 157.566 96.7452 157.566 97.2397C157.566 97.7342 157.967 98.1351 158.462 98.1351Z" fill="#CCCCCC"/>
<path d="M1.20683 83.4014C1.87334 83.4014 2.41365 82.8611 2.41365 82.1946C2.41365 81.5281 1.87334 80.9878 1.20683 80.9878C0.540314 80.9878 0 81.5281 0 82.1946C0 82.8611 0.540314 83.4014 1.20683 83.4014Z" fill="#CCCCCC"/>
<path d="M78.696 28.3814H76.3146V26H75.0368V28.3814H72.6543V29.6603H75.0368V32.0417H76.3146V29.6603H78.696V28.3814Z" fill="#CCCCCC"/>
<path opacity="0.1" d="M61.3929 99.5797C63.6912 99.5797 65.5543 97.7166 65.5543 95.4183C65.5543 93.12 63.6912 91.2568 61.3929 91.2568C59.0946 91.2568 57.2314 93.12 57.2314 95.4183C57.2314 97.7166 59.0946 99.5797 61.3929 99.5797Z" fill="black"/>
<path opacity="0.1" d="M107.358 141.383C109.656 141.383 111.519 139.52 111.519 137.222C111.519 134.923 109.656 133.06 107.358 133.06C105.059 133.06 103.196 134.923 103.196 137.222C103.196 139.52 105.059 141.383 107.358 141.383Z" fill="black"/>
<path opacity="0.1" d="M93.3607 106.011C95.659 106.011 97.5221 104.148 97.5221 101.85C97.5221 99.5513 95.659 97.6881 93.3607 97.6881C91.0624 97.6881 89.1992 99.5513 89.1992 101.85C89.1992 104.148 91.0624 106.011 93.3607 106.011Z" fill="black"/>
<path opacity="0.1" d="M63.4749 128.899C65.7732 128.899 67.6363 127.036 67.6363 124.737C67.6363 122.439 65.7732 120.576 63.4749 120.576C61.1766 120.576 59.3135 122.439 59.3135 124.737C59.3135 127.036 61.1766 128.899 63.4749 128.899Z" fill="black"/>
<path opacity="0.1" d="M115.682 83.6906C117.98 83.6906 119.843 81.8274 119.843 79.5291C119.843 77.2308 117.98 75.3677 115.682 75.3677C113.384 75.3677 111.521 77.2308 111.521 79.5291C111.521 81.8274 113.384 83.6906 115.682 83.6906Z" fill="black"/>
<path opacity="0.1" d="M129.49 111.875C131.788 111.875 133.651 110.012 133.651 107.713C133.651 105.415 131.788 103.552 129.49 103.552C127.191 103.552 125.328 105.415 125.328 107.713C125.328 110.012 127.191 111.875 129.49 111.875Z" fill="black"/>
<path d="M115.682 67.6123C118.711 67.6123 121.167 65.1563 121.167 62.1268C121.167 59.0972 118.711 56.6412 115.682 56.6412C112.652 56.6412 110.196 59.0972 110.196 62.1268C110.196 65.1563 112.652 67.6123 115.682 67.6123Z" fill="white"/>
<path d="M115.682 54.1824C113.625 54.1824 111.653 54.9995 110.198 56.4539C108.744 57.9083 107.927 59.8809 107.927 61.9378C107.927 66.2209 115.682 80.2859 115.682 80.2859C115.682 80.2859 123.438 66.2209 123.438 61.9378C123.438 59.8809 122.62 57.9083 121.166 56.4539C119.712 54.9995 117.739 54.1824 115.682 54.1824ZM115.682 65.7209C114.971 65.7209 114.276 65.5101 113.685 65.1152C113.094 64.7203 112.634 64.159 112.362 63.5023C112.09 62.8455 112.019 62.1229 112.157 61.4258C112.296 60.7286 112.638 60.0882 113.141 59.5856C113.643 59.083 114.284 58.7407 114.981 58.602C115.678 58.4633 116.401 58.5345 117.058 58.8065C117.714 59.0785 118.276 59.5392 118.67 60.1302C119.065 60.7212 119.276 61.4161 119.276 62.1269C119.276 62.5989 119.183 63.0662 119.003 63.5023C118.822 63.9383 118.557 64.3345 118.223 64.6682C117.89 65.002 117.494 65.2667 117.057 65.4473C116.621 65.6279 116.154 65.7209 115.682 65.7209Z" fill="#037BC4"/>
<path d="M61.3722 82.4916C64.4018 82.4916 66.8578 80.0356 66.8578 77.006C66.8578 73.9765 64.4018 71.5205 61.3722 71.5205C58.3427 71.5205 55.8867 73.9765 55.8867 77.006C55.8867 80.0356 58.3427 82.4916 61.3722 82.4916Z" fill="white"/>
<path d="M61.3726 69.0615C59.3157 69.0615 57.3431 69.8786 55.8887 71.333C54.4343 72.7874 53.6172 74.76 53.6172 76.8169C53.6172 81.1001 61.3726 95.165 61.3726 95.165C61.3726 95.165 69.1279 81.1001 69.1279 76.8169C69.1279 74.76 68.3109 72.7874 66.8564 71.333C65.402 69.8786 63.4294 69.0615 61.3726 69.0615V69.0615ZM61.3726 80.6C60.6618 80.6 59.9669 80.3893 59.3759 79.9943C58.7848 79.5994 58.3242 79.0381 58.0522 78.3814C57.7802 77.7247 57.709 77.0021 57.8477 76.3049C57.9863 75.6077 58.3286 74.9674 58.8313 74.4647C59.3339 73.9621 59.9743 73.6198 60.6714 73.4811C61.3686 73.3425 62.0912 73.4136 62.7479 73.6857C63.4046 73.9577 63.9659 74.4183 64.3608 75.0094C64.7558 75.6004 64.9665 76.2952 64.9665 77.0061C64.9665 77.478 64.8736 77.9454 64.693 78.3814C64.5124 78.8175 64.2476 79.2137 63.9139 79.5474C63.5802 79.8811 63.184 80.1459 62.7479 80.3265C62.3119 80.5071 61.8445 80.6 61.3726 80.6V80.6Z" fill="#002C46"/>
<path d="M130.189 95.1389C133.218 95.1389 135.674 92.6829 135.674 89.6534C135.674 86.6238 133.218 84.1678 130.189 84.1678C127.159 84.1678 124.703 86.6238 124.703 89.6534C124.703 92.6829 127.159 95.1389 130.189 95.1389Z" fill="white"/>
<path d="M130.189 81.709C128.132 81.709 126.16 82.5261 124.705 83.9805C123.251 85.4349 122.434 87.4075 122.434 89.4644C122.434 93.7475 130.189 107.812 130.189 107.812C130.189 107.812 137.944 93.7475 137.944 89.4644C137.944 87.4075 137.127 85.4349 135.673 83.9805C134.218 82.5261 132.246 81.709 130.189 81.709V81.709ZM130.189 93.2475C129.478 93.2475 128.783 93.0367 128.192 92.6418C127.601 92.2469 127.141 91.6856 126.869 91.0289C126.597 90.3722 126.525 89.6495 126.664 88.9524C126.803 88.2552 127.145 87.6148 127.648 87.1122C128.15 86.6096 128.791 86.2673 129.488 86.1286C130.185 85.9899 130.908 86.0611 131.564 86.3331C132.221 86.6051 132.782 87.0658 133.177 87.6568C133.572 88.2479 133.783 88.9427 133.783 89.6535C133.783 90.1255 133.69 90.5928 133.509 91.0289C133.329 91.4649 133.064 91.8611 132.73 92.1949C132.397 92.5286 132 92.7933 131.564 92.9739C131.128 93.1545 130.661 93.2475 130.189 93.2475Z" fill="#CCCCCC"/>
<path d="M37.1935 122.666C40.2231 122.666 42.6791 120.21 42.6791 117.18C42.6791 114.15 40.2231 111.694 37.1935 111.694C34.164 111.694 31.708 114.15 31.708 117.18C31.708 120.21 34.164 122.666 37.1935 122.666Z" fill="white"/>
</svg>
