<svg width="180" height="180" viewBox="0 0 180 180" fill="none" xmlns="http://www.w3.org/2000/svg">
<path d="M95.1212 178.918H90.9844V1.5134C90.9844 1.11202 91.2023 0.727084 91.5902 0.443266C91.9781 0.159449 92.5042 0 93.0528 0C93.6014 0 94.1275 0.159449 94.5154 0.443266C94.9033 0.727084 95.1212 1.11202 95.1212 1.5134V178.918Z" fill="#E6E6E6"/>
<path d="M129.028 180H53.26C53.1164 180 52.9788 179.943 52.8773 179.841C52.7758 179.74 52.7188 179.602 52.7188 179.459C52.7188 179.315 52.7758 179.178 52.8773 179.076C52.9788 178.975 53.1164 178.918 53.26 178.918H129.028C129.172 178.918 129.309 178.975 129.411 179.076C129.512 179.178 129.569 179.315 129.569 179.459C129.569 179.602 129.512 179.74 129.411 179.841C129.309 179.943 129.172 180 129.028 180Z" fill="#CCCCCC"/>
<path d="M129.106 37.343H58.2352C57.5895 37.3422 56.9705 37.0854 56.5139 36.6289C56.0573 36.1723 55.8005 35.5532 55.7998 34.9076V14.3419C55.8005 13.6962 56.0573 13.0772 56.5139 12.6206C56.9705 12.164 57.5895 11.9072 58.2352 11.9065H129.111C129.526 11.9068 129.935 12.0131 130.297 12.2154L148.625 22.4435C149.003 22.6543 149.318 22.962 149.537 23.3348C149.757 23.7076 149.873 24.1322 149.874 24.5648C149.875 24.9974 149.76 25.4224 149.543 25.7962C149.325 26.17 149.011 26.479 148.635 26.6915L130.302 37.029C129.937 37.2346 129.525 37.3427 129.106 37.343V37.343Z" fill="#037BC4"/>
<path d="M122.639 81.7215H51.7683C51.3492 81.7212 50.9373 81.6131 50.5722 81.4075L32.2392 71.07C31.8624 70.8575 31.549 70.5485 31.3312 70.1747C31.1134 69.8009 30.9991 69.3759 31 68.9433C31.001 68.5106 31.1172 68.0861 31.3366 67.7133C31.5561 67.3404 31.8708 67.0328 32.2486 66.822L50.5763 56.5939C50.9391 56.3916 51.3476 56.2853 51.7631 56.285H122.639C123.284 56.2857 123.903 56.5425 124.36 56.9991C124.816 57.4557 125.073 58.0747 125.074 58.7204V79.286C125.073 79.9317 124.816 80.5508 124.36 81.0073C123.903 81.4639 123.284 81.7207 122.639 81.7215Z" fill="#E6E6E6"/>
<path d="M122.909 125.288H52.0388C51.6197 125.288 51.2078 125.18 50.8427 124.974L32.5098 114.637C32.1329 114.424 31.8195 114.115 31.6017 113.741C31.3839 113.368 31.2696 112.943 31.2705 112.51C31.2715 112.077 31.3877 111.653 31.6071 111.28C31.8266 110.907 32.1414 110.6 32.5191 110.389L50.8468 100.161C51.2096 99.9584 51.6181 99.852 52.0336 99.8517H122.909C123.555 99.8525 124.174 100.109 124.63 100.566C125.087 101.022 125.344 101.641 125.344 102.287V122.853C125.344 123.499 125.087 124.118 124.63 124.574C124.174 125.031 123.555 125.288 122.909 125.288V125.288Z" fill="#E6E6E6"/>
</svg>
