<svg width="25" height="28" viewBox="0 0 25 28" fill="none" xmlns="http://www.w3.org/2000/svg">
<g clip-path="url(#clip0)">
<path d="M17.8863 26.1096C17.8863 25.5396 17.9091 23.6521 17.9091 21.3034C17.9091 19.6581 17.3163 18.5821 16.678 18.0553C20.739 17.6234 24.9994 16.1392 24.9994 9.39602C24.9994 7.48065 24.2927 5.91417 23.1299 4.6861C23.3123 4.24302 23.9279 2.45813 22.9476 0.0403687C22.9476 0.0403687 21.4201 -0.429926 17.9547 1.83991C14.9684 1.05004 11.8216 1.05004 8.83527 1.83991C5.34424 -0.429926 3.81959 0.0403687 3.81959 0.0403687C2.83925 2.45813 3.45481 4.24302 3.66 4.6861C2.48944 5.91417 1.78268 7.47717 1.78268 9.39602C1.78268 16.1218 6.04031 17.6297 10.0906 18.07C9.56909 18.5116 9.09959 19.2792 8.93857 20.4172C7.89554 20.8659 5.25233 21.6411 3.62651 18.9575C3.62651 18.9575 2.66399 17.271 0.83298 17.1489C0.83298 17.1489 -0.948156 17.1266 0.704738 18.2144C0.704738 18.2144 1.90451 18.7566 2.73381 20.7822C2.73381 20.7822 3.80249 24.1957 8.8773 23.1371C8.88514 24.6025 8.9001 25.7049 8.9001 26.1215C8.90514 26.2714 8.86956 26.42 8.79698 26.5521C8.7244 26.6842 8.61741 26.7952 8.48688 26.8737C11.699 27.8217 15.1248 27.8236 18.338 26.8793C18.0117 26.7216 17.8863 26.3964 17.8863 26.1096Z" fill="#037BC4"/>
</g>
<defs>
<clipPath id="clip0">
<rect width="25" height="27.5862" fill="white"/>
</clipPath>
</defs>
</svg>
