<svg width="249" height="160" viewBox="0 0 249 160" fill="none" xmlns="http://www.w3.org/2000/svg">
<path d="M242.116 160H6.16024C4.54954 159.998 3.00532 159.358 1.86638 158.219C0.727437 157.08 0.0867814 155.535 0.0849609 153.925V8.42956C0.0862736 7.24954 0.555607 6.11822 1.38999 5.2838C2.22438 4.44938 3.35568 3.98 4.53571 3.97864H243.664C244.864 3.98 246.015 4.45749 246.864 5.30634C247.713 6.15518 248.19 7.30607 248.192 8.50651V153.925C248.19 155.535 247.549 157.08 246.41 158.219C245.271 159.358 243.727 159.998 242.116 160Z" fill="#F2F2F2"/>
<path d="M234.487 152.329H14.5824C11.3589 152.329 8.73633 149.874 8.73633 146.855V20.1559C8.73633 17.9172 10.6797 16.0958 13.0684 16.0958H235.929C238.358 16.0958 240.333 17.9472 240.333 20.2228V146.855C240.333 149.874 237.711 152.329 234.487 152.329Z" fill="white"/>
<path d="M248.107 9.18663H0V6.09361C0.00233572 4.47755 0.645607 2.92841 1.78869 1.78603C2.93177 0.643654 4.48131 0.00134001 6.09737 0H242.01C243.626 0.00132638 245.175 0.643635 246.319 1.78601C247.462 2.92839 248.105 4.47755 248.107 6.09361V9.18663Z" fill="#002A44"/>
<path d="M11.0811 6.17969C11.9521 6.17969 12.6582 5.47358 12.6582 4.60254C12.6582 3.7315 11.9521 3.02539 11.0811 3.02539C10.21 3.02539 9.50391 3.7315 9.50391 4.60254C9.50391 5.47358 10.21 6.17969 11.0811 6.17969Z" fill="white"/>
<path d="M17.0674 6.17969C17.9384 6.17969 18.6445 5.47358 18.6445 4.60254C18.6445 3.7315 17.9384 3.02539 17.0674 3.02539C16.1963 3.02539 15.4902 3.7315 15.4902 4.60254C15.4902 5.47358 16.1963 6.17969 17.0674 6.17969Z" fill="white"/>
<path d="M23.0537 6.17969C23.9247 6.17969 24.6309 5.47358 24.6309 4.60254C24.6309 3.7315 23.9247 3.02539 23.0537 3.02539C22.1827 3.02539 21.4766 3.7315 21.4766 4.60254C21.4766 5.47358 22.1827 6.17969 23.0537 6.17969Z" fill="white"/>
<path d="M119.319 43.7989H76.3102C75.669 43.7989 75.0541 43.5442 74.6007 43.0908C74.1473 42.6374 73.8926 42.0225 73.8926 41.3813C73.8926 40.7401 74.1473 40.1251 74.6007 39.6717C75.0541 39.2183 75.669 38.9636 76.3102 38.9636H119.319C119.96 38.9636 120.575 39.2183 121.028 39.6717C121.482 40.1251 121.736 40.7401 121.736 41.3813C121.736 42.0225 121.482 42.6374 121.028 43.0908C120.575 43.5442 119.96 43.7989 119.319 43.7989Z" fill="#CCCCCC"/>
<path d="M172.761 43.7989H129.753C129.111 43.7989 128.496 43.5442 128.043 43.0908C127.59 42.6374 127.335 42.0225 127.335 41.3813C127.335 40.7401 127.59 40.1251 128.043 39.6717C128.496 39.2183 129.111 38.9636 129.753 38.9636H172.761C173.402 38.9636 174.017 39.2183 174.471 39.6717C174.924 40.1251 175.179 40.7401 175.179 41.3813C175.179 42.0225 174.924 42.6374 174.471 43.0908C174.017 43.5442 173.402 43.7989 172.761 43.7989Z" fill="#CCCCCC"/>
<path d="M172.761 52.9605H97.9411C97.2999 52.9605 96.6849 52.7058 96.2315 52.2524C95.7781 51.799 95.5234 51.1841 95.5234 50.5429C95.5234 49.9017 95.7781 49.2867 96.2315 48.8333C96.6849 48.38 97.2999 48.1252 97.9411 48.1252H172.761C173.402 48.1252 174.017 48.38 174.47 48.8333C174.924 49.2867 175.178 49.9017 175.178 50.5429C175.178 51.1841 174.924 51.799 174.47 52.2524C174.017 52.7058 173.402 52.9605 172.761 52.9605Z" fill="#CCCCCC"/>
<path d="M119.319 34.51H76.3102C75.6695 34.5092 75.0553 34.2541 74.6026 33.8008C74.1498 33.3475 73.8955 32.733 73.8955 32.0923C73.8955 31.4516 74.1498 30.8372 74.6026 30.3838C75.0553 29.9305 75.6695 29.6755 76.3102 29.6747H119.319C119.637 29.6743 119.951 29.7365 120.245 29.8579C120.539 29.9792 120.805 30.1572 121.03 30.3817C121.255 30.6063 121.433 30.8729 121.555 31.1664C121.677 31.46 121.739 31.7746 121.739 32.0923C121.739 32.4101 121.677 32.7247 121.555 33.0182C121.433 33.3117 121.255 33.5784 121.03 33.8029C120.805 34.0275 120.539 34.2055 120.245 34.3268C119.951 34.4481 119.637 34.5104 119.319 34.51Z" fill="#CCCCCC"/>
<path d="M142.986 34.6373H130.77C130.129 34.6373 129.514 34.3826 129.061 33.9292C128.607 33.4758 128.353 32.8608 128.353 32.2196C128.353 31.5784 128.607 30.9635 129.061 30.5101C129.514 30.0567 130.129 29.802 130.77 29.802H142.986C143.627 29.802 144.242 30.0567 144.695 30.5101C145.149 30.9635 145.403 31.5784 145.403 32.2196C145.403 32.8608 145.149 33.4758 144.695 33.9292C144.242 34.3826 143.627 34.6373 142.986 34.6373Z" fill="#CCCCCC"/>
<path d="M88.5256 52.9605H76.3102C75.6695 52.9597 75.0553 52.7047 74.6026 52.2514C74.1498 51.7981 73.8955 51.1836 73.8955 50.5429C73.8955 49.9022 74.1498 49.2877 74.6026 48.8344C75.0553 48.3811 75.6695 48.126 76.3102 48.1252H88.5256C88.8434 48.1249 89.1581 48.1871 89.4518 48.3084C89.7454 48.4297 90.0123 48.6078 90.2371 48.8323C90.4619 49.0568 90.6403 49.3235 90.762 49.617C90.8836 49.9105 90.9463 50.2251 90.9463 50.5429C90.9463 50.8606 90.8836 51.1753 90.762 51.4688C90.6403 51.7623 90.4619 52.0289 90.2371 52.2535C90.0123 52.478 89.7454 52.656 89.4518 52.7774C89.1581 52.8987 88.8434 52.9609 88.5256 52.9605Z" fill="#CCCCCC"/>
<path d="M119.319 129.589H76.3102C75.669 129.589 75.0541 129.334 74.6007 128.881C74.1473 128.428 73.8926 127.813 73.8926 127.172C73.8926 126.53 74.1473 125.915 74.6007 125.462C75.0541 125.009 75.669 124.754 76.3102 124.754H119.319C119.636 124.754 119.951 124.816 120.244 124.938C120.537 125.059 120.804 125.238 121.028 125.462C121.253 125.687 121.431 125.953 121.552 126.246C121.674 126.54 121.736 126.854 121.736 127.172C121.736 127.489 121.674 127.803 121.552 128.097C121.431 128.39 121.253 128.657 121.028 128.881C120.804 129.106 120.537 129.284 120.244 129.405C119.951 129.527 119.636 129.589 119.319 129.589Z" fill="#CCCCCC"/>
<path d="M172.761 129.589H129.753C129.111 129.589 128.496 129.334 128.043 128.881C127.59 128.428 127.335 127.813 127.335 127.172C127.335 126.53 127.59 125.915 128.043 125.462C128.496 125.009 129.111 124.754 129.753 124.754H172.761C173.079 124.754 173.393 124.816 173.686 124.938C173.98 125.059 174.246 125.238 174.471 125.462C174.695 125.687 174.873 125.953 174.995 126.246C175.116 126.54 175.179 126.854 175.179 127.172C175.179 127.489 175.116 127.803 174.995 128.097C174.873 128.39 174.695 128.657 174.471 128.881C174.246 129.106 173.98 129.284 173.686 129.405C173.393 129.527 173.079 129.589 172.761 129.589Z" fill="#CCCCCC"/>
<path d="M172.761 138.751H97.9411C97.2999 138.751 96.6849 138.496 96.2315 138.043C95.7781 137.589 95.5234 136.974 95.5234 136.333C95.5234 135.692 95.7781 135.077 96.2315 134.624C96.6849 134.17 97.2999 133.916 97.9411 133.916H172.761C173.079 133.915 173.393 133.978 173.687 134.099C173.981 134.22 174.247 134.398 174.472 134.623C174.697 134.847 174.875 135.114 174.997 135.407C175.119 135.701 175.181 136.016 175.181 136.333C175.181 136.651 175.119 136.966 174.997 137.259C174.875 137.553 174.697 137.819 174.472 138.044C174.247 138.268 173.981 138.446 173.687 138.568C173.393 138.689 173.079 138.751 172.761 138.751Z" fill="#CCCCCC"/>
<path d="M119.319 120.3H76.3102C75.669 120.3 75.0541 120.046 74.6007 119.592C74.1473 119.139 73.8926 118.524 73.8926 117.883C73.8926 117.242 74.1473 116.627 74.6007 116.173C75.0541 115.72 75.669 115.465 76.3102 115.465H119.319C119.96 115.465 120.575 115.72 121.028 116.173C121.482 116.627 121.736 117.242 121.736 117.883C121.736 118.524 121.482 119.139 121.028 119.592C120.575 120.046 119.96 120.3 119.319 120.3Z" fill="#CCCCCC"/>
<path d="M142.986 120.428H130.77C130.129 120.428 129.514 120.173 129.061 119.719C128.607 119.266 128.353 118.651 128.353 118.01C128.353 117.369 128.607 116.754 129.061 116.3C129.514 115.847 130.129 115.592 130.77 115.592H142.986C143.627 115.592 144.242 115.847 144.695 116.3C145.149 116.754 145.403 117.369 145.403 118.01C145.403 118.651 145.149 119.266 144.695 119.719C144.242 120.173 143.627 120.428 142.986 120.428Z" fill="#CCCCCC"/>
<path d="M88.5257 138.751H76.3102C75.669 138.751 75.0541 138.496 74.6007 138.043C74.1473 137.589 73.8926 136.974 73.8926 136.333C73.8926 135.692 74.1473 135.077 74.6007 134.624C75.0541 134.17 75.669 133.916 76.3102 133.916H88.5257C88.8434 133.915 89.1581 133.978 89.4518 134.099C89.7455 134.22 90.0123 134.398 90.2371 134.623C90.4619 134.847 90.6403 135.114 90.762 135.407C90.8837 135.701 90.9463 136.016 90.9463 136.333C90.9463 136.651 90.8837 136.966 90.762 137.259C90.6403 137.553 90.4619 137.819 90.2371 138.044C90.0123 138.268 89.7455 138.446 89.4518 138.568C89.1581 138.689 88.8434 138.751 88.5257 138.751Z" fill="#CCCCCC"/>
<path d="M108.085 103.634C107.173 103.636 106.296 103.277 105.647 102.636L89.4795 86.6712C89.1621 86.3578 88.9101 85.9845 88.7381 85.5729C88.5661 85.1613 88.4775 84.7197 88.4775 84.2736C88.4775 83.8276 88.5661 83.3859 88.7381 82.9744C88.9101 82.5628 89.1621 82.1895 89.4795 81.876L105.581 65.9756C106.252 65.3164 107.156 64.9483 108.096 64.9513C109.037 64.9543 109.938 65.328 110.605 65.9914C111.272 66.6602 111.647 67.5664 111.647 68.5111C111.647 69.4559 111.272 70.3621 110.605 71.0309L98.6399 82.9961C98.2671 83.3697 98.0577 83.876 98.0577 84.4038C98.0577 84.9316 98.2671 85.4379 98.6399 85.8115L110.54 97.7118C111.026 98.1968 111.357 98.8151 111.491 99.4884C111.625 100.162 111.557 100.86 111.294 101.494C111.031 102.128 110.586 102.67 110.015 103.051C109.443 103.432 108.772 103.635 108.085 103.634V103.634Z" fill="#037BC4"/>
<path d="M133.846 103.634C133.16 103.635 132.488 103.432 131.917 103.051C131.346 102.67 130.901 102.128 130.638 101.494C130.375 100.86 130.306 100.162 130.441 99.4883C130.575 98.815 130.906 98.1967 131.392 97.7117L143.292 85.8114C143.665 85.4378 143.874 84.9315 143.874 84.4037C143.874 83.8759 143.665 83.3696 143.292 82.996L131.327 71.0308C130.996 70.6999 130.734 70.307 130.554 69.8747C130.375 69.4424 130.283 68.979 130.283 68.511C130.283 68.0431 130.375 67.5797 130.554 67.1474C130.734 66.715 130.996 66.3222 131.327 65.9913C131.994 65.3279 132.895 64.9542 133.835 64.9512C134.776 64.9482 135.68 65.3163 136.351 65.9755L152.452 81.8759C152.77 82.1893 153.022 82.5627 153.194 82.9743C153.366 83.3858 153.454 83.8274 153.454 84.2735C153.454 84.7196 153.366 85.1612 153.194 85.5728C153.022 85.9844 152.77 86.3577 152.452 86.6711L136.285 102.636C135.636 103.277 134.759 103.636 133.846 103.634Z" fill="#037BC4"/>
</svg>
