<svg width="180" height="180" viewBox="0 0 180 180" fill="none" xmlns="http://www.w3.org/2000/svg">
<path d="M175.594 148.039H4.4676C3.29944 148.038 2.1795 147.573 1.35349 146.747C0.527477 145.921 0.0628437 144.802 0.0615234 143.633V38.1135C0.0624754 37.2577 0.402858 36.4372 1.00799 35.8321C1.61313 35.2269 2.4336 34.8865 3.28941 34.8855H176.716C177.587 34.8865 178.421 35.2328 179.037 35.8484C179.653 36.464 179.999 37.2987 180 38.1693V143.633C179.999 144.802 179.534 145.921 178.708 146.747C177.882 147.573 176.762 148.038 175.594 148.039Z" fill="#F2F2F2"/>
<path d="M170.061 142.476H10.5758C8.23792 142.476 6.33594 140.695 6.33594 138.506V46.618C6.33594 44.9944 7.74535 43.6735 9.47778 43.6735H171.107C172.868 43.6735 174.301 45.0162 174.301 46.6665V138.506C174.301 140.695 172.399 142.476 170.061 142.476Z" fill="white"/>
<path d="M179.939 38.6626H0V36.4194C0.00169397 35.2473 0.468224 34.1238 1.29724 33.2953C2.12625 32.4668 3.25005 32.001 4.4221 32H175.517C176.689 32.001 177.813 32.4668 178.642 33.2953C179.471 34.1238 179.937 35.2473 179.939 36.4194V38.6626Z" fill="#002A44"/>
<path d="M8.0364 36.4817C8.66812 36.4817 9.18022 35.9696 9.18022 35.3379C9.18022 34.7062 8.66812 34.1941 8.0364 34.1941C7.40468 34.1941 6.89258 34.7062 6.89258 35.3379C6.89258 35.9696 7.40468 36.4817 8.0364 36.4817Z" fill="white"/>
<path d="M12.3782 36.4817C13.0099 36.4817 13.522 35.9696 13.522 35.3379C13.522 34.7062 13.0099 34.1941 12.3782 34.1941C11.7465 34.1941 11.2344 34.7062 11.2344 35.3379C11.2344 35.9696 11.7465 36.4817 12.3782 36.4817Z" fill="white"/>
<path d="M16.72 36.4817C17.3517 36.4817 17.8638 35.9696 17.8638 35.3379C17.8638 34.7062 17.3517 34.1941 16.72 34.1941C16.0883 34.1941 15.5762 34.7062 15.5762 35.3379C15.5762 35.9696 16.0883 36.4817 16.72 36.4817Z" fill="white"/>
<path d="M86.5351 63.7651H55.3432C54.8782 63.7651 54.4322 63.5803 54.1034 63.2515C53.7746 62.9227 53.5898 62.4767 53.5898 62.0117C53.5898 61.5467 53.7746 61.1007 54.1034 60.7719C54.4322 60.443 54.8782 60.2583 55.3432 60.2583H86.5351C87.0001 60.2583 87.4461 60.443 87.7749 60.7719C88.1037 61.1007 88.2885 61.5467 88.2885 62.0117C88.2885 62.4767 88.1037 62.9227 87.7749 63.2515C87.4461 63.5803 87.0001 63.7651 86.5351 63.7651V63.7651Z" fill="#CCCCCC"/>
<path d="M125.295 63.7651H94.103C93.638 63.7651 93.192 63.5803 92.8632 63.2515C92.5343 62.9227 92.3496 62.4767 92.3496 62.0117C92.3496 61.5467 92.5343 61.1007 92.8632 60.7719C93.192 60.443 93.638 60.2583 94.103 60.2583H125.295C125.76 60.2583 126.206 60.443 126.535 60.7719C126.863 61.1007 127.048 61.5467 127.048 62.0117C127.048 62.4767 126.863 62.9227 126.535 63.2515C126.206 63.5803 125.76 63.7651 125.295 63.7651V63.7651Z" fill="#CCCCCC"/>
<path d="M125.294 70.4094H71.0317C70.5667 70.4094 70.1207 70.2247 69.7919 69.8959C69.463 69.567 69.2783 69.1211 69.2783 68.656C69.2783 68.191 69.463 67.745 69.7919 67.4162C70.1207 67.0874 70.5667 66.9026 71.0317 66.9026H125.294C125.759 66.9026 126.205 67.0874 126.534 67.4162C126.863 67.745 127.048 68.191 127.048 68.656C127.048 69.1211 126.863 69.567 126.534 69.8959C126.205 70.2247 125.759 70.4094 125.294 70.4094Z" fill="#CCCCCC"/>
<path d="M86.5359 57.0283H55.344C54.8793 57.0277 54.4339 56.8427 54.1056 56.5139C53.7772 56.1852 53.5928 55.7395 53.5928 55.2749C53.5928 54.8102 53.7772 54.3646 54.1056 54.0358C54.4339 53.707 54.8793 53.5221 55.344 53.5215H86.5359C86.7663 53.5212 86.9945 53.5663 87.2075 53.6543C87.4205 53.7423 87.614 53.8714 87.7771 54.0343C87.9401 54.1971 88.0695 54.3905 88.1577 54.6034C88.246 54.8162 88.2914 55.0444 88.2914 55.2749C88.2914 55.5053 88.246 55.7335 88.1577 55.9464C88.0695 56.1592 87.9401 56.3526 87.7771 56.5155C87.614 56.6783 87.4205 56.8074 87.2075 56.8954C86.9945 56.9834 86.7663 57.0285 86.5359 57.0283V57.0283Z" fill="#CCCCCC"/>
<path d="M103.7 57.1205H94.8403C94.3753 57.1205 93.9293 56.9358 93.6005 56.607C93.2716 56.2782 93.0869 55.8322 93.0869 55.3672C93.0869 54.9021 93.2716 54.4561 93.6005 54.1273C93.9293 53.7985 94.3753 53.6138 94.8403 53.6138H103.7C104.165 53.6138 104.611 53.7985 104.939 54.1273C105.268 54.4561 105.453 54.9021 105.453 55.3672C105.453 55.8322 105.268 56.2782 104.939 56.607C104.611 56.9358 104.165 57.1205 103.7 57.1205Z" fill="#CCCCCC"/>
<path d="M64.2032 70.4094H55.344C54.8793 70.4088 54.4339 70.2239 54.1056 69.8951C53.7772 69.5663 53.5928 69.1207 53.5928 68.656C53.5928 68.1914 53.7772 67.7457 54.1056 67.417C54.4339 67.0882 54.8793 66.9032 55.344 66.9027H64.2032C64.4337 66.9024 64.6619 66.9475 64.8749 67.0355C65.0879 67.1235 65.2814 67.2526 65.4444 67.4154C65.6075 67.5783 65.7369 67.7717 65.8251 67.9845C65.9134 68.1974 65.9588 68.4256 65.9588 68.656C65.9588 68.8865 65.9134 69.1147 65.8251 69.3275C65.7369 69.5404 65.6075 69.7338 65.4444 69.8966C65.2814 70.0595 65.0879 70.1886 64.8749 70.2766C64.6619 70.3646 64.4337 70.4097 64.2032 70.4094Z" fill="#CCCCCC"/>
<path d="M86.5351 125.984H55.3432C54.8782 125.984 54.4322 125.799 54.1034 125.471C53.7746 125.142 53.5898 124.696 53.5898 124.231C53.5898 123.766 53.7746 123.32 54.1034 122.991C54.4322 122.662 54.8782 122.477 55.3432 122.477H86.5351C86.7653 122.477 86.9933 122.523 87.2061 122.611C87.4188 122.699 87.6121 122.828 87.7749 122.991C87.9377 123.154 88.0669 123.347 88.155 123.56C88.2431 123.772 88.2885 124 88.2885 124.231C88.2885 124.461 88.2431 124.689 88.155 124.902C88.0669 125.114 87.9377 125.308 87.7749 125.471C87.6121 125.633 87.4188 125.763 87.2061 125.851C86.9933 125.939 86.7653 125.984 86.5351 125.984V125.984Z" fill="#CCCCCC"/>
<path d="M125.295 125.984H94.103C93.638 125.984 93.192 125.799 92.8632 125.471C92.5343 125.142 92.3496 124.696 92.3496 124.231C92.3496 123.766 92.5343 123.32 92.8632 122.991C93.192 122.662 93.638 122.477 94.103 122.477H125.295C125.525 122.477 125.753 122.523 125.966 122.611C126.179 122.699 126.372 122.828 126.535 122.991C126.697 123.154 126.827 123.347 126.915 123.56C127.003 123.772 127.048 124 127.048 124.231C127.048 124.461 127.003 124.689 126.915 124.902C126.827 125.114 126.697 125.308 126.535 125.471C126.372 125.633 126.179 125.763 125.966 125.851C125.753 125.939 125.525 125.984 125.295 125.984V125.984Z" fill="#CCCCCC"/>
<path d="M125.294 132.629H71.0317C70.5667 132.629 70.1207 132.444 69.7919 132.115C69.463 131.786 69.2783 131.34 69.2783 130.875C69.2783 130.41 69.463 129.964 69.7919 129.635C70.1207 129.307 70.5667 129.122 71.0317 129.122H125.294C125.525 129.122 125.753 129.167 125.966 129.255C126.179 129.343 126.373 129.472 126.536 129.635C126.699 129.797 126.828 129.991 126.916 130.204C127.005 130.417 127.05 130.645 127.05 130.875C127.05 131.106 127.005 131.334 126.916 131.547C126.828 131.76 126.699 131.953 126.536 132.116C126.373 132.279 126.179 132.408 125.966 132.496C125.753 132.584 125.525 132.629 125.294 132.629Z" fill="#CCCCCC"/>
<path d="M86.5351 119.247H55.3432C54.8782 119.247 54.4322 119.063 54.1034 118.734C53.7746 118.405 53.5898 117.959 53.5898 117.494C53.5898 117.029 53.7746 116.583 54.1034 116.254C54.4322 115.925 54.8782 115.741 55.3432 115.741H86.5351C87.0001 115.741 87.4461 115.925 87.7749 116.254C88.1037 116.583 88.2885 117.029 88.2885 117.494C88.2885 117.959 88.1037 118.405 87.7749 118.734C87.4461 119.063 87.0001 119.247 86.5351 119.247Z" fill="#CCCCCC"/>
<path d="M103.7 119.34H94.8403C94.3753 119.34 93.9293 119.155 93.6005 118.826C93.2716 118.497 93.0869 118.051 93.0869 117.586C93.0869 117.121 93.2716 116.675 93.6005 116.346C93.9293 116.018 94.3753 115.833 94.8403 115.833H103.7C104.165 115.833 104.611 116.018 104.939 116.346C105.268 116.675 105.453 117.121 105.453 117.586C105.453 118.051 105.268 118.497 104.939 118.826C104.611 119.155 104.165 119.34 103.7 119.34V119.34Z" fill="#CCCCCC"/>
<path d="M64.2024 132.629H55.3432C54.8782 132.629 54.4322 132.444 54.1034 132.115C53.7746 131.786 53.5898 131.34 53.5898 130.875C53.5898 130.41 53.7746 129.964 54.1034 129.635C54.4322 129.307 54.8782 129.122 55.3432 129.122H64.2024C64.4329 129.122 64.6611 129.167 64.8741 129.255C65.0871 129.343 65.2806 129.472 65.4437 129.635C65.6067 129.797 65.7361 129.991 65.8243 130.204C65.9126 130.417 65.958 130.645 65.958 130.875C65.958 131.106 65.9126 131.334 65.8243 131.547C65.7361 131.76 65.6067 131.953 65.4437 132.116C65.2806 132.279 65.0871 132.408 64.8741 132.496C64.6611 132.584 64.4329 132.629 64.2024 132.629Z" fill="#CCCCCC"/>
<path d="M78.3885 107.16C77.7265 107.162 77.0908 106.901 76.6198 106.436L64.8946 94.8579C64.6644 94.6306 64.4817 94.3599 64.3569 94.0614C64.2322 93.7629 64.168 93.4426 64.168 93.1191C64.168 92.7956 64.2322 92.4753 64.3569 92.1768C64.4817 91.8783 64.6644 91.6076 64.8946 91.3803L76.5724 79.8485C77.0589 79.3704 77.7143 79.1035 78.3964 79.1057C79.0785 79.1078 79.7322 79.3789 80.2157 79.86C80.6996 80.3451 80.9714 81.0022 80.9714 81.6874C80.9714 82.3726 80.6997 83.0298 80.2157 83.5148L71.5382 92.1926C71.2678 92.4636 71.116 92.8307 71.116 93.2135C71.116 93.5963 71.2678 93.9635 71.5382 94.2345L80.1687 102.865C80.5211 103.217 80.7612 103.665 80.8585 104.154C80.9559 104.642 80.906 105.148 80.7154 105.608C80.5247 106.068 80.2018 106.461 79.7876 106.737C79.3733 107.014 78.8864 107.161 78.3885 107.16V107.16Z" fill="#037BC4"/>
<path d="M97.0715 107.16C96.5736 107.161 96.0866 107.014 95.6724 106.737C95.2581 106.461 94.9352 106.068 94.7446 105.608C94.5539 105.148 94.5041 104.642 94.6015 104.153C94.6988 103.665 94.9389 103.217 95.2913 102.865L103.922 94.2344C104.192 93.9634 104.344 93.5962 104.344 93.2134C104.344 92.8306 104.192 92.4635 103.922 92.1925L95.2442 83.5147C95.0043 83.2747 94.8139 82.9898 94.684 82.6763C94.5541 82.3627 94.4873 82.0267 94.4873 81.6873C94.4873 81.3479 94.5542 81.0119 94.684 80.6983C94.8139 80.3848 95.0043 80.0999 95.2443 79.8599V79.8599C95.7278 79.3788 96.3815 79.1077 97.0636 79.1055C97.7457 79.1034 98.4011 79.3703 98.8876 79.8484L110.565 91.3801C110.796 91.6075 110.978 91.8782 111.103 92.1767C111.228 92.4752 111.292 92.7955 111.292 93.119C111.292 93.4425 111.228 93.7628 111.103 94.0613C110.978 94.3598 110.796 94.6305 110.565 94.8578L98.8402 106.436C98.3691 106.901 97.7334 107.161 97.0715 107.16Z" fill="#037BC4"/>
</svg>
