<svg width="25" height="28" viewBox="0 0 25 28" fill="none" xmlns="http://www.w3.org/2000/svg">
<g clip-path="url(#clip0)">
<path d="M17.8863 26.1098C17.8863 25.5397 17.9091 23.6522 17.9091 21.3035C17.9091 19.6582 17.3163 18.5822 16.678 18.0554C20.739 17.6235 24.9994 16.1394 24.9994 9.39615C24.9994 7.48078 24.2927 5.91429 23.1299 4.68622C23.3123 4.24314 23.9279 2.45825 22.9476 0.0404908C22.9476 0.0404908 21.4201 -0.429804 17.9547 1.84003C14.9684 1.05016 11.8216 1.05016 8.83527 1.84003C5.34424 -0.429804 3.81959 0.0404908 3.81959 0.0404908C2.83925 2.45825 3.45481 4.24314 3.66 4.68622C2.48944 5.91429 1.78268 7.47729 1.78268 9.39615C1.78268 16.1219 6.04031 17.6298 10.0906 18.0701C9.56909 18.5118 9.09959 19.2793 8.93857 20.4174C7.89554 20.866 5.25233 21.6413 3.62651 18.9576C3.62651 18.9576 2.66399 17.2711 0.83298 17.149C0.83298 17.149 -0.948156 17.1267 0.704738 18.2145C0.704738 18.2145 1.90451 18.7567 2.73381 20.7823C2.73381 20.7823 3.80249 24.1958 8.8773 23.1373C8.88514 24.6026 8.9001 25.705 8.9001 26.1216C8.90514 26.2716 8.86956 26.4201 8.79698 26.5522C8.72441 26.6844 8.61741 26.7953 8.48688 26.8738C11.699 27.8218 15.1248 27.8237 18.338 26.8794C18.0117 26.7217 17.8863 26.3965 17.8863 26.1098Z" fill="white"/>
</g>
<defs>
<clipPath id="clip0">
<rect width="25" height="27.5862" fill="white"/>
</clipPath>
</defs>
</svg>
