<svg width="40" height="40" viewBox="0 0 40 40" fill="none" xmlns="http://www.w3.org/2000/svg">
<g clip-path="url(#clip0)">
<path d="M36.9908 37V36.9986H36.9993V24.5291C36.9993 18.4289 35.686 13.7298 28.5545 13.7298C25.1262 13.7298 22.8255 15.6112 21.8863 17.3947H21.7871V14.2993H15.0254V36.9986H22.0662V25.7587C22.0662 22.7993 22.6272 19.9377 26.2921 19.9377C29.9032 19.9377 29.957 23.315 29.957 25.9486V37H36.9908Z" fill="#010C13"/>
<path d="M3.56055 14.3008H10.6099V37H3.56055V14.3008Z" fill="#010C13"/>
<path d="M7.08283 3C4.82892 3 3 4.82892 3 7.08283C3 9.33675 4.82892 11.2039 7.08283 11.2039C9.33675 11.2039 11.1657 9.33675 11.1657 7.08283C11.1642 4.82892 9.33533 3 7.08283 3V3Z" fill="#010C13"/>
</g>
<defs>
<clipPath id="clip0">
<rect width="34" height="34" fill="white" transform="translate(3 3)"/>
</clipPath>
</defs>
</svg>
