<svg width="30" height="30" viewBox="0 0 30 30" fill="none" xmlns="http://www.w3.org/2000/svg">
<g clip-path="url(#clip0)">
<path d="M27.7436 27.75V27.7489H27.7499V18.3968C27.7499 13.8217 26.765 10.2974 21.4164 10.2974C18.8451 10.2974 17.1196 11.7084 16.4152 13.0461H16.3408V10.7245H11.2695V27.7489H16.5501V19.3191C16.5501 17.0995 16.9709 14.9532 19.7196 14.9532C22.4279 14.9532 22.4683 17.4862 22.4683 19.4614V27.75H27.7436Z" fill="#010C13"/>
<path d="M2.66992 10.7256H7.95692V27.75H2.66992V10.7256Z" fill="#010C13"/>
<path d="M5.31213 2.25C3.62169 2.25 2.25 3.62169 2.25 5.31213C2.25 7.00256 3.62169 8.40294 5.31213 8.40294C7.00256 8.40294 8.37425 7.00256 8.37425 5.31213C8.37319 3.62169 7.0015 2.25 5.31213 2.25V2.25Z" fill="#010C13"/>
</g>
<defs>
<clipPath id="clip0">
<rect width="25.5" height="25.5" fill="white" transform="translate(2.25 2.25)"/>
</clipPath>
</defs>
</svg>
