<svg width="30" height="30" viewBox="0 0 30 30" fill="none" xmlns="http://www.w3.org/2000/svg">
<path d="M25.7038 18.9878C24.1426 18.9878 22.6097 18.7437 21.1571 18.2636C20.4453 18.0208 19.5702 18.2435 19.1358 18.6897L16.2686 20.8542C12.9434 19.0792 10.8952 17.0316 9.14448 13.7314L11.2452 10.9389C11.791 10.3939 11.9868 9.59765 11.7522 8.85058C11.2701 7.39031 11.0252 5.85812 11.0252 4.29624C11.0253 3.16793 10.1074 2.25 8.97913 2.25H4.29617C3.16793 2.25 2.25 3.16793 2.25 4.29618C2.25 17.2288 12.7712 27.75 25.7038 27.75C26.8321 27.75 27.75 26.8321 27.75 25.7038V21.0339C27.7499 19.9058 26.832 18.9878 25.7038 18.9878Z" fill="#010C13"/>
</svg>
