<svg width="40" height="40" viewBox="0 0 40 40" fill="none" xmlns="http://www.w3.org/2000/svg">
<path d="M20.3135 3C13.5238 3 8 8.52381 8 15.3135C8 23.7396 19.0194 36.1097 19.4886 36.6322C19.9292 37.123 20.6986 37.1222 21.1385 36.6322C21.6077 36.1097 32.6271 23.7396 32.6271 15.3135C32.6269 8.52381 27.1032 3 20.3135 3ZM20.3135 21.5087C16.8975 21.5087 14.1183 18.7295 14.1183 15.3135C14.1183 11.8974 16.8975 9.11828 20.3135 9.11828C23.7295 9.11828 26.5086 11.8975 26.5086 15.3135C26.5086 18.7296 23.7295 21.5087 20.3135 21.5087Z" fill="#010C13"/>
</svg>
