<svg width="180" height="180" viewBox="0 0 180 180" fill="none" xmlns="http://www.w3.org/2000/svg">
<path d="M90.1446 172.832C89.3382 172.826 88.5226 172.82 87.7215 172.795L87.7464 171.988C88.5391 172.012 89.3499 172.023 90.1448 172.024C90.9433 172.024 91.757 172.011 92.5642 171.985L92.5903 172.792C91.7742 172.819 90.9516 172.832 90.1446 172.832ZM82.8634 172.491C81.2546 172.338 79.6297 172.132 78.0343 171.877L78.1618 171.08C79.7402 171.331 81.3477 171.536 82.9396 171.686L82.8634 172.491ZM97.4478 172.482L97.3708 171.678C98.9621 171.525 100.569 171.319 102.148 171.065L102.276 171.863C100.681 172.12 99.0562 172.328 97.4478 172.482H97.4478ZM73.2541 170.955C71.6788 170.598 70.0939 170.185 68.5434 169.726L68.7725 168.951C70.3064 169.405 71.8744 169.814 73.4329 170.167L73.2541 170.955ZM107.055 170.935L106.876 170.147C108.438 169.791 110.005 169.38 111.535 168.926L111.765 169.701C110.219 170.16 108.634 170.575 107.055 170.935H107.055ZM63.9211 168.197C62.4011 167.638 60.8802 167.024 59.4008 166.369L59.7279 165.63C61.1914 166.277 62.6958 166.886 64.1997 167.438L63.9211 168.197ZM116.385 168.165L116.105 167.407C117.6 166.856 119.099 166.248 120.562 165.599L120.89 166.338C119.411 166.994 117.896 167.609 116.385 168.165H116.385ZM55.0093 164.254C53.5788 163.507 52.1503 162.702 50.7638 161.862L51.1829 161.17C52.5548 162.003 53.9679 162.799 55.3832 163.537L55.0093 164.254ZM125.269 164.224L124.895 163.508C126.307 162.77 127.717 161.974 129.085 161.142L129.505 161.833C128.121 162.673 126.696 163.478 125.269 164.224H125.269ZM46.6815 159.203C45.3566 158.278 44.0435 157.298 42.7784 156.289L43.2823 155.657C44.534 156.655 45.8333 157.625 47.144 158.54L46.6815 159.203ZM133.58 159.174L133.117 158.512C134.427 157.596 135.725 156.626 136.973 155.629L137.478 156.26C136.216 157.268 134.904 158.248 133.58 159.174V159.174ZM39.0696 153.132C37.872 152.044 36.6944 150.905 35.5704 149.746L36.1505 149.184C37.2627 150.33 38.4278 151.457 39.613 152.533L39.0696 153.132ZM141.183 153.104L140.639 152.505C141.821 151.432 142.985 150.304 144.099 149.154L144.679 149.716C143.554 150.878 142.377 152.018 141.183 153.104V153.104ZM32.2943 146.146C31.2456 144.916 30.2231 143.637 29.255 142.344L29.9019 141.86C30.8599 143.139 31.8714 144.405 32.9091 145.621L32.2943 146.146ZM147.955 146.112L147.34 145.588C148.377 144.371 149.389 143.104 150.347 141.823L150.994 142.307C150.026 143.601 149.004 144.882 147.955 146.112V146.112ZM26.4648 138.357C25.5807 137.003 24.7299 135.605 23.9359 134.202L24.6395 133.804C25.4248 135.192 26.2667 136.576 27.1416 137.915L26.4648 138.357ZM153.785 138.313L153.108 137.872C153.983 136.53 154.825 135.144 155.611 133.753L156.315 134.149C155.521 135.557 154.67 136.958 153.785 138.313V138.313ZM21.6791 129.893C20.9759 128.439 20.3116 126.944 19.7047 125.45L20.4533 125.146C21.0539 126.623 21.7111 128.102 22.4068 129.541L21.6791 129.893ZM158.572 129.83L157.845 129.479C158.54 128.038 159.197 126.555 159.799 125.07L160.548 125.373C159.94 126.874 159.275 128.374 158.572 129.83V129.83ZM18.0177 120.883C17.5065 119.348 17.0394 117.778 16.6294 116.216L17.4112 116.011C17.8166 117.556 18.2787 119.109 18.7844 120.627L18.0177 120.883ZM162.232 120.797L161.464 120.543C161.967 119.027 162.428 117.473 162.832 115.925L163.614 116.129C163.205 117.694 162.74 119.265 162.232 120.797V120.797ZM15.5452 111.47C15.2365 109.885 14.9752 108.268 14.7686 106.665L15.5701 106.561C15.7745 108.148 16.033 109.747 16.3384 111.316L15.5452 111.47ZM164.693 111.381L163.9 111.228C164.203 109.66 164.46 108.06 164.662 106.472L165.464 106.575C165.259 108.179 164.999 109.797 164.693 111.381V111.381ZM14.3014 101.819C14.1978 100.209 14.1444 98.5714 14.1426 96.9531L14.9507 96.9523C14.9525 98.5536 15.0054 100.174 15.108 101.767L14.3014 101.819ZM165.926 101.729L165.119 101.678C165.22 100.086 165.27 98.4656 165.27 96.8639L165.27 96.6867H166.078L166.079 96.8611C166.079 98.4826 166.027 100.119 165.926 101.729ZM15.0968 92.138L14.2902 92.0883C14.3904 90.4743 14.5437 88.8438 14.7459 87.2416L15.5478 87.3426C15.3475 88.9282 15.1958 90.5414 15.0968 92.138ZM165.108 91.8728C165.003 90.2754 164.845 88.6626 164.64 87.0794L165.441 86.9752C165.649 88.5754 165.808 90.2052 165.914 91.8199L165.108 91.8728ZM16.3047 82.5867L15.5111 82.434C15.816 80.8479 16.1771 79.2503 16.5839 77.6856L17.366 77.8888C16.9635 79.4369 16.6064 81.0173 16.3047 82.5867ZM163.865 82.3261C163.557 80.7559 163.194 79.1767 162.787 77.6319L163.568 77.426C163.98 78.9873 164.347 80.5835 164.658 82.1706L163.865 82.3261ZM18.7286 73.2691L17.9611 73.0157C18.4683 71.4801 19.033 69.9397 19.6398 68.4372L20.3891 68.7399C19.7889 70.2262 19.2303 71.75 18.7286 73.2691ZM161.409 73.0171C160.902 71.5002 160.339 69.9808 159.735 68.5008L160.483 68.1957C161.093 69.6917 161.663 71.2275 162.175 72.7606L161.409 73.0171ZM22.3385 64.3281L21.6101 63.9777C22.3111 62.5203 23.0692 61.0662 23.8629 59.6558L24.5673 60.0524C23.7818 61.4476 23.0321 62.8862 22.3385 64.3281ZM157.777 64.1077C157.081 62.6727 156.328 61.2394 155.539 59.8478L156.242 59.4492C157.04 60.8557 157.8 62.3045 158.504 63.7553L157.777 64.1077ZM27.0652 55.9293L26.3877 55.4885C27.2691 54.1338 28.2065 52.7892 29.1737 51.4923L29.8216 51.9753C28.8647 53.2585 27.9371 54.5888 27.0652 55.9293ZM153.032 55.7391C152.157 54.4035 151.227 53.0774 150.267 51.7977L150.913 51.3127C151.884 52.6062 152.824 53.9466 153.708 55.2963L153.032 55.7391ZM32.8242 48.2065L32.2086 47.6832C33.2554 46.4518 34.3557 45.238 35.4792 44.0757L36.0605 44.6372C34.9489 45.7873 33.8601 46.9883 32.8242 48.2065ZM147.255 48.04C146.216 46.8251 145.124 45.6277 144.009 44.4809L144.589 43.9178C145.715 45.0766 146.819 46.2869 147.869 47.5147L147.255 48.04ZM39.5167 41.2816L38.9725 40.6841C40.1684 39.5948 41.4138 38.5311 42.6738 37.5229L43.1789 38.1539C41.9322 39.1515 40.7 40.2039 39.5167 41.2816V41.2816ZM140.543 41.135C139.358 40.0622 138.122 39.0129 136.87 38.0165L137.373 37.384C138.639 38.3912 139.888 39.4516 141.085 40.536L140.543 41.135ZM47.0322 35.2663L46.5685 34.6045C47.8909 33.6778 49.261 32.7818 50.6407 31.9412L51.0612 32.6314C49.6962 33.4631 48.3405 34.3496 47.0322 35.2663ZM133.005 35.1376C131.689 34.2219 130.329 33.3384 128.963 32.5115L129.381 31.8201C130.762 32.6557 132.137 33.5487 133.466 34.4743L133.005 35.1376ZM55.2488 30.2606L54.8736 29.5448C56.3023 28.7954 57.775 28.0823 59.2502 27.4255L59.5789 28.1638C58.1193 28.8135 56.6625 29.5191 55.2488 30.2606ZM124.76 30.1497C123.34 29.411 121.878 28.7088 120.413 28.0624L120.739 27.3229C122.22 27.9762 123.698 28.6861 125.133 29.4327L124.76 30.1497ZM64.0331 26.3509L63.7526 25.5929C65.2679 25.0323 66.8217 24.5138 68.371 24.0519L68.6018 24.8265C67.0691 25.2833 65.5321 25.7963 64.0332 26.3509H64.0331ZM115.939 26.2592C114.437 25.7097 112.898 25.2022 111.364 24.7512L111.593 23.9757C113.142 24.4317 114.698 24.9447 116.216 25.5003L115.939 26.2592ZM73.2593 23.6003L73.0789 22.8126C74.6513 22.4523 76.2587 22.1384 77.8567 21.879L77.9861 22.6769C76.4051 22.9334 74.8148 23.2439 73.2593 23.6003ZM106.702 23.5415C105.144 23.1903 103.553 22.8852 101.972 22.6346L102.099 21.8363C103.696 22.0897 105.305 22.3981 106.88 22.753L106.702 23.5415ZM82.7626 22.0583L82.6844 21.2541C84.2889 21.0984 85.9232 20.9921 87.5418 20.9382L87.5686 21.746C85.967 21.7993 84.3501 21.9044 82.7626 22.0583V22.0583ZM97.1936 22.0333C95.6037 21.8847 93.9862 21.7852 92.3866 21.7377L92.4107 20.9299C94.0272 20.9781 95.6619 21.0785 97.2688 21.2286L97.1936 22.0333Z" fill="#D0CDE1"/>
<path d="M137.339 173.165C147.828 173.165 156.331 164.662 156.331 154.173C156.331 143.684 147.828 135.181 137.339 135.181C126.85 135.181 118.347 143.684 118.347 154.173C118.347 164.662 126.85 173.165 137.339 173.165Z" fill="#037BC4"/>
<path d="M134.411 141.637C131.935 141.637 129.922 143.65 129.922 146.126C129.922 147.479 130.526 148.691 131.476 149.515C130.066 150.273 129.105 151.762 129.105 153.471C129.105 154.99 129.866 156.331 131.023 157.144C129.866 157.957 129.105 159.298 129.105 160.817C129.105 163.292 131.119 165.306 133.594 165.306C136.07 165.306 138.083 163.292 138.083 160.817V156.328V150.615H140.94C143.416 150.615 145.429 148.601 145.429 146.126C145.429 143.65 143.416 141.637 140.94 141.637H134.411ZM134.411 143.269H140.94C142.515 143.269 143.797 144.55 143.797 146.126C143.797 147.701 142.515 148.982 140.94 148.982H138.083H134.411C132.835 148.982 131.554 147.701 131.554 146.126C131.554 144.55 132.835 143.269 134.411 143.269ZM133.594 150.615H134.411H136.451V156.328H133.594C132.019 156.328 130.738 155.046 130.738 153.471C130.738 151.896 132.019 150.615 133.594 150.615ZM141.348 150.615C140.482 150.615 139.652 150.959 139.04 151.571C138.427 152.183 138.083 153.013 138.083 153.879C138.083 154.745 138.427 155.576 139.04 156.188C139.652 156.8 140.482 157.144 141.348 157.144C142.214 157.144 143.044 156.8 143.657 156.188C144.269 155.576 144.613 154.745 144.613 153.879C144.613 153.013 144.269 152.183 143.657 151.571C143.044 150.959 142.214 150.615 141.348 150.615V150.615ZM133.594 157.96H136.451V160.817C136.451 162.392 135.17 163.673 133.594 163.673C132.019 163.673 130.738 162.392 130.738 160.817C130.738 159.242 132.019 157.96 133.594 157.96Z" fill="white"/>
<path d="M45.8885 175.317C56.3775 175.317 64.8805 166.814 64.8805 156.325C64.8805 145.836 56.3775 137.333 45.8885 137.333C35.3995 137.333 26.8965 145.836 26.8965 156.325C26.8965 166.814 35.3995 175.317 45.8885 175.317Z" fill="#037BC4"/>
<path d="M51.7277 162.657C50.5993 162.657 49.1559 162.154 48.456 161.734L47.7803 164.453C48.7032 164.956 50.1291 165.306 51.7277 165.306C55.2205 165.306 57.0247 163.633 57.0247 161.352C56.9985 159.556 56.0252 158.377 53.7004 157.584C52.2067 157.054 51.7364 156.755 51.7364 156.182C51.7364 155.558 52.257 155.182 53.1799 155.182C54.2297 155.182 55.2728 155.585 55.8282 155.884L56.5019 153.26C55.7517 152.884 54.479 152.56 53.0508 152.56C50.0283 152.56 48.0797 154.285 48.0797 156.558C48.0535 158.01 49.0268 159.386 51.5571 160.232C52.9742 160.711 53.3504 161.008 53.3504 161.632C53.3505 162.257 52.8715 162.657 51.7277 162.657Z" fill="white"/>
<path d="M39.2722 159.036C39.6221 159.086 40.0749 159.103 40.569 159.103C42.8173 159.103 44.7463 158.557 46.0366 157.336C47.0449 156.387 47.5915 154.985 47.5915 153.339C47.5915 151.689 46.8742 150.288 45.7895 149.441C44.6697 148.536 42.9967 148.092 40.6456 148.092C38.323 148.092 36.6741 148.245 35.5039 148.442V165.059H39.2722V159.036H39.2722ZM39.2788 151.117C39.5456 151.04 40.075 150.963 40.8426 150.963C42.7474 150.963 43.8169 151.884 43.8255 153.43C43.8255 155.158 42.568 156.182 40.545 156.182C39.9983 156.182 39.6047 156.158 39.2788 156.088V151.117V151.117Z" fill="white"/>
<path d="M161.008 93.5503C171.497 93.5503 180 85.0473 180 74.5583C180 64.0693 171.497 55.5663 161.008 55.5663C150.519 55.5663 142.016 64.0693 142.016 74.5583C142.016 85.0473 150.519 93.5503 161.008 93.5503Z" fill="#037BC4"/>
<path d="M168.842 64.1762C168.709 64.1655 168.577 64.1848 168.483 64.2319C168.292 64.3282 168.2 64.448 168.108 64.5786C167.924 64.8397 167.763 65.1886 167.556 65.7215C166.689 67.9432 164.121 69.5742 161.505 70.1135C160.981 69.8075 160.373 69.6298 159.724 69.6298C158.864 69.6298 158.074 69.938 157.458 70.4496C155.148 70.2612 153.331 67.6821 153.331 67.6821L152.327 66.1753V71.4684C152.105 71.783 151.942 72.1426 151.854 72.53C151.55 72.3202 151.236 72.1426 150.91 72.0248C150.499 71.875 150.069 71.8022 149.652 71.8279C149.232 71.8536 148.83 71.9756 148.47 72.2132C147.755 72.6905 147.409 73.5188 147.396 74.3814C147.383 75.2439 147.683 76.1728 148.269 77.0076C148.858 77.8423 149.635 78.4437 150.457 78.7412C150.827 78.8761 151.212 78.9424 151.589 78.9381C152.336 79.5203 153.502 80.2908 154.671 80.8024C157.139 81.8811 159.553 82.3969 161.747 82.1872C163.119 82.0545 164.403 81.6285 165.533 80.888C165.711 80.9822 165.888 81.0742 166.066 81.1534C167.515 81.8169 168.864 82.2578 169.876 82.4526C169.859 82.7544 169.891 83.0776 169.991 83.4072C170.255 84.2612 171.055 84.6935 171.721 85.0124C172.389 85.3313 173.003 85.5004 173.003 85.5004L173.696 85.6909V84.9718C173.696 84.9718 173.699 84.259 173.63 83.465C173.596 83.0669 173.547 82.6473 173.463 82.2685C173.38 81.8897 173.307 81.5515 173.022 81.2454C172.684 80.8773 172.258 80.6718 171.832 80.6204C171.406 80.5669 170.982 80.6675 170.649 80.9115C170.625 80.9265 170.608 80.9479 170.589 80.965C169.85 80.385 168.748 79.7279 167.462 79.1136C168.921 77.2537 169.495 74.422 169.73 71.8172C169.968 69.1675 169.833 66.7767 169.713 65.85C169.675 65.5696 169.638 65.2913 169.583 65.0409C169.527 64.7905 169.542 64.5551 169.193 64.2918C169.105 64.2254 168.975 64.1869 168.842 64.1762ZM168.628 66.0126C168.729 66.8024 168.868 69.1782 168.639 71.7188C168.408 74.2701 167.778 77.0011 166.537 78.5208C166.501 78.5636 166.462 78.6 166.428 78.6428C165.903 78.4223 165.396 78.2297 164.921 78.0692C165.017 76.9947 163.286 76.2049 163.286 76.2049C163.286 76.2049 163.759 76.8577 163.759 77.4891C163.759 78.7562 157.259 78.3966 157.259 78.3966C157.259 78.3966 160.908 79.7365 163.17 79.4411C163.547 79.7022 163.975 79.9869 164.435 80.2694C163.59 80.7253 162.657 80.9971 161.642 81.0935C159.694 81.2818 157.453 80.8238 155.11 79.7986C154.356 79.4689 153.556 78.9831 152.909 78.5422C153.616 78.0627 153.958 77.2408 153.971 76.3847C153.973 76.2841 153.969 76.1835 153.962 76.0829C154.228 76.1578 154.504 76.2049 154.793 76.2049C155.608 76.2049 156.351 75.8753 156.897 75.3445C157.548 76.1985 158.573 76.7529 159.724 76.7529C161.685 76.7529 163.286 75.1519 163.286 73.1913C163.286 72.3673 162.999 71.6096 162.526 71.0039C165.148 70.2698 167.616 68.5875 168.577 66.1196C168.598 66.0619 168.605 66.0661 168.628 66.0126ZM153.423 69.4329C153.659 69.694 153.932 69.968 154.243 70.2291C153.952 70.2847 153.678 70.3811 153.423 70.5116V69.4329ZM159.724 70.7257C161.092 70.7257 162.19 71.8237 162.19 73.1913C162.19 73.3454 162.173 73.4953 162.145 73.6429C161.976 72.9131 161.325 72.3694 160.546 72.3694C160.499 72.3694 160.456 72.3801 160.409 72.3844C160.799 72.4486 161.094 72.7847 161.094 73.1913C161.094 73.6451 160.726 74.0132 160.272 74.0132C159.818 74.0132 159.45 73.6451 159.45 73.1913C159.45 72.9687 159.54 72.7675 159.684 72.6199C159.217 72.9088 158.902 73.4225 158.902 74.0132C158.902 74.7923 159.446 75.443 160.176 75.6121C160.028 75.6399 159.878 75.657 159.724 75.657C158.357 75.657 157.259 74.559 157.259 73.1913C157.259 71.8237 158.357 70.7257 159.724 70.7257ZM154.793 71.2736C155.437 71.2736 156 71.5882 156.349 72.0698C156.283 72.2667 156.233 72.4722 156.203 72.6841C155.968 72.4893 155.67 72.3694 155.341 72.3694C155.302 72.3694 155.266 72.378 155.227 72.3801C155.551 72.4358 155.797 72.7162 155.797 73.0543C155.797 73.4332 155.491 73.7393 155.112 73.7393C154.735 73.7393 154.427 73.4332 154.427 73.0543C154.427 72.8681 154.502 72.7012 154.622 72.577C154.232 72.8189 153.971 73.247 153.971 73.7393C153.971 74.4092 154.453 74.9657 155.09 75.0834C154.992 75.0984 154.894 75.1091 154.793 75.1091C154.373 75.1091 153.99 74.9764 153.674 74.7495L153.665 74.7431L153.661 74.7388H153.659C153.65 74.7324 153.641 74.7238 153.629 74.7152C153.62 74.7088 153.618 74.7088 153.609 74.7024C153.472 74.3814 153.312 74.0624 153.098 73.7585C153.04 73.6772 152.974 73.6108 152.914 73.5338C152.894 73.4225 152.875 73.309 152.875 73.1913C152.875 72.1254 153.727 71.2736 154.793 71.2736ZM149.729 72.9174C149.975 72.9045 150.247 72.9473 150.538 73.0543C151.118 73.2641 151.734 73.7264 152.201 74.3899C152.668 75.0513 152.884 75.7747 152.875 76.3676C152.867 76.9626 152.657 77.395 152.287 77.6411C151.918 77.8872 151.409 77.9236 150.829 77.7117C150.249 77.502 149.633 77.0397 149.166 76.3762C148.699 75.7148 148.483 74.9914 148.492 74.3985C148.492 74.3878 148.494 74.3792 148.496 74.3707C148.53 75.0919 149.01 75.657 149.588 75.657C150.193 75.657 150.683 75.0427 150.683 74.2872C150.683 73.583 150.258 72.9944 149.699 72.9238C149.71 72.9238 149.718 72.9195 149.729 72.9174ZM171.706 81.6692C171.858 81.6885 172.027 81.7826 172.22 81.9903C172.202 81.9731 172.327 82.1979 172.393 82.4997C172.459 82.8036 172.506 83.1888 172.538 83.557C172.566 83.8759 172.556 83.9208 172.566 84.167C172.401 84.1028 172.387 84.1156 172.196 84.0236C171.629 83.7539 171.113 83.3237 171.04 83.0861C170.826 82.3991 171.045 81.9796 171.293 81.7976C171.417 81.7077 171.554 81.6521 171.706 81.6692Z" fill="white"/>
<path d="M89.9998 42.9841C100.489 42.9841 108.992 34.481 108.992 23.992C108.992 13.503 100.489 5 89.9998 5C79.5108 5 71.0078 13.503 71.0078 23.992C71.0078 34.481 79.5108 42.9841 89.9998 42.9841Z" fill="#037BC4"/>
<path d="M90.735 17.2417H87.7022L84.1198 22.6153L80.517 17.2417H77.4639L82.6136 24.5693L77.6268 31.6934H80.68L84.1198 26.5233L87.5393 31.6934H90.5721L85.5853 24.5693L90.735 17.2417Z" fill="white"/>
<path d="M101.746 28.5588V16.8346H99.0189V22.9002C98.6659 22.2896 97.5587 20.8444 95.4163 20.8444C92.8871 20.8444 90.6533 23.0427 90.6533 26.3605C90.6533 29.2869 92.5903 31.8969 95.7217 31.8969C97.8591 31.8969 99.0324 30.5198 99.426 29.8411C99.426 29.8411 99.2477 31.8358 101.217 31.8358C101.515 31.8358 101.902 31.7882 102.377 31.6933V29.3729C102.147 29.3595 101.746 28.8437 101.746 28.5588ZM99.019 27.7853C98.9239 28.0432 98.1455 29.5765 96.4341 29.5765C94.6257 29.5765 93.4827 27.9759 93.4827 26.4215C93.4827 25.0075 94.4138 23.1648 96.2712 23.1648C97.9333 23.1648 98.9103 24.9426 99.019 25.241V27.7853Z" fill="white"/>
<path d="M18.992 93.5503C29.481 93.5503 37.9841 85.0473 37.9841 74.5583C37.9841 64.0693 29.481 55.5663 18.992 55.5663C8.50302 55.5663 0 64.0693 0 74.5583C0 85.0473 8.50302 93.5503 18.992 93.5503Z" fill="#037BC4"/>
<path d="M13.6658 79.3004H18.3953L19.6734 83.539H23.6881L18.5638 67.0109H13.6659L8.60645 83.539H12.4817L13.6658 79.3004ZM15.9403 69.8029H15.9884C16.2315 70.7922 17.8586 76.4988 17.8586 76.4988H14.2001C14.2001 76.4988 15.6948 70.7922 15.9403 69.8029Z" fill="white"/>
<path d="M28.8804 71.5527H25.1475V83.5391H28.8804V71.5527Z" fill="white"/>
<path d="M26.9899 70.0775C28.2223 70.0775 29.002 69.2398 29.002 68.2146C28.9733 67.1338 28.2223 66.3251 27.0188 66.3251C25.8154 66.3251 25.0259 67.1338 25.0524 68.2146C25.0259 69.2398 25.8154 70.0775 26.9899 70.0775Z" fill="white"/>
</svg>
