<svg width="30" height="30" viewBox="0 0 30 30" fill="none" xmlns="http://www.w3.org/2000/svg">
<path d="M19.6426 15.1927L29.2504 21.2666V8.86227L19.6426 15.1927Z" fill="#010C13"/>
<path d="M0.75 8.86227V21.2666L10.3579 15.1927L0.75 8.86227Z" fill="#010C13"/>
<path d="M27.4675 5.25H2.53051C1.64168 5.25 0.936325 5.91261 0.802734 6.76581L14.999 16.119L29.1952 6.76581C29.0616 5.91261 28.3563 5.25 27.4675 5.25Z" fill="#010C13"/>
<path d="M18.0096 16.2686L15.4892 17.9287C15.3395 18.0267 15.1703 18.0747 14.9993 18.0747C14.8283 18.0747 14.6591 18.0267 14.5095 17.9287L11.9891 16.2668L0.806641 23.34C0.943794 24.1861 1.64559 24.8433 2.53085 24.8433H27.4678C28.3531 24.8433 29.0549 24.1861 29.192 23.34L18.0096 16.2686Z" fill="#010C13"/>
</svg>
