<svg width="30" height="30" viewBox="0 0 30 30" fill="none" xmlns="http://www.w3.org/2000/svg">
<path d="M15.2351 2.25C10.1429 2.25 6 6.39286 6 11.4851C6 17.8047 14.2646 27.0823 14.6164 27.4742C14.9469 27.8423 15.524 27.8416 15.8539 27.4742C16.2057 27.0823 24.4703 17.8047 24.4703 11.4851C24.4702 6.39286 20.3274 2.25 15.2351 2.25ZM15.2351 16.1315C12.6731 16.1315 10.5888 14.0472 10.5888 11.4851C10.5888 8.92304 12.6731 6.83871 15.2351 6.83871C17.7972 6.83871 19.8815 8.92309 19.8815 11.4851C19.8815 14.0472 17.7972 16.1315 15.2351 16.1315Z" fill="#010C13"/>
</svg>
