<svg width="40" height="40" viewBox="0 0 40 40" fill="none" xmlns="http://www.w3.org/2000/svg">
<path d="M26.1895 20.2569L38.9999 28.3555V11.8164L26.1895 20.2569Z" fill="#010C13"/>
<path d="M1 11.8164V28.3555L13.8105 20.2569L1 11.8164Z" fill="#010C13"/>
<path d="M36.6252 7H3.37597C2.19087 7 1.25039 7.88348 1.07227 9.02108L20.0006 21.4919L38.9289 9.02108C38.7508 7.88348 37.8103 7 36.6252 7Z" fill="#010C13"/>
<path d="M24.0134 21.6915L20.6529 23.9049C20.4534 24.0356 20.2278 24.0997 19.9998 24.0997C19.7718 24.0997 19.5461 24.0356 19.3467 23.9049L15.9861 21.6891L1.07617 31.12C1.25904 32.2481 2.19477 33.1245 3.37512 33.1245H36.6244C37.8048 33.1245 38.7405 32.2481 38.9234 31.12L24.0134 21.6915Z" fill="#010C13"/>
</svg>
