<svg width="180" height="180" viewBox="0 0 180 180" fill="none" xmlns="http://www.w3.org/2000/svg">
<path d="M180 142.652H0V37H180V142.652ZM0.547748 141.868H179.452V37.7846H0.547748V141.868Z" fill="#002A44"/>
<path d="M77.0049 89.5311H99.0596C99.2124 89.5259 99.3572 89.4614 99.4634 89.3515C99.5696 89.2415 99.629 89.0946 99.629 88.9417C99.629 88.7888 99.5696 88.6419 99.4634 88.532C99.3572 88.422 99.2124 88.3576 99.0596 88.3523H77.0049C76.8521 88.3576 76.7073 88.422 76.6011 88.532C76.4949 88.6419 76.4355 88.7888 76.4355 88.9417C76.4355 89.0946 76.4949 89.2415 76.6011 89.3515C76.7073 89.4614 76.8521 89.5259 77.0049 89.5311V89.5311Z" fill="#E6E6E6"/>
<path d="M98.4865 83.9703L101.932 87.1155C102.326 87.4752 103.41 88.2178 103.655 88.6881C104.161 89.6605 103.617 89.4386 102.75 89.7756C100.618 90.6238 98.6541 91.8435 96.9486 93.378C96.3783 93.8805 97.2146 94.7116 97.7822 94.2115C99.3376 92.8135 101.125 91.6971 103.063 90.9123C103.758 90.6373 105.077 90.4763 105.408 89.6483C105.812 88.6349 104.524 87.8871 103.914 87.3303L99.3201 83.1367C98.7607 82.6262 97.9247 83.4575 98.4865 83.9703L98.4865 83.9703Z" fill="#E6E6E6"/>
<path d="M79.543 75.7508H95.7732C96.8808 69.3478 96.8808 62.8022 95.7732 56.3993H79.543C81.3714 62.7202 81.3714 69.4298 79.543 75.7508V75.7508Z" fill="#037BC4"/>
<path d="M28.1603 107.547V59.7852L23.8379 58.8217V111.87L56.4527 111.536L56.3427 107.259L28.1603 107.547Z" fill="#F2F2F2"/>
<path d="M60.3819 115.859H21.0869V52.5939H60.3819V115.859ZM21.8728 115.073H59.596V53.3798H21.8728V115.073Z" fill="#002A44"/>
<path d="M30.9876 56.5234H24.623V57.3093H30.9876V56.5234Z" fill="#002A44"/>
<path d="M30.9876 58.488H24.623V59.2739H30.9876V58.488Z" fill="#002A44"/>
<path d="M30.9876 60.4529H24.623V61.2388H30.9876V60.4529Z" fill="#002A44"/>
<path d="M54.9575 94.2465H27.7666V95.0324H54.9575V94.2465Z" fill="#002A44"/>
<path d="M54.9575 98.569H27.7666V99.3549H54.9575V98.569Z" fill="#002A44"/>
<path d="M54.9575 102.891H27.7666V103.677H54.9575V102.891Z" fill="#002A44"/>
<path d="M54.4879 61.6318C53.9439 61.6318 53.4121 61.4705 52.9598 61.1682C52.5074 60.866 52.1549 60.4364 51.9467 59.9338C51.7385 59.4312 51.684 58.8781 51.7902 58.3445C51.8963 57.8109 52.1583 57.3208 52.5429 56.9361C52.9276 56.5515 53.4177 56.2895 53.9513 56.1833C54.4849 56.0772 55.038 56.1317 55.5406 56.3399C56.0432 56.5481 56.4728 56.9006 56.775 57.353C57.0773 57.8053 57.2386 58.3371 57.2386 58.8811C57.2378 59.6104 56.9477 60.3096 56.4321 60.8252C55.9164 61.3409 55.2172 61.631 54.4879 61.6318ZM54.4879 56.9164C54.0994 56.9164 53.7195 57.0316 53.3964 57.2475C53.0733 57.4634 52.8215 57.7703 52.6728 58.1293C52.5241 58.4883 52.4851 58.8833 52.561 59.2644C52.6368 59.6456 52.8239 59.9957 53.0987 60.2704C53.3734 60.5452 53.7235 60.7323 54.1047 60.8081C54.4858 60.884 54.8808 60.845 55.2398 60.6963C55.5988 60.5476 55.9057 60.2958 56.1216 59.9727C56.3375 59.6496 56.4527 59.2697 56.4527 58.8811C56.4521 58.3602 56.2449 57.8608 55.8766 57.4925C55.5082 57.1242 55.0088 56.917 54.4879 56.9164V56.9164Z" fill="#002A44"/>
<path d="M55.2735 85.2088H27.374V67.1331H55.2735V85.2088ZM28.1599 84.4229H54.4876V67.919H28.1599V84.4229Z" fill="#002A44"/>
<path d="M27.9792 67.1947L27.5566 67.8574L54.6703 85.1474L55.0928 84.4847L27.9792 67.1947Z" fill="#002A44"/>
<path d="M54.6694 67.1949L27.5557 84.4844L27.9782 85.1471L55.092 67.8576L54.6694 67.1949Z" fill="#002A44"/>
<path d="M127.969 107.547V59.7852L123.646 58.8217V111.87L156.261 111.536L156.151 107.259L127.969 107.547Z" fill="#F2F2F2"/>
<path d="M160.584 115.073H121.289V51.808H160.584V115.073ZM122.075 114.287H159.798V52.5939H122.075V114.287Z" fill="#002A44"/>
<path d="M131.19 55.7374H124.825V56.5233H131.19V55.7374Z" fill="#002A44"/>
<path d="M131.19 57.7021H124.825V58.488H131.19V57.7021Z" fill="#002A44"/>
<path d="M131.19 59.667H124.825V60.4529H131.19V59.667Z" fill="#002A44"/>
<path d="M154.69 60.8458C154.146 60.8458 153.614 60.6845 153.162 60.3822C152.71 60.08 152.357 59.6504 152.149 59.1478C151.941 58.6451 151.886 58.0921 151.992 57.5585C152.098 57.0249 152.36 56.5348 152.745 56.1501C153.13 55.7654 153.62 55.5035 154.153 55.3973C154.687 55.2912 155.24 55.3457 155.743 55.5539C156.245 55.7621 156.675 56.1146 156.977 56.567C157.279 57.0193 157.441 57.5511 157.441 58.0951C157.44 58.8244 157.15 59.5236 156.634 60.0392C156.119 60.5549 155.419 60.845 154.69 60.8458ZM154.69 56.1304C154.302 56.1304 153.922 56.2456 153.599 56.4615C153.275 56.6774 153.024 56.9842 152.875 57.3433C152.726 57.7023 152.687 58.0973 152.763 58.4784C152.839 58.8596 153.026 59.2096 153.301 59.4844C153.576 59.7592 153.926 59.9463 154.307 60.0221C154.688 60.0979 155.083 60.059 155.442 59.9103C155.801 59.7616 156.108 59.5098 156.324 59.1867C156.54 58.8636 156.655 58.4837 156.655 58.0951C156.654 57.5742 156.447 57.0748 156.079 56.7065C155.71 56.3382 155.211 56.131 154.69 56.1304V56.1304Z" fill="#002A44"/>
<path d="M155.476 84.4229H127.576V66.3472H155.476V84.4229ZM128.362 83.637H154.69V67.1331H128.362V83.637Z" fill="#002A44"/>
<path d="M128.18 66.4087L127.758 67.0714L154.871 84.3612L155.294 83.6985L128.18 66.4087Z" fill="#002A44"/>
<path d="M154.872 66.4102L127.757 83.6969L128.179 84.3596L155.295 67.0729L154.872 66.4102Z" fill="#002A44"/>
<path d="M155.476 108H127.576V89.9241H155.476V108ZM128.362 107.214H154.69V90.71H128.362V107.214Z" fill="#002A44"/>
<path d="M128.18 89.9858L127.758 90.6484L154.871 107.938L155.294 107.276L128.18 89.9858Z" fill="#002A44"/>
<path d="M154.872 89.9872L127.757 107.274L128.179 107.937L155.295 90.6499L154.872 89.9872Z" fill="#002A44"/>
<path d="M34.7461 128.013H50.9764C52.084 121.61 52.084 115.065 50.9764 108.662H34.7461C36.5746 114.982 36.5746 121.692 34.7461 128.013V128.013Z" fill="#037BC4"/>
</svg>
