<svg width="225" height="160" viewBox="0 0 225 160" fill="none" xmlns="http://www.w3.org/2000/svg">
<path d="M84.6411 158.78C80.0798 159.452 75.4636 159.675 70.8587 159.446C59.7553 158.885 48.8354 155.655 39.5033 149.584C35.3657 146.891 31.4187 143.583 29.2769 139.14C26.3701 133.105 27.3867 125.466 31.5377 120.21C33.0518 118.314 34.9143 116.725 37.0249 115.529C37.3376 115.352 37.6572 115.182 37.9802 115.019C41.497 113.25 45.4471 112.527 49.3624 112.935C56.0189 113.662 62.1623 117.728 65.7115 123.409C68.8732 128.475 69.9748 134.451 70.6242 140.442C70.7465 141.57 70.8519 142.703 70.9539 143.828C70.3882 147.088 69.4987 150.284 68.2987 153.367C68.2376 153.518 68.1877 153.672 68.1491 153.83C68.8291 155.305 69.4761 156.794 70.0903 158.297C70.6674 158.61 71.3138 158.774 71.9705 158.773H84.6139L84.6411 158.78Z" fill="#F2F2F2"/>
<path d="M69.8281 159.069C69.7443 159.106 69.6539 159.127 69.5621 159.129C69.4704 159.131 69.3791 159.115 69.2937 159.081C69.2082 159.048 69.1303 158.997 69.0645 158.933C68.9987 158.869 68.9463 158.793 68.9103 158.709C68.8559 158.579 68.8049 158.45 68.7505 158.321C68.2609 157.131 67.7476 155.953 67.2105 154.785C60.3335 139.723 50.076 126.449 37.2351 115.995C37.1615 115.943 37.1032 115.873 37.0661 115.791C37.0291 115.709 37.0147 115.618 37.0245 115.529C37.0431 115.426 37.0847 115.33 37.146 115.245C37.2074 115.161 37.287 115.092 37.3789 115.043C37.4708 114.994 37.5725 114.966 37.6766 114.962C37.7806 114.958 37.8843 114.977 37.9798 115.019C38.031 115.042 38.079 115.072 38.1226 115.107C43.6165 119.582 48.6564 124.587 53.1696 130.049C57.6837 135.506 61.6584 141.388 65.038 147.612C65.9593 149.312 66.8341 151.035 67.6625 152.783C67.8258 153.13 67.989 153.48 68.1487 153.83C68.8286 155.305 69.4757 156.795 70.0899 158.297C70.1002 158.321 70.1104 158.348 70.1206 158.372C70.1519 158.436 70.1691 158.507 70.1711 158.578C70.1731 158.65 70.1598 158.721 70.1321 158.787C70.1044 158.853 70.063 158.912 70.0106 158.961C69.9581 159.009 69.896 159.046 69.8281 159.069Z" fill="white"/>
<path d="M24.7383 114.23C32.061 114.23 37.9972 108.294 37.9972 100.971C37.9972 93.6486 32.061 87.7124 24.7383 87.7124C17.4157 87.7124 11.4795 93.6486 11.4795 100.971C11.4795 108.294 17.4157 114.23 24.7383 114.23Z" fill="#037BC4"/>
<path d="M23.4239 106.029C23.1256 106.03 22.8352 105.933 22.5965 105.754L22.5817 105.743L19.4657 103.358C19.3213 103.247 19.2001 103.109 19.1091 102.952C19.018 102.794 18.9588 102.621 18.9349 102.44C18.911 102.26 18.9228 102.077 18.9697 101.901C19.0166 101.725 19.0977 101.561 19.2083 101.416C19.3189 101.272 19.4569 101.151 19.6143 101.06C19.7717 100.969 19.9456 100.91 20.1258 100.886C20.3061 100.862 20.4893 100.874 20.665 100.921C20.8407 100.968 21.0054 101.049 21.1497 101.16L23.1679 102.707L27.9374 96.4873C28.048 96.343 28.1859 96.222 28.3433 96.131C28.5007 96.0401 28.6745 95.981 28.8547 95.9572C29.035 95.9334 29.2181 95.9454 29.3937 95.9924C29.5693 96.0394 29.734 96.1205 29.8782 96.2311L29.8486 96.2714L29.879 96.2317C30.17 96.4553 30.3604 96.7853 30.4084 97.1492C30.4565 97.513 30.3582 97.8811 30.1352 98.1726L24.5252 105.489C24.3954 105.657 24.2286 105.794 24.0376 105.888C23.8466 105.981 23.6366 106.03 23.4239 106.029Z" fill="white"/>
<path d="M224.385 160H0.314342C0.23089 160 0.15094 159.954 0.0920156 159.872C0.0330912 159.79 0 159.679 0 159.563C0 159.447 0.0330912 159.336 0.0920156 159.254C0.15094 159.172 0.23089 159.126 0.314342 159.126H224.385C224.469 159.126 224.549 159.172 224.607 159.254C224.666 159.336 224.699 159.447 224.699 159.563C224.699 159.679 224.666 159.79 224.607 159.872C224.549 159.954 224.469 160 224.385 160Z" fill="#003453"/>
<path d="M137.269 69.694C139.71 69.694 141.689 67.7152 141.689 65.2744C141.689 62.8335 139.71 60.8547 137.269 60.8547C134.828 60.8547 132.85 62.8335 132.85 65.2744C132.85 67.7152 134.828 69.694 137.269 69.694Z" fill="#037BC4"/>
<path d="M136.83 66.9604C136.731 66.9606 136.634 66.9284 136.554 66.8688L136.549 66.8651L135.511 66.0699C135.463 66.0331 135.422 65.9871 135.392 65.9346C135.361 65.8821 135.341 65.8242 135.333 65.764C135.325 65.7038 135.329 65.6427 135.345 65.584C135.36 65.5254 135.387 65.4704 135.424 65.4222C135.461 65.374 135.507 65.3336 135.56 65.3033C135.612 65.2729 135.67 65.2532 135.731 65.2454C135.791 65.2375 135.852 65.2415 135.911 65.2573C135.969 65.2731 136.024 65.3003 136.072 65.3373L136.745 65.8531L138.335 63.7798C138.372 63.7317 138.418 63.6913 138.47 63.661C138.522 63.6307 138.58 63.611 138.64 63.6031C138.701 63.5952 138.762 63.5991 138.82 63.6148C138.879 63.6305 138.934 63.6575 138.982 63.6944L138.972 63.7078L138.982 63.6946C139.079 63.7691 139.142 63.8791 139.158 64.0004C139.174 64.1217 139.142 64.2444 139.067 64.3415L137.197 66.7803C137.154 66.8365 137.098 66.882 137.035 66.9132C136.971 66.9445 136.901 66.9606 136.83 66.9604Z" fill="white"/>
<path d="M137.269 82.6129C139.71 82.6129 141.689 80.6342 141.689 78.1933C141.689 75.7524 139.71 73.7737 137.269 73.7737C134.828 73.7737 132.85 75.7524 132.85 78.1933C132.85 80.6342 134.828 82.6129 137.269 82.6129Z" fill="#037BC4"/>
<path d="M136.83 79.8791C136.731 79.8793 136.634 79.8471 136.554 79.7875L136.549 79.7838L135.511 78.9886C135.463 78.9518 135.422 78.9058 135.392 78.8533C135.361 78.8008 135.341 78.7429 135.333 78.6827C135.325 78.6225 135.329 78.5614 135.345 78.5027C135.36 78.4441 135.387 78.3891 135.424 78.3409C135.461 78.2927 135.507 78.2523 135.56 78.222C135.612 78.1916 135.67 78.1719 135.731 78.164C135.791 78.1562 135.852 78.1602 135.911 78.176C135.969 78.1918 136.024 78.219 136.072 78.256L136.745 78.7718L138.335 76.6985C138.372 76.6504 138.418 76.61 138.47 76.5797C138.522 76.5494 138.58 76.5297 138.64 76.5218C138.701 76.5139 138.762 76.5178 138.82 76.5335C138.879 76.5492 138.934 76.5762 138.982 76.6131L138.972 76.6265L138.982 76.6133C139.079 76.6878 139.142 76.7978 139.158 76.9191C139.174 77.0404 139.142 77.1631 139.067 77.2602L137.197 79.699C137.154 79.7552 137.098 79.8007 137.035 79.8319C136.971 79.8631 136.901 79.8793 136.83 79.8791Z" fill="white"/>
<path d="M139.648 97.5714C142.089 97.5714 144.068 95.5927 144.068 93.1518C144.068 90.7109 142.089 88.7322 139.648 88.7322C137.207 88.7322 135.229 90.7109 135.229 93.1518C135.229 95.5927 137.207 97.5714 139.648 97.5714Z" fill="#037BC4"/>
<path d="M139.21 94.8381C139.111 94.8383 139.014 94.8061 138.934 94.7465L138.929 94.7428L137.891 93.9475C137.842 93.9107 137.802 93.8648 137.771 93.8123C137.741 93.7598 137.721 93.7018 137.713 93.6417C137.705 93.5815 137.709 93.5204 137.725 93.4617C137.74 93.4031 137.767 93.3481 137.804 93.2999C137.841 93.2517 137.887 93.2113 137.94 93.181C137.992 93.1506 138.05 93.1309 138.11 93.123C138.171 93.1151 138.232 93.1192 138.29 93.135C138.349 93.1508 138.404 93.1779 138.452 93.215L139.125 93.7308L140.715 91.6575C140.751 91.6094 140.797 91.569 140.85 91.5387C140.902 91.5084 140.96 91.4887 141.02 91.4808C141.08 91.4728 141.142 91.4768 141.2 91.4925C141.259 91.5082 141.313 91.5352 141.362 91.5721L141.352 91.5855L141.362 91.5723C141.459 91.6468 141.522 91.7568 141.538 91.8781C141.554 91.9994 141.522 92.1221 141.447 92.2192L139.577 94.658C139.534 94.7142 139.478 94.7597 139.415 94.7909C139.351 94.8221 139.281 94.8383 139.21 94.8381Z" fill="white"/>
<path d="M182.265 130.052C182.219 130.052 182.19 130.051 182.18 130.05L176.693 130.051V129.242H182.2C182.327 129.246 184.929 129.32 187.326 126.412C190.897 122.077 193.83 111.348 187.52 84.8456C179.036 49.2097 186.112 17.7273 189.549 5.8459C189.718 5.25808 189.748 4.63894 189.637 4.0374C189.526 3.43586 189.276 2.8684 188.908 2.37986C188.54 1.89132 188.063 1.49509 187.516 1.22247C186.968 0.949845 186.365 0.808309 185.753 0.809035H103.808C103.185 0.80987 102.571 0.957586 102.016 1.2402C101.461 1.52281 100.98 1.93235 100.613 2.43558C99.1572 4.43801 97.1595 8.28483 95.9095 15.2406L95.1133 15.0976C96.3904 7.99073 98.4531 4.03072 99.9585 1.95996C100.401 1.35359 100.98 0.8601 101.649 0.519555C102.318 0.17901 103.058 0.0010072 103.808 2.20186e-06H185.753C186.49 -0.000707205 187.217 0.170013 187.877 0.498675C188.537 0.827337 189.111 1.30494 189.555 1.89374C189.998 2.48254 190.299 3.16641 190.433 3.89133C190.566 4.61625 190.53 5.36234 190.326 6.07067C186.907 17.8905 179.867 49.2095 188.307 84.6583C194.706 111.533 191.63 122.495 187.923 126.959C185.478 129.903 182.783 130.052 182.265 130.052Z" fill="#E6E6E6"/>
<path d="M167.501 144.817C167.456 144.817 167.427 144.816 167.417 144.815L161.93 144.816V144.007H167.436C167.565 144.011 170.165 144.085 172.562 141.177C176.134 136.842 179.067 126.113 172.757 99.6105C164.272 63.9746 171.349 32.4922 174.785 20.6108C174.954 20.023 174.985 19.4038 174.873 18.8023C174.762 18.2008 174.513 17.6333 174.145 17.1448C173.777 16.6562 173.3 16.26 172.752 15.9874C172.205 15.7147 171.601 15.5732 170.989 15.5739H89.0448C88.4218 15.5748 87.8078 15.7225 87.2526 16.0051C86.6974 16.2877 86.2166 16.6972 85.8493 17.2005C84.3936 19.2029 82.3959 23.0497 81.1459 30.0055L80.3496 29.8625C81.6268 22.7556 83.6895 18.7956 85.1949 16.7249C85.6374 16.1185 86.2166 15.625 86.8855 15.2844C87.5544 14.9439 88.2942 14.7659 89.0448 14.7649H170.989C171.727 14.7642 172.454 14.9349 173.114 15.2636C173.773 15.5922 174.348 16.0698 174.791 16.6586C175.235 17.2474 175.535 17.9313 175.669 18.6562C175.803 19.3811 175.766 20.1272 175.562 20.8356C172.144 32.6553 165.104 63.9743 173.544 99.4232C179.943 126.298 176.866 137.26 173.159 141.724C170.714 144.668 168.02 144.817 167.501 144.817Z" fill="#CCCCCC"/>
<path d="M158.779 114.189C150.338 78.7405 157.378 47.419 160.799 35.6017C161.002 34.8933 161.038 34.1473 160.904 33.4225C160.77 32.6978 160.47 32.014 160.027 31.4253C159.583 30.8365 159.009 30.3588 158.349 30.0299C157.69 29.7009 156.963 29.5297 156.226 29.5298H74.2795C73.5292 29.5305 72.7896 29.7082 72.1209 30.0485C71.4522 30.3887 70.8732 30.8819 70.4309 31.488C67.123 36.0368 60.259 51.1213 67.9255 92.8595C72.0254 115.189 71.9643 130.413 70.6248 140.442C69.8733 146.089 68.7141 150.087 67.6635 152.783L67.5515 153.068C67.3302 153.614 67.2148 154.196 67.2115 154.785C67.2037 155.45 67.337 156.109 67.6024 156.718C67.8679 157.328 68.2595 157.874 68.7515 158.321C69.0723 158.621 69.4353 158.873 69.8292 159.069C70.1561 159.236 70.502 159.362 70.8594 159.446C71.2232 159.535 71.5965 159.579 71.9711 159.579H152.653C152.663 159.579 152.69 159.582 152.738 159.582C153.255 159.582 155.951 159.433 158.395 156.488C162.101 152.025 165.177 141.064 158.779 114.189ZM157.797 155.941C155.4 158.851 152.799 158.776 152.673 158.773H71.9711C71.325 158.773 70.6887 158.614 70.118 158.311C69.5473 158.009 69.0594 157.571 68.697 157.036C68.3783 156.573 68.1642 156.047 68.0697 155.493C67.9752 154.939 68.0025 154.372 68.1497 153.83C68.1883 153.672 68.2383 153.518 68.2993 153.367C69.4993 150.284 70.3888 147.088 70.9545 143.828C72.872 133.374 73.2289 117.242 68.7209 92.7133C61.1124 51.2845 67.8405 36.4278 71.0836 31.964C71.4516 31.4615 71.9326 31.0526 72.4877 30.7703C73.0429 30.488 73.6567 30.3402 74.2795 30.3389H156.226C156.837 30.3385 157.44 30.4802 157.988 30.7528C158.535 31.0254 159.011 31.4214 159.379 31.9097C159.747 32.398 159.997 32.9651 160.108 33.5663C160.219 34.1675 160.189 34.7863 160.02 35.3739C156.583 47.2558 149.508 78.7405 157.994 114.376C164.304 140.877 161.37 151.606 157.797 155.941Z" fill="#003453"/>
<path d="M119.848 68.1302H77.6287C76.7704 68.1302 75.9473 67.7892 75.3404 67.1823C74.7335 66.5755 74.3926 65.7523 74.3926 64.8941C74.3926 64.0358 74.7335 63.2127 75.3404 62.6058C75.9473 61.9989 76.7704 61.658 77.6287 61.658H119.848C120.707 61.658 121.53 61.9989 122.137 62.6058C122.743 63.2127 123.084 64.0358 123.084 64.8941C123.084 65.7523 122.743 66.5755 122.137 67.1823C121.53 67.7892 120.707 68.1302 119.848 68.1302Z" fill="#CCCCCC"/>
<path d="M119.848 82.0691H77.6287C76.7704 82.0691 75.9473 81.7282 75.3404 81.1213C74.7335 80.5144 74.3926 79.6913 74.3926 78.833C74.3926 77.9748 74.7335 77.1516 75.3404 76.5448C75.9473 75.9379 76.7704 75.5969 77.6287 75.5969H119.848C120.707 75.5969 121.53 75.9379 122.137 76.5448C122.743 77.1516 123.084 77.9748 123.084 78.833C123.084 79.6913 122.743 80.5144 122.137 81.1213C121.53 81.7282 120.707 82.0691 119.848 82.0691Z" fill="#CCCCCC"/>
<path d="M123.248 96.3477H81.0281C80.1698 96.3477 79.3467 96.0068 78.7398 95.3999C78.1329 94.793 77.792 93.9699 77.792 93.1116C77.792 92.2533 78.1329 91.4302 78.7398 90.8233C79.3467 90.2164 80.1698 89.8755 81.0281 89.8755H123.248C124.106 89.8755 124.929 90.2164 125.536 90.8233C126.143 91.4302 126.484 92.2533 126.484 93.1116C126.484 93.9699 126.143 94.793 125.536 95.3999C124.929 96.0068 124.106 96.3477 123.248 96.3477Z" fill="#CCCCCC"/>
<path d="M125.628 111.306H83.408C82.5497 111.306 81.7266 110.965 81.1197 110.359C80.5128 109.752 80.1719 108.929 80.1719 108.07C80.1719 107.212 80.5128 106.389 81.1197 105.782C81.7266 105.175 82.5497 104.834 83.408 104.834H125.628C126.486 104.834 127.309 105.175 127.916 105.782C128.523 106.389 128.864 107.212 128.864 108.07C128.864 108.929 128.523 109.752 127.916 110.359C127.309 110.965 126.486 111.306 125.628 111.306Z" fill="#CCCCCC"/>
<path d="M125.646 43.0032H95.3078C94.8825 43.0037 94.4614 42.9203 94.0684 42.7578C93.6754 42.5954 93.3182 42.3571 93.0174 42.0566C92.7165 41.756 92.4779 41.3991 92.315 41.0063C92.1522 40.6135 92.0684 40.1924 92.0684 39.7671C92.0684 39.3419 92.1522 38.9208 92.315 38.528C92.4779 38.1351 92.7165 37.7782 93.0174 37.4777C93.3182 37.1771 93.6754 36.9388 94.0684 36.7764C94.4614 36.614 94.8825 36.5306 95.3078 36.531H125.646C126.505 36.531 127.328 36.872 127.935 37.4788C128.541 38.0857 128.882 38.9088 128.882 39.7671C128.882 40.6254 128.541 41.4485 127.935 42.0554C127.328 42.6623 126.505 43.0032 125.646 43.0032Z" fill="#037BC4"/>
<path d="M142.368 112.49C144.809 112.49 146.787 110.511 146.787 108.07C146.787 105.629 144.809 103.651 142.368 103.651C139.927 103.651 137.948 105.629 137.948 108.07C137.948 110.511 139.927 112.49 142.368 112.49Z" fill="#CCCCCC"/>
<path d="M127.668 125.925H85.448C84.5897 125.925 83.7666 125.584 83.1597 124.977C82.5529 124.37 82.2119 123.547 82.2119 122.689C82.2119 121.831 82.5529 121.008 83.1597 120.401C83.7666 119.794 84.5897 119.453 85.448 119.453H127.668C128.526 119.453 129.349 119.794 129.956 120.401C130.563 121.008 130.904 121.831 130.904 122.689C130.904 123.547 130.563 124.37 129.956 124.977C129.349 125.584 128.526 125.925 127.668 125.925Z" fill="#CCCCCC"/>
<path d="M144.408 127.109C146.849 127.109 148.828 125.13 148.828 122.689C148.828 120.248 146.849 118.27 144.408 118.27C141.967 118.27 139.988 120.248 139.988 122.689C139.988 125.13 141.967 127.109 144.408 127.109Z" fill="#CCCCCC"/>
</svg>
