<svg width="180" height="180" viewBox="0 0 180 180" fill="none" xmlns="http://www.w3.org/2000/svg">
<path d="M67.8036 153.194C64.1497 153.732 60.4518 153.911 56.763 153.728C47.8683 153.278 39.1207 150.691 31.645 145.827C28.3305 143.67 25.1687 141.02 23.453 137.461C21.1244 132.627 21.9388 126.507 25.264 122.297C26.477 120.778 27.9689 119.505 29.6596 118.547C29.9102 118.405 30.1662 118.269 30.4249 118.138C33.2421 116.721 36.4065 116.142 39.5429 116.469C44.8752 117.051 49.7965 120.309 52.6397 124.859C55.1724 128.917 56.0548 133.705 56.5751 138.504C56.6731 139.408 56.7575 140.315 56.8392 141.216C56.386 143.828 55.6735 146.388 54.7122 148.858C54.6633 148.978 54.6232 149.102 54.5923 149.228C55.137 150.41 55.6554 151.603 56.1474 152.807C56.6097 153.058 57.1275 153.189 57.6535 153.188H67.7818L67.8036 153.194Z" fill="#F2F2F2"/>
<path d="M55.9376 153.425C55.8705 153.455 55.7981 153.472 55.7246 153.473C55.6511 153.475 55.5779 153.462 55.5095 153.435C55.4411 153.408 55.3787 153.368 55.3259 153.317C55.2732 153.266 55.2312 153.204 55.2024 153.137C55.1588 153.033 55.118 152.93 55.0743 152.826C54.6822 151.873 54.271 150.929 53.8407 149.994C48.3318 137.928 40.1148 127.294 29.8284 118.92C29.7694 118.878 29.7227 118.822 29.693 118.756C29.6633 118.691 29.6518 118.618 29.6596 118.547C29.6745 118.465 29.7078 118.387 29.757 118.32C29.8062 118.252 29.8699 118.197 29.9435 118.158C30.0171 118.118 30.0987 118.096 30.182 118.093C30.2654 118.089 30.3484 118.105 30.4249 118.138C30.4659 118.157 30.5043 118.181 30.5393 118.209C34.9403 121.794 38.9776 125.803 42.593 130.178C46.2091 134.55 49.3931 139.262 52.1004 144.247C52.8384 145.609 53.5392 146.99 54.2028 148.39C54.3337 148.668 54.4644 148.948 54.5923 149.229C55.137 150.411 55.6553 151.603 56.1474 152.807C56.1556 152.826 56.1637 152.848 56.172 152.867C56.197 152.919 56.2108 152.975 56.2124 153.032C56.214 153.089 56.2033 153.146 56.1811 153.199C56.159 153.252 56.1258 153.3 56.0838 153.339C56.0418 153.378 55.992 153.407 55.9376 153.425Z" fill="white"/>
<path d="M19.8176 117.506C25.6835 117.506 30.4388 112.751 30.4388 106.885C30.4388 101.019 25.6835 96.2638 19.8176 96.2638C13.9516 96.2638 9.19629 101.019 9.19629 106.885C9.19629 112.751 13.9516 117.506 19.8176 117.506Z" fill="#037BC4"/>
<path d="M18.7638 110.937C18.5249 110.937 18.2922 110.86 18.101 110.717L18.0892 110.708L15.5931 108.797C15.4774 108.708 15.3803 108.598 15.3074 108.472C15.2344 108.345 15.187 108.206 15.1678 108.062C15.1487 107.917 15.1582 107.771 15.1958 107.63C15.2333 107.489 15.2983 107.357 15.3869 107.242C15.4755 107.126 15.586 107.029 15.7121 106.956C15.8382 106.883 15.9775 106.836 16.1219 106.817C16.2663 106.798 16.4131 106.807 16.5538 106.845C16.6945 106.882 16.8264 106.947 16.942 107.036L18.5588 108.276L22.3795 103.293C22.4681 103.178 22.5786 103.081 22.7047 103.008C22.8308 102.935 22.97 102.888 23.1143 102.868C23.2587 102.849 23.4054 102.859 23.5461 102.897C23.6868 102.934 23.8187 102.999 23.9342 103.088L23.9105 103.12L23.9349 103.088C24.168 103.268 24.3205 103.532 24.359 103.823C24.3974 104.115 24.3187 104.41 24.1401 104.643L19.6461 110.504C19.5421 110.639 19.4085 110.748 19.2555 110.823C19.1025 110.898 18.9342 110.937 18.7638 110.937V110.937Z" fill="white"/>
<path d="M179.748 154.171H0.25181C0.184959 154.171 0.120914 154.134 0.0737109 154.068C0.0265084 154.003 0 153.914 0 153.821C0 153.728 0.0265084 153.639 0.0737109 153.574C0.120914 153.508 0.184959 153.471 0.25181 153.471H179.748C179.815 153.471 179.879 153.508 179.926 153.574C179.973 153.639 180 153.728 180 153.821C180 153.914 179.973 154.003 179.926 154.068C179.879 154.134 179.815 154.171 179.748 154.171V154.171Z" fill="#003453"/>
<path d="M109.962 81.8297C111.918 81.8297 113.503 80.2446 113.503 78.2893C113.503 76.3339 111.918 74.7488 109.962 74.7488C108.007 74.7488 106.422 76.3339 106.422 78.2893C106.422 80.2446 108.007 81.8297 109.962 81.8297Z" fill="#037BC4"/>
<path d="M109.611 79.64C109.531 79.6401 109.453 79.6143 109.39 79.5666L109.386 79.5636L108.554 78.9266C108.515 78.8971 108.483 78.8603 108.458 78.8182C108.434 78.7762 108.418 78.7297 108.411 78.6816C108.405 78.6334 108.408 78.5844 108.421 78.5374C108.433 78.4904 108.455 78.4464 108.484 78.4078C108.514 78.3692 108.551 78.3368 108.593 78.3125C108.635 78.2882 108.682 78.2724 108.73 78.2661C108.778 78.2598 108.827 78.263 108.874 78.2756C108.921 78.2883 108.965 78.3101 109.003 78.3397L109.542 78.753L110.816 77.0921C110.845 77.0535 110.882 77.0212 110.924 76.9969C110.966 76.9726 111.013 76.9569 111.061 76.9505C111.109 76.9442 111.158 76.9473 111.205 76.9599C111.252 76.9724 111.296 76.9941 111.334 77.0236L111.326 77.0344L111.334 77.0238C111.412 77.0835 111.463 77.1716 111.476 77.2688C111.489 77.3659 111.462 77.4642 111.403 77.5421L109.905 79.4957C109.87 79.5407 109.826 79.5771 109.775 79.6022C109.724 79.6272 109.667 79.6401 109.611 79.64V79.64Z" fill="white"/>
<path d="M109.962 92.1787C111.918 92.1787 113.503 90.5936 113.503 88.6383C113.503 86.683 111.918 85.0979 109.962 85.0979C108.007 85.0979 106.422 86.683 106.422 88.6383C106.422 90.5936 108.007 92.1787 109.962 92.1787Z" fill="#037BC4"/>
<path d="M109.611 89.9888C109.531 89.989 109.453 89.9632 109.39 89.9154L109.386 89.9125L108.554 89.2754C108.515 89.246 108.483 89.2091 108.458 89.1671C108.434 89.1251 108.418 89.0786 108.411 89.0304C108.405 88.9822 108.408 88.9332 108.421 88.8863C108.433 88.8393 108.455 88.7952 108.484 88.7566C108.514 88.718 108.551 88.6857 108.593 88.6613C108.635 88.637 108.682 88.6213 108.73 88.6149C108.778 88.6086 108.827 88.6119 108.874 88.6245C108.921 88.6372 108.965 88.6589 109.003 88.6886L109.542 89.1018L110.816 87.4409C110.845 87.4024 110.882 87.3701 110.924 87.3458C110.966 87.3215 111.013 87.3057 111.061 87.2994C111.109 87.293 111.158 87.2962 111.205 87.3088C111.252 87.3213 111.296 87.343 111.334 87.3725L111.326 87.3833L111.334 87.3727C111.412 87.4324 111.463 87.5205 111.476 87.6177C111.489 87.7148 111.462 87.8131 111.403 87.8909L109.905 89.8446C109.87 89.8896 109.826 89.926 109.775 89.951C109.724 89.976 109.667 89.989 109.611 89.9888V89.9888Z" fill="white"/>
<path d="M111.868 104.162C113.823 104.162 115.408 102.577 115.408 100.621C115.408 98.6659 113.823 97.0808 111.868 97.0808C109.912 97.0808 108.327 98.6659 108.327 100.621C108.327 102.577 109.912 104.162 111.868 104.162Z" fill="#037BC4"/>
<path d="M111.517 101.972C111.437 101.972 111.36 101.946 111.296 101.898L111.292 101.895L110.46 101.258C110.421 101.229 110.389 101.192 110.364 101.15C110.34 101.108 110.324 101.062 110.318 101.013C110.311 100.965 110.314 100.916 110.327 100.869C110.339 100.822 110.361 100.778 110.391 100.74C110.42 100.701 110.457 100.669 110.499 100.644C110.541 100.62 110.588 100.604 110.636 100.598C110.684 100.592 110.733 100.595 110.78 100.608C110.827 100.62 110.871 100.642 110.91 100.672L111.449 101.085L112.722 99.424C112.752 99.3854 112.789 99.3531 112.831 99.3288C112.873 99.3045 112.919 99.2888 112.967 99.2824C113.015 99.2761 113.064 99.2793 113.111 99.2918C113.158 99.3043 113.202 99.326 113.24 99.3556L113.232 99.3663L113.241 99.3557C113.318 99.4154 113.369 99.5035 113.382 99.6007C113.395 99.6979 113.369 99.7961 113.309 99.874L111.811 101.828C111.776 101.873 111.732 101.909 111.681 101.934C111.63 101.959 111.574 101.972 111.517 101.972V101.972Z" fill="white"/>
<path d="M146.007 130.181C145.97 130.181 145.947 130.18 145.939 130.179L141.544 130.18V129.532H145.955C146.057 129.535 148.141 129.594 150.061 127.265C152.922 123.793 155.272 115.197 150.217 93.9672C143.42 65.4204 149.089 40.2008 151.842 30.683C151.977 30.2121 152.002 29.7161 151.912 29.2342C151.823 28.7524 151.624 28.2978 151.329 27.9064C151.034 27.5151 150.652 27.1977 150.213 26.9793C149.775 26.7609 149.291 26.6475 148.801 26.6481H83.1578C82.6587 26.6488 82.1669 26.7671 81.7221 26.9935C81.2773 27.2199 80.8922 27.5479 80.598 27.9511C79.4319 29.5552 77.8316 32.6367 76.8302 38.2088L76.1924 38.0942C77.2155 32.4011 78.8678 29.2289 80.0738 27.5701C80.4282 27.0843 80.8922 26.689 81.428 26.4162C81.9639 26.1434 82.5565 26.0008 83.1578 26H148.801C149.392 25.9994 149.974 26.1362 150.503 26.3995C151.031 26.6628 151.491 27.0453 151.847 27.517C152.202 27.9887 152.443 28.5365 152.55 29.1172C152.657 29.6979 152.628 30.2956 152.464 30.863C149.726 40.3315 144.086 65.4202 150.847 93.8172C155.973 115.346 153.509 124.127 150.539 127.703C148.581 130.061 146.422 130.181 146.007 130.181Z" fill="#E6E6E6"/>
<path d="M134.18 142.009C134.143 142.009 134.12 142.008 134.112 142.007L129.717 142.008V141.359H134.128C134.231 141.363 136.314 141.422 138.234 139.092C141.095 135.62 143.445 127.025 138.39 105.795C131.593 77.248 137.262 52.0285 140.015 42.5106C140.15 42.0397 140.174 41.5438 140.085 41.0619C139.996 40.58 139.797 40.1254 139.502 39.7341C139.207 39.3427 138.825 39.0253 138.386 38.8069C137.947 38.5885 137.464 38.4752 136.974 38.4757H71.3307C70.8316 38.4764 70.3398 38.5947 69.895 38.8211C69.4502 39.0475 69.0651 39.3756 68.7709 39.7787C67.6048 41.3828 66.0045 44.4644 65.0031 50.0364L64.3652 49.9219C65.3884 44.2288 67.0407 41.0565 68.2467 39.3977C68.6011 38.912 69.0651 38.5166 69.6009 38.2438C70.1368 37.971 70.7294 37.8284 71.3307 37.8276H136.974C137.565 37.8271 138.147 37.9638 138.676 38.2271C139.204 38.4904 139.664 38.873 140.02 39.3447C140.375 39.8163 140.616 40.3642 140.723 40.9449C140.83 41.5256 140.801 42.1233 140.637 42.6907C137.899 52.1591 132.259 77.2479 139.02 105.645C144.146 127.174 141.682 135.955 138.712 139.531C136.753 141.889 134.595 142.009 134.18 142.009Z" fill="#CCCCCC"/>
<path d="M127.193 117.474C120.431 89.0766 126.071 63.9859 128.811 54.5194C128.974 53.9519 129.003 53.3544 128.896 52.7738C128.789 52.1932 128.548 51.6455 128.193 51.1738C127.837 50.7022 127.378 50.3195 126.849 50.056C126.321 49.7925 125.738 49.6554 125.148 49.6554H59.5033C58.9022 49.656 58.3098 49.7983 57.7741 50.0709C57.2384 50.3435 56.7746 50.7386 56.4203 51.2241C53.7704 54.868 48.2719 66.9517 54.4132 100.387C57.6976 118.274 57.6486 130.47 56.5756 138.504C55.9736 143.027 55.045 146.23 54.2034 148.39L54.1136 148.618C53.9364 149.055 53.844 149.522 53.8413 149.994C53.8351 150.526 53.9418 151.054 54.1545 151.542C54.3671 152.03 54.6808 152.468 55.0749 152.826C55.3319 153.067 55.6228 153.269 55.9382 153.425C56.2002 153.559 56.4773 153.66 56.7635 153.727C57.055 153.799 57.354 153.834 57.6541 153.834H122.286C122.294 153.834 122.316 153.836 122.354 153.836C122.768 153.836 124.928 153.717 126.886 151.358C129.854 147.782 132.319 139.002 127.193 117.474ZM126.406 150.92C124.486 153.251 122.403 153.191 122.302 153.188H57.6541C57.1365 153.188 56.6268 153.061 56.1696 152.819C55.7124 152.576 55.3216 152.225 55.0313 151.797C54.776 151.426 54.6045 151.004 54.5288 150.561C54.4531 150.117 54.475 149.663 54.5929 149.228C54.6238 149.102 54.6638 148.978 54.7127 148.858C55.674 146.388 56.3865 143.828 56.8397 141.216C58.3757 132.842 58.6617 119.919 55.0505 100.27C48.9555 67.0824 54.3452 55.1812 56.9432 51.6054C57.2379 51.2028 57.6232 50.8752 58.0679 50.6491C58.5127 50.423 59.0044 50.3046 59.5033 50.3036H125.148C125.638 50.3032 126.121 50.4167 126.559 50.6351C126.998 50.8535 127.379 51.1708 127.674 51.5619C127.969 51.953 128.169 52.4073 128.258 52.8889C128.347 53.3705 128.323 53.8662 128.187 54.3369C125.434 63.8552 119.767 89.0766 126.564 117.623C131.619 138.852 129.269 147.447 126.406 150.92Z" fill="#003453"/>
<path d="M96.0069 80.577H62.1861C61.4986 80.577 60.8392 80.3039 60.353 79.8177C59.8669 79.3315 59.5938 78.6722 59.5938 77.9846C59.5938 77.2971 59.8669 76.6377 60.353 76.1516C60.8392 75.6654 61.4986 75.3923 62.1861 75.3923H96.0069C96.6945 75.3923 97.3538 75.6654 97.84 76.1516C98.3261 76.6377 98.5993 77.2971 98.5993 77.9846C98.5993 78.6722 98.3261 79.3315 97.84 79.8177C97.3538 80.3039 96.6945 80.577 96.0069 80.577V80.577Z" fill="#CCCCCC"/>
<path d="M96.0069 91.743H62.1861C61.4986 91.743 60.8392 91.4699 60.353 90.9838C59.8669 90.4976 59.5938 89.8382 59.5938 89.1507C59.5938 88.4632 59.8669 87.8038 60.353 87.3176C60.8392 86.8315 61.4986 86.5583 62.1861 86.5583H96.0069C96.6945 86.5583 97.3538 86.8315 97.84 87.3176C98.3261 87.8038 98.5993 88.4632 98.5993 89.1507C98.5993 89.8382 98.3261 90.4976 97.84 90.9838C97.3538 91.4699 96.6945 91.743 96.0069 91.743V91.743Z" fill="#CCCCCC"/>
<path d="M98.7296 103.181H64.9087C64.2212 103.181 63.5618 102.908 63.0757 102.422C62.5895 101.936 62.3164 101.276 62.3164 100.589C62.3164 99.9014 62.5895 99.242 63.0757 98.7559C63.5618 98.2697 64.2212 97.9966 64.9087 97.9966H98.7296C99.4171 97.9966 100.076 98.2697 100.563 98.7559C101.049 99.242 101.322 99.9014 101.322 100.589C101.322 101.276 101.049 101.936 100.563 102.422C100.076 102.908 99.4171 103.181 98.7296 103.181V103.181Z" fill="#CCCCCC"/>
<path d="M100.637 115.164H66.816C66.1284 115.164 65.4691 114.891 64.9829 114.405C64.4967 113.919 64.2236 113.259 64.2236 112.572C64.2236 111.884 64.4967 111.225 64.9829 110.739C65.4691 110.253 66.1284 109.979 66.816 109.979H100.637C101.324 109.979 101.984 110.253 102.47 110.739C102.956 111.225 103.229 111.884 103.229 112.572C103.229 113.259 102.956 113.919 102.47 114.405C101.984 114.891 101.324 115.164 100.637 115.164Z" fill="#CCCCCC"/>
<path d="M100.651 60.4485H76.3479C76.0073 60.4488 75.6699 60.3821 75.3551 60.2519C75.0402 60.1218 74.7542 59.9309 74.5132 59.6902C74.2721 59.4494 74.081 59.1635 73.9505 58.8488C73.8201 58.5341 73.7529 58.1968 73.7529 57.8561C73.7529 57.5155 73.8201 57.1782 73.9505 56.8635C74.081 56.5488 74.2721 56.2629 74.5132 56.0221C74.7542 55.7814 75.0402 55.5905 75.3551 55.4604C75.6699 55.3302 76.0073 55.2634 76.3479 55.2638H100.651C101.339 55.2638 101.998 55.5369 102.484 56.0231C102.97 56.5092 103.244 57.1686 103.244 57.8561C103.244 58.5437 102.97 59.2031 102.484 59.6892C101.998 60.1754 101.339 60.4485 100.651 60.4485Z" fill="#037BC4"/>
<path d="M114.046 116.112C116.002 116.112 117.587 114.527 117.587 112.572C117.587 110.617 116.002 109.031 114.046 109.031C112.091 109.031 110.506 110.617 110.506 112.572C110.506 114.527 112.091 116.112 114.046 116.112Z" fill="#CCCCCC"/>
<path d="M102.271 126.875H68.4498C67.7622 126.875 67.1029 126.602 66.6167 126.116C66.1305 125.629 65.8574 124.97 65.8574 124.282C65.8574 123.595 66.1305 122.936 66.6167 122.449C67.1029 121.963 67.7622 121.69 68.4498 121.69H102.271C102.958 121.69 103.617 121.963 104.104 122.449C104.59 122.936 104.863 123.595 104.863 124.282C104.863 124.97 104.59 125.629 104.104 126.116C103.617 126.602 102.958 126.875 102.271 126.875Z" fill="#CCCCCC"/>
<path d="M115.681 127.823C117.636 127.823 119.221 126.238 119.221 124.283C119.221 122.327 117.636 120.742 115.681 120.742C113.726 120.742 112.141 122.327 112.141 124.283C112.141 126.238 113.726 127.823 115.681 127.823Z" fill="#CCCCCC"/>
</svg>
