<svg width="181" height="180" viewBox="0 0 181 180" fill="none" xmlns="http://www.w3.org/2000/svg">
<path d="M174.987 35.9626H1.07422V143.324H174.987V35.9626Z" fill="#E6E6E6"/>
<path d="M170.014 49.4286H6.04688V136.973H170.014V49.4286Z" fill="white"/>
<path d="M174.913 35.8676H1V42.9892H174.913V35.8676Z" fill="#037BC4"/>
<path d="M6.48944 40.8283C7.24569 40.8283 7.85876 40.2373 7.85876 39.5084C7.85876 38.7794 7.24569 38.1885 6.48944 38.1885C5.73318 38.1885 5.12012 38.7794 5.12012 39.5084C5.12012 40.2373 5.73318 40.8283 6.48944 40.8283Z" fill="white"/>
<path d="M11.6887 40.8283C12.4449 40.8283 13.058 40.2373 13.058 39.5084C13.058 38.7794 12.4449 38.1885 11.6887 38.1885C10.9324 38.1885 10.3193 38.7794 10.3193 39.5084C10.3193 40.2373 10.9324 40.8283 11.6887 40.8283Z" fill="white"/>
<path d="M16.8869 40.8283C17.6431 40.8283 18.2562 40.2373 18.2562 39.5084C18.2562 38.7794 17.6431 38.1885 16.8869 38.1885C16.1306 38.1885 15.5176 38.7794 15.5176 39.5084C15.5176 40.2373 16.1306 40.8283 16.8869 40.8283Z" fill="white"/>
<path d="M63.0779 58.5119H20.9463V127.889H63.0779V58.5119Z" fill="#E6E6E6"/>
<path d="M105.46 58.5119H70.3506V77.6088H105.46V58.5119Z" fill="#037BC4"/>
<path d="M105.46 82.9265H70.3506V103.474H105.46V82.9265Z" fill="#E6E6E6"/>
<path d="M105.46 108.792H70.3506V127.889H105.46V108.792Z" fill="#E6E6E6"/>
<path d="M155.116 58.5119H112.984V88.7459H155.116V58.5119Z" fill="#E6E6E6"/>
<path d="M155.116 97.6548H112.984V127.889H155.116V97.6548Z" fill="#037BC4"/>
<path d="M88.2668 67.1441L87.7168 67.0035L99.7187 23.4834H169.336V24.0317H100.156L88.2668 67.1441Z" fill="#003453"/>
<path d="M175.025 29.5146C173.844 29.5144 172.689 29.1765 171.707 28.5438C170.725 27.911 169.96 27.0117 169.508 25.9596C169.056 24.9076 168.938 23.75 169.169 22.6332C169.399 21.5165 169.968 20.4907 170.804 19.6857C171.639 18.8806 172.704 18.3325 173.862 18.1105C175.021 17.8885 176.222 18.0026 177.313 18.4385C178.404 18.8744 179.337 19.6124 179.993 20.5593C180.649 21.5061 181 22.6192 181 23.7579C181 25.2847 180.37 26.749 179.25 27.8287C178.13 28.9084 176.611 29.5151 175.027 29.5152L175.025 29.5146ZM175.025 18.5483C173.957 18.5483 172.912 18.8538 172.023 19.4262C171.134 19.9986 170.442 20.8121 170.033 21.7639C169.624 22.7157 169.517 23.7631 169.725 24.7735C169.934 25.784 170.448 26.7121 171.204 27.4406C171.96 28.1691 172.923 28.6652 173.971 28.8662C175.019 29.0672 176.106 28.964 177.093 28.5698C178.081 28.1755 178.925 27.5079 179.519 26.6513C180.113 25.7947 180.429 24.7876 180.429 23.7573C180.429 22.3758 179.86 21.0509 178.847 20.074C177.833 19.0971 176.459 18.5483 175.025 18.5483V18.5483Z" fill="#003453"/>
<path d="M175.025 25.9506C176.282 25.9506 177.301 24.9686 177.301 23.7573C177.301 22.5459 176.282 21.5639 175.025 21.5639C173.769 21.5639 172.75 22.5459 172.75 23.7573C172.75 24.9686 173.769 25.9506 175.025 25.9506Z" fill="#0C8FDC"/>
<path d="M122.91 156.174H53.292V155.626H122.472L134.361 112.513L134.911 112.654L122.91 156.174Z" fill="#003453"/>
<path d="M47.6037 161.659C46.4224 161.659 45.2676 161.322 44.2854 160.689C43.3031 160.057 42.5376 159.157 42.0855 158.105C41.6334 157.053 41.5152 155.896 41.7456 154.779C41.9761 153.662 42.545 152.636 43.3803 151.831C44.2156 151.026 45.2799 150.478 46.4385 150.256C47.5971 150.033 48.7981 150.147 49.8895 150.583C50.9809 151.019 51.9137 151.757 52.57 152.704C53.2264 153.65 53.5766 154.764 53.5766 155.902C53.5766 157.429 52.9474 158.894 51.8272 159.973C50.7071 161.053 49.1878 161.659 47.6037 161.659V161.659ZM47.6037 150.693C46.5349 150.693 45.4901 150.999 44.6014 151.571C43.7127 152.143 43.0201 152.957 42.6111 153.909C42.2021 154.861 42.0951 155.908 42.3036 156.918C42.5121 157.929 43.0268 158.857 43.7825 159.585C44.5383 160.314 45.5012 160.81 46.5495 161.011C47.5978 161.212 48.6843 161.109 49.6718 160.715C50.6592 160.32 51.5032 159.653 52.097 158.796C52.6908 157.94 53.0078 156.932 53.0078 155.902C53.0078 155.218 52.868 154.541 52.5964 153.909C52.3248 153.277 51.9268 152.703 51.425 152.219C50.9232 151.735 50.3274 151.352 49.6718 151.09C49.0161 150.828 48.3134 150.693 47.6037 150.693V150.693Z" fill="#003453"/>
<path d="M47.6046 158.094C48.8613 158.094 49.8801 157.112 49.8801 155.901C49.8801 154.689 48.8613 153.707 47.6046 153.707C46.3479 153.707 45.3291 154.689 45.3291 155.901C45.3291 157.112 46.3479 158.094 47.6046 158.094Z" fill="#0C8FDC"/>
</svg>
