<svg width="180" height="180" viewBox="0 0 180 180" fill="none" xmlns="http://www.w3.org/2000/svg">
<path d="M172.976 154.251L173.36 154.244C173.211 150.268 172.755 146.307 171.994 142.391C170.33 134.008 167.564 128.503 163.771 126.028L163.55 126.321C172.41 132.102 172.971 154.03 172.976 154.251Z" fill="#F1F1F1"/>
<path d="M168.165 154.166L168.549 154.159C168.541 153.763 168.301 144.429 164.347 141.849L164.126 142.142C167.92 144.617 168.163 154.07 168.165 154.166Z" fill="#F1F1F1"/>
<path d="M161.36 126.353C162.423 126.353 163.284 125.552 163.284 124.565C163.284 123.577 162.423 122.777 161.36 122.777C160.298 122.777 159.437 123.577 159.437 124.565C159.437 125.552 160.298 126.353 161.36 126.353Z" fill="#F1F1F1"/>
<path d="M162.314 141.731C163.376 141.731 164.238 140.93 164.238 139.943C164.238 138.955 163.376 138.155 162.314 138.155C161.251 138.155 160.39 138.955 160.39 139.943C160.39 140.93 161.251 141.731 162.314 141.731Z" fill="#F1F1F1"/>
<path d="M169.061 127.425C168.869 128.804 169.069 130.206 169.642 131.491C170.644 130.451 171.3 129.164 171.533 127.784C171.765 126.405 171.563 124.993 170.952 123.718C169.983 124.779 169.331 126.057 169.061 127.425Z" fill="#F1F1F1"/>
<path d="M162.773 132.638C164.201 133.055 165.721 133.116 167.182 132.815C166.255 131.717 165.005 130.892 163.584 130.439C162.164 129.986 160.632 129.925 159.175 130.262C160.13 131.333 161.37 132.153 162.773 132.638V132.638Z" fill="#F1F1F1"/>
<path d="M162.702 146.257C163.702 146.549 164.768 146.591 165.792 146.381C165.142 145.611 164.266 145.033 163.27 144.715C162.275 144.398 161.201 144.355 160.18 144.591C160.849 145.342 161.719 145.916 162.702 146.257V146.257Z" fill="#F1F1F1"/>
<path d="M9.11809 154.251L8.55957 154.241C8.77558 148.469 9.43816 142.72 10.5422 137.037C12.9573 124.869 16.9733 116.878 22.4785 113.286L22.7992 113.711C9.93895 122.103 9.12464 153.93 9.11809 154.251Z" fill="#F1F1F1"/>
<path d="M16.0995 154.127L15.541 154.117C15.553 153.542 15.9021 139.994 21.6407 136.25L21.9615 136.674C16.4543 140.268 16.1023 153.989 16.0995 154.127Z" fill="#F1F1F1"/>
<path d="M25.9762 113.758C27.5185 113.758 28.7687 112.596 28.7687 111.163C28.7687 109.729 27.5185 108.567 25.9762 108.567C24.4339 108.567 23.1836 109.729 23.1836 111.163C23.1836 112.596 24.4339 113.758 25.9762 113.758Z" fill="#F1F1F1"/>
<path d="M24.5933 136.078C26.1356 136.078 27.3859 134.916 27.3859 133.483C27.3859 132.049 26.1356 130.887 24.5933 130.887C23.0511 130.887 21.8008 132.049 21.8008 133.483C21.8008 134.916 23.0511 136.078 24.5933 136.078Z" fill="#F1F1F1"/>
<path d="M14.7979 115.314C15.0778 117.316 14.7871 119.351 13.9548 121.216C12.5012 119.706 11.5485 117.838 11.2112 115.836C10.874 113.834 11.1668 111.784 12.0543 109.934C13.4599 111.473 14.406 113.328 14.7979 115.314V115.314Z" fill="#F1F1F1"/>
<path d="M23.9256 122.881C21.8532 123.485 19.6462 123.574 17.5254 123.137C18.872 121.544 20.6856 120.346 22.7477 119.689C24.8099 119.032 27.0325 118.942 29.1479 119.432C27.7621 120.987 25.9612 122.176 23.9256 122.881Z" fill="#F1F1F1"/>
<path d="M24.03 142.647C22.5774 143.071 21.0305 143.133 19.5439 142.827C20.4878 141.71 21.759 140.871 23.2044 140.41C24.6498 139.949 26.2077 139.887 27.6904 140.23C26.719 141.32 25.4568 142.153 24.03 142.647Z" fill="#F1F1F1"/>
<path d="M143.376 97.9398H72.1076C71.5384 97.9392 70.9928 97.7288 70.5904 97.3548C70.188 96.9808 69.9616 96.4737 69.9609 95.9447V73.5999C69.9616 73.071 70.188 72.5639 70.5904 72.1899C70.9928 71.8159 71.5384 71.6055 72.1076 71.6049H143.376C143.945 71.6055 144.491 71.8159 144.893 72.1899C145.296 72.5639 145.522 73.071 145.523 73.5999V95.9447C145.522 96.4737 145.296 96.9808 144.893 97.3548C144.491 97.7288 143.945 97.9392 143.376 97.9398V97.9398Z" fill="#E5E5E5"/>
<path d="M100.014 77.5901H81.123V79.5852H100.014V77.5901Z" fill="white"/>
<path d="M124.916 79.9842C125.627 79.9842 126.204 79.4482 126.204 78.7871C126.204 78.126 125.627 77.5901 124.916 77.5901C124.205 77.5901 123.628 78.126 123.628 78.7871C123.628 79.4482 124.205 79.9842 124.916 79.9842Z" fill="#037BC4"/>
<path d="M129.209 79.9842C129.92 79.9842 130.497 79.4482 130.497 78.7871C130.497 78.126 129.92 77.5901 129.209 77.5901C128.498 77.5901 127.921 78.126 127.921 78.7871C127.921 79.4482 128.498 79.9842 129.209 79.9842Z" fill="#037BC4"/>
<path d="M133.502 79.9842C134.213 79.9842 134.79 79.4482 134.79 78.7871C134.79 78.126 134.213 77.5901 133.502 77.5901C132.791 77.5901 132.214 78.126 132.214 78.7871C132.214 79.4482 132.791 79.9842 133.502 79.9842Z" fill="#037BC4"/>
<path d="M143.376 126.27H72.1076C71.5384 126.269 70.9928 126.059 70.5904 125.685C70.188 125.311 69.9616 124.804 69.9609 124.275V101.93C69.9616 101.401 70.188 100.894 70.5904 100.52C70.9928 100.146 71.5384 99.9357 72.1076 99.9351H143.376C143.945 99.9357 144.491 100.146 144.893 100.52C145.296 100.894 145.522 101.401 145.523 101.93V124.275C145.522 124.804 145.296 125.311 144.893 125.685C144.491 126.059 143.945 126.269 143.376 126.27V126.27Z" fill="#E5E5E5"/>
<path d="M100.014 105.92H81.123V107.915H100.014V105.92Z" fill="white"/>
<path d="M124.916 108.314C125.627 108.314 126.204 107.778 126.204 107.117C126.204 106.456 125.627 105.92 124.916 105.92C124.205 105.92 123.628 106.456 123.628 107.117C123.628 107.778 124.205 108.314 124.916 108.314Z" fill="#037BC4"/>
<path d="M129.209 108.314C129.92 108.314 130.497 107.778 130.497 107.117C130.497 106.456 129.92 105.92 129.209 105.92C128.498 105.92 127.921 106.456 127.921 107.117C127.921 107.778 128.498 108.314 129.209 108.314Z" fill="#037BC4"/>
<path d="M133.502 108.314C134.213 108.314 134.79 107.778 134.79 107.117C134.79 106.456 134.213 105.92 133.502 105.92C132.791 105.92 132.214 106.456 132.214 107.117C132.214 107.778 132.791 108.314 133.502 108.314Z" fill="#037BC4"/>
<path d="M143.376 154.6H72.1076C71.5384 154.599 70.9928 154.389 70.5904 154.015C70.188 153.641 69.9616 153.134 69.9609 152.605V130.26C69.9616 129.731 70.188 129.224 70.5904 128.85C70.9928 128.476 71.5384 128.266 72.1076 128.265H143.376C143.945 128.266 144.491 128.476 144.893 128.85C145.296 129.224 145.522 129.731 145.523 130.26V152.605C145.522 153.134 145.296 153.641 144.893 154.015C144.491 154.389 143.945 154.599 143.376 154.6Z" fill="#E5E5E5"/>
<path d="M100.014 134.25H81.123V136.245H100.014V134.25Z" fill="white"/>
<path d="M124.916 136.644C125.627 136.644 126.204 136.108 126.204 135.447C126.204 134.786 125.627 134.25 124.916 134.25C124.205 134.25 123.628 134.786 123.628 135.447C123.628 136.108 124.205 136.644 124.916 136.644Z" fill="#037BC4"/>
<path d="M129.209 136.644C129.92 136.644 130.497 136.108 130.497 135.447C130.497 134.786 129.92 134.25 129.209 134.25C128.498 134.25 127.921 134.786 127.921 135.447C127.921 136.108 128.498 136.644 129.209 136.644Z" fill="#037BC4"/>
<path d="M133.502 136.644C134.213 136.644 134.79 136.108 134.79 135.447C134.79 134.786 134.213 134.25 133.502 134.25C132.791 134.25 132.214 134.786 132.214 135.447C132.214 136.108 132.791 136.644 133.502 136.644Z" fill="#037BC4"/>
<path d="M57.8547 106.42C56.4973 106.416 55.1458 106.253 53.8319 105.936L53.5729 105.87L53.3327 105.758C44.6476 101.711 37.3205 96.3653 31.5548 89.8696C26.7821 84.461 23.061 78.32 20.5589 71.7229C17.5669 63.8245 16.1274 55.4905 16.3093 47.1186C16.3129 46.9429 16.316 46.8072 16.316 46.7137C16.316 42.6441 18.7466 39.0733 22.5082 37.6166C25.3871 36.5018 51.5264 26.5234 53.4151 25.8024C56.9719 24.1461 60.7664 25.5286 61.3736 25.7703C62.7356 26.2878 86.8998 35.4734 92.1217 37.7844C97.5033 40.1661 98.9392 44.4449 98.9392 46.5975C98.9392 56.3435 97.1231 65.4518 93.5413 73.6696C90.6486 80.3212 86.5487 86.462 81.4203 91.8244C71.5256 102.173 61.6283 105.842 61.5328 105.874C60.35 106.253 59.1055 106.437 57.8547 106.42V106.42ZM55.5271 101.062C56.3852 101.241 58.3608 101.509 59.6484 101.072C61.2842 100.518 69.568 96.5254 77.3091 88.4291C88.0045 77.2429 93.4314 63.1808 93.4393 46.6335C93.4202 46.2983 93.1641 43.9072 89.7571 42.3995C84.6365 40.1333 59.5199 30.5882 59.2668 30.492L59.1974 30.4647C58.671 30.2597 56.9959 29.8279 55.8412 30.3903L55.61 30.4905C55.33 30.5973 27.5828 41.189 24.6235 42.3349C22.5535 43.1366 21.8159 45.1225 21.8159 46.7137C21.8159 46.83 21.8127 46.9992 21.8081 47.2178C21.5716 58.5401 24.3907 86.4007 55.5271 101.062Z" fill="#002C46"/>
<path d="M54.5658 28.1262C54.5658 28.1262 26.5664 38.814 23.5664 39.9757C20.5665 41.1374 19.0665 43.9255 19.0665 46.7136C19.0665 49.5017 16.8166 85.8829 54.5658 103.473C54.5658 103.473 57.9919 104.354 60.5912 103.473C63.1905 102.592 96.1898 87.7221 96.1898 46.5974C96.1898 46.5974 96.1898 42.4153 90.9399 40.0918C85.6901 37.7684 60.3078 28.1262 60.3078 28.1262C60.3078 28.1262 57.1907 26.8483 54.5658 28.1262Z" fill="#037BC4"/>
<path opacity="0.2" d="M57.5645 36.4907V93.5062C57.5645 93.5062 85.8138 80.8682 85.5639 47.6431L57.5645 36.4907Z" fill="black"/>
<path d="M179.782 154.6H0.217918C0.160122 154.6 0.104694 154.569 0.0638264 154.515C0.022959 154.46 0 154.386 0 154.308C0 154.231 0.022959 154.156 0.0638264 154.102C0.104694 154.047 0.160122 154.016 0.217918 154.016H179.782C179.84 154.016 179.895 154.047 179.936 154.102C179.977 154.156 180 154.231 180 154.308C180 154.386 179.977 154.46 179.936 154.515C179.895 154.569 179.84 154.6 179.782 154.6Z" fill="#CBCBCB"/>
</svg>
