<svg width="180" height="180" viewBox="0 0 180 180" fill="none" xmlns="http://www.w3.org/2000/svg">
<path d="M180 28H0V61.2842H180V28Z" fill="url(#paint0_linear)"/>
<path d="M178.686 29.0894H1.05078V59.5148H178.686V29.0894Z" fill="white"/>
<path d="M115.224 35.301H11.9619V53.4089H115.224V35.301Z" fill="#F5F5F5"/>
<path d="M155.28 36.4562C154.018 35.1438 152.409 34.2187 150.64 33.7896C148.871 33.3605 147.016 33.4453 145.293 34.0339C143.571 34.6225 142.052 35.6906 140.916 37.1125C139.779 38.5345 139.072 40.2513 138.878 42.0612C138.684 43.8711 139.01 45.6989 139.818 47.3297C140.627 48.9606 141.884 50.3268 143.442 51.2679C145 52.2089 146.795 52.6856 148.615 52.6419C150.434 52.5983 152.204 52.0362 153.715 51.0216L160.628 58.2117C160.713 58.3006 160.831 58.352 160.954 58.3544C161.077 58.3568 161.197 58.3101 161.286 58.2246L163.008 56.5685C163.097 56.4829 163.149 56.3656 163.151 56.2422C163.154 56.1188 163.107 55.9995 163.021 55.9106L156.109 48.7205C157.434 46.9048 158.077 44.6803 157.926 42.4375C157.774 40.1947 156.837 38.077 155.28 36.4562ZM153.127 48.014C152.152 48.9516 150.92 49.5789 149.589 49.8166C148.257 50.0544 146.885 49.8919 145.645 49.3497C144.406 48.8075 143.355 47.91 142.626 46.7707C141.897 45.6313 141.522 44.3013 141.548 42.9488C141.575 41.5963 142.002 40.2821 142.775 39.1723C143.549 38.0625 144.634 37.2071 145.894 36.7141C147.154 36.2211 148.531 36.1127 149.853 36.4027C151.174 36.6927 152.38 37.3679 153.317 38.3431C154.574 39.6508 155.261 41.4044 155.225 43.218C155.189 45.0316 154.434 46.7568 153.127 48.014V48.014Z" fill="url(#paint1_linear)"/>
<path d="M143.32 41.1821C142.551 41.1821 142.55 42.3774 143.32 42.3774C144.09 42.3774 144.091 41.1821 143.32 41.1821Z" fill="url(#paint2_linear)"/>
<path d="M148.683 37.3529C147.707 37.3236 146.74 37.5432 145.873 37.991C145.006 38.4389 144.268 39.1002 143.727 39.9126C143.4 40.4241 144.328 40.876 144.653 40.3673C145.482 39.0691 147.058 38.245 148.762 38.2876C149.623 38.318 150.464 38.5607 151.209 38.9942C151.955 39.4277 152.581 40.0386 153.034 40.7725C153.361 41.3108 154.216 40.8214 153.891 40.2866C152.848 38.5671 150.821 37.4014 148.683 37.3529Z" fill="url(#paint3_linear)"/>
<path d="M155.28 35.4052C154.018 34.0928 152.409 33.1677 150.64 32.7386C148.871 32.3095 147.016 32.3942 145.293 32.9829C143.571 33.5715 142.052 34.6395 140.916 36.0615C139.779 37.4835 139.072 39.2003 138.878 41.0102C138.684 42.8201 139.01 44.6478 139.818 46.2787C140.627 47.9096 141.884 49.2758 143.442 50.2168C145 51.1578 146.795 51.6345 148.615 51.5909C150.434 51.5473 152.204 50.9851 153.715 49.9705L160.628 57.1606C160.713 57.2496 160.831 57.3009 160.954 57.3034C161.077 57.3058 161.197 57.2591 161.286 57.1736L163.008 55.5174C163.097 55.4319 163.149 55.3146 163.151 55.1912C163.154 55.0678 163.107 54.9485 163.021 54.8595L156.109 47.6694C157.434 45.8538 158.077 43.6293 157.926 41.3865C157.774 39.1437 156.837 37.026 155.28 35.4052V35.4052ZM153.127 46.963C152.152 47.9005 150.92 48.5278 149.589 48.7656C148.257 49.0033 146.885 48.8409 145.645 48.2987C144.406 47.7565 143.355 46.859 142.626 45.7196C141.897 44.5803 141.522 43.2503 141.548 41.8978C141.575 40.5453 142.002 39.2311 142.775 38.1213C143.549 37.0115 144.634 36.156 145.894 35.6631C147.154 35.1701 148.531 35.0617 149.853 35.3517C151.174 35.6416 152.38 36.3169 153.317 37.2921C154.574 38.5998 155.261 40.3533 155.225 42.167C155.189 43.9806 154.434 45.7058 153.127 46.963V46.963Z" fill="#037BC4"/>
<path d="M143.32 40.1311C142.551 40.1311 142.55 41.3264 143.32 41.3264C144.09 41.3264 144.091 40.1311 143.32 40.1311Z" fill="#037BC4"/>
<path d="M148.683 36.3019C147.707 36.2726 146.74 36.4922 145.873 36.94C145.006 37.3878 144.268 38.0491 143.727 38.8616C143.4 39.373 144.328 39.825 144.653 39.3162C145.482 38.0181 147.058 37.194 148.762 37.2366C149.623 37.267 150.464 37.5097 151.209 37.9432C151.955 38.3767 152.581 38.9875 153.034 39.7215C153.361 40.2598 154.216 39.7703 153.891 39.2355C152.848 37.5161 150.821 36.3503 148.683 36.3019Z" fill="#037BC4"/>
<path d="M180 77.6703H1.01367V89.8505H180V77.6703Z" fill="#E0E0E0"/>
<path d="M180 98.1082H1.01367V110.288H180V98.1082Z" fill="#E0E0E0"/>
<path d="M180 118.546H1.01367V130.726H180V118.546Z" fill="#E0E0E0"/>
<path d="M180 138.984H1.01367V151.164H180V138.984Z" fill="#E0E0E0"/>
<defs>
<linearGradient id="paint0_linear" x1="90" y1="61.2842" x2="90" y2="28" gradientUnits="userSpaceOnUse">
<stop stop-color="#808080" stop-opacity="0.25"/>
<stop offset="0.53514" stop-color="#808080" stop-opacity="0.12"/>
<stop offset="1" stop-color="#808080" stop-opacity="0.1"/>
</linearGradient>
<linearGradient id="paint1_linear" x1="150.995" y1="58.3545" x2="150.995" y2="33.5211" gradientUnits="userSpaceOnUse">
<stop stop-color="#B3B3B3" stop-opacity="0.25"/>
<stop offset="0.53514" stop-color="#B3B3B3" stop-opacity="0.1"/>
<stop offset="1" stop-color="#B3B3B3" stop-opacity="0.05"/>
</linearGradient>
<linearGradient id="paint2_linear" x1="143.32" y1="42.3774" x2="143.32" y2="41.1821" gradientUnits="userSpaceOnUse">
<stop stop-opacity="0.12"/>
<stop offset="0.55135" stop-opacity="0.09"/>
<stop offset="1" stop-opacity="0.02"/>
</linearGradient>
<linearGradient id="paint3_linear" x1="9262.71" y1="822.251" x2="9262.71" y2="757.532" gradientUnits="userSpaceOnUse">
<stop stop-opacity="0.12"/>
<stop offset="0.55135" stop-opacity="0.09"/>
<stop offset="1" stop-opacity="0.02"/>
</linearGradient>
</defs>
</svg>
