<svg width="234" height="160" viewBox="0 0 234 160" fill="none" xmlns="http://www.w3.org/2000/svg">
<path d="M233.834 0H0V43.2388H233.834V0Z" fill="url(#paint0_linear)"/>
<path d="M232.127 1.41528H1.36523V40.9402H232.127V1.41528Z" fill="white"/>
<path d="M149.684 9.48462H15.5391V33.0081H149.684V9.48462Z" fill="#F5F5F5"/>
<path d="M201.72 10.9853C200.081 9.28042 197.99 8.07864 195.692 7.52121C193.394 6.96378 190.985 7.07387 188.747 7.83855C186.509 8.60322 184.536 9.99071 183.06 11.838C181.584 13.6852 180.665 15.9155 180.413 18.2666C180.16 20.6178 180.584 22.9923 181.634 25.1109C182.685 27.2295 184.318 29.0044 186.342 30.2268C188.367 31.4492 190.698 32.0685 193.062 32.0118C195.426 31.9552 197.724 31.2249 199.688 29.9068L208.668 39.2474C208.779 39.3629 208.931 39.4296 209.091 39.4328C209.252 39.4359 209.407 39.3753 209.522 39.2642L211.76 37.1127C211.876 37.0016 211.942 36.8491 211.946 36.6889C211.949 36.5286 211.888 36.3736 211.777 36.258L202.797 26.9175C204.519 24.5588 205.354 21.669 205.157 18.7555C204.961 15.8419 203.744 13.0909 201.72 10.9853ZM198.923 25.9998C197.656 27.2177 196.057 28.0327 194.327 28.3415C192.597 28.6504 190.814 28.4393 189.204 27.735C187.594 27.0307 186.229 25.8647 185.282 24.3846C184.334 22.9045 183.847 21.1767 183.882 19.4197C183.916 17.6627 184.471 15.9554 185.476 14.5138C186.481 13.0721 187.891 11.9608 189.527 11.3203C191.164 10.6799 192.953 10.5391 194.67 10.9158C196.386 11.2925 197.952 12.1697 199.17 13.4366C200.804 15.1354 201.695 17.4133 201.649 19.7694C201.602 22.1255 200.622 24.3666 198.923 25.9998Z" fill="url(#paint1_linear)"/>
<path d="M186.185 17.1248C185.185 17.1248 185.184 18.6775 186.185 18.6775C187.184 18.6775 187.185 17.1248 186.185 17.1248Z" fill="url(#paint2_linear)"/>
<path d="M193.15 12.1504C191.883 12.1122 190.627 12.3975 189.501 12.9793C188.374 13.561 187.415 14.4201 186.712 15.4755C186.288 16.14 187.493 16.7271 187.915 16.0662C188.993 14.3798 191.04 13.3092 193.253 13.3646C194.372 13.404 195.464 13.7193 196.433 14.2825C197.401 14.8456 198.215 15.6392 198.803 16.5927C199.227 17.2919 200.338 16.6561 199.917 15.9614C198.561 13.7277 195.929 12.2132 193.15 12.1504Z" fill="url(#paint3_linear)"/>
<path d="M201.72 9.61986C200.081 7.91494 197.99 6.71316 195.692 6.15573C193.394 5.5983 190.985 5.7084 188.747 6.47307C186.509 7.23774 184.536 8.62523 183.06 10.4725C181.584 12.3197 180.665 14.55 180.413 16.9012C180.16 19.2524 180.584 21.6268 181.634 23.7454C182.685 25.864 184.318 27.6389 186.342 28.8613C188.367 30.0838 190.698 30.703 193.062 30.6463C195.426 30.5897 197.724 29.8594 199.688 28.5414L208.668 37.8819C208.779 37.9974 208.931 38.0641 209.091 38.0673C209.252 38.0704 209.407 38.0098 209.522 37.8987L211.76 35.7472C211.876 35.6361 211.942 35.4837 211.946 35.3234C211.949 35.1631 211.888 35.0081 211.777 34.8926L202.797 25.5521C204.519 23.1934 205.354 20.3035 205.157 17.39C204.961 14.4764 203.744 11.7254 201.72 9.61986ZM198.923 24.6343C197.656 25.8523 196.057 26.6672 194.327 26.976C192.597 27.2849 190.814 27.0738 189.204 26.3695C187.594 25.6652 186.229 24.4992 185.282 23.0191C184.334 21.539 183.847 19.8112 183.882 18.0542C183.916 16.2972 184.471 14.59 185.476 13.1483C186.481 11.7066 187.891 10.5953 189.527 9.95485C191.164 9.31442 192.953 9.17365 194.67 9.55034C196.386 9.92703 197.952 10.8043 199.17 12.0711C200.804 13.7699 201.695 16.0479 201.649 18.4039C201.602 20.76 200.622 23.0011 198.923 24.6343Z" fill="#037BC4"/>
<path d="M186.185 15.7593C185.185 15.7593 185.184 17.312 186.185 17.312C187.184 17.312 187.185 15.7593 186.185 15.7593Z" fill="#037BC4"/>
<path d="M193.15 10.7849C191.883 10.7467 190.627 11.032 189.501 11.6138C188.374 12.1956 187.415 13.0547 186.712 14.1101C186.288 14.7745 187.493 15.3616 187.915 14.7007C188.993 13.0143 191.04 11.9437 193.253 11.9991C194.372 12.0385 195.464 12.3538 196.433 12.917C197.401 13.4801 198.215 14.2737 198.803 15.2272C199.227 15.9264 200.338 15.2906 199.917 14.5959C198.561 12.3622 195.929 10.8478 193.15 10.7849Z" fill="#037BC4"/>
<path d="M233.834 64.5256H1.31641V80.3486H233.834V64.5256Z" fill="#E0E0E0"/>
<path d="M233.834 91.0759H1.31641V106.899H233.834V91.0759Z" fill="#E0E0E0"/>
<path d="M233.834 117.627H1.31641V133.45H233.834V117.627Z" fill="#E0E0E0"/>
<path d="M233.834 144.177H1.31641V160H233.834V144.177Z" fill="#E0E0E0"/>
<defs>
<linearGradient id="paint0_linear" x1="116.917" y1="43.2388" x2="116.917" y2="0" gradientUnits="userSpaceOnUse">
<stop stop-color="#808080" stop-opacity="0.25"/>
<stop offset="0.53514" stop-color="#808080" stop-opacity="0.12"/>
<stop offset="1" stop-color="#808080" stop-opacity="0.1"/>
</linearGradient>
<linearGradient id="paint1_linear" x1="196.153" y1="39.4329" x2="196.153" y2="7.17242" gradientUnits="userSpaceOnUse">
<stop stop-color="#B3B3B3" stop-opacity="0.25"/>
<stop offset="0.53514" stop-color="#B3B3B3" stop-opacity="0.1"/>
<stop offset="1" stop-color="#B3B3B3" stop-opacity="0.05"/>
</linearGradient>
<linearGradient id="paint2_linear" x1="186.185" y1="18.6775" x2="186.185" y2="17.1248" gradientUnits="userSpaceOnUse">
<stop stop-opacity="0.12"/>
<stop offset="0.55135" stop-opacity="0.09"/>
<stop offset="1" stop-opacity="0.02"/>
</linearGradient>
<linearGradient id="paint3_linear" x1="12033" y1="1031.79" x2="12033" y2="947.719" gradientUnits="userSpaceOnUse">
<stop stop-opacity="0.12"/>
<stop offset="0.55135" stop-opacity="0.09"/>
<stop offset="1" stop-opacity="0.02"/>
</linearGradient>
</defs>
</svg>
