<svg width="40" height="40" viewBox="0 0 40 40" fill="none" xmlns="http://www.w3.org/2000/svg">
<path d="M34.2718 25.3171C32.1902 25.3171 30.1463 24.9915 28.2094 24.3515C27.2604 24.0278 26.0936 24.3247 25.5144 24.9196L21.6915 27.8056C17.2579 25.4389 14.5269 22.7088 12.1926 18.3086L14.9936 14.5852C15.7214 13.8585 15.9824 12.7969 15.6697 11.8008C15.0268 9.85374 14.7003 7.81082 14.7003 5.72832C14.7004 4.22391 13.4765 3 11.9722 3H5.72823C4.22391 3 3 4.22391 3 5.72823C3 22.9717 17.0283 37 34.2718 37C35.7761 37 37 35.7761 37 34.2718V28.0453C36.9999 26.541 35.776 25.3171 34.2718 25.3171Z" fill="#010C13"/>
</svg>
