<svg width="182" height="180" viewBox="0 0 182 180" fill="none" xmlns="http://www.w3.org/2000/svg">
<path d="M170.014 51.5179H73.1572V71.4465H170.014V51.5179Z" stroke="#002C46" stroke-miterlimit="10"/>
<path d="M15.3564 79.8259C18.1184 75.51 23.3478 72.5983 29.3441 72.5983C38.2201 72.5983 45.4156 78.9782 45.4156 86.8483C45.4156 91.8801 42.4742 96.3027 38.0329 98.8383" stroke="#002C46" stroke-miterlimit="10"/>
<path d="M163.157 55.3751H66.2998V75.3036H163.157V55.3751Z" fill="#037BC4"/>
<path d="M5.07131 36.3571C5.89975 36.3571 6.57133 35.6855 6.57133 34.8571C6.57133 34.0286 5.89975 33.3571 5.07131 33.3571C4.24287 33.3571 3.57129 34.0286 3.57129 34.8571C3.57129 35.6855 4.24287 36.3571 5.07131 36.3571Z" fill="#037BC4"/>
<path d="M10.2139 36.3571C11.0423 36.3571 11.7139 35.6855 11.7139 34.8571C11.7139 34.0286 11.0423 33.3571 10.2139 33.3571C9.38545 33.3571 8.71387 34.0286 8.71387 34.8571C8.71387 35.6855 9.38545 36.3571 10.2139 36.3571Z" fill="#037BC4"/>
<path d="M15.3574 36.3571C16.1859 36.3571 16.8575 35.6855 16.8575 34.8571C16.8575 34.0286 16.1859 33.3571 15.3574 33.3571C14.529 33.3571 13.8574 34.0286 13.8574 34.8571C13.8574 35.6855 14.529 36.3571 15.3574 36.3571Z" fill="#037BC4"/>
<path d="M181 31H1V148H181V31Z" stroke="#002C46" stroke-miterlimit="10"/>
<path d="M1 37.5004H181" stroke="#002C46" stroke-miterlimit="10"/>
<path d="M5.50002 35.7143C6.32846 35.7143 7.00004 35.0427 7.00004 34.2143C7.00004 33.3858 6.32846 32.7142 5.50002 32.7142C4.67158 32.7142 4 33.3858 4 34.2143C4 35.0427 4.67158 35.7143 5.50002 35.7143Z" stroke="#002C46" stroke-miterlimit="10"/>
<path d="M10.6436 35.7143C11.472 35.7143 12.1436 35.0427 12.1436 34.2143C12.1436 33.3858 11.472 32.7142 10.6436 32.7142C9.81514 32.7142 9.14355 33.3858 9.14355 34.2143C9.14355 35.0427 9.81514 35.7143 10.6436 35.7143Z" stroke="#002C46" stroke-miterlimit="10"/>
<path d="M15.7852 35.7143C16.6136 35.7143 17.2852 35.0427 17.2852 34.2143C17.2852 33.3858 16.6136 32.7142 15.7852 32.7142C14.9567 32.7142 14.2852 33.3858 14.2852 34.2143C14.2852 35.0427 14.9567 35.7143 15.7852 35.7143Z" stroke="#002C46" stroke-miterlimit="10"/>
<path d="M57.5127 37.5004V148.166" stroke="#002C46" stroke-miterlimit="10"/>
<path d="M109.264 91.9108H77.7637V96.1965H109.264V91.9108Z" fill="#F2F2F2"/>
<path d="M158.764 91.9108H127.264V96.1965H158.764V91.9108Z" fill="#F2F2F2"/>
<path d="M110.978 89.7678H79.4775V94.0535H110.978V89.7678Z" stroke="#002C46" stroke-miterlimit="10"/>
<path d="M109.264 125.125H77.7637V129.411H109.264V125.125Z" fill="#F2F2F2"/>
<path d="M110.978 122.982H79.4775V127.268H110.978V122.982Z" stroke="#002C46" stroke-miterlimit="10"/>
<path d="M158.87 108.089H77.8701V112.375H158.87V108.089Z" fill="#F2F2F2"/>
<path d="M160.585 106.375H79.585V110.661H160.585V106.375Z" stroke="#002C46" stroke-miterlimit="10"/>
<path d="M160.479 89.7678H128.979V94.0535H160.479V89.7678Z" stroke="#002C46" stroke-miterlimit="10"/>
<path d="M9.81641 89.8477C9.81641 95.4475 13.4953 100.286 18.83 102.58L11.2011 84.0905C10.2932 85.874 9.81884 87.8465 9.81641 89.8477ZM36.6062 89.1339C36.6062 87.3856 35.8962 86.1748 35.2873 85.2324C34.4765 84.0671 33.717 83.0803 33.717 81.915C33.717 80.6146 34.8317 79.4041 36.4023 79.4041C36.4732 79.4041 36.5404 79.4119 36.6098 79.4154C33.5402 76.979 29.7284 75.6683 25.8096 75.7018C20.2223 75.7018 15.3066 78.2375 12.4469 82.0781C12.8221 82.0881 13.1761 82.0948 13.4761 82.0948C15.149 82.0948 17.7384 81.9153 17.7384 81.9153C18.6006 81.8703 18.7022 82.9904 17.8413 83.0806C17.8413 83.0806 16.9746 83.1707 16.0105 83.2154L21.8346 98.5385L25.3348 89.2537L22.8428 83.2151C21.9815 83.1705 21.1657 83.0803 21.1657 83.0803C20.3038 83.0356 20.4049 81.8701 21.2667 81.915C21.2667 81.915 23.9079 82.0945 25.4794 82.0945C27.1519 82.0945 29.7417 81.915 29.7417 81.915C30.6044 81.8701 30.7057 82.9901 29.8442 83.0803C29.8442 83.0803 28.976 83.1705 28.0137 83.2151L33.7933 98.4222L35.3883 93.707C36.08 91.7503 36.6062 90.3449 36.6062 89.1339H36.6062Z" fill="#037BC4"/>
<path d="M26.0895 91.0852L21.291 103.418C24.5247 104.257 27.9281 104.179 31.1199 103.193C31.0757 103.132 31.0376 103.067 31.0061 102.998L26.0895 91.0852ZM39.8423 83.0607C39.9149 83.5421 39.9509 84.0284 39.95 84.5153C39.95 85.9509 39.6469 87.5646 38.7339 89.5824L33.8487 102.076C38.6034 99.6233 41.8015 95.0669 41.8015 89.8478C41.7974 87.4465 41.1185 85.0947 39.8423 83.0607L39.8423 83.0607Z" fill="#037BC4"/>
</svg>
